<svg width="565" height="437" viewBox="0 0 565 437" fill="none" xmlns="http://www.w3.org/2000/svg">
<path d="M338.45 47.855C336.65 46.855 334.25 46.955 331.55 48.555L99.6499 182.455C94.2499 185.555 89.9499 193.055 89.9499 199.155L90.4499 364.655C90.4499 367.655 91.5499 369.855 93.2499 370.855L83.9499 365.455C82.1499 364.455 81.1499 362.255 81.1499 359.255L80.6499 193.755C80.6499 187.655 84.9499 180.155 90.3499 177.055L322.25 43.155C324.95 41.655 327.35 41.455 329.15 42.555L338.45 47.855Z" fill="#FCFAFC"/>
<path d="M331.55 48.555C336.95 45.455 341.25 47.955 341.25 54.055L341.75 219.555C341.75 225.755 337.45 233.255 332.05 236.355L100.15 370.255C94.7499 373.355 90.45 370.855 90.45 364.655L89.95 199.155C89.95 193.055 94.2499 185.555 99.6499 182.455L331.55 48.555Z" fill="#EEECF0"/>
<path d="M99.1498 279.855C96.8498 279.855 96.5498 277.255 96.5498 276.155C96.5498 272.055 99.5498 266.855 103.05 264.855C105.95 263.155 108.15 264.155 108.25 267.755C108.25 271.855 105.25 277.055 101.75 279.055C100.75 279.555 99.8498 279.855 99.1498 279.855ZM318.85 233.455L113.35 352.055L112.85 185.255L318.35 66.655L318.85 233.455ZM331.85 174.955C331.85 176.655 330.65 178.655 329.15 179.555C327.75 180.455 326.55 179.655 326.45 178.055L326.25 113.855C326.25 112.155 327.45 110.155 328.85 109.255C330.35 108.455 331.55 109.055 331.55 110.755L331.85 174.955Z" fill="white"/>
<path d="M305.45 57.855L286.85 68.655L305.45 57.855ZM262.95 82.455L281.85 71.555L262.95 82.455Z" fill="#EEECF0"/>
<path d="M272.45 176.755C272.55 212.655 247.35 256.355 216.05 274.455L215.85 209.455L272.45 176.755Z" fill="#F992C7"/>
<path d="M215.65 144.355L215.85 209.355L159.25 242.055C159.15 206.155 184.35 162.455 215.65 144.355Z" fill="#748CE6"/>
<path d="M262.05 182.755C262.05 212.055 241.55 247.755 215.95 262.455C190.45 277.255 169.75 265.355 169.65 236.055C169.65 206.755 190.25 171.055 215.75 156.255C241.15 141.655 262.05 153.355 262.05 182.755Z" fill="#FCFAFC"/>
<path d="M197.25 254.855C183.85 254.855 182.35 239.855 182.35 233.455C182.35 210.055 199.55 180.355 219.85 168.555C225.05 165.555 230.15 163.955 234.45 163.955C247.95 163.955 249.45 178.955 249.45 185.355C249.45 208.855 232.25 238.555 211.95 250.255C206.65 253.255 201.55 254.855 197.25 254.855Z" fill="#FFD857"/>
<path d="M191.15 262.455C190.85 262.355 190.65 262.155 190.75 261.855C190.85 261.555 191.05 261.355 191.35 261.455C192.85 261.755 194.55 261.755 196.15 261.655C196.45 261.655 196.75 261.855 196.75 262.155C196.75 262.455 196.55 262.755 196.25 262.755C194.45 262.755 192.75 262.655 191.15 262.455ZM199.25 261.755C199.15 261.455 199.35 261.155 199.65 261.155C200.75 260.955 201.95 260.655 203.05 260.255C203.35 260.155 203.65 260.355 203.75 260.655C203.85 260.955 203.65 261.255 203.35 261.355C202.15 261.755 200.95 262.055 199.85 262.255C199.65 262.255 199.35 262.055 199.25 261.755ZM187.65 261.455C186.45 261.055 185.35 260.455 184.35 259.755C184.15 259.555 184.05 259.255 184.15 259.055C184.35 258.855 184.65 258.755 184.85 258.855C185.85 259.455 186.85 260.055 187.95 260.455C188.25 260.555 188.35 260.855 188.25 261.155C188.25 261.455 187.85 261.555 187.65 261.455ZM206.65 260.155C206.45 260.155 206.25 260.055 206.15 259.855C206.05 259.555 206.15 259.255 206.45 259.155C207.55 258.755 208.65 258.255 209.65 257.655C209.95 257.555 210.25 257.655 210.35 257.855C210.45 258.055 210.35 258.455 210.15 258.555C209.75 258.755 207.05 260.155 206.65 260.155ZM181.45 257.455C180.65 256.555 179.85 255.655 179.15 254.655C178.95 254.455 179.05 254.055 179.25 253.955C179.45 253.755 179.85 253.855 179.95 254.055C180.65 255.055 181.35 255.955 182.15 256.755C182.35 256.955 182.35 257.355 182.15 257.555C181.95 257.655 181.65 257.655 181.45 257.455ZM212.65 256.655C212.45 256.355 212.55 256.055 212.85 255.955C213.85 255.355 214.85 254.755 215.85 254.055C216.05 253.855 216.45 253.955 216.55 254.155C216.75 254.355 216.65 254.755 216.45 254.855C215.45 255.555 214.45 256.155 213.35 256.755C213.05 256.955 212.75 256.855 212.65 256.655ZM218.65 252.655C218.45 252.455 218.55 252.055 218.75 251.855C219.65 251.155 220.65 250.455 221.55 249.655C221.75 249.455 222.15 249.455 222.35 249.755C222.55 249.955 222.55 250.355 222.25 250.555C221.35 251.355 220.35 252.055 219.45 252.855C219.15 252.955 218.85 252.955 218.65 252.655ZM177.25 251.355C176.75 250.255 176.25 249.155 175.95 247.955C175.85 247.655 176.05 247.355 176.25 247.255C176.55 247.155 176.85 247.355 176.95 247.555C177.35 248.755 177.75 249.855 178.25 250.855C178.35 251.155 178.25 251.455 177.95 251.555C177.75 251.755 177.45 251.655 177.25 251.355ZM224.15 248.155C223.95 247.955 223.95 247.555 224.15 247.355C225.05 246.555 225.85 245.755 226.75 244.855C226.95 244.655 227.35 244.655 227.55 244.855C227.75 245.055 227.75 245.455 227.55 245.655C226.65 246.555 225.85 247.355 224.95 248.155C224.75 248.355 224.35 248.355 224.15 248.155ZM175.05 244.455C174.85 243.355 174.65 242.055 174.45 240.855C174.45 240.555 174.65 240.255 174.95 240.255C175.25 240.255 175.55 240.455 175.55 240.755C175.65 241.955 175.85 243.155 176.15 244.255C176.25 244.555 176.05 244.855 175.75 244.855C175.35 244.955 175.05 244.755 175.05 244.455ZM229.35 243.055C229.15 242.855 229.15 242.555 229.35 242.255L231.75 239.555C231.95 239.355 232.25 239.255 232.55 239.455C232.75 239.655 232.85 239.955 232.65 240.255L230.25 242.955C229.85 243.255 229.55 243.255 229.35 243.055ZM174.75 237.755C174.45 237.755 174.25 237.555 174.25 237.255V233.655C174.25 233.355 174.45 233.155 174.75 233.155C175.05 233.155 175.25 233.455 175.25 233.755V237.255C175.25 237.455 175.05 237.755 174.75 237.755ZM233.95 237.655C233.75 237.455 233.65 237.155 233.85 236.855C234.55 235.955 235.35 234.955 236.05 233.955C236.25 233.755 236.55 233.655 236.85 233.855C237.05 234.055 237.15 234.355 236.95 234.655C236.25 235.655 235.55 236.555 234.75 237.555C234.55 237.755 234.25 237.855 233.95 237.655ZM238.25 231.855C238.05 231.655 237.95 231.355 238.15 231.155C238.85 230.155 239.45 229.155 240.15 228.155C240.35 227.855 240.65 227.855 240.85 227.955C241.15 228.155 241.15 228.455 241.05 228.655C240.45 229.655 239.75 230.655 239.05 231.655C238.85 231.955 238.55 232.055 238.25 231.855ZM174.85 230.555C174.55 230.555 174.35 230.255 174.35 229.955C174.45 228.755 174.55 227.555 174.75 226.355C174.75 226.055 175.05 225.855 175.35 225.855C175.65 225.855 175.85 226.155 175.85 226.455C175.65 227.655 175.55 228.855 175.45 229.955C175.35 230.355 175.15 230.555 174.85 230.555ZM242.15 225.755C241.85 225.655 241.85 225.255 241.95 225.055C242.55 224.055 243.15 222.955 243.65 221.955C243.75 221.655 244.15 221.555 244.35 221.755C244.65 221.855 244.75 222.255 244.55 222.455C243.95 223.555 243.35 224.555 242.75 225.655C242.75 225.855 242.35 225.955 242.15 225.755ZM175.75 223.455C175.45 223.355 175.25 223.155 175.35 222.855C175.55 221.655 175.85 220.455 176.15 219.355C176.25 219.055 176.55 218.855 176.75 218.955C177.05 219.055 177.25 219.355 177.15 219.555C176.85 220.755 176.65 221.855 176.45 223.055C176.35 223.355 176.05 223.455 175.75 223.455ZM245.55 219.455C245.25 219.355 245.15 218.955 245.35 218.755C245.85 217.655 246.35 216.555 246.85 215.555C246.95 215.255 247.25 215.155 247.55 215.255C247.85 215.355 247.95 215.655 247.85 215.955L246.35 219.255C246.15 219.455 245.85 219.555 245.55 219.455ZM177.35 216.455C177.05 216.355 176.85 216.055 176.95 215.755C177.25 214.655 177.65 213.455 178.05 212.255C178.15 211.955 178.45 211.855 178.75 211.955C179.05 212.055 179.15 212.355 179.05 212.655C178.65 213.755 178.35 214.955 178.05 216.055C177.95 216.355 177.65 216.555 177.35 216.455ZM248.55 212.855C248.25 212.755 248.15 212.455 248.25 212.155C248.65 211.055 249.15 209.955 249.55 208.855C249.65 208.555 249.95 208.455 250.25 208.555C250.55 208.655 250.65 208.955 250.55 209.255C250.15 210.355 249.75 211.555 249.25 212.655C249.15 212.855 248.75 213.055 248.55 212.855ZM179.55 209.555C179.25 209.455 179.15 209.155 179.25 208.855C179.65 207.755 180.15 206.555 180.55 205.455C180.65 205.155 180.95 205.055 181.25 205.155C181.55 205.255 181.65 205.555 181.55 205.855C181.05 206.955 180.65 208.055 180.25 209.155C180.15 209.555 179.85 209.655 179.55 209.555ZM250.95 206.155C250.65 206.055 250.55 205.755 250.55 205.455C250.95 204.355 251.25 203.155 251.55 202.055C251.65 201.755 251.95 201.555 252.25 201.655C252.55 201.755 252.75 202.055 252.65 202.355C252.35 203.455 251.95 204.655 251.65 205.855C251.55 206.055 251.25 206.255 250.95 206.155ZM182.25 202.955C181.95 202.855 181.85 202.555 181.95 202.255C182.45 201.155 182.95 200.055 183.55 198.955C183.65 198.655 184.05 198.555 184.25 198.755C184.55 198.855 184.65 199.255 184.45 199.455C183.95 200.555 183.45 201.555 182.95 202.655C182.85 202.955 182.55 203.055 182.25 202.955ZM252.95 199.255C252.65 199.155 252.45 198.855 252.55 198.655C252.85 197.455 253.05 196.355 253.25 195.155C253.35 194.855 253.55 194.655 253.85 194.755C254.15 194.855 254.35 195.055 254.25 195.355C254.05 196.555 253.85 197.755 253.55 198.855C253.55 199.155 253.25 199.255 252.95 199.255ZM185.45 196.455C185.15 196.355 185.05 195.955 185.25 195.755C185.85 194.655 186.45 193.655 187.05 192.655C187.25 192.355 187.55 192.355 187.75 192.455C188.05 192.655 188.05 192.955 187.95 193.155C187.35 194.155 186.75 195.255 186.15 196.255C186.05 196.555 185.65 196.655 185.45 196.455ZM254.25 192.155C253.95 192.155 253.75 191.855 253.75 191.555C253.95 190.355 254.05 189.155 254.15 188.055C254.15 187.755 254.45 187.555 254.75 187.555C255.05 187.555 255.25 187.855 255.25 188.155C255.15 189.355 255.05 190.555 254.85 191.755C254.75 191.955 254.55 192.155 254.25 192.155ZM189.05 190.255C188.75 190.055 188.75 189.755 188.85 189.555C189.45 188.555 190.15 187.555 190.85 186.555C191.05 186.355 191.35 186.255 191.65 186.455C191.85 186.655 191.95 186.955 191.75 187.255C191.05 188.255 190.45 189.255 189.75 190.255C189.65 190.355 189.25 190.455 189.05 190.255ZM254.85 184.955C254.55 184.955 254.35 184.755 254.35 184.455C254.35 184.255 254.35 182.755 254.25 180.855C254.25 180.555 254.45 180.255 254.75 180.255C255.05 180.255 255.35 180.455 255.35 180.755C255.45 182.755 255.45 184.155 255.45 184.355C255.35 184.755 255.05 184.955 254.85 184.955ZM193.05 184.255C192.85 184.055 192.75 183.755 192.95 183.455C193.65 182.455 194.45 181.555 195.15 180.555C195.35 180.355 195.65 180.255 195.95 180.455C196.15 180.655 196.25 180.955 196.05 181.255C195.35 182.155 194.55 183.155 193.85 184.055C193.65 184.455 193.35 184.455 193.05 184.255ZM197.55 178.655C197.35 178.455 197.25 178.155 197.45 177.855L199.85 175.155C200.05 174.955 200.35 174.955 200.65 175.155C200.85 175.355 200.85 175.655 200.65 175.955L198.25 178.655C198.15 178.855 197.75 178.855 197.55 178.655ZM254.45 177.855C254.15 177.855 253.95 177.655 253.95 177.355C253.75 176.155 253.55 174.955 253.35 173.855C253.25 173.555 253.45 173.255 253.75 173.255C254.05 173.155 254.35 173.355 254.35 173.655C254.65 174.755 254.85 176.055 254.95 177.255C254.95 177.455 254.75 177.755 254.45 177.855ZM202.45 173.355C202.25 173.155 202.25 172.755 202.45 172.555C203.35 171.655 204.25 170.855 205.05 170.055C205.25 169.855 205.65 169.855 205.85 170.055C206.05 170.255 206.05 170.655 205.85 170.855C204.95 171.655 204.15 172.455 203.25 173.355C202.95 173.555 202.65 173.555 202.45 173.355ZM252.25 170.455C251.85 169.355 251.35 168.255 250.85 167.255C250.75 166.955 250.85 166.655 251.05 166.555C251.35 166.455 251.65 166.555 251.75 166.755C252.25 167.855 252.75 168.955 253.15 170.155C253.25 170.455 253.05 170.755 252.85 170.855C252.65 170.855 252.35 170.755 252.25 170.455ZM208.15 168.755C207.95 168.755 207.85 168.655 207.75 168.555C207.55 168.355 207.55 167.955 207.85 167.755C208.75 166.955 209.75 166.255 210.75 165.555C210.95 165.355 211.35 165.455 211.55 165.655C211.75 165.855 211.65 166.255 211.45 166.455C208.35 168.555 208.55 168.755 208.15 168.755ZM249.05 164.255C248.35 163.255 247.55 162.455 246.75 161.655C246.55 161.455 246.55 161.155 246.75 160.855C246.95 160.655 247.25 160.655 247.55 160.855C248.45 161.655 249.25 162.555 250.05 163.655C250.25 163.855 250.15 164.255 249.95 164.455C249.65 164.555 249.25 164.455 249.05 164.255ZM213.45 164.155C213.25 163.955 213.35 163.555 213.65 163.455C214.65 162.755 215.65 162.155 216.65 161.555C216.95 161.455 217.25 161.455 217.45 161.755C217.55 162.055 217.55 162.355 217.25 162.455C216.65 162.755 215.85 163.255 214.25 164.355C213.95 164.555 213.65 164.455 213.45 164.155ZM219.65 160.555C219.55 160.255 219.65 159.955 219.95 159.855L223.25 158.355C223.55 158.255 223.85 158.355 223.95 158.655C224.05 158.955 223.95 159.255 223.65 159.355C222.55 159.755 221.45 160.255 220.35 160.755C220.15 160.955 219.85 160.855 219.65 160.555ZM244.05 159.555C243.05 158.955 242.05 158.455 240.85 158.155C240.55 158.055 240.45 157.755 240.55 157.455C240.65 157.155 240.95 157.055 241.25 157.155C242.45 157.555 243.55 158.055 244.65 158.655C244.95 158.855 244.95 159.155 244.85 159.355C244.55 159.655 244.25 159.655 244.05 159.555ZM226.35 157.855C226.25 157.555 226.45 157.255 226.75 157.155C227.95 156.855 229.15 156.555 230.35 156.355C230.65 156.255 230.95 156.455 230.95 156.755C230.95 157.055 230.85 157.355 230.55 157.355C229.45 157.555 228.25 157.855 227.15 158.155C226.75 158.355 226.45 158.155 226.35 157.855ZM237.45 157.355C236.35 157.155 235.15 157.155 233.95 157.155C233.65 157.155 233.45 156.955 233.35 156.655C233.35 156.355 233.55 156.155 233.85 156.055C235.15 156.055 236.35 156.055 237.55 156.255C237.85 156.255 238.05 156.555 238.05 156.855C238.05 157.155 237.75 157.355 237.45 157.355Z" fill="#1D2943"/>
<path d="M222.85 203.455C225.25 202.555 228.95 201.655 228.95 209.355C228.95 213.355 227.65 219.355 220.55 224.355V227.555L217.15 229.455V226.455L214.75 227.855V230.855L211.25 232.855V229.855L210.55 230.255L206.65 232.455L202.75 234.655V228.155L206.65 225.955L206.55 201.455L202.65 203.655V197.155L206.55 194.955L210.45 192.755L211.15 192.355V189.255L214.65 187.255V190.355L217.05 188.955V185.855L220.45 183.955V187.155C224.95 185.055 227.85 186.455 227.85 191.955C227.95 196.455 225.95 200.955 222.85 203.455ZM216.75 220.255C219.85 218.455 220.85 215.555 220.85 212.955C220.85 209.155 219.15 208.555 216.85 209.955L214.35 211.355V221.555L216.75 220.255ZM214.35 197.155V205.555L216.45 204.355C219.05 202.855 220.25 200.455 220.15 197.755C220.15 195.855 219.15 194.355 216.35 195.955L214.35 197.155ZM305.65 219.655C305.65 221.755 304.15 224.255 302.45 225.255C300.65 226.355 299.15 225.455 299.15 223.355C299.15 221.355 300.55 218.855 302.35 217.855C304.25 216.855 305.65 217.655 305.65 219.655ZM305.65 100.955C305.65 103.055 304.15 105.555 302.45 106.555C300.65 107.655 299.15 106.755 299.15 104.655C299.15 102.655 300.55 100.155 302.35 99.1549C304.25 98.1549 305.65 98.8549 305.65 100.955ZM130.05 201.855C130.05 203.955 128.55 206.455 126.85 207.455C125.05 208.555 123.55 207.655 123.55 205.555C123.55 203.555 124.95 201.055 126.75 200.055C128.55 199.055 130.05 199.855 130.05 201.855Z" fill="white"/>
<path d="M63.1498 138.855L69.5498 147.455L77.5498 152.055L71.1498 143.555L63.1498 138.855ZM105.55 62.155C103.85 61.155 101.45 61.255 98.8498 62.755L51.5498 89.955C46.2498 93.055 42.0498 100.455 42.0498 106.455L42.1498 142.455C42.1498 145.455 43.2498 147.655 44.9498 148.655L50.7498 152.055C49.0498 151.055 47.9498 148.855 47.9498 145.855L47.8498 109.855C47.8498 103.855 52.0498 96.355 57.3498 93.355L104.65 66.155C107.25 64.655 109.65 64.555 111.35 65.555L105.55 62.155Z" fill="#748CE6"/>
<path d="M104.55 66.155C109.85 63.155 114.05 65.655 114.05 71.655L114.15 107.655C114.15 113.655 109.95 121.155 104.65 124.155L83.8498 136.055L77.5498 151.955L71.0498 143.355L57.4498 151.455C52.1498 154.555 47.8498 151.955 47.8498 145.955L47.7498 109.955C47.7498 103.955 51.9498 96.455 57.2498 93.455L104.55 66.155Z" fill="white"/>
<path d="M394.55 33.6549C397.05 32.2549 399.25 33.2549 399.25 36.3549V38.1549C399.25 41.1549 397.15 44.7549 394.55 46.2549C391.95 47.7549 389.85 46.5549 389.85 43.5549V41.7549C389.85 38.7549 391.95 35.1549 394.55 33.6549ZM394.55 51.055C397.15 49.555 399.25 50.7549 399.25 53.7549L399.35 91.6549C399.35 94.6549 397.25 98.255 394.65 99.755C392.05 101.255 389.95 100.055 389.95 97.055L389.85 59.1549C389.95 56.1549 391.95 52.555 394.55 51.055Z" fill="white"/>
<path d="M206.25 383.555V389.955C206.25 394.355 203.35 398.855 197.55 402.155C185.85 408.955 166.75 408.955 154.95 402.155C149.05 398.755 146.05 394.255 146.05 389.755V383.355C146.05 387.855 149.05 392.355 154.95 395.755C166.75 402.555 185.85 402.555 197.55 395.755C203.25 392.455 206.25 387.955 206.25 383.555Z" fill="#FFD857"/>
<path d="M197.35 371.155C209.15 377.955 209.25 389.055 197.45 395.855C185.75 402.655 166.65 402.655 154.85 395.855C143.05 389.055 142.95 377.955 154.75 371.155C166.45 364.355 185.55 364.355 197.35 371.155Z" fill="white"/>
<path d="M243.65 24.355H247.95L244.05 26.355C243.85 26.455 243.75 26.655 243.75 26.755L243.55 31.055L241.85 27.255C241.75 27.055 241.65 26.955 241.45 26.955H237.15L241.05 24.955C241.25 24.855 241.35 24.655 241.35 24.555L241.55 20.255L243.25 24.055C243.35 24.255 243.55 24.355 243.65 24.355Z" fill="white"/>
<path d="M243.55 31.355C243.45 31.355 243.25 31.255 243.25 31.155L241.55 27.355L241.45 27.255H237.15C237.05 27.255 236.85 27.155 236.85 26.955C236.85 26.755 236.85 26.655 237.05 26.555L240.95 24.555C241.05 24.555 241.05 24.455 241.05 24.455L241.25 20.155C241.25 19.955 241.35 19.855 241.55 19.855C241.75 19.855 241.85 19.955 241.95 20.055L243.65 23.855L243.75 23.955H248.05C248.25 23.955 248.35 24.055 248.35 24.255C248.35 24.455 248.35 24.555 248.15 24.655L244.25 26.655C244.15 26.655 244.15 26.755 244.15 26.755L243.95 31.055C243.85 31.155 243.75 31.355 243.55 31.355ZM241.35 26.555C241.65 26.555 241.95 26.755 242.05 27.055L243.25 29.555L243.35 26.755C243.35 26.455 243.55 26.155 243.85 26.055L246.45 24.755H243.65C243.35 24.755 243.05 24.555 242.95 24.255L241.75 21.755L241.65 24.555C241.65 24.855 241.45 25.155 241.15 25.255L238.55 26.555H241.35Z" fill="#797885"/>
<path d="M34.45 26.655C34.45 24.955 35.75 23.655 37.45 23.655C39.15 23.655 40.45 24.955 40.45 26.655C40.45 28.355 39.15 29.655 37.45 29.655C35.85 29.655 34.45 28.355 34.45 26.655Z" fill="white"/>
<path d="M37.45 30.155C35.55 30.155 33.95 28.555 33.95 26.655C33.95 24.755 35.55 23.155 37.45 23.155C39.35 23.155 40.95 24.755 40.95 26.655C40.95 28.655 39.45 30.155 37.45 30.155ZM37.45 24.155C36.05 24.155 34.95 25.255 34.95 26.655C34.95 28.055 36.05 29.155 37.45 29.155C38.85 29.155 39.95 28.055 39.95 26.655C39.95 25.255 38.85 24.155 37.45 24.155ZM41.95 258.855C41.85 258.855 41.75 258.855 41.65 258.755C41.45 258.555 41.45 258.255 41.65 258.055L46.75 252.655C46.95 252.455 47.25 252.455 47.45 252.655C47.65 252.855 47.65 253.155 47.45 253.355L42.35 258.755C42.25 258.755 42.15 258.855 41.95 258.855Z" fill="#797885"/>
<path d="M47.0499 258.855C46.9499 258.855 46.7499 258.755 46.6499 258.655L41.5499 253.255C41.3499 253.055 41.3499 252.755 41.5499 252.555C41.7499 252.355 42.0499 252.355 42.2499 252.555L47.3499 257.955C47.5499 258.155 47.5499 258.455 47.3499 258.655C47.3499 258.755 47.1499 258.855 47.0499 258.855ZM179.75 95.755C179.55 95.555 179.55 95.255 179.75 95.055L183.95 90.755C184.15 90.555 184.45 90.555 184.65 90.755C184.85 90.955 184.85 91.255 184.65 91.455L180.45 95.755C180.25 95.955 179.95 95.955 179.75 95.755Z" fill="#797885"/>
<path d="M183.85 95.755L179.65 91.455C179.45 91.255 179.45 90.955 179.65 90.755C179.85 90.555 180.15 90.555 180.35 90.755L184.55 95.055C184.75 95.255 184.75 95.555 184.55 95.755C184.45 95.955 184.05 95.955 183.85 95.755Z" fill="#797885"/>
<path d="M33.3499 338.555L66.6499 357.855L33.3499 338.555Z" fill="#EEECF0"/>
<path d="M409.45 329.255C409.15 330.855 407.85 332.055 406.25 332.255C404.05 332.455 402.15 330.755 402.15 328.555C402.15 326.555 403.85 324.855 405.85 324.855C408.05 324.855 409.85 326.855 409.45 329.255Z" fill="#EAF0F4"/>
<path d="M375.95 135.555C373.85 137.655 368.85 148.455 368.05 152.455C368.05 152.655 367.95 152.855 367.95 152.955C367.65 152.855 367.35 152.855 366.95 152.755C366.15 152.655 365.35 152.455 364.65 152.255C347.55 148.455 342.35 141.855 345.25 136.355C348.45 129.855 359.05 136.355 361.75 136.055C364.35 135.755 355.25 128.255 360.35 127.255C364.15 126.555 372.95 133.155 375.95 135.555ZM509.75 362.555C509.75 382.055 509.35 388.255 509.35 388.255C508.85 390.955 502.45 390.955 497.75 389.955C493.95 389.155 489.85 386.955 490.35 384.755C490.45 376.455 487.55 343.155 482.65 328.655C480.55 322.455 476.05 311.955 471.55 300.455C473.55 320.655 474.55 317.655 475.65 337.255C476.35 350.055 476.55 363.555 476.65 367.855C476.45 369.355 467.65 368.855 460.35 367.655C455.35 366.855 451.05 365.655 451.25 364.655C451.25 364.655 453.15 352.755 450.35 333.555C447.85 316.455 432.95 268.955 433.15 249.755C433.15 247.455 433.45 245.655 433.95 244.255C436.55 237.355 446.25 240.455 452.85 240.355C458.75 240.255 463.95 241.455 463.95 241.455L465.55 248.155C469.15 247.755 473.85 249.055 478.65 250.955C478.75 251.055 478.95 251.055 479.05 251.155C488.15 254.855 498.65 258.355 498.65 258.355C498.65 258.355 498.55 260.455 498.45 263.755C498.15 274.155 497.95 296.955 501.45 306.655C507.35 323.755 509.75 343.055 509.75 362.555ZM534.55 271.355C532.75 278.055 531.35 280.155 528.35 281.155C525.35 282.155 526.35 276.655 524.95 271.655C523.55 266.655 520.65 269.955 521.25 274.555C521.85 279.155 523.95 281.255 523.05 281.655C519.65 282.955 517.75 280.255 515.75 272.055C514.15 265.755 514.25 258.555 514.25 254.355C516.65 254.555 521.85 253.555 524.35 252.955C526.35 252.455 531.35 251.255 533.05 250.055C535.25 253.755 536.55 264.055 534.55 271.355Z" fill="white"/>
<path d="M533.75 249.755C534.25 252.055 512.85 256.555 512.45 254.355L495.85 184.155C495.85 184.155 495.75 184.455 495.65 185.055C492.95 198.155 492.55 211.655 494.45 224.855L496.65 240.255C499.15 251.655 499.75 252.655 498.45 257.855C497.85 267.955 432.15 258.855 431.75 246.455C430.85 240.255 428.45 196.055 440.15 155.355C435.05 163.155 429.25 169.155 419.95 173.055C418.15 173.855 416.05 174.255 414.05 174.055C413.15 173.955 412.25 173.655 411.35 173.455C400.95 169.755 377.05 161.155 367.45 153.655C365.75 153.155 374.35 134.355 376.05 134.855L411.95 149.055C413.05 149.455 414.25 149.255 414.95 148.355C418.25 144.255 427.95 134.455 436.65 128.055C441.05 124.755 446.65 123.555 451.95 124.755C453.25 125.055 454.05 125.255 454.55 125.355C454.75 128.055 455.35 132.155 457.85 133.355C459.25 134.055 460.95 134.355 463.15 134.455H463.55C463.85 134.455 464.05 134.655 464.05 134.955C464.15 138.655 464.75 143.655 465.65 145.755C467.45 146.255 479.95 149.055 486.95 139.655L487.05 139.455V139.155C487.35 139.355 487.75 139.555 488.05 139.755C499.45 147.055 510.35 157.055 516.55 170.355C521.55 180.755 533.75 249.755 533.75 249.755Z" fill="#3D8ADA"/>
<path d="M486.35 130.655L487.85 139.555C480.15 150.555 465.55 146.155 465.55 146.155C464.55 144.155 463.85 138.955 463.85 134.955C462.25 135.055 459.65 134.655 457.85 133.755C449.75 129.555 457.25 98.555 461.25 94.855C471.75 106.255 482.35 104.455 482.75 104.555C482.95 104.755 483.15 104.955 483.25 105.255C483.85 106.155 484.25 107.155 484.35 108.255C484.85 113.255 480.55 119.455 480.55 119.455L483.05 119.855C483.05 119.855 488.85 110.955 491.85 115.255C494.85 119.455 486.15 128.055 486.15 128.055L486.35 130.655ZM440.55 243.355C440.45 243.355 440.35 243.355 440.35 243.255C440.15 243.155 440.05 242.855 440.15 242.555C441.85 239.455 445.65 238.255 448.45 238.155C454.55 237.955 460.85 241.955 466.75 241.455C469.75 241.155 472.55 239.655 474.55 237.455C476.55 235.255 477.65 232.155 477.55 229.155C477.55 228.855 477.75 228.655 478.05 228.655C478.25 228.655 478.55 228.855 478.55 229.155C478.65 232.355 477.45 235.655 475.35 238.055C473.25 240.455 470.15 242.055 466.85 242.355C460.35 242.955 454.75 238.955 448.45 239.155C445.85 239.255 442.45 240.255 440.95 243.055C440.85 243.255 440.75 243.355 440.55 243.355ZM482.35 217.155C480.35 217.155 478.75 215.155 478.75 212.655C478.75 210.155 480.35 208.155 482.35 208.155C484.35 208.155 485.95 210.155 485.95 212.655C485.95 215.155 484.35 217.155 482.35 217.155ZM482.35 209.255C480.95 209.255 479.75 210.855 479.75 212.755C479.75 214.655 480.95 216.255 482.35 216.255C483.75 216.255 484.95 214.655 484.95 212.755C484.95 210.855 483.85 209.255 482.35 209.255ZM449.65 162.455C449.45 162.455 449.25 162.455 449.05 162.355C447.75 161.955 447.15 160.355 447.65 158.755C448.15 157.155 449.65 156.255 450.85 156.655C452.25 157.055 452.75 158.755 452.25 160.255C451.75 161.655 450.65 162.455 449.65 162.455ZM448.55 159.055C448.25 160.055 448.55 161.155 449.35 161.355C450.15 161.655 451.05 160.855 451.35 159.955C451.65 159.055 451.45 157.855 450.55 157.655C449.65 157.355 448.85 158.155 448.55 159.055ZM478.05 251.055C476.95 249.755 477.25 247.655 478.85 246.255C480.45 244.855 482.55 244.755 483.75 245.955C484.85 247.255 484.55 249.355 482.95 250.755C481.55 252.155 479.35 252.455 478.05 251.055ZM479.45 246.955C478.35 247.955 477.95 249.555 478.75 250.355C479.55 251.155 481.05 251.055 482.25 250.055C483.35 249.055 483.75 247.455 482.95 246.655C482.15 245.655 480.45 246.055 479.45 246.955ZM441.55 223.555C441.85 221.955 443.35 220.655 444.85 220.555C446.55 220.455 447.75 221.655 447.45 223.355C447.15 224.955 445.65 226.255 444.15 226.355C442.45 226.555 441.25 225.255 441.55 223.555ZM444.95 221.555C443.85 221.655 442.75 222.655 442.55 223.755C442.35 224.755 443.05 225.455 444.05 225.455C445.15 225.355 446.25 224.355 446.45 223.255C446.65 222.155 445.95 221.455 444.95 221.555ZM451.35 192.555C451.65 191.055 453.05 189.655 454.65 189.555C456.35 189.455 457.55 190.755 457.25 192.355C456.95 193.955 455.45 195.255 453.95 195.355C452.15 195.555 451.05 194.255 451.35 192.555ZM454.75 190.555C453.65 190.655 452.55 191.655 452.35 192.755C452.15 193.755 452.85 194.455 453.85 194.455C454.95 194.355 456.05 193.355 456.25 192.255C456.45 191.155 455.75 190.455 454.75 190.555ZM455.45 216.555C451.95 215.355 449.75 211.955 447.95 209.055C447.05 207.455 446.05 205.855 444.75 204.555C442.75 202.355 440.25 201.355 438.05 201.755C437.75 201.755 437.55 201.655 437.45 201.355C437.45 201.055 437.55 200.855 437.85 200.755C440.35 200.355 443.25 201.455 445.45 203.855C446.75 205.255 447.75 206.955 448.75 208.555C450.45 211.355 452.45 214.555 455.65 215.655C457.65 216.355 460.05 216.055 462.45 215.055C464.65 214.055 466.55 212.555 468.45 211.055C468.65 210.855 468.95 210.955 469.15 211.155C469.35 211.355 469.25 211.655 469.05 211.855C467.15 213.355 465.15 214.955 462.85 215.955C460.55 216.855 457.85 217.355 455.45 216.555ZM466.25 185.455C464.75 184.155 463.85 182.355 462.85 180.655C461.65 178.455 460.55 176.455 458.55 175.355C456.25 174.055 452.95 174.355 450.15 176.155C447.55 177.855 445.65 180.355 443.85 182.855C443.65 183.055 443.35 183.155 443.15 182.955C442.95 182.755 442.85 182.455 443.05 182.255C444.85 179.855 446.85 177.155 449.55 175.355C452.65 173.355 456.35 173.055 458.95 174.455C461.25 175.655 462.45 177.955 463.65 180.155C464.55 181.755 465.55 183.455 466.85 184.655C470.05 187.555 475.05 187.255 478.55 185.755C482.35 184.055 485.35 180.955 488.35 177.755C488.55 177.555 488.85 177.555 489.05 177.755C489.25 177.955 489.25 178.255 489.05 178.455C485.95 181.755 482.85 184.955 478.85 186.755C474.95 188.555 469.65 188.555 466.25 185.455ZM517.75 243.955C517.55 243.855 517.45 243.555 517.55 243.255C517.65 243.055 517.95 242.955 518.25 243.055C518.85 243.355 519.65 243.355 520.45 243.155C521.45 242.755 522.25 241.955 522.65 240.955C523.35 238.955 522.55 236.755 521.85 235.255C520.95 233.355 519.65 231.655 518.85 229.555C517.35 225.655 518.05 221.055 520.65 217.855C520.85 217.655 521.15 217.555 521.35 217.755C521.55 217.955 521.65 218.255 521.45 218.455C519.15 221.455 518.45 225.655 519.85 229.155C520.55 231.055 521.85 232.855 522.85 234.755C524.05 237.155 524.35 239.455 523.75 241.255C523.35 242.455 522.25 243.555 520.95 244.055C519.75 244.355 518.65 244.455 517.75 243.955ZM509.05 205.755C508.95 205.455 509.15 205.255 509.35 205.155C510.75 204.755 511.55 203.055 511.45 201.655C511.35 198.355 508.25 195.855 507.45 192.455C506.95 190.355 507.55 188.355 508.85 187.255C510.35 185.955 512.55 186.155 513.95 185.155C514.55 184.755 515.05 184.055 514.85 183.355C514.75 183.055 514.95 182.855 515.25 182.755C515.55 182.655 515.75 182.855 515.85 183.155C516.05 184.355 515.35 185.455 514.55 186.055C513.05 187.155 510.75 187.055 509.45 188.055C508.15 189.055 508.05 190.955 508.35 192.255C509.15 195.455 512.25 198.055 512.35 201.655C512.45 203.455 511.45 205.555 509.55 206.155C509.45 206.155 509.15 205.955 509.05 205.755ZM509.35 168.755C500.65 168.755 493.55 161.655 493.55 152.955C493.55 152.655 493.75 152.455 494.05 152.455C494.35 152.455 494.55 152.655 494.55 152.955C494.55 161.155 501.15 167.755 509.35 167.755C509.65 167.755 509.85 167.955 509.85 168.255C509.85 168.555 509.65 168.755 509.35 168.755ZM429.85 142.855C429.55 142.755 429.45 142.555 429.45 142.255C429.55 141.955 429.75 141.855 430.05 141.855C438.05 143.355 445.85 138.155 447.35 130.155C447.45 129.855 447.65 129.755 447.95 129.755C448.25 129.855 448.35 130.055 448.35 130.355C446.65 138.855 438.35 144.455 429.85 142.855ZM396.75 157.755C392.65 155.855 390.25 150.955 386.25 149.255C384.55 148.555 381.95 148.455 380.45 149.955C380.25 150.155 379.95 150.155 379.75 149.955C379.55 149.755 379.55 149.455 379.75 149.255C381.65 147.355 384.55 147.455 386.65 148.355C391.05 150.255 393.05 154.955 397.15 156.855C400.65 158.455 404.75 157.555 408.95 156.355C409.25 156.255 409.45 156.455 409.55 156.655C409.65 156.955 409.45 157.155 409.25 157.255C405.05 158.455 400.65 159.555 396.75 157.755ZM492.65 393.455C492.55 393.255 492.65 393.055 492.75 392.955C492.95 392.855 493.15 392.955 493.25 393.055C495.25 396.455 498.55 397.355 503.15 396.055C503.35 395.955 503.55 396.155 503.55 396.255C503.55 396.355 503.45 396.655 503.35 396.655C498.95 398.055 495.05 397.355 492.65 393.455ZM491.45 397.555C491.35 397.355 491.45 397.155 491.55 397.055C491.75 396.955 491.95 397.055 492.05 397.155C494.05 400.555 497.35 401.455 501.95 400.155C502.15 400.055 502.35 400.155 502.35 400.355C502.45 400.555 502.25 400.755 502.15 400.755C497.65 402.155 493.85 401.555 491.45 397.555ZM490.15 401.655C490.05 401.455 490.15 401.255 490.25 401.155C490.45 401.055 490.65 401.155 490.75 401.255C492.75 404.655 496.05 405.555 500.65 404.255C500.85 404.155 501.05 404.355 501.05 404.455C501.05 404.555 500.95 404.855 500.85 404.855C496.45 406.255 492.55 405.655 490.15 401.655ZM449.85 371.555C448.45 369.855 448.95 367.655 448.95 367.555C448.95 367.355 449.15 367.255 449.35 367.255C449.55 367.255 449.65 367.455 449.65 367.655C449.65 367.655 449.25 369.755 450.35 371.055C451.15 372.055 452.45 372.455 454.35 372.355C454.55 372.355 454.75 372.455 454.75 372.655C454.75 372.855 454.65 373.055 454.45 373.055C452.75 373.255 450.95 372.855 449.85 371.555ZM445.45 373.855C444.05 372.155 444.55 369.955 444.55 369.855C444.55 369.655 444.75 369.555 444.95 369.555C445.15 369.555 445.25 369.755 445.25 369.955C445.25 369.955 444.85 372.055 445.95 373.355C446.75 374.355 448.15 374.755 449.95 374.655C450.15 374.655 450.35 374.755 450.35 374.955C450.35 375.155 450.25 375.355 450.05 375.355C448.35 375.555 446.55 375.155 445.45 373.855ZM440.95 376.155C439.55 374.455 440.05 372.255 440.05 372.155C440.05 371.955 440.25 371.855 440.45 371.855C440.65 371.855 440.75 372.055 440.75 372.255C440.75 372.255 440.35 374.355 441.45 375.655C442.25 376.655 443.65 377.055 445.45 376.955C445.65 376.955 445.85 377.055 445.85 377.255C445.85 377.455 445.75 377.655 445.55 377.655C443.85 377.855 442.05 377.455 440.95 376.155ZM469.35 377.855C467.85 376.355 467.95 373.755 469.65 372.055C470.45 371.255 471.45 370.755 472.55 370.755C473.65 370.655 474.65 371.055 475.45 371.855C475.55 371.955 475.55 372.255 475.45 372.355C475.35 372.455 475.05 372.455 474.95 372.355C474.35 371.755 473.55 371.455 472.65 371.455C471.75 371.455 470.85 371.855 470.15 372.555C468.75 373.955 468.65 376.155 469.85 377.355C469.95 377.455 469.95 377.755 469.85 377.855C469.75 377.955 469.55 377.955 469.35 377.855Z" fill="white"/>
<path d="M351.75 235.055L396.05 260.755L351.75 235.055Z" fill="#EEECF0"/>
<path d="M470.55 107.755C472.35 107.955 473.95 110.055 474.25 111.255L470.55 107.755ZM465.25 104.655C464.35 102.755 462.75 102.555 461.35 102.555L465.25 104.655ZM467.55 123.655C467.55 123.655 466.05 127.355 462.15 126.455C458.85 125.655 458.25 122.755 458.25 122.755M464.05 129.555C462.35 129.655 460.85 129.055 459.45 128.055L464.05 129.555Z" fill="white"/>
<g opacity="0.5">
<path d="M475.25 123.755C474.15 124.155 473.15 123.755 472.85 122.955C472.55 122.155 473.15 121.155 474.25 120.855C475.25 120.455 476.35 120.855 476.65 121.655C476.95 122.455 476.25 123.355 475.25 123.755Z" fill="#FCAD88"/>
</g>
<g opacity="0.5">
<path d="M457.15 115.055C457.75 115.655 458.65 115.755 459.15 115.255C459.65 114.755 459.45 113.855 458.85 113.255C458.25 112.655 457.35 112.555 456.85 113.055C456.35 113.555 456.45 114.455 457.15 115.055Z" fill="#FCAD88"/>
</g>
<path d="M355.45 332.055L300.85 363.855L272.65 347.555L327.25 315.855L355.45 332.055Z" fill="white"/>
<path d="M291.55 347.355C288.95 348.855 288.95 351.255 291.55 352.755C294.15 354.255 298.25 354.255 300.85 352.755C303.45 351.255 303.45 348.855 300.85 347.355C298.35 345.855 294.15 345.855 291.55 347.355ZM326.45 340.155L313.55 347.655L326.45 340.155ZM334.75 327.255L306.65 343.555L334.75 327.255ZM327.85 323.255L299.75 339.555L327.85 323.255Z" fill="white"/>
<path d="M521.35 134.655C521.15 134.455 521.15 134.155 521.35 133.955L528.25 126.555C528.45 126.355 528.75 126.355 528.95 126.555C529.15 126.755 529.15 127.055 528.95 127.255L522.05 134.655C521.85 134.855 521.55 134.855 521.35 134.655Z" fill="#797885"/>
<path d="M528.15 134.655L521.25 127.255C521.05 127.055 521.05 126.755 521.25 126.555C521.45 126.355 521.75 126.355 521.95 126.555L528.85 133.955C529.05 134.155 529.05 134.455 528.85 134.655C528.65 134.855 528.35 134.855 528.15 134.655Z" fill="#797885"/>
<path d="M501.25 32.555C501.25 30.955 502.55 29.655 504.25 29.655C505.85 29.655 507.15 30.955 507.15 32.555C507.15 34.155 505.85 35.555 504.25 35.555C502.55 35.455 501.25 34.155 501.25 32.555Z" fill="white"/>
<path d="M504.15 35.9549C502.25 35.9549 500.65 34.3549 500.65 32.4549C500.65 30.5549 502.25 29.0549 504.15 29.0549C506.05 29.0549 507.55 30.5549 507.55 32.4549C507.65 34.4549 506.05 35.9549 504.15 35.9549ZM504.15 30.0549C502.75 30.0549 501.65 31.1549 501.65 32.4549C501.65 33.8549 502.75 34.9549 504.15 34.9549C505.45 34.9549 506.55 33.8549 506.55 32.4549C506.65 31.1549 505.55 30.0549 504.15 30.0549Z" fill="#797885"/>
<path d="M487.35 118.155C487.75 117.855 488.15 117.655 488.65 117.555C489.65 117.355 490.45 118.155 490.05 119.155C489.75 119.955 487.85 121.755 487.15 122.255" fill="white"/>
<path d="M538.15 415.755H498.55C499.05 415.555 499.55 415.455 499.95 415.155C507.15 412.055 509.25 396.455 508.65 389.855C509.25 389.455 509.65 388.955 509.75 388.255C509.75 388.155 510.15 381.855 510.15 362.555C510.15 341.155 507.25 322.255 501.55 306.355C498.15 297.055 498.25 275.255 498.55 264.955C498.65 262.455 498.75 259.955 498.75 258.855C498.85 258.555 498.95 258.255 498.95 257.855C500.05 253.155 499.75 251.755 497.95 243.755C497.65 242.655 497.45 241.455 497.15 240.055V239.955L494.95 224.555C493.15 211.755 493.45 198.855 495.85 186.255L511.95 254.255C512.05 254.955 512.95 255.155 513.65 255.255C513.65 258.655 513.75 266.255 515.25 272.055C516.75 278.055 518.15 280.955 520.05 281.955C521.05 282.555 522.15 282.455 523.25 282.055C524.85 281.455 522.35 279.355 521.75 274.455C521.45 271.755 522.25 269.755 523.05 269.555C523.45 269.455 524.05 270.155 524.45 271.755C524.95 273.455 525.15 275.255 525.35 276.755C525.65 279.055 525.75 280.755 526.85 281.455C527.35 281.755 527.85 281.755 528.55 281.555C530.15 281.055 531.35 280.155 532.35 278.655C533.35 277.155 534.15 274.855 535.15 271.455C537.05 264.755 536.15 254.955 533.95 250.555C534.25 250.255 534.45 249.855 534.35 249.555C533.85 246.655 522.05 180.455 517.25 170.155C511.05 156.755 500.05 146.555 488.35 139.155L487.85 135.955C490.05 133.555 509.85 111.255 502.75 99.0549L506.95 99.5549H507.05C507.35 99.5549 507.55 99.3549 507.55 99.1549C507.55 98.8549 507.35 98.6549 507.15 98.5549L502.45 98.0549L504.65 95.1549C504.85 94.9549 504.75 94.6549 504.55 94.4549C504.35 94.2549 504.05 94.3549 503.85 94.5549L501.85 97.1549C501.45 93.6549 498.95 82.3549 486.15 80.5549C477.55 79.3549 471.75 81.9549 466.55 84.2549C462.75 85.9549 459.45 87.4549 455.75 87.0549C455.55 87.0549 455.35 87.1549 455.25 87.2549C455.15 87.3549 455.15 87.6549 455.25 87.7549C455.35 87.8549 457.15 91.2549 460.55 94.9549C457.55 98.5549 453.35 114.155 453.75 124.555L452.25 124.255C446.75 123.055 441.05 124.355 436.55 127.655C428.25 133.855 418.35 143.655 414.75 148.055C414.15 148.755 413.25 148.955 412.35 148.655L376.45 134.455C376.15 134.355 375.85 134.455 375.55 134.655C370.35 130.755 363.65 126.155 360.25 126.855C359.25 127.055 358.65 127.455 358.45 128.055C357.85 129.455 359.25 131.455 360.45 133.255C360.95 134.055 361.85 135.255 361.75 135.555C361.15 135.655 359.65 135.155 358.15 134.655C353.85 133.255 347.35 131.155 344.85 136.155C343.85 138.155 343.75 140.155 344.75 142.155C346.85 146.655 353.95 150.455 364.65 152.855C365.45 153.055 366.25 153.155 367.05 153.355V153.655C367.15 153.955 367.35 154.155 367.45 154.255C377.15 161.855 401.15 170.455 411.45 174.055C414.25 174.855 414.35 174.655 415.55 174.755C416.05 174.655 417.85 174.755 420.35 173.655C428.05 170.355 433.75 165.655 438.95 158.255C428.15 197.955 430.35 239.755 431.35 246.555C431.35 247.455 431.75 248.355 432.35 249.255V249.855C432.25 261.855 437.95 284.655 443.05 304.755C446.05 316.855 448.65 327.255 449.65 333.655C452.45 352.455 450.65 364.455 450.55 364.555V364.955C445.65 366.955 436.15 371.355 434.25 376.855C433.05 380.255 433.45 383.355 435.35 385.655C437.05 387.655 439.85 388.855 442.75 388.455C447.25 387.855 452.95 380.155 461.55 379.155C465.25 378.755 473.45 379.655 475.55 378.155C477.85 376.555 476.95 370.055 476.65 368.355C476.75 368.155 476.85 367.955 476.85 367.855V365.255C476.75 359.255 476.55 348.055 475.95 337.155V337.055C474.85 317.955 474.05 320.855 472.25 303.955C476.65 314.855 480.25 323.355 482.05 328.755C486.95 343.555 489.85 376.555 489.75 384.655C489.55 385.455 489.85 386.255 490.55 386.955C488.95 391.055 485.15 401.855 485.75 408.355C486.05 411.555 487.25 414.355 490.15 415.755L26.1499 415.955C25.8499 415.955 25.6499 416.155 25.6499 416.455C25.6499 416.755 25.8499 416.955 26.1499 416.955L538.15 416.755C538.45 416.755 538.65 416.555 538.65 416.255C538.65 415.955 538.45 415.755 538.15 415.755ZM534.15 271.255C532.45 277.655 531.05 279.855 528.25 280.755C527.75 280.955 527.45 280.855 527.45 280.755C526.85 280.355 526.65 278.655 526.45 276.755C526.25 275.155 526.05 273.355 525.55 271.555C524.05 266.055 520.15 269.055 520.95 274.655C521.45 278.255 522.75 280.355 522.95 281.255C522.05 281.555 521.25 281.555 520.65 281.255C519.05 280.455 517.75 277.555 516.35 272.055C514.95 266.455 514.75 259.255 514.85 255.655C515.75 255.955 517.55 256.355 520.15 256.355C523.55 256.355 528.25 255.655 533.85 252.855C534.75 255.655 535.25 259.355 535.25 263.055C535.05 265.955 534.75 268.855 534.15 271.255ZM461.25 95.6549C466.95 101.655 474.25 105.455 482.55 105.155C484.45 107.355 483.75 110.555 483.75 110.455C483.15 114.655 480.15 119.055 480.15 119.155C479.95 119.455 480.15 119.855 480.55 119.955L483.05 120.355C483.25 120.355 483.45 120.255 483.55 120.155C484.55 118.655 487.65 114.655 489.95 114.655C490.65 114.655 491.15 114.955 491.55 115.555C492.45 116.855 492.15 118.655 491.25 120.455C489.95 123.355 487.35 126.355 485.95 127.755C485.85 127.855 485.75 128.055 485.85 128.155V128.255L486.05 130.755V130.855L487.35 138.555L487.45 139.255V139.555L487.35 139.755C480.35 149.155 467.85 146.355 466.05 145.855C465.25 143.855 464.55 139.155 464.45 135.555H465.05C469.35 135.655 473.55 134.855 477.75 133.055C478.05 132.955 478.15 132.655 478.05 132.355C477.95 132.055 477.65 131.955 477.35 132.055C470.35 134.955 465.45 134.355 463.55 134.455C461.25 134.355 459.55 134.055 458.25 133.355C450.95 129.655 456.95 101.055 461.25 95.6549ZM345.65 141.655C344.85 139.955 344.85 138.255 345.75 136.555C347.85 132.355 353.35 134.055 357.85 135.555C359.65 136.155 361.05 136.555 361.85 136.455C362.35 136.355 362.55 136.155 362.65 135.955C362.95 135.255 362.25 134.155 361.25 132.655C360.25 131.255 358.95 129.255 359.35 128.355C359.45 128.055 359.85 127.855 360.45 127.755C362.75 127.355 367.85 129.955 374.85 135.255C374.05 136.655 373.45 137.255 371.45 141.355C369.25 145.155 366.95 148.555 364.55 151.655C354.25 149.355 347.55 145.855 345.65 141.655ZM432.45 246.355C431.55 239.455 429.15 195.855 440.85 155.455C440.95 155.255 440.85 154.955 440.55 154.855H440.35C440.15 154.855 440.05 154.955 439.95 155.055C434.35 163.755 428.35 169.055 420.05 172.555C418.65 173.155 417.25 173.455 415.85 173.555C412.55 169.855 412.15 166.055 414.35 161.755C414.45 161.555 414.35 161.255 414.15 161.055C413.95 160.955 413.65 161.055 413.45 161.255C411.15 165.655 411.55 169.655 414.55 173.455C413.55 173.355 412.85 173.155 411.85 172.855C401.75 169.255 378.15 160.855 368.45 153.355L368.15 153.055V152.755C368.15 152.655 368.15 152.455 368.25 152.255C369.05 148.155 374.65 136.255 376.45 135.155L377.05 135.455L412.15 149.355C413.45 149.855 414.85 149.555 415.75 148.555C419.35 144.155 429.15 134.455 437.35 128.255C441.65 125.055 447.05 123.955 452.25 125.055C452.85 125.155 453.35 125.355 453.95 125.455C454.15 128.555 454.95 132.655 457.75 134.155C459.25 134.955 461.05 135.355 463.45 135.355C463.55 139.255 464.25 144.255 465.25 146.255L465.55 146.555C465.65 146.555 468.55 147.455 472.45 147.455C477.35 147.455 483.85 146.155 488.15 140.155C499.65 147.455 510.35 157.555 516.45 170.655C518.55 175.155 522.15 191.355 525.45 207.855C521.95 211.255 517.85 212.655 512.95 212.255C512.65 212.255 512.45 212.455 512.45 212.755C512.45 213.055 512.65 213.255 512.95 213.255C513.55 213.355 514.15 213.355 514.75 213.355C518.95 213.355 522.65 211.855 525.75 209.055C530.05 230.455 533.45 249.555 533.45 249.855C532.85 251.055 525.75 252.755 524.45 253.055C516.65 254.855 513.95 254.355 513.85 254.355C513.45 254.355 513.25 254.255 513.15 254.155L496.55 183.955C496.45 183.755 496.25 183.555 496.05 183.555C495.85 183.555 495.65 183.755 495.55 183.955C495.55 183.955 495.45 184.255 495.35 184.855C492.65 197.955 492.25 211.455 494.15 224.855L496.35 240.155V240.255C496.65 241.655 496.95 242.855 497.15 243.955C498.95 251.855 499.25 253.155 498.15 257.655V257.755C498.15 258.155 498.05 258.355 497.85 258.555C496.55 260.555 491.15 261.655 482.75 261.555C466.35 261.355 442.55 256.455 434.95 250.155C434.75 249.955 434.55 249.855 434.35 249.655L433.85 249.155C433.75 249.055 433.65 248.855 433.55 248.755C433.15 248.255 432.85 247.655 432.65 247.055C432.45 246.955 432.45 246.655 432.45 246.355ZM490.75 384.755C490.85 376.555 488.05 343.355 483.05 328.455C479.65 318.355 468.75 294.155 462.95 275.355C462.85 275.055 462.55 274.955 462.35 275.055C462.05 275.155 461.95 275.455 462.05 275.655C463.85 281.355 466.05 287.655 468.45 293.855C468.15 295.555 465.75 315.055 475.05 337.255C475.65 348.055 475.85 359.155 475.95 365.155V367.655C475.95 367.655 475.85 367.755 475.75 367.755C474.45 368.355 467.65 368.255 460.25 367.055C459.15 366.855 452.05 365.655 451.55 364.655C451.55 364.555 453.45 352.755 450.65 333.455C449.75 327.055 447.05 316.555 444.05 304.455C439.25 285.055 433.75 263.255 433.45 251.055C436.95 254.555 451.25 265.855 487.65 265.855C490.75 265.855 494.15 265.755 497.55 265.555C497.35 276.055 497.25 297.455 500.65 306.855C506.35 322.555 509.15 341.355 509.15 362.655C509.15 381.655 508.75 388.055 508.75 388.255C508.65 388.855 508.15 389.155 507.95 389.255C505.05 391.155 494.35 390.055 491.25 386.455C491.15 386.355 491.05 386.255 490.95 385.955C490.75 385.455 490.65 385.055 490.75 384.755Z" fill="#B7B7B7"/>
<path d="M80.1499 193.755L80.6499 359.255C80.6499 362.355 81.7499 364.755 83.7499 365.855L93.0499 371.255C93.8499 371.755 94.8499 371.955 95.8499 371.955C97.2499 371.955 98.8499 371.455 100.45 370.555L332.35 236.655C337.85 233.455 342.35 225.755 342.25 219.455L341.75 53.9549C341.75 50.8549 340.65 48.5549 338.75 47.3549L338.65 47.2549L329.45 41.9549C327.45 40.7549 324.85 41.0549 322.05 42.5549L90.0499 176.655C84.6499 179.755 80.1499 187.455 80.1499 193.755ZM340.75 54.0549L341.25 219.555C341.25 225.555 337.05 232.855 331.85 235.855L99.9499 369.755C97.5499 371.155 95.2499 371.455 93.5499 370.455C91.9499 369.555 91.0499 367.555 90.9499 364.855V364.655L90.4499 199.155C90.4499 193.155 94.6499 185.855 99.8499 182.955C346.05 40.7549 332.45 48.6549 333.55 48.1549C335.25 47.5549 336.85 47.5549 338.15 48.3549C339.85 49.2549 340.75 51.2549 340.75 54.0549ZM322.45 43.5549C324.45 42.4549 326.85 41.7549 328.85 42.9549L335.45 46.7549C334.35 46.8549 332.85 47.2549 331.25 48.1549C312.05 59.1549 105.45 178.455 99.3499 181.955C93.8499 185.155 89.4499 192.755 89.4499 199.055V199.155L89.9499 364.655C89.9499 365.055 89.9499 365.355 90.0499 365.755C90.1499 366.555 90.2499 367.255 90.4499 367.855C90.5499 368.155 90.6499 368.355 90.7499 368.655C90.7499 368.655 90.7499 368.755 90.8499 368.755V368.855L84.2499 365.055C82.5499 364.055 81.6499 362.055 81.6499 359.255L81.1499 193.755C81.1499 187.755 85.3499 180.455 90.5499 177.455L322.45 43.5549Z" fill="#B7B7B7"/>
<path d="M102.85 264.355C99.1498 266.455 96.0498 271.855 96.0498 276.155C96.0498 278.855 97.2498 280.355 99.1498 280.355C99.9498 280.355 100.95 280.055 101.95 279.455C105.65 277.355 108.75 271.955 108.75 267.655C108.75 263.755 106.15 262.455 102.85 264.355ZM101.45 278.655C100.65 279.155 99.8498 279.355 99.1498 279.355C97.3498 279.355 97.0498 277.355 97.0498 276.155C97.0498 272.255 99.9498 267.255 103.35 265.255C105.95 263.755 107.75 264.555 107.75 267.755C107.75 271.655 104.85 276.655 101.45 278.655ZM318.05 66.255L112.65 184.855C112.45 184.955 112.35 185.155 112.35 185.255L112.85 352.055C112.85 352.255 112.95 352.355 113.15 352.455C113.25 352.455 113.35 352.555 113.35 352.555C113.45 352.555 113.55 352.555 113.65 352.455L319.15 233.855C319.35 233.755 319.45 233.555 319.45 233.455L318.95 66.655C318.85 66.255 318.45 66.055 318.05 66.255ZM113.85 351.255L113.35 185.555L317.85 67.555L318.35 233.255L113.85 351.255ZM328.75 108.755C327.15 109.655 325.85 111.855 325.85 113.755L326.05 177.955C326.05 180.055 327.75 180.955 329.45 179.955C331.05 179.055 332.35 176.855 332.35 174.955L332.15 110.655C332.15 108.555 330.55 107.655 328.75 108.755ZM328.95 179.055C327.85 179.755 327.05 179.255 327.05 177.955L326.85 113.755C326.85 112.255 327.95 110.355 329.25 109.655C330.35 109.055 331.15 109.355 331.15 110.755L331.35 175.055C331.35 176.455 330.25 178.355 328.95 179.055ZM287.15 69.055L305.75 58.355C305.95 58.255 306.05 57.955 305.95 57.655C305.85 57.455 305.55 57.355 305.25 57.455L286.65 68.155C286.45 68.255 286.35 68.555 286.45 68.855C286.65 69.055 286.95 69.155 287.15 69.055ZM262.95 82.955C263.05 82.955 263.15 82.955 263.15 82.855L282.05 71.955C282.25 71.855 282.35 71.555 282.25 71.255C282.15 71.055 281.85 70.955 281.55 71.055L262.65 81.955C262.45 82.055 262.35 82.355 262.45 82.655C262.65 82.855 262.75 82.955 262.95 82.955Z" fill="#B7B7B7"/>
<path d="M215.35 209.355V210.255L216.15 209.855C216.35 209.755 216.45 209.555 216.45 209.455V208.555L215.65 208.955C215.45 209.055 215.35 209.255 215.35 209.355Z" fill="#B7B7B7"/>
<path d="M234.45 163.455C230.05 163.455 224.95 165.055 219.65 168.155C199.15 180.055 181.85 209.955 181.85 233.555C181.85 240.155 183.45 255.455 197.25 255.455C201.65 255.455 206.85 253.855 212.15 250.755C232.65 238.955 249.95 209.055 249.95 185.455C249.95 178.755 248.35 163.455 234.45 163.455ZM211.65 249.755C206.45 252.755 201.45 254.355 197.25 254.355C184.25 254.355 182.85 239.755 182.85 233.455C182.85 210.255 199.95 180.655 220.15 168.955C225.25 165.955 230.25 164.455 234.45 164.455C247.45 164.455 248.95 179.055 248.95 185.355C248.95 208.655 231.85 238.155 211.65 249.755Z" fill="#B7B7B7"/>
<path d="M298.75 105.455C299.05 107.255 300.75 108.155 302.65 106.955C304.55 105.855 306.05 103.155 306.05 100.955C306.05 98.555 304.25 97.555 302.05 98.755C300.25 99.855 298.75 102.255 298.65 104.355L259.35 127.055C259.25 127.155 259.15 127.155 259.15 127.255L248.75 152.655H248.65C239.85 147.655 228.35 148.655 216.05 155.455V144.355C216.05 144.155 215.95 144.055 215.75 143.955C215.65 143.855 215.45 143.855 215.25 143.955C199.35 153.155 184.95 169.055 174.65 187.255L163.85 182.255C163.75 182.155 163.55 182.155 163.35 182.255L130.35 201.355C130.05 199.255 128.25 198.555 126.35 199.655C124.45 200.755 122.95 203.355 122.95 205.555C122.95 208.055 124.75 209.155 126.95 207.855C128.65 206.855 130.05 204.555 130.35 202.455L163.65 183.255L174.15 188.155C164.55 205.455 158.55 224.755 158.65 242.055C158.65 242.455 159.05 242.655 159.45 242.455L169.05 236.855C169.55 265.355 189.85 277.555 215.45 263.255V274.355C215.45 274.755 215.85 274.955 216.25 274.755C229.95 266.855 242.55 253.955 252.35 238.955L263.55 244.155C263.65 244.255 263.85 244.255 264.05 244.155L298.75 224.155C299.05 226.055 300.75 226.855 302.65 225.655C304.55 224.455 306.05 221.855 306.05 219.655C306.05 217.255 304.25 216.255 302.05 217.455C300.25 218.555 298.75 220.955 298.65 223.055L263.75 243.255L252.85 238.255C265.15 219.155 272.95 196.755 272.85 176.855C272.85 176.655 272.75 176.555 272.55 176.455C272.35 176.355 272.15 176.355 272.05 176.455L262.45 182.055C262.25 168.655 257.65 158.555 249.55 153.455L259.95 127.955L298.75 105.455ZM302.65 99.555C304.05 98.755 305.15 99.255 305.15 100.955C305.15 102.855 303.85 105.155 302.25 106.155C300.95 106.955 299.85 106.555 299.75 104.955H299.85C300.05 104.855 300.15 104.555 300.05 104.255L299.85 104.055C300.05 102.255 301.25 100.355 302.65 99.555ZM126.65 206.955C125.15 207.855 124.15 207.155 124.15 205.455C124.15 203.655 125.45 201.355 127.05 200.355C128.45 199.555 129.55 200.055 129.55 201.755V201.855L127.05 203.255C126.85 203.355 126.75 203.655 126.85 203.955C126.95 204.155 127.25 204.255 127.55 204.155L129.35 203.155C128.95 204.655 127.85 206.255 126.65 206.955ZM302.65 218.255C304.05 217.455 305.15 217.955 305.15 219.655C305.15 221.555 303.85 223.855 302.25 224.855C300.95 225.655 299.85 225.255 299.75 223.655L300.55 223.155C300.75 223.055 300.85 222.755 300.75 222.455C300.65 222.255 300.35 222.155 300.05 222.255L299.85 222.355C300.15 220.755 301.35 219.055 302.65 218.255ZM175.15 188.555L177.15 189.455C177.45 189.555 177.65 189.455 177.85 189.255C177.95 188.955 177.85 188.755 177.65 188.555L175.65 187.655C185.65 169.955 199.65 154.455 215.15 145.255V156.055C189.75 170.855 169.15 206.555 169.05 235.755L159.65 241.155C159.95 224.155 165.75 205.455 175.15 188.555ZM252.05 237.755L250.45 236.955C250.15 236.855 249.95 236.955 249.75 237.155C249.65 237.455 249.75 237.655 249.95 237.855L251.45 238.555C241.95 253.155 229.75 265.655 216.45 273.455V262.655C241.85 247.855 262.45 212.255 262.55 182.855L271.85 177.455C271.75 197.155 264.05 219.055 252.05 237.755ZM258.15 164.755C260.35 169.655 261.55 175.655 261.65 182.455V183.555C261.35 212.255 241.35 246.855 216.55 261.555C216.25 261.755 215.65 262.055 215.55 262.155C190.95 276.255 170.45 265.455 170.15 236.355C170.15 206.555 190.75 171.855 215.25 157.155C215.55 156.955 215.75 156.855 216.05 156.655C216.15 156.655 216.15 156.555 216.25 156.555C223.45 152.455 230.25 150.355 236.45 150.355C240.75 150.355 244.75 151.355 248.25 153.355C248.35 153.355 248.35 153.455 248.45 153.455L247.55 155.755C247.45 156.055 247.55 156.255 247.85 156.455C248.15 156.555 248.35 156.455 248.55 156.155L249.45 153.955C253.05 156.555 256.05 160.155 258.15 164.755ZM44.65 149.155L50.45 152.555C51.25 153.055 52.15 153.255 53.15 153.255C54.55 153.255 56.05 152.755 57.65 151.855L67.85 145.955L69.15 147.655C69.15 147.755 69.25 147.755 69.25 147.755L77.25 152.455C77.45 152.555 77.85 152.555 77.95 152.255L84.15 136.455L104.85 124.655C110.25 121.555 114.55 113.955 114.55 107.755L114.45 71.755C114.45 68.655 113.35 66.255 111.35 65.155L105.55 61.755C103.55 60.655 101.05 60.855 98.35 62.355L51.05 89.555C45.65 92.655 41.25 100.255 41.25 106.555L41.35 142.555C41.55 145.655 42.65 148.055 44.65 149.155ZM69.95 147.055L68.75 145.555L71.05 144.255L71.15 144.455L75.65 150.455L69.95 147.055ZM68.15 144.655L65.05 140.555L70.15 143.555L68.15 144.655ZM113.65 71.755L113.75 107.755C113.75 113.655 109.65 120.855 104.55 123.855L83.75 135.755C83.65 135.855 83.55 135.855 83.55 136.055L77.55 151.155L71.65 143.355C71.65 143.255 71.55 143.255 71.55 143.255L63.55 138.555C63.35 138.455 63.05 138.455 62.95 138.655C62.75 138.855 62.75 139.055 62.95 139.255L67.45 145.255L57.35 151.055C52.35 153.955 48.55 151.655 48.55 145.955L48.45 109.955C48.45 104.055 52.55 96.855 57.75 93.855L105.05 66.655C106.95 65.555 109.35 64.955 111.25 66.055C112.75 66.855 113.65 68.955 113.65 71.755ZM51.75 90.455L99.05 63.255C100.95 62.155 103.35 61.455 105.25 62.655L108.35 64.455C107.25 64.555 105.85 64.955 104.35 65.755L57.05 92.955C51.65 96.055 47.25 103.655 47.25 109.955L47.35 145.955C47.35 147.255 47.55 148.855 48.25 150.155L45.15 148.355C43.55 147.355 42.55 145.355 42.55 142.655L42.45 106.655C42.45 100.655 46.65 93.355 51.75 90.455Z" fill="#B7B7B7"/>
<path d="M93.5499 92.255C93.3498 92.155 93.0498 92.155 92.8498 92.455L77.0498 119.855C76.7498 120.355 76.0498 120.555 75.5498 120.255L68.0498 115.955C67.8498 115.855 67.5498 115.855 67.3498 116.155C67.2498 116.355 67.2498 116.655 67.5498 116.855L75.0498 121.155C76.0499 121.755 77.3498 121.355 77.8498 120.355L93.6498 92.955C93.8498 92.755 93.7499 92.455 93.5499 92.255ZM394.85 46.655C397.55 45.055 399.75 41.255 399.75 38.155V36.355C399.75 32.855 397.15 31.655 394.35 33.255C391.65 34.855 389.45 38.655 389.45 41.755V43.555C389.35 46.955 391.85 48.355 394.85 46.655ZM394.75 34.055C396.85 32.855 398.65 33.555 398.65 36.255V38.055C398.65 40.855 396.65 44.255 394.25 45.655C392.05 46.955 390.35 45.955 390.35 43.455V41.655C390.35 38.955 392.35 35.555 394.75 34.055ZM398.15 50.255C397.15 49.655 395.75 49.755 394.35 50.555C391.55 52.155 389.45 55.855 389.45 59.055L389.55 96.955C389.55 100.255 392.05 101.755 394.95 100.055C397.65 98.455 399.85 94.655 399.85 91.555L399.75 53.655C399.75 52.055 399.15 50.855 398.15 50.255ZM394.45 99.255C392.25 100.555 390.55 99.555 390.55 97.055L390.45 59.155C390.45 56.355 392.45 52.955 394.85 51.555C395.55 51.155 396.15 50.955 396.75 50.955C397.15 50.955 397.45 51.055 397.75 51.155C398.45 51.555 398.85 52.455 398.85 53.755L398.95 91.655C398.85 94.455 396.85 97.855 394.45 99.255ZM85.0499 265.255C84.7499 265.255 84.5499 265.455 84.5499 265.755V292.855C84.5499 293.155 84.7499 293.355 85.0499 293.355C85.3498 293.355 85.5499 293.155 85.5499 292.855V265.755C85.5499 265.455 85.3498 265.255 85.0499 265.255ZM197.55 370.755C185.65 363.855 166.35 363.855 154.45 370.755C148.65 374.155 145.45 378.655 145.45 383.455V389.855C145.45 394.755 148.65 399.255 154.55 402.755C160.55 406.155 168.35 407.955 176.15 407.955C183.95 407.955 191.75 406.255 197.65 402.755C203.45 399.355 206.65 394.855 206.65 390.055V383.655C206.75 378.655 203.45 374.155 197.55 370.755ZM154.95 371.555C166.55 364.855 185.45 364.855 197.05 371.555C202.65 374.755 205.65 379.055 205.65 383.455C205.65 388.655 201.65 392.655 197.15 395.355C185.55 402.055 166.75 402.055 155.05 395.355C150.45 392.755 146.45 388.655 146.45 383.355C146.45 378.955 149.55 374.755 154.95 371.555ZM205.75 388.155C205.55 388.955 207.45 395.855 197.25 401.755C185.65 408.455 166.85 408.455 155.15 401.755C149.55 398.555 146.45 394.255 146.55 389.755V387.955C146.55 388.055 146.65 388.055 146.65 388.155C148.25 391.655 151.45 394.355 154.75 396.255C166.65 403.155 185.95 403.155 197.85 396.255C201.05 394.355 204.15 391.655 205.75 388.155Z" fill="#B7B7B7"/>
<path d="M165.95 381.155C165.65 381.855 165.65 382.455 165.95 382.955C166.25 383.455 166.75 383.955 167.45 384.355C168.25 384.755 169.25 385.055 170.15 385.055C171.15 385.055 172.05 384.955 173.05 384.755C173.95 384.555 175.05 384.155 176.15 383.755L180.95 386.255C179.75 386.955 178.25 387.555 176.75 387.955C176.55 388.055 176.45 388.055 176.25 388.155C176.05 388.355 175.85 388.455 175.95 388.655C175.95 388.855 176.15 389.055 176.35 389.155C176.55 389.255 176.75 389.355 177.05 389.355C177.35 389.355 177.55 389.355 177.85 389.255C179.65 388.755 181.35 388.055 182.85 387.255L184.35 388.055C184.55 388.155 184.75 388.255 185.05 388.155C185.25 388.155 185.55 388.055 185.65 387.955C185.85 387.855 185.95 387.655 185.95 387.555C185.95 387.455 185.85 387.255 185.65 387.155L184.15 386.355C185.05 385.755 185.65 385.155 185.95 384.455C186.35 383.855 186.35 383.155 186.15 382.655C185.95 382.055 185.45 381.555 184.65 381.255C183.75 380.755 182.75 380.555 181.75 380.455C180.75 380.455 179.75 380.555 178.85 380.855C177.95 381.155 176.85 381.455 175.65 381.955L170.65 379.355C171.75 378.755 172.85 378.255 174.15 377.855C174.35 377.755 174.45 377.755 174.55 377.655C174.85 377.455 174.95 377.355 174.85 377.155C174.75 376.955 174.65 376.755 174.45 376.655C174.05 376.455 173.55 376.355 172.95 376.555C171.55 376.955 170.15 377.655 168.75 378.355L167.35 377.555C167.15 377.455 166.95 377.455 166.65 377.455C166.35 377.455 166.15 377.555 165.95 377.655C165.75 377.755 165.65 377.955 165.65 378.055C165.65 378.255 165.75 378.355 165.95 378.455L167.45 379.255C166.85 379.955 166.25 380.555 165.95 381.155ZM180.85 382.255C181.55 382.155 182.25 382.155 182.75 382.455C184.15 383.255 184.05 384.255 182.35 385.455L177.85 383.055C179.05 382.655 180.05 382.355 180.85 382.255ZM169.55 380.255L174.15 382.655C173.05 383.055 172.15 383.355 171.35 383.455C170.55 383.555 169.85 383.455 169.25 383.155C168.65 382.855 168.35 382.355 168.45 381.855C168.55 381.355 168.95 380.855 169.55 380.255ZM33.05 339.055L66.35 358.355C66.45 358.355 66.55 358.455 66.65 358.455C66.85 358.455 66.95 358.355 67.05 358.255C67.15 358.055 67.15 357.755 66.85 357.555L33.55 338.255C33.35 338.155 33.05 338.155 32.85 338.455C32.75 338.555 32.85 338.855 33.05 339.055ZM459.85 320.655C458.15 321.655 456.15 321.155 455.35 319.555C454.55 317.855 455.15 315.755 456.85 314.755C457.05 314.655 457.15 314.355 457.05 314.055C456.95 313.855 456.65 313.755 456.35 313.855C454.15 315.155 453.35 317.855 454.45 320.055C455.55 322.155 458.15 322.855 460.35 321.555C460.55 321.455 460.65 321.055 460.55 320.855C460.45 320.555 460.15 320.455 459.85 320.655ZM491.85 321.455C491.75 321.255 491.35 321.155 491.15 321.255C489.35 322.355 487.25 321.755 486.35 320.055C485.45 318.255 486.15 315.955 487.95 314.855C488.15 314.755 488.25 314.355 488.15 314.155C488.05 313.955 487.65 313.855 487.45 313.955C485.15 315.355 484.25 318.155 485.45 320.455C486.55 322.655 489.25 323.455 491.65 322.055C491.95 321.955 492.05 321.655 491.85 321.455ZM460.05 156.755C462.95 159.055 467.05 160.255 472.05 160.255C475.45 160.255 479.15 159.755 483.25 158.655C483.55 158.555 483.65 158.355 483.65 158.055C483.55 157.755 483.35 157.655 483.05 157.655C473.25 160.255 465.35 159.655 460.75 155.955C457.75 153.555 456.35 150.055 456.55 145.755C456.55 145.455 456.35 145.255 456.05 145.255C455.75 145.255 455.55 145.455 455.55 145.755C455.25 150.355 456.85 154.155 460.05 156.755ZM395.85 261.155C395.95 261.155 396.05 261.255 396.15 261.255C396.35 261.255 396.45 261.155 396.55 261.055C396.65 260.855 396.65 260.555 396.35 260.355L351.95 234.655C351.75 234.555 351.45 234.555 351.25 234.855C351.15 235.055 351.15 235.355 351.45 235.555L395.85 261.155ZM461.05 119.555C461.45 120.455 462.05 120.955 462.85 121.155C463.95 121.355 465.25 120.555 466.05 119.855C466.15 119.755 466.15 119.455 466.05 119.355C465.95 119.255 465.65 119.255 465.55 119.355C465.15 119.755 463.95 120.655 463.05 120.455C462.55 120.355 462.15 119.955 461.75 119.355C460.75 117.355 463.05 112.955 465.15 111.055C465.95 110.255 466.85 109.055 467.15 108.555C467.25 108.355 467.15 108.155 467.05 108.055C466.95 107.955 466.65 108.055 466.55 108.155C466.25 108.655 465.35 109.855 464.65 110.455C462.35 112.455 459.85 117.155 461.05 119.555ZM470.55 108.155C472.05 108.355 473.65 110.255 473.85 111.355C473.85 111.555 474.05 111.655 474.35 111.655C474.55 111.655 474.65 111.355 474.65 111.155C474.35 109.755 472.65 107.655 470.65 107.355C470.45 107.355 470.25 107.455 470.25 107.655C470.15 107.955 470.25 108.155 470.55 108.155ZM460.05 109.855C460.75 110.355 461.85 110.055 462.35 109.255C462.95 108.455 462.75 107.355 462.05 106.855C461.35 106.355 460.25 106.655 459.75 107.455C459.25 108.255 459.35 109.355 460.05 109.855ZM461.35 102.955C462.65 102.955 464.05 103.155 464.95 104.855C465.05 105.055 465.25 105.155 465.45 105.055C465.65 104.955 465.75 104.755 465.65 104.555C464.65 102.455 462.85 102.255 461.35 102.255C461.15 102.255 460.95 102.455 460.95 102.655C460.95 102.855 461.15 102.955 461.35 102.955ZM462.05 126.755C462.55 126.855 462.95 126.955 463.35 126.955C466.55 126.955 467.85 123.855 467.85 123.755C467.95 123.555 467.85 123.355 467.65 123.255C467.45 123.155 467.25 123.255 467.15 123.455C467.05 123.555 465.75 126.855 462.15 126.055C459.05 125.355 458.55 122.755 458.45 122.655C458.45 122.455 458.25 122.355 458.05 122.355C457.85 122.355 457.75 122.555 457.75 122.755C457.85 122.955 458.45 125.955 462.05 126.755ZM463.95 129.155C462.45 129.255 461.05 128.755 459.65 127.655C459.45 127.555 459.25 127.555 459.15 127.755C459.05 127.955 459.05 128.155 459.25 128.255C460.65 129.355 462.25 129.955 464.05 129.855C464.25 129.855 464.45 129.655 464.35 129.455C464.35 129.355 464.25 129.155 463.95 129.155Z" fill="#B7B7B7"/>
<path d="M467.45 114.555C468.25 114.955 469.25 114.555 469.65 113.655C470.05 112.755 469.85 111.755 469.05 111.355C468.25 110.955 467.25 111.355 466.85 112.255C466.35 113.055 466.65 114.155 467.45 114.555ZM327.05 315.355L272.45 347.055C272.15 347.255 272.15 347.755 272.45 347.955L300.65 364.255C300.85 364.355 300.95 364.355 301.15 364.255L355.75 332.555C356.05 332.355 356.05 331.855 355.75 331.655L327.55 315.355C327.35 315.255 327.15 315.255 327.05 315.355ZM300.85 363.255L273.65 347.555L327.25 316.355L354.45 332.055L300.85 363.255Z" fill="#B7B7B7"/>
<path d="M301.15 346.955C298.45 345.355 294.05 345.355 291.35 346.955C288.45 348.655 288.45 351.555 291.35 353.255C294.05 354.855 298.45 354.855 301.15 353.255C303.95 351.555 304.05 348.655 301.15 346.955ZM300.55 352.355C298.15 353.755 294.15 353.755 291.75 352.355C289.55 351.055 289.55 349.155 291.75 347.855C294.15 346.455 298.15 346.455 300.55 347.855C302.85 349.155 302.85 351.055 300.55 352.355ZM326.15 339.755L313.35 347.255C313.15 347.355 313.05 347.655 313.15 347.955C313.25 348.155 313.55 348.255 313.85 348.155L326.65 340.655C326.85 340.555 326.95 340.255 326.85 339.955C326.65 339.655 326.35 339.555 326.15 339.755ZM306.25 343.855C306.35 344.055 306.65 344.155 306.95 344.055L335.05 327.655C335.25 327.555 335.35 327.255 335.25 326.955C335.15 326.755 334.85 326.655 334.55 326.755L306.45 343.155C306.15 343.255 306.05 343.655 306.25 343.855ZM299.25 339.855C299.35 340.055 299.65 340.155 299.95 340.055L328.05 323.655C328.25 323.555 328.35 323.255 328.25 322.955C328.15 322.655 327.85 322.655 327.55 322.755L299.45 339.155C299.25 339.255 299.15 339.555 299.25 339.855ZM487.35 122.555C488.05 121.955 489.95 120.155 490.35 119.355C490.85 118.055 489.85 116.955 488.55 117.255C488.05 117.355 487.55 117.655 487.15 117.955C486.95 118.055 486.95 118.255 487.05 118.455C487.15 118.655 487.35 118.655 487.55 118.555C487.95 118.255 488.35 118.055 488.75 117.955C489.45 117.855 490.05 118.355 489.75 119.055C489.45 119.755 487.55 121.555 486.95 122.055C486.75 122.155 486.75 122.455 486.95 122.555C486.95 122.655 487.25 122.655 487.35 122.555Z" fill="#B7B7B7"/>
<path d="M492.65 393.455C492.55 393.255 492.65 393.055 492.75 392.955C492.95 392.855 493.15 392.955 493.25 393.055C495.25 396.455 498.55 397.355 503.15 396.055C503.35 395.955 503.55 396.155 503.55 396.255C503.55 396.355 503.45 396.655 503.35 396.655C498.95 398.055 495.05 397.355 492.65 393.455ZM491.45 397.555C491.35 397.355 491.45 397.155 491.55 397.055C491.75 396.955 491.95 397.055 492.05 397.155C494.05 400.555 497.35 401.455 501.95 400.155C502.15 400.055 502.35 400.155 502.35 400.355C502.45 400.555 502.25 400.755 502.15 400.755C497.65 402.155 493.85 401.555 491.45 397.555ZM490.15 401.655C490.05 401.455 490.15 401.255 490.25 401.155C490.45 401.055 490.65 401.155 490.75 401.255C492.75 404.655 496.05 405.555 500.65 404.255C500.85 404.155 501.05 404.355 501.05 404.455C501.05 404.555 500.95 404.855 500.85 404.855C496.45 406.255 492.55 405.655 490.15 401.655ZM449.85 371.555C448.45 369.855 448.95 367.655 448.95 367.555C448.95 367.355 449.15 367.255 449.35 367.255C449.55 367.255 449.65 367.455 449.65 367.655C449.65 367.655 449.25 369.755 450.35 371.055C451.15 372.055 452.45 372.455 454.35 372.355C454.55 372.355 454.75 372.455 454.75 372.655C454.75 372.855 454.65 373.055 454.45 373.055C452.75 373.255 450.95 372.855 449.85 371.555ZM445.45 373.855C444.05 372.155 444.55 369.955 444.55 369.855C444.55 369.655 444.75 369.555 444.95 369.555C445.15 369.555 445.25 369.755 445.25 369.955C445.25 369.955 444.85 372.055 445.95 373.355C446.75 374.355 448.15 374.755 449.95 374.655C450.15 374.655 450.35 374.755 450.35 374.955C450.35 375.155 450.25 375.355 450.05 375.355C448.35 375.555 446.55 375.155 445.45 373.855ZM440.95 376.155C439.55 374.455 440.05 372.255 440.05 372.155C440.05 371.955 440.25 371.855 440.45 371.855C440.65 371.855 440.75 372.055 440.75 372.255C440.75 372.255 440.35 374.355 441.45 375.655C442.25 376.655 443.65 377.055 445.45 376.955C445.65 376.955 445.85 377.055 445.85 377.255C445.85 377.455 445.75 377.655 445.55 377.655C443.85 377.855 442.05 377.455 440.95 376.155ZM469.35 377.855C467.85 376.355 467.95 373.755 469.65 372.055C470.45 371.255 471.45 370.755 472.55 370.755C473.65 370.655 474.65 371.055 475.45 371.855C475.55 371.955 475.55 372.255 475.45 372.355C475.35 372.455 475.05 372.455 474.95 372.355C474.35 371.755 473.55 371.455 472.65 371.455C471.75 371.455 470.85 371.855 470.15 372.555C468.75 373.955 468.65 376.155 469.85 377.355C469.95 377.455 469.95 377.755 469.85 377.855C469.75 377.955 469.55 377.955 469.35 377.855Z" fill="white"/>
<path d="M228.25 339.855C228.05 339.655 228.05 339.355 228.25 339.155L233.35 333.755C233.55 333.555 233.85 333.555 234.05 333.755C234.25 333.955 234.25 334.255 234.05 334.455L228.95 339.855C228.75 340.055 228.45 340.055 228.25 339.855Z" fill="#797885"/>
<path d="M233.25 339.855L228.15 334.455C227.95 334.255 227.95 333.955 228.15 333.755C228.35 333.555 228.65 333.555 228.85 333.755L233.95 339.155C234.15 339.355 234.15 339.655 233.95 339.855C233.75 340.055 233.45 340.055 233.25 339.855Z" fill="#797885"/>
</svg>
