<svg width="601" height="370" viewBox="0 0 601 370" fill="none" xmlns="http://www.w3.org/2000/svg">
<line x1="58" y1="323.894" x2="570" y2="323.894" stroke="#B7B8C1" stroke-width="0.5"/>
<path d="M25.0625 329.273C24.367 329.273 23.7745 329.084 23.2852 328.705C22.7958 328.324 22.4219 327.771 22.1634 327.048C21.9048 326.322 21.7756 325.445 21.7756 324.417C21.7756 323.395 21.9048 322.522 22.1634 321.799C22.425 321.073 22.8004 320.519 23.2898 320.137C23.7822 319.753 24.3731 319.56 25.0625 319.56C25.7519 319.56 26.3413 319.753 26.8306 320.137C27.323 320.519 27.6985 321.073 27.957 321.799C28.2186 322.522 28.3494 323.395 28.3494 324.417C28.3494 325.445 28.2202 326.322 27.9616 327.048C27.7031 327.771 27.3292 328.324 26.8398 328.705C26.3505 329.084 25.758 329.273 25.0625 329.273ZM25.0625 328.258C25.7519 328.258 26.2874 327.925 26.669 327.26C27.0507 326.596 27.2415 325.648 27.2415 324.417C27.2415 323.598 27.1538 322.901 26.9783 322.325C26.806 321.75 26.5567 321.311 26.2305 321.01C25.9073 320.708 25.518 320.557 25.0625 320.557C24.3793 320.557 23.8453 320.894 23.4606 321.568C23.0759 322.239 22.8835 323.189 22.8835 324.417C22.8835 325.235 22.9697 325.931 23.142 326.503C23.3144 327.076 23.5621 327.511 23.8853 327.81C24.2115 328.108 24.6039 328.258 25.0625 328.258ZM31.0078 326.559L30.9893 325.211H31.2109L34.3132 322.053H35.6612L32.3558 325.395H32.2635L31.0078 326.559ZM29.9922 329.144V319.689H31.0816V329.144H29.9922ZM34.4978 329.144L31.728 325.635L32.5035 324.878L35.8828 329.144H34.4978Z" fill="#3E4259"/>
<g filter="url(#filter0_d_407_1974)">
<rect x="4" width="593" height="362" rx="29" fill="white"/>
</g>
<path d="M36.9386 40.0352C36.8822 39.5079 36.6448 39.0974 36.2262 38.8036C35.8117 38.5098 35.2724 38.3629 34.6083 38.3629C34.1415 38.3629 33.741 38.4334 33.407 38.5742C33.0729 38.7151 32.8174 38.9062 32.6403 39.1477C32.4632 39.3892 32.3726 39.6649 32.3686 39.9748C32.3686 40.2324 32.427 40.4557 32.5437 40.6449C32.6644 40.834 32.8274 40.995 33.0327 41.1278C33.2379 41.2566 33.4653 41.3653 33.7148 41.4538C33.9644 41.5424 34.2159 41.6168 34.4695 41.6772L35.6286 41.967C36.0954 42.0756 36.5442 42.2225 36.9748 42.4077C37.4094 42.5928 37.7978 42.8262 38.1399 43.108C38.486 43.3897 38.7597 43.7298 38.9609 44.1282C39.1622 44.5266 39.2628 44.9935 39.2628 45.5288C39.2628 46.2532 39.0777 46.8911 38.7074 47.4425C38.3371 47.9898 37.8018 48.4184 37.1016 48.7283C36.4053 49.0342 35.5621 49.1871 34.5721 49.1871C33.6102 49.1871 32.7751 49.0382 32.0668 48.7404C31.3625 48.4426 30.8111 48.0079 30.4126 47.4364C30.0182 46.8649 29.8049 46.1687 29.7727 45.3477H31.9762C32.0084 45.7783 32.1412 46.1365 32.3746 46.4222C32.6081 46.708 32.9119 46.9213 33.2862 47.0621C33.6645 47.203 34.0871 47.2734 34.554 47.2734C35.041 47.2734 35.4676 47.201 35.8338 47.0561C36.2041 46.9072 36.4938 46.7019 36.7031 46.4403C36.9124 46.1747 37.0191 45.8648 37.0231 45.5107C37.0191 45.1887 36.9245 44.9231 36.7393 44.7138C36.5542 44.5005 36.2946 44.3234 35.9606 44.1825C35.6306 44.0376 35.2442 43.9089 34.8015 43.7962L33.3949 43.4339C32.3767 43.1723 31.5717 42.7759 30.9801 42.2447C30.3925 41.7094 30.0987 40.9991 30.0987 40.1136C30.0987 39.3852 30.2959 38.7473 30.6903 38.1999C31.0888 37.6526 31.6301 37.228 32.3143 36.9261C32.9985 36.6203 33.7732 36.4673 34.6385 36.4673C35.5159 36.4673 36.2846 36.6203 36.9446 36.9261C37.6087 37.228 38.1299 37.6486 38.5082 38.1879C38.8865 38.7231 39.0817 39.3389 39.0938 40.0352H36.9386ZM43.6612 49.1871C43.0736 49.1871 42.5444 49.0825 42.0735 48.8732C41.6067 48.6599 41.2364 48.346 40.9627 47.9315C40.6931 47.5169 40.5582 47.0058 40.5582 46.3981C40.5582 45.8749 40.6548 45.4422 40.848 45.1001C41.0412 44.758 41.3048 44.4844 41.6389 44.2791C41.9729 44.0739 42.3492 43.9189 42.7678 43.8143C43.1904 43.7056 43.627 43.6271 44.0778 43.5788C44.6211 43.5225 45.0618 43.4722 45.3999 43.4279C45.7379 43.3796 45.9834 43.3072 46.1364 43.2106C46.2933 43.11 46.3718 42.955 46.3718 42.7457V42.7095C46.3718 42.2547 46.237 41.9026 45.9673 41.6531C45.6977 41.4035 45.3093 41.2788 44.8022 41.2788C44.2669 41.2788 43.8423 41.3955 43.5284 41.6289C43.2185 41.8623 43.0092 42.138 42.9006 42.456L40.8601 42.1662C41.0211 41.6027 41.2867 41.1319 41.657 40.7536C42.0272 40.3712 42.48 40.0855 43.0153 39.8963C43.5506 39.7031 44.1422 39.6065 44.7901 39.6065C45.2369 39.6065 45.6816 39.6589 46.1243 39.7635C46.567 39.8681 46.9715 40.0412 47.3377 40.2827C47.704 40.5201 47.9978 40.8441 48.2191 41.2546C48.4445 41.6651 48.5572 42.1783 48.5572 42.794V49H46.4563V47.7262H46.3839C46.2511 47.9838 46.0639 48.2253 45.8225 48.4506C45.585 48.672 45.2852 48.8511 44.923 48.9879C44.5648 49.1207 44.1442 49.1871 43.6612 49.1871ZM44.2287 47.5813C44.6674 47.5813 45.0477 47.4948 45.3697 47.3217C45.6917 47.1446 45.9392 46.9112 46.1122 46.6214C46.2893 46.3317 46.3779 46.0157 46.3779 45.6737V44.581C46.3094 44.6373 46.1927 44.6896 46.0277 44.7379C45.8667 44.7862 45.6856 44.8285 45.4844 44.8647C45.2832 44.9009 45.0839 44.9331 44.8867 44.9613C44.6895 44.9895 44.5185 45.0136 44.3736 45.0337C44.0476 45.078 43.7558 45.1504 43.4982 45.2511C43.2407 45.3517 43.0374 45.4925 42.8885 45.6737C42.7396 45.8507 42.6651 46.0801 42.6651 46.3619C42.6651 46.7643 42.812 47.0682 43.1058 47.2734C43.3996 47.4787 43.7739 47.5813 44.2287 47.5813ZM52.77 36.6364V49H50.5846V36.6364H52.77ZM58.9524 49.1811C58.0227 49.1811 57.2198 48.9879 56.5436 48.6016C55.8715 48.2112 55.3543 47.6598 54.9921 46.9474C54.6299 46.2311 54.4488 45.3879 54.4488 44.418C54.4488 43.4641 54.6299 42.627 54.9921 41.9066C55.3584 41.1822 55.8695 40.6187 56.5255 40.2163C57.1815 39.8098 57.9522 39.6065 58.8377 39.6065C59.4092 39.6065 59.9485 39.6991 60.4556 39.8842C60.9667 40.0653 61.4174 40.3471 61.8078 40.7294C62.2022 41.1117 62.5121 41.5987 62.7375 42.1903C62.9629 42.7779 63.0756 43.4782 63.0756 44.2912V44.9613H55.4751V43.4883H60.9808C60.9767 43.0697 60.8862 42.6974 60.7091 42.3714C60.532 42.0414 60.2845 41.7818 59.9666 41.5927C59.6526 41.4035 59.2864 41.3089 58.8678 41.3089C58.4211 41.3089 58.0287 41.4176 57.6906 41.6349C57.3526 41.8482 57.089 42.13 56.8998 42.4801C56.7147 42.8262 56.6201 43.2066 56.6161 43.6211V44.907C56.6161 45.4463 56.7147 45.9091 56.9119 46.2955C57.1091 46.6778 57.3848 46.9716 57.7389 47.1768C58.0931 47.3781 58.5076 47.4787 58.9825 47.4787C59.3005 47.4787 59.5882 47.4344 59.8458 47.3459C60.1034 47.2533 60.3268 47.1185 60.5159 46.9414C60.7051 46.7643 60.848 46.545 60.9445 46.2834L62.985 46.5128C62.8562 47.0521 62.6107 47.523 62.2485 47.9254C61.8903 48.3239 61.4315 48.6338 60.8721 48.8551C60.3127 49.0724 59.6728 49.1811 58.9524 49.1811Z" fill="#0E132F"/>
<path d="M516.372 48L520.926 38.9915V38.9119H515.676V37.8182H522.199V38.9716L517.665 48H516.372ZM530.613 48.1591C529.977 48.1591 529.415 47.9983 528.928 47.6768C528.44 47.352 528.059 46.8946 527.784 46.3047C527.509 45.7114 527.371 45.0104 527.371 44.2017C527.371 43.3996 527.509 42.7036 527.784 42.1136C528.059 41.5237 528.442 41.0679 528.933 40.7464C529.423 40.425 529.99 40.2642 530.633 40.2642C531.13 40.2642 531.523 40.3471 531.811 40.5128C532.103 40.6752 532.325 40.8608 532.477 41.0696C532.633 41.2751 532.754 41.4441 532.84 41.5767H532.94V37.8182H534.113V48H532.979V46.8267H532.84C532.754 46.9659 532.631 47.1416 532.472 47.3537C532.313 47.5625 532.086 47.7498 531.791 47.9155C531.496 48.0779 531.103 48.1591 530.613 48.1591ZM530.772 47.1051C531.243 47.1051 531.64 46.9825 531.965 46.7372C532.29 46.4886 532.537 46.1456 532.706 45.7081C532.875 45.2673 532.96 44.7585 532.96 44.1818C532.96 43.6117 532.877 43.1129 532.711 42.6854C532.545 42.2545 532.3 41.9197 531.975 41.6811C531.65 41.4392 531.249 41.3182 530.772 41.3182C530.275 41.3182 529.861 41.4458 529.529 41.701C529.201 41.9529 528.954 42.2959 528.788 42.7301C528.626 43.161 528.545 43.6449 528.545 44.1818C528.545 44.7254 528.628 45.2192 528.793 45.6634C528.962 46.1042 529.211 46.4555 529.539 46.7173C529.871 46.9759 530.281 47.1051 530.772 47.1051ZM538.532 48.179C538.048 48.179 537.609 48.0878 537.214 47.9055C536.82 47.7199 536.507 47.4531 536.275 47.1051C536.043 46.7538 535.927 46.3295 535.927 45.8324C535.927 45.3949 536.013 45.0402 536.185 44.7685C536.358 44.4934 536.588 44.2779 536.876 44.1222C537.165 43.9664 537.483 43.8504 537.831 43.7741C538.182 43.6946 538.535 43.6316 538.89 43.5852C539.354 43.5256 539.73 43.4808 540.018 43.451C540.31 43.4179 540.522 43.3632 540.655 43.2869C540.791 43.2107 540.859 43.0781 540.859 42.8892V42.8494C540.859 42.3589 540.724 41.9777 540.456 41.706C540.191 41.4342 539.788 41.2983 539.248 41.2983C538.688 41.2983 538.249 41.4209 537.93 41.6662C537.612 41.9115 537.388 42.1733 537.259 42.4517L536.146 42.054C536.344 41.59 536.61 41.2287 536.941 40.9702C537.276 40.7083 537.64 40.526 538.035 40.4233C538.432 40.3172 538.824 40.2642 539.208 40.2642C539.453 40.2642 539.735 40.294 540.053 40.3537C540.375 40.41 540.685 40.5277 540.983 40.7067C541.284 40.8857 541.535 41.1558 541.734 41.517C541.932 41.8783 542.032 42.3622 542.032 42.9688V48H540.859V46.9659H540.799C540.719 47.1316 540.587 47.3089 540.401 47.4979C540.216 47.6868 539.969 47.8475 539.66 47.9801C539.352 48.1127 538.976 48.179 538.532 48.179ZM538.711 47.125C539.175 47.125 539.566 47.0339 539.884 46.8516C540.206 46.6693 540.448 46.4339 540.61 46.1456C540.776 45.8572 540.859 45.554 540.859 45.2358V44.1619C540.809 44.2216 540.699 44.2763 540.53 44.326C540.365 44.3724 540.173 44.4138 539.954 44.4503C539.738 44.4834 539.528 44.5133 539.322 44.5398C539.12 44.563 538.956 44.5829 538.83 44.5994C538.525 44.6392 538.24 44.7038 537.975 44.7933C537.713 44.8795 537.501 45.0104 537.339 45.1861C537.18 45.3584 537.1 45.5937 537.1 45.892C537.1 46.2997 537.251 46.608 537.552 46.8168C537.857 47.0223 538.244 47.125 538.711 47.125ZM544.516 50.8636C544.317 50.8636 544.139 50.8471 543.984 50.8139C543.828 50.7841 543.72 50.7543 543.661 50.7244L543.959 49.6903C544.244 49.7633 544.496 49.7898 544.715 49.7699C544.933 49.75 545.127 49.6522 545.296 49.4766C545.469 49.3042 545.626 49.0241 545.768 48.6364L545.987 48.0398L543.163 40.3636H544.436L546.544 46.4489H546.624L548.732 40.3636H550.004L546.763 49.1136C546.617 49.508 546.436 49.8345 546.221 50.093C546.005 50.3549 545.755 50.5488 545.47 50.6747C545.188 50.8007 544.87 50.8636 544.516 50.8636ZM556.822 42.0739L555.768 42.3722C555.702 42.1965 555.604 42.0258 555.475 41.8601C555.349 41.6911 555.176 41.5518 554.958 41.4425C554.739 41.3331 554.459 41.2784 554.117 41.2784C553.65 41.2784 553.261 41.3861 552.949 41.6016C552.641 41.8137 552.487 42.0838 552.487 42.4119C552.487 42.7036 552.593 42.9339 552.805 43.103C553.017 43.272 553.349 43.4129 553.799 43.5256L554.933 43.804C555.616 43.9697 556.124 44.2232 556.459 44.5646C556.794 44.9027 556.961 45.3385 556.961 45.8722C556.961 46.3097 556.835 46.7008 556.583 47.0455C556.335 47.3902 555.987 47.6619 555.539 47.8608C555.092 48.0597 554.572 48.1591 553.978 48.1591C553.199 48.1591 552.555 47.9901 552.044 47.652C551.534 47.3139 551.211 46.8201 551.075 46.1705L552.188 45.892C552.295 46.303 552.495 46.6113 552.79 46.8168C553.088 47.0223 553.478 47.125 553.958 47.125C554.505 47.125 554.939 47.009 555.261 46.777C555.586 46.5417 555.748 46.2599 555.748 45.9318C555.748 45.6667 555.655 45.4446 555.47 45.2656C555.284 45.0833 554.999 44.9474 554.615 44.858L553.342 44.5597C552.643 44.3939 552.129 44.1371 551.801 43.7891C551.476 43.4377 551.313 42.9986 551.313 42.4716C551.313 42.0407 551.434 41.6596 551.676 41.3281C551.922 40.9967 552.255 40.7365 552.676 40.5476C553.1 40.3587 553.581 40.2642 554.117 40.2642C554.873 40.2642 555.466 40.4299 555.897 40.7614C556.331 41.0928 556.64 41.5303 556.822 42.0739Z" fill="#878997"/>
<path d="M568 39.9252L572 43.6386L576 39.9252" stroke="#878997" stroke-width="1.2" stroke-linecap="round" stroke-linejoin="round"/>
<path d="M65 274.679C65 274.679 101.175 259.547 128.549 240.794C161.47 218.242 180.612 172.776 220.602 173.025C262.43 173.285 273.428 234.897 314.056 225.012C353.392 215.443 334.225 150.732 373.4 140.533C426.21 126.784 415.618 237.748 470.125 240.794C530.292 244.157 578.065 131.249 578.065 131.249" stroke="#FF325F" stroke-width="2" stroke-dasharray="4 4"/>
<line x1="66" y1="92.7247" x2="578" y2="92.7247" stroke="#B7B8C1" stroke-width="0.5"/>
<path d="M29.9787 99.1928V98.3619L33.0994 94.9457C33.4657 94.5456 33.7673 94.1978 34.0043 93.9023C34.2412 93.6038 34.4167 93.3237 34.5305 93.0621C34.6475 92.7975 34.706 92.5205 34.706 92.2312C34.706 91.8988 34.6259 91.611 34.4659 91.3679C34.3089 91.1248 34.0935 90.937 33.8196 90.8047C33.5457 90.6723 33.2379 90.6062 32.8963 90.6062C32.5331 90.6062 32.2161 90.6816 31.9453 90.8324C31.6776 90.9801 31.4698 91.1878 31.3221 91.4556C31.1774 91.7234 31.1051 92.0373 31.1051 92.3974H30.0156C30.0156 91.8434 30.1433 91.3571 30.3988 90.9386C30.6542 90.52 31.002 90.1938 31.4421 89.9599C31.8853 89.726 32.3823 89.609 32.9332 89.609C33.4872 89.609 33.9781 89.726 34.4059 89.9599C34.8337 90.1938 35.1692 90.5092 35.4123 90.9062C35.6554 91.3033 35.777 91.7449 35.777 92.2312C35.777 92.5789 35.7139 92.919 35.5877 93.2514C35.4646 93.5807 35.2492 93.9485 34.9414 94.3547C34.6367 94.7579 34.2135 95.2503 33.6719 95.832L31.5483 98.1033V98.1772H35.9432V99.1928H29.9787ZM40.6743 99.3221C40.1327 99.3221 39.6449 99.2144 39.2109 98.9989C38.777 98.7835 38.4292 98.488 38.1676 98.1126C37.906 97.7371 37.7629 97.3093 37.7383 96.8292H38.8462C38.8893 97.257 39.0832 97.6109 39.4279 97.891C39.7757 98.168 40.1911 98.3065 40.6743 98.3065C41.0621 98.3065 41.4068 98.2157 41.7084 98.0341C42.0131 97.8525 42.2516 97.6032 42.424 97.2862C42.5994 96.9661 42.6871 96.6045 42.6871 96.2013C42.6871 95.7889 42.5963 95.4212 42.4147 95.098C42.2362 94.7718 41.99 94.5148 41.6761 94.3271C41.3622 94.1393 41.0036 94.0439 40.6005 94.0408C40.3112 94.0378 40.0142 94.0824 39.7095 94.1747C39.4048 94.264 39.154 94.3794 38.957 94.5209L37.886 94.3917L38.4584 89.7383H43.3704V90.7539H39.4187L39.0863 93.5422H39.1417C39.3356 93.3884 39.5787 93.2606 39.8711 93.1591C40.1634 93.0575 40.4681 93.0067 40.7851 93.0067C41.3637 93.0067 41.8792 93.1452 42.3316 93.4222C42.7871 93.6961 43.1441 94.0716 43.4027 94.5486C43.6643 95.0257 43.7951 95.5704 43.7951 96.1829C43.7951 96.7861 43.6597 97.3247 43.3888 97.7986C43.1211 98.2695 42.7517 98.6419 42.2809 98.9158C41.81 99.1867 41.2745 99.3221 40.6743 99.3221ZM46.5331 96.6076L46.5146 95.2596H46.7362L49.8385 92.1019H51.1865L47.8811 95.4442H47.7887L46.5331 96.6076ZM45.5174 99.1928V89.7383H46.6069V99.1928H45.5174ZM50.0231 99.1928L47.2532 95.6843L48.0288 94.9272L51.4081 99.1928H50.0231Z" fill="#3E4259"/>
<line x1="66" y1="146.569" x2="578" y2="146.569" stroke="#B7B8C1" stroke-width="0.5"/>
<path d="M29.9787 153.037V152.206L33.0994 148.79C33.4657 148.39 33.7673 148.042 34.0043 147.747C34.2412 147.448 34.4167 147.168 34.5305 146.906C34.6475 146.642 34.706 146.365 34.706 146.075C34.706 145.743 34.6259 145.455 34.4659 145.212C34.3089 144.969 34.0935 144.781 33.8196 144.649C33.5457 144.517 33.2379 144.45 32.8963 144.45C32.5331 144.45 32.2161 144.526 31.9453 144.677C31.6776 144.824 31.4698 145.032 31.3221 145.3C31.1774 145.568 31.1051 145.881 31.1051 146.242H30.0156C30.0156 145.688 30.1433 145.201 30.3988 144.783C30.6542 144.364 31.002 144.038 31.4421 143.804C31.8853 143.57 32.3823 143.453 32.9332 143.453C33.4872 143.453 33.9781 143.57 34.4059 143.804C34.8337 144.038 35.1692 144.353 35.4123 144.75C35.6554 145.147 35.777 145.589 35.777 146.075C35.777 146.423 35.7139 146.763 35.5877 147.096C35.4646 147.425 35.2492 147.793 34.9414 148.199C34.6367 148.602 34.2135 149.095 33.6719 149.676L31.5483 151.948V152.021H35.9432V153.037H29.9787ZM40.8036 153.166C40.108 153.166 39.5156 152.977 39.0262 152.598C38.5369 152.217 38.163 151.664 37.9044 150.941C37.6459 150.215 37.5167 149.338 37.5167 148.31C37.5167 147.288 37.6459 146.415 37.9044 145.692C38.166 144.966 38.5415 144.412 39.0309 144.03C39.5233 143.646 40.1142 143.453 40.8036 143.453C41.493 143.453 42.0824 143.646 42.5717 144.03C43.0641 144.412 43.4396 144.966 43.6981 145.692C43.9597 146.415 44.0905 147.288 44.0905 148.31C44.0905 149.338 43.9613 150.215 43.7027 150.941C43.4442 151.664 43.0703 152.217 42.5809 152.598C42.0916 152.977 41.4991 153.166 40.8036 153.166ZM40.8036 152.151C41.493 152.151 42.0285 151.818 42.4101 151.153C42.7918 150.489 42.9826 149.541 42.9826 148.31C42.9826 147.491 42.8949 146.794 42.7194 146.218C42.5471 145.643 42.2978 145.204 41.9716 144.903C41.6484 144.601 41.2591 144.45 40.8036 144.45C40.1204 144.45 39.5864 144.787 39.2017 145.461C38.817 146.132 38.6246 147.082 38.6246 148.31C38.6246 149.128 38.7108 149.824 38.8831 150.396C39.0555 150.969 39.3032 151.404 39.6264 151.703C39.9526 152.001 40.345 152.151 40.8036 152.151ZM46.7489 150.452L46.7304 149.104H46.952L50.0543 145.946H51.4023L48.0969 149.288H48.0046L46.7489 150.452ZM45.7333 153.037V143.582H46.8227V153.037H45.7333ZM50.2389 153.037L47.469 149.528L48.2446 148.771L51.6239 153.037H50.2389Z" fill="#3E4259"/>
<line x1="66" y1="200.413" x2="578" y2="200.413" stroke="#B7B8C1" stroke-width="0.5"/>
<path d="M33.3026 197.427V206.881H32.1577V198.627H32.1023L29.794 200.16V198.996L32.1577 197.427H33.3026ZM38.8462 207.01C38.3045 207.01 37.8167 206.903 37.3828 206.687C36.9488 206.472 36.6011 206.176 36.3395 205.801C36.0779 205.425 35.9347 204.998 35.9101 204.518H37.0181C37.0612 204.945 37.2551 205.299 37.5998 205.579C37.9475 205.856 38.363 205.995 38.8462 205.995C39.234 205.995 39.5787 205.904 39.8803 205.722C40.185 205.541 40.4235 205.292 40.5959 204.975C40.7713 204.655 40.859 204.293 40.859 203.89C40.859 203.477 40.7682 203.11 40.5866 202.786C40.4081 202.46 40.1619 202.203 39.848 202.015C39.5341 201.828 39.1755 201.732 38.7723 201.729C38.483 201.726 38.1861 201.771 37.8814 201.863C37.5767 201.952 37.3258 202.068 37.1289 202.209L36.0579 202.08L36.6303 197.427H41.5422V198.442H37.5905L37.2581 201.231H37.3135C37.5074 201.077 37.7506 200.949 38.0429 200.847C38.3353 200.746 38.64 200.695 38.957 200.695C39.5356 200.695 40.0511 200.834 40.5035 201.111C40.959 201.385 41.316 201.76 41.5745 202.237C41.8361 202.714 41.9669 203.259 41.9669 203.871C41.9669 204.474 41.8315 205.013 41.5607 205.487C41.2929 205.958 40.9236 206.33 40.4527 206.604C39.9819 206.875 39.4463 207.01 38.8462 207.01ZM44.7049 204.296L44.6865 202.948H44.9081L48.0103 199.79H49.3583L46.0529 203.133H45.9606L44.7049 204.296ZM43.6893 206.881V197.427H44.7788V206.881H43.6893ZM48.195 206.881L45.4251 203.373L46.2007 202.616L49.5799 206.881H48.195Z" fill="#3E4259"/>
<line x1="66" y1="254.257" x2="578" y2="254.257" stroke="#B7B8C1" stroke-width="0.5"/>
<path d="M32.9332 260.855C32.3916 260.855 31.9038 260.747 31.4698 260.532C31.0359 260.316 30.6881 260.021 30.4265 259.645C30.1649 259.27 30.0218 258.842 29.9972 258.362H31.1051C31.1482 258.79 31.3421 259.144 31.6868 259.424C32.0346 259.701 32.45 259.839 32.9332 259.839C33.321 259.839 33.6657 259.748 33.9673 259.567C34.272 259.385 34.5105 259.136 34.6829 258.819C34.8583 258.499 34.946 258.137 34.946 257.734C34.946 257.322 34.8552 256.954 34.6737 256.631C34.4951 256.304 34.2489 256.047 33.935 255.86C33.6211 255.672 33.2625 255.577 32.8594 255.573C32.5701 255.57 32.2731 255.615 31.9684 255.707C31.6637 255.797 31.4129 255.912 31.2159 256.054L30.1449 255.924L30.7173 251.271H35.6293V252.286H31.6776L31.3452 255.075H31.4006C31.5945 254.921 31.8376 254.793 32.13 254.692C32.4223 254.59 32.727 254.539 33.044 254.539C33.6226 254.539 34.1381 254.678 34.5906 254.955C35.046 255.229 35.4031 255.604 35.6616 256.081C35.9232 256.558 36.054 257.103 36.054 257.715C36.054 258.319 35.9186 258.857 35.6477 259.331C35.38 259.802 35.0107 260.175 34.5398 260.448C34.0689 260.719 33.5334 260.855 32.9332 260.855ZM38.792 258.14L38.7735 256.792H38.9951L42.0974 253.635H43.4454L40.14 256.977H40.0476L38.792 258.14ZM37.7763 260.725V251.271H38.8658V260.725H37.7763ZM42.282 260.725L39.5121 257.217L40.2877 256.46L43.667 260.725H42.282Z" fill="#3E4259"/>
<path d="M132.287 175.81C93.9161 185.729 67.3364 253.327 67.3364 253.327V307H579V163.742C579 163.742 567.197 218.011 539.749 232.439C495.364 255.771 480.974 156.151 431.342 163.742C407.141 167.442 400.218 192.048 375.736 192.52C340.319 193.203 340.603 135.984 305.178 135.891C258.805 135.769 282.091 221.862 236.956 232.439C191.655 243.056 177.332 164.165 132.287 175.81Z" fill="url(#paint0_linear_407_1974)"/>
<path d="M67.3364 253.327C67.3364 253.327 93.9161 185.729 132.287 175.81C177.332 164.165 191.655 243.056 236.956 232.439C282.091 221.862 258.805 135.769 305.178 135.891C340.603 135.984 340.319 193.203 375.736 192.52C400.218 192.048 407.141 167.442 431.342 163.742C480.974 156.151 495.364 255.771 539.749 232.439C567.197 218.011 579 163.742 579 163.742" stroke="#5CFFB1" stroke-width="4" stroke-linecap="round"/>
<line x1="306.014" y1="87.0798" x2="306.014" y2="303.276" stroke="#9D9EA9" stroke-dasharray="6 6"/>
<rect x="267" y="92.9747" width="81" height="31.5639" rx="12" fill="#0E132F"/>
<path d="M287.186 115.029V102.302H288.001V115.029H287.186ZM289.538 106.374C289.491 105.94 289.296 105.602 288.951 105.36C288.61 105.118 288.165 104.997 287.619 104.997C287.234 104.997 286.904 105.055 286.629 105.171C286.354 105.287 286.144 105.444 285.998 105.643C285.852 105.842 285.777 106.069 285.774 106.324C285.774 106.536 285.822 106.72 285.918 106.876C286.018 107.032 286.152 107.164 286.321 107.274C286.49 107.38 286.677 107.469 286.883 107.542C287.088 107.615 287.295 107.676 287.504 107.726L288.459 107.965C288.843 108.054 289.213 108.175 289.567 108.328C289.925 108.48 290.245 108.672 290.527 108.904C290.812 109.136 291.037 109.416 291.203 109.745C291.369 110.073 291.452 110.457 291.452 110.898C291.452 111.495 291.299 112.02 290.994 112.474C290.689 112.925 290.249 113.278 289.672 113.533C289.098 113.785 288.404 113.911 287.589 113.911C286.797 113.911 286.109 113.788 285.526 113.543C284.946 113.298 284.491 112.94 284.163 112.469C283.839 111.998 283.663 111.425 283.636 110.749H285.451C285.478 111.103 285.587 111.398 285.779 111.634C285.971 111.869 286.222 112.045 286.53 112.161C286.841 112.277 287.189 112.335 287.574 112.335C287.975 112.335 288.326 112.275 288.628 112.156C288.933 112.033 289.171 111.864 289.344 111.649C289.516 111.43 289.604 111.175 289.607 110.883C289.604 110.618 289.526 110.399 289.374 110.227C289.221 110.051 289.007 109.905 288.732 109.789C288.46 109.67 288.142 109.564 287.778 109.471L286.619 109.173C285.781 108.957 285.118 108.631 284.631 108.193C284.147 107.753 283.905 107.168 283.905 106.438C283.905 105.839 284.067 105.313 284.392 104.862C284.72 104.412 285.166 104.062 285.729 103.813C286.293 103.562 286.931 103.436 287.643 103.436C288.366 103.436 288.999 103.562 289.543 103.813C290.089 104.062 290.519 104.408 290.83 104.853C291.142 105.293 291.303 105.8 291.312 106.374H289.538ZM292.673 111.867V110.401L296.993 103.575H298.216V105.663H297.47L294.562 110.272V110.351H300.592V111.867H292.673ZM297.53 113.757V111.42L297.55 110.764V103.575H299.29V113.757H297.53ZM303.887 112.365L303.822 112.911C303.776 113.329 303.693 113.753 303.573 114.184C303.457 114.618 303.335 115.018 303.205 115.382C303.076 115.747 302.972 116.034 302.892 116.242H301.679C301.726 116.04 301.789 115.765 301.868 115.417C301.951 115.069 302.03 114.678 302.107 114.244C302.183 113.81 302.234 113.369 302.261 112.921L302.296 112.365H303.887ZM309.159 113.896C308.496 113.896 307.903 113.772 307.38 113.523C306.856 113.271 306.44 112.926 306.132 112.489C305.827 112.051 305.664 111.551 305.644 110.987H307.434C307.467 111.405 307.648 111.746 307.976 112.012C308.304 112.273 308.699 112.404 309.159 112.404C309.521 112.404 309.842 112.322 310.124 112.156C310.406 111.99 310.628 111.76 310.79 111.465C310.952 111.17 311.032 110.833 311.029 110.456C311.032 110.071 310.951 109.73 310.785 109.431C310.619 109.133 310.392 108.899 310.104 108.73C309.816 108.558 309.484 108.472 309.11 108.472C308.805 108.469 308.505 108.525 308.21 108.641C307.915 108.757 307.681 108.909 307.509 109.098L305.843 108.825L306.375 103.575H312.282V105.116H307.902L307.608 107.816H307.668C307.857 107.594 308.124 107.41 308.468 107.264C308.813 107.115 309.191 107.04 309.602 107.04C310.218 107.04 310.769 107.186 311.252 107.478C311.736 107.766 312.117 108.164 312.396 108.671C312.674 109.178 312.813 109.758 312.813 110.411C312.813 111.084 312.658 111.684 312.346 112.21C312.038 112.734 311.609 113.147 311.059 113.448C310.512 113.747 309.879 113.896 309.159 113.896ZM318.102 113.951C317.284 113.951 316.581 113.743 315.995 113.329C315.411 112.911 314.962 112.31 314.647 111.524C314.336 110.736 314.18 109.786 314.18 108.676C314.183 107.565 314.341 106.621 314.652 105.842C314.967 105.06 315.416 104.463 315.999 104.052C316.586 103.641 317.287 103.436 318.102 103.436C318.918 103.436 319.619 103.641 320.205 104.052C320.792 104.463 321.241 105.06 321.553 105.842C321.868 106.624 322.025 107.569 322.025 108.676C322.025 109.789 321.868 110.741 321.553 111.529C321.241 112.315 320.792 112.915 320.205 113.329C319.622 113.743 318.921 113.951 318.102 113.951ZM318.102 112.394C318.739 112.394 319.241 112.081 319.609 111.455C319.98 110.825 320.166 109.899 320.166 108.676C320.166 107.867 320.081 107.188 319.912 106.637C319.743 106.087 319.504 105.673 319.196 105.394C318.888 105.113 318.523 104.972 318.102 104.972C317.469 104.972 316.969 105.287 316.601 105.916C316.233 106.543 316.048 107.463 316.044 108.676C316.041 109.488 316.122 110.17 316.288 110.724C316.457 111.277 316.696 111.695 317.004 111.977C317.312 112.255 317.678 112.394 318.102 112.394ZM327.072 103.436C327.559 103.439 328.033 103.525 328.494 103.694C328.958 103.86 329.375 104.132 329.746 104.509C330.118 104.884 330.413 105.386 330.631 106.016C330.85 106.646 330.959 107.425 330.959 108.353C330.963 109.228 330.87 110.01 330.681 110.699C330.495 111.385 330.229 111.965 329.881 112.439C329.533 112.913 329.113 113.274 328.623 113.523C328.132 113.772 327.58 113.896 326.967 113.896C326.324 113.896 325.754 113.77 325.257 113.518C324.763 113.266 324.364 112.921 324.059 112.484C323.754 112.046 323.567 111.546 323.497 110.983H325.312C325.405 111.387 325.593 111.708 325.878 111.947C326.167 112.182 326.53 112.3 326.967 112.3C327.673 112.3 328.217 111.993 328.598 111.38C328.979 110.767 329.17 109.915 329.17 108.825H329.1C328.938 109.117 328.727 109.368 328.469 109.581C328.21 109.789 327.917 109.95 327.589 110.063C327.264 110.175 326.919 110.232 326.555 110.232C325.958 110.232 325.421 110.089 324.944 109.804C324.47 109.519 324.094 109.128 323.815 108.631C323.54 108.134 323.401 107.565 323.398 106.926C323.398 106.263 323.55 105.668 323.855 105.141C324.163 104.611 324.592 104.193 325.143 103.888C325.693 103.58 326.336 103.429 327.072 103.436ZM327.077 104.927C326.719 104.927 326.396 105.015 326.107 105.191C325.822 105.363 325.597 105.598 325.431 105.897C325.269 106.192 325.187 106.521 325.187 106.886C325.191 107.247 325.272 107.575 325.431 107.87C325.593 108.165 325.814 108.399 326.092 108.571C326.374 108.744 326.695 108.83 327.057 108.83C327.325 108.83 327.575 108.778 327.807 108.676C328.039 108.573 328.242 108.43 328.414 108.248C328.59 108.063 328.726 107.852 328.822 107.617C328.921 107.381 328.969 107.133 328.966 106.871C328.966 106.523 328.883 106.201 328.717 105.907C328.555 105.612 328.331 105.375 328.046 105.196C327.764 105.017 327.441 104.927 327.077 104.927Z" fill="white"/>
<path d="M306 128.497C309.171 128.497 312 130.918 312 134.211C312 137.503 309.171 139.924 306 139.924C302.829 139.924 300 137.503 300 134.211C300 130.918 302.829 128.497 306 128.497Z" fill="#0E132F" stroke="white" stroke-width="4"/>
<defs>
<filter id="filter0_d_407_1974" x="0" y="0" width="601" height="370" filterUnits="userSpaceOnUse" color-interpolation-filters="sRGB">
<feFlood flood-opacity="0" result="BackgroundImageFix"/>
<feColorMatrix in="SourceAlpha" type="matrix" values="0 0 0 0 0 0 0 0 0 0 0 0 0 0 0 0 0 0 127 0" result="hardAlpha"/>
<feOffset dy="4"/>
<feGaussianBlur stdDeviation="2"/>
<feComposite in2="hardAlpha" operator="out"/>
<feColorMatrix type="matrix" values="0 0 0 0 0 0 0 0 0 0 0 0 0 0 0 0 0 0 0.25 0"/>
<feBlend mode="normal" in2="BackgroundImageFix" result="effect1_dropShadow_407_1974"/>
<feBlend mode="normal" in="SourceGraphic" in2="effect1_dropShadow_407_1974" result="shape"/>
</filter>
<linearGradient id="paint0_linear_407_1974" x1="323.168" y1="135.891" x2="323.168" y2="307" gradientUnits="userSpaceOnUse">
<stop stop-color="#5CFFB1" stop-opacity="0.12"/>
<stop offset="1" stop-color="#5CFFB1" stop-opacity="0.01"/>
</linearGradient>
</defs>
</svg>
