<svg width="546" height="376" viewBox="0 0 546 376" fill="none" xmlns="http://www.w3.org/2000/svg">
<g clip-path="url(#clip0_411_2193)">
<g opacity="0.57">
<path opacity="0.02" d="M394.429 363.755C394.714 355.525 350.347 347.311 295.332 345.408C240.316 343.506 195.486 348.635 195.201 356.865C194.916 365.095 239.283 373.31 294.299 375.212C349.314 377.115 394.144 371.985 394.429 363.755Z" fill="#141723"/>
<path opacity="0.039" d="M392.976 363.543C393.257 355.445 349.6 347.362 295.466 345.49C241.332 343.618 197.221 348.665 196.94 356.763C196.659 364.862 240.316 372.944 294.45 374.816C348.584 376.689 392.696 371.641 392.976 363.543Z" fill="#141723"/>
<path opacity="0.059" d="M391.526 363.333C391.802 355.366 348.856 347.414 295.603 345.573C242.351 343.731 198.957 348.697 198.681 356.664C198.405 364.631 241.35 372.583 294.603 374.425C347.856 376.266 391.249 371.301 391.526 363.333Z" fill="#141723"/>
<path opacity="0.078" d="M390.077 363.121C390.348 355.286 348.112 347.466 295.74 345.655C243.367 343.843 200.691 348.727 200.42 356.562C200.148 364.398 242.384 372.218 294.756 374.029C347.129 375.84 389.805 370.957 390.077 363.121Z" fill="#141723"/>
<path opacity="0.098" d="M388.624 362.912C388.891 355.209 347.366 347.52 295.875 345.739C244.384 343.959 202.425 348.76 202.158 356.463C201.891 364.167 243.417 371.855 294.908 373.636C346.399 375.417 388.357 370.615 388.624 362.912Z" fill="#141723"/>
<path opacity="0.118" d="M387.173 362.702C387.435 355.13 346.621 347.574 296.011 345.823C245.401 344.073 204.161 348.792 203.899 356.364C203.637 363.935 244.451 371.492 295.061 373.242C345.67 374.992 386.91 370.273 387.173 362.702Z" fill="#141723"/>
<path opacity="0.137" d="M385.722 362.49C385.98 355.051 345.876 347.625 296.148 345.906C246.419 344.186 205.898 348.823 205.64 356.262C205.382 363.702 245.486 371.127 295.214 372.847C344.942 374.566 385.464 369.93 385.722 362.49Z" fill="#141723"/>
<path opacity="0.157" d="M384.271 362.28C384.524 354.973 345.131 347.679 296.284 345.99C247.437 344.301 207.634 348.855 207.381 356.163C207.127 363.47 246.52 370.764 295.367 372.453C344.214 374.142 384.018 369.588 384.271 362.28Z" fill="#141723"/>
<path opacity="0.176" d="M382.818 362.068C383.067 354.893 344.385 347.731 296.419 346.072C248.454 344.413 209.368 348.885 209.119 356.061C208.871 363.237 247.553 370.399 295.518 372.057C343.484 373.716 382.569 369.244 382.818 362.068Z" fill="#141723"/>
<path opacity="0.196" d="M381.368 361.859C381.612 354.815 343.64 347.785 296.555 346.156C249.469 344.528 211.101 348.918 210.857 355.962C210.613 363.006 248.585 370.036 295.671 371.664C342.756 373.292 381.124 368.902 381.368 361.859Z" fill="#141723"/>
<path opacity="0.216" d="M379.917 361.649C380.157 354.737 342.895 347.839 296.691 346.241C250.487 344.643 212.837 348.951 212.598 355.862C212.358 362.774 249.62 369.673 295.824 371.27C342.028 372.868 379.678 368.561 379.917 361.649Z" fill="#141723"/>
<path opacity="0.235" d="M378.467 361.437C378.702 354.656 342.151 347.888 296.828 346.321C251.506 344.754 214.574 348.98 214.339 355.761C214.104 362.542 250.654 369.309 295.977 370.877C341.3 372.444 378.231 368.218 378.467 361.437Z" fill="#141723"/>
<path opacity="0.255" d="M377.014 361.227C377.244 354.578 341.404 347.942 296.963 346.405C252.522 344.868 216.308 349.012 216.077 355.661C215.847 362.31 251.687 368.946 296.128 370.483C340.57 372.02 376.783 367.876 377.014 361.227Z" fill="#141723"/>
<path opacity="0.275" d="M375.563 361.015C375.789 354.498 340.659 347.994 297.1 346.488C253.54 344.981 218.044 349.043 217.818 355.56C217.592 362.077 252.721 368.581 296.281 370.088C339.841 371.594 375.337 367.532 375.563 361.015Z" fill="#141723"/>
<path opacity="0.294" d="M374.112 360.806C374.333 354.421 339.915 348.048 297.236 346.572C254.558 345.096 219.78 349.076 219.559 355.461C219.338 361.846 253.756 368.218 296.435 369.694C339.113 371.17 373.891 367.191 374.112 360.806Z" fill="#141723"/>
<path opacity="0.314" d="M372.661 360.596C372.878 354.343 339.169 348.102 297.371 346.656C255.572 345.211 221.513 349.108 221.296 355.361C221.079 361.614 254.788 367.855 296.586 369.301C338.384 370.746 372.444 366.849 372.661 360.596Z" fill="#141723"/>
<path opacity="0.333" d="M371.21 360.384C371.422 354.263 338.424 348.153 297.507 346.738C256.591 345.323 223.249 349.138 223.037 355.26C222.824 361.381 255.822 367.49 296.739 368.905C337.656 370.32 370.998 366.505 371.21 360.384Z" fill="#141723"/>
<path opacity="0.353" d="M369.759 360.174C369.967 354.185 337.68 348.207 297.644 346.823C257.608 345.438 224.985 349.171 224.777 355.16C224.57 361.149 256.857 367.127 296.892 368.511C336.928 369.896 369.552 366.163 369.759 360.174Z" fill="#141723"/>
<path opacity="0.372" d="M368.308 359.962C368.511 354.105 336.935 348.259 297.781 346.905C258.626 345.551 226.721 349.202 226.518 355.059C226.315 360.916 257.891 366.762 297.046 368.116C336.2 369.47 368.105 365.82 368.308 359.962Z" fill="#141723"/>
<path opacity="0.392" d="M366.855 359.752C367.054 354.027 336.188 348.313 297.915 346.989C259.642 345.665 228.455 349.234 228.257 354.959C228.058 360.684 258.924 366.399 297.197 367.722C335.47 369.046 366.657 365.478 366.855 359.752Z" fill="#141723"/>
<path opacity="0.412" d="M365.406 359.542C365.6 353.948 335.445 348.364 298.052 347.071C260.66 345.778 230.19 349.265 229.996 354.859C229.802 360.454 259.957 366.037 297.35 367.331C334.743 368.624 365.213 365.137 365.406 359.542Z" fill="#141723"/>
<path opacity="0.431" d="M363.956 359.331C364.145 353.868 334.7 348.417 298.189 347.154C261.678 345.891 231.926 349.296 231.736 354.758C231.547 360.221 260.992 365.673 297.503 366.935C334.014 368.198 363.766 364.793 363.956 359.331Z" fill="#141723"/>
<path opacity="0.451" d="M362.505 359.121C362.69 353.79 333.955 348.47 298.326 347.238C262.696 346.006 233.662 349.328 233.477 354.659C233.292 359.989 262.026 365.309 297.656 366.542C333.286 367.774 362.32 364.452 362.505 359.121Z" fill="#141723"/>
<path opacity="0.471" d="M361.052 358.909C361.232 353.711 333.209 348.522 298.46 347.32C263.712 346.119 235.396 349.359 235.216 354.557C235.036 359.756 263.059 364.945 297.808 366.146C332.556 367.348 360.872 364.108 361.052 358.909Z" fill="#141723"/>
<path opacity="0.49" d="M359.601 358.699C359.777 353.633 332.464 348.576 298.597 347.404C264.73 346.233 237.132 349.391 236.957 354.458C236.781 359.524 264.094 364.581 297.961 365.752C331.828 366.924 359.425 363.766 359.601 358.699Z" fill="#141723"/>
<path opacity="0.51" d="M358.15 358.49C358.321 353.555 331.719 348.63 298.733 347.489C265.748 346.348 238.868 349.424 238.697 354.358C238.526 359.293 265.128 364.218 298.114 365.359C331.1 366.5 357.979 363.424 358.15 358.49Z" fill="#141723"/>
<path opacity="0.529" d="M356.699 358.278C356.866 353.475 330.974 348.681 298.868 347.571C266.762 346.461 240.601 349.454 240.434 354.257C240.268 359.059 266.16 363.853 298.265 364.963C330.371 366.074 356.533 363.08 356.699 358.278Z" fill="#141723"/>
<path opacity="0.549" d="M355.248 358.068C355.41 353.397 330.229 348.735 299.005 347.655C267.78 346.575 242.337 349.487 242.175 354.157C242.013 358.828 267.194 363.49 298.418 364.57C329.643 365.65 355.086 362.739 355.248 358.068Z" fill="#141723"/>
<path opacity="0.569" d="M353.797 357.856C353.955 353.317 329.484 348.787 299.141 347.738C268.798 346.688 244.073 349.517 243.916 354.056C243.758 358.595 268.229 363.125 298.572 364.174C328.915 365.224 353.64 362.395 353.797 357.856Z" fill="#141723"/>
<path opacity="0.588" d="M352.347 357.646C352.499 353.238 328.74 348.839 299.278 347.82C269.817 346.801 245.809 349.548 245.657 353.956C245.504 358.364 269.263 362.764 298.725 363.783C328.186 364.802 352.194 362.054 352.347 357.646Z" fill="#141723"/>
<path opacity="0.608" d="M350.894 357.436C351.042 353.16 327.993 348.893 299.413 347.904C270.833 346.916 247.544 349.581 247.395 353.857C247.247 358.133 270.296 362.401 298.876 363.389C327.456 364.378 350.745 361.712 350.894 357.436Z" fill="#141723"/>
<path opacity="0.627" d="M349.443 357.225C349.586 353.08 327.248 348.944 299.55 347.987C271.851 347.029 249.28 349.611 249.136 353.756C248.992 357.9 271.33 362.036 299.029 362.994C326.728 363.952 349.299 361.369 349.443 357.225Z" fill="#141723"/>
<path opacity="0.647" d="M347.994 357.015C348.133 353.003 326.505 348.998 299.686 348.071C272.867 347.143 251.014 349.644 250.875 353.656C250.736 357.668 272.364 361.673 299.183 362.6C326.001 363.528 347.855 361.027 347.994 357.015Z" fill="#141723"/>
<path opacity="0.667" d="M346.543 356.805C346.677 352.925 325.76 349.052 299.823 348.155C273.885 347.258 252.75 349.676 252.616 353.557C252.481 357.437 273.398 361.309 299.336 362.206C325.273 363.103 346.408 360.685 346.543 356.805Z" fill="#141723"/>
<path opacity="0.686" d="M345.09 356.593C345.22 352.845 325.013 349.104 299.957 348.237C274.902 347.371 254.484 349.707 254.354 353.455C254.224 357.203 274.431 360.945 299.487 361.811C324.543 362.678 344.96 360.341 345.09 356.593Z" fill="#141723"/>
<path opacity="0.706" d="M343.638 356.383C343.764 352.767 324.268 349.158 300.093 348.322C275.919 347.486 256.22 349.739 256.094 353.356C255.969 356.972 275.465 360.581 299.639 361.417C323.814 362.254 343.513 360 343.638 356.383Z" fill="#141723"/>
<path opacity="0.726" d="M342.188 356.172C342.309 352.687 323.524 349.209 300.231 348.404C276.938 347.598 257.957 349.77 257.836 353.254C257.715 356.739 276.5 360.216 299.793 361.022C323.087 361.828 342.067 359.656 342.188 356.172Z" fill="#141723"/>
<path opacity="0.745" d="M340.735 355.962C340.851 352.608 322.777 349.261 300.365 348.486C277.953 347.711 259.69 349.801 259.574 353.155C259.458 356.508 277.532 359.855 299.944 360.63C322.356 361.405 340.618 359.315 340.735 355.962Z" fill="#141723"/>
<path opacity="0.765" d="M339.285 355.752C339.397 352.53 322.033 349.315 300.501 348.57C278.97 347.826 261.424 349.834 261.313 353.055C261.201 356.277 278.565 359.492 300.097 360.237C321.628 360.981 339.174 358.973 339.285 355.752Z" fill="#141723"/>
<path opacity="0.784" d="M337.835 355.54C337.942 352.45 321.288 349.367 300.638 348.653C279.988 347.938 263.16 349.864 263.053 352.954C262.946 356.043 279.6 359.127 300.25 359.841C320.9 360.555 337.728 358.63 337.835 355.54Z" fill="#141723"/>
<path opacity="0.804" d="M336.384 355.33C336.486 352.372 320.543 349.421 300.775 348.737C281.006 348.053 264.897 349.897 264.794 352.854C264.692 355.812 280.634 358.764 300.403 359.448C320.172 360.131 336.281 358.288 336.384 355.33Z" fill="#141723"/>
<path opacity="0.824" d="M334.931 355.118C335.029 352.293 319.797 349.472 300.909 348.819C282.022 348.166 266.631 349.927 266.533 352.753C266.435 355.579 281.667 358.399 300.555 359.052C319.442 359.705 334.833 357.944 334.931 355.118Z" fill="#141723"/>
<path opacity="0.843" d="M333.48 354.909C333.573 352.215 319.052 349.526 301.046 348.904C283.04 348.281 268.367 349.96 268.274 352.653C268.18 355.347 282.701 358.036 300.708 358.659C318.714 359.281 333.387 357.602 333.48 354.909Z" fill="#141723"/>
<path opacity="0.863" d="M332.031 354.699C332.12 352.137 318.308 349.58 301.182 348.988C284.056 348.395 270.101 349.992 270.012 352.554C269.924 355.116 283.735 357.673 300.861 358.265C317.987 358.857 331.942 357.261 332.031 354.699Z" fill="#141723"/>
<path opacity="0.882" d="M330.578 354.487C330.662 352.057 317.562 349.632 301.317 349.07C285.073 348.508 271.835 350.022 271.751 352.452C271.667 354.882 284.768 357.307 301.012 357.869C317.257 358.431 330.494 356.917 330.578 354.487Z" fill="#141723"/>
<path opacity="0.902" d="M329.127 354.277C329.207 351.979 316.817 349.685 301.454 349.154C286.091 348.623 273.572 350.055 273.492 352.353C273.412 354.651 285.802 356.944 301.165 357.476C316.529 358.007 329.048 356.575 329.127 354.277Z" fill="#141723"/>
<path opacity="0.922" d="M327.676 354.065C327.752 351.898 316.073 349.735 301.591 349.235C287.109 348.734 275.308 350.084 275.233 352.251C275.158 354.419 286.837 356.581 301.319 357.082C315.801 357.583 327.601 356.232 327.676 354.065Z" fill="#141723"/>
<path opacity="0.941" d="M326.226 353.856C326.296 351.821 315.328 349.79 301.727 349.319C288.127 348.849 277.044 350.117 276.973 352.152C276.903 354.187 287.871 356.219 301.472 356.689C315.072 357.159 326.155 355.891 326.226 353.856Z" fill="#141723"/>
<path opacity="0.961" d="M324.773 353.646C324.839 351.742 314.581 349.843 301.862 349.403C289.143 348.963 278.778 350.15 278.712 352.053C278.646 353.956 288.904 355.855 301.623 356.295C314.342 356.735 324.707 355.549 324.773 353.646Z" fill="#141723"/>
<path opacity="0.98" d="M323.324 353.434C323.385 351.663 313.837 349.895 301.999 349.485C290.16 349.076 280.512 350.18 280.451 351.951C280.39 353.722 289.937 355.49 301.776 355.9C313.615 356.309 323.262 355.205 323.324 353.434Z" fill="#141723"/>
<path d="M321.873 353.224C321.93 351.585 313.093 349.949 302.135 349.57C291.178 349.191 282.249 350.212 282.192 351.852C282.135 353.491 290.972 355.127 301.929 355.506C312.887 355.885 321.816 354.863 321.873 353.224Z" fill="#141723"/>
</g>
<path d="M268.131 305.675C256.732 319.533 222.957 352.491 155.657 359.395C154.588 359.511 153.51 359.274 152.538 358.706C151.889 358.327 151.301 357.769 150.87 357.169L102.544 288.783C102.638 288.621 102.837 288.431 103.178 288.37C162.603 281.176 193.803 251.583 204.486 239.176C205.306 238.219 206.537 238.198 207.347 238.671C207.54 238.784 207.716 238.929 207.841 239.09L268.156 303.474C268.392 303.742 268.576 304.021 268.689 304.35C268.643 304.8 268.443 305.291 268.131 305.675Z" fill="url(#paint0_linear_411_2193)"/>
<path d="M238.198 315.876C225.671 301.958 217.952 294.668 204.186 279.718C203.851 279.355 203.872 278.789 204.228 278.456C204.297 278.393 204.331 278.361 204.4 278.296C204.756 277.963 205.319 277.988 205.654 278.349C219.46 293.302 227.235 300.615 239.822 314.602C240.128 314.941 240.056 315.471 239.661 315.779C239.585 315.838 239.546 315.868 239.47 315.928C239.073 316.238 238.503 316.215 238.198 315.876ZM242.043 312.832C229.376 298.743 221.53 291.394 207.668 276.429C207.331 276.066 207.343 275.494 207.689 275.157C207.756 275.092 207.789 275.06 207.856 274.995C208.202 274.658 208.76 274.679 209.097 275.043C222.995 290.017 230.892 297.395 243.615 311.56C243.923 311.904 243.862 312.436 243.481 312.744C243.406 312.803 243.37 312.832 243.297 312.891C242.916 313.199 242.351 313.172 242.043 312.832ZM250.605 305.61C233.046 285.899 220.892 275.569 203.516 255.121C203.161 254.706 203.182 254.06 203.554 253.685C203.925 253.31 204.513 253.345 204.867 253.76C222.221 274.188 234.452 284.553 252.066 304.375C252.424 304.777 252.386 305.381 251.985 305.719C251.579 306.058 250.961 306.01 250.605 305.61ZM234.413 318.775C222.03 304.998 214.434 297.752 200.77 282.792C200.439 282.428 200.469 281.868 200.835 281.543C200.906 281.48 200.94 281.449 201.011 281.386C201.377 281.061 201.946 281.092 202.279 281.453C215.989 296.406 223.64 303.669 236.089 317.505C236.389 317.84 236.305 318.366 235.899 318.674C235.82 318.733 235.782 318.762 235.704 318.821C235.294 319.131 234.716 319.11 234.413 318.775ZM230.446 321.565C213.68 302.843 202.487 292.748 184.952 271.61C184.599 271.185 184.659 270.562 185.078 270.218C185.497 269.873 186.123 269.935 186.476 270.357C204.019 291.422 215.309 301.527 232.167 320.311C232.506 320.688 232.393 321.279 231.92 321.623C231.446 321.967 230.781 321.942 230.446 321.565ZM226.431 324.396C209.88 305.773 198.911 295.681 181.404 274.343C181.054 273.914 181.122 273.306 181.553 272.985C181.984 272.664 182.62 272.744 182.97 273.17C200.49 294.413 211.557 304.503 228.204 323.162C228.537 323.537 228.413 324.12 227.925 324.459C227.435 324.799 226.763 324.769 226.431 324.396ZM218.396 329.636C202.271 311.022 191.741 300.85 174.297 278.942C173.947 278.502 174.038 277.932 174.496 277.668C174.952 277.404 175.61 277.538 175.961 277.974C193.42 299.728 204.05 309.869 220.274 328.462C220.599 328.835 220.442 329.404 219.926 329.728C219.407 330.053 218.717 330.011 218.396 329.636ZM214.019 332.242C198.12 313.52 187.822 303.249 170.412 280.931C170.064 280.483 170.167 279.938 170.64 279.713C171.111 279.485 171.779 279.657 172.13 280.101C189.552 302.229 199.952 312.451 215.953 331.114C216.272 331.489 216.102 332.051 215.57 332.361C215.036 332.673 214.339 332.617 214.019 332.242ZM209.512 334.729C193.807 315.733 183.768 305.371 166.401 282.585C166.053 282.128 166.169 281.606 166.658 281.42C167.146 281.237 167.828 281.447 168.176 281.9C185.564 304.488 195.733 314.834 211.507 333.658C211.823 334.034 211.633 334.589 211.086 334.887C210.538 335.184 209.826 335.109 209.512 334.729ZM204.747 336.949C189.179 317.408 179.552 307.192 162.304 284.088C161.957 283.625 162.082 283.1 162.578 282.922C163.072 282.744 163.759 282.975 164.107 283.436C181.419 306.414 191.232 316.7 206.87 336.016C207.184 336.402 206.968 336.939 206.384 337.197C205.796 337.456 205.057 337.341 204.747 336.949ZM196.788 339.854C181.58 319.649 172.673 309.756 155.754 286.353C155.415 285.884 155.551 285.36 156.055 285.192C156.558 285.023 157.247 285.268 157.588 285.735C174.611 309.078 183.724 319.07 199.043 339.112C199.351 339.513 199.095 340.016 198.474 340.223C197.852 340.427 197.094 340.259 196.788 339.854ZM191.572 341.37C176.637 320.846 168.21 311.212 151.548 287.718C151.213 287.248 151.354 286.727 151.862 286.565C152.369 286.402 153.058 286.655 153.395 287.125C170.173 310.588 178.81 320.34 193.866 340.731C194.168 341.141 193.899 341.625 193.267 341.801C192.635 341.98 191.871 341.781 191.572 341.37ZM186.334 342.669C171.67 321.891 163.723 312.545 147.313 289.026C146.983 288.556 147.131 288.041 147.642 287.886C148.151 287.731 148.84 287.99 149.172 288.462C165.693 311.977 173.847 321.451 188.628 342.126C188.924 342.541 188.649 343.007 188.017 343.158C187.383 343.308 186.627 343.086 186.334 342.669ZM181.157 343.778C166.732 322.793 159.25 313.763 143.06 290.269C142.735 289.799 142.888 289.292 143.399 289.145C143.91 288.997 144.598 289.263 144.923 289.734C161.203 313.245 168.888 322.415 183.41 343.315C183.701 343.734 183.428 344.187 182.807 344.315C182.187 344.442 181.446 344.199 181.157 343.778ZM174.32 345.044C160.119 323.834 153.217 315.262 137.227 291.856C136.907 291.388 137.062 290.893 137.575 290.755C138.088 290.619 138.772 290.893 139.093 291.363C155.13 314.801 162.21 323.524 176.464 344.667C176.75 345.092 176.495 345.528 175.905 345.631C175.315 345.736 174.605 345.469 174.32 345.044ZM169.629 345.824C155.475 324.472 148.94 316.245 132.976 292.929C132.656 292.463 132.812 291.975 133.325 291.847C133.836 291.721 134.519 292 134.837 292.468C150.797 315.824 157.487 324.203 171.647 345.495C171.93 345.922 171.701 346.35 171.147 346.44C170.592 346.532 169.913 346.253 169.629 345.824ZM165.287 346.515C151.046 325.023 144.81 317.144 128.741 293.92C128.419 293.453 128.571 292.977 129.08 292.858C129.591 292.742 130.273 293.029 130.594 293.493C146.598 316.76 152.957 324.788 167.142 346.218C167.427 346.648 167.234 347.069 166.723 347.151C166.214 347.236 165.574 346.947 165.287 346.515ZM161.379 347.15C146.888 325.509 140.87 317.974 124.533 294.83C124.205 294.365 124.349 293.899 124.858 293.792C125.366 293.685 126.049 293.979 126.373 294.442C142.57 317.62 148.674 325.304 163.033 346.876C163.321 347.308 163.175 347.727 162.721 347.802C162.266 347.88 161.67 347.584 161.379 347.15Z" fill="#D0D0DD"/>
<path d="M199.488 265.272C197.9 263.453 197.119 262.543 195.588 260.717C196.2 260.114 196.507 259.814 197.113 259.21C200.839 263.647 202.807 265.859 206.82 270.262C206.212 270.866 205.903 271.17 205.287 271.774C203.633 269.957 202.813 269.047 201.199 267.223C198.218 270.153 196.694 271.623 193.537 274.404C192.854 273.622 192.513 273.228 191.835 272.442C194.986 269.667 196.51 268.2 199.488 265.272Z" fill="#D0D0DD"/>
<path d="M517.817 148.941C506.417 162.798 472.642 195.757 405.342 202.66C404.274 202.777 403.196 202.54 402.223 201.972C401.574 201.593 400.987 201.035 400.556 200.434L352.229 132.049C352.323 131.886 352.522 131.697 352.863 131.636C412.288 124.441 443.489 94.849 454.172 82.4414C454.991 81.4852 456.223 81.4642 457.032 81.9366C457.226 82.0494 457.402 82.1947 457.526 82.3554L517.842 146.74C518.077 147.008 518.261 147.289 518.374 147.616C518.328 148.065 518.127 148.559 517.817 148.941Z" fill="url(#paint1_linear_411_2193)"/>
<path d="M487.883 159.142C475.355 145.223 467.636 137.933 453.87 122.984C453.535 122.621 453.556 122.055 453.912 121.722C453.981 121.659 454.015 121.626 454.084 121.561C454.44 121.229 455.003 121.253 455.338 121.615C469.144 136.568 476.92 143.881 489.506 157.868C489.812 158.207 489.74 158.736 489.345 159.044C489.269 159.104 489.23 159.134 489.154 159.193C488.758 159.503 488.187 159.48 487.883 159.142ZM491.729 156.097C479.062 142.009 471.216 134.659 457.354 119.695C457.017 119.332 457.029 118.76 457.375 118.423C457.442 118.358 457.475 118.326 457.542 118.261C457.888 117.924 458.446 117.945 458.783 118.308C472.681 133.282 480.578 140.66 493.301 154.826C493.609 155.17 493.548 155.701 493.167 156.009C493.092 156.069 493.056 156.097 492.983 156.157C492.6 156.464 492.035 156.438 491.729 156.097ZM500.289 148.876C482.73 129.165 470.577 118.834 453.2 98.3869C452.845 97.9719 452.867 97.3256 453.238 96.9507C453.609 96.5759 454.197 96.6103 454.551 97.0253C471.905 117.454 484.136 127.819 501.75 147.641C502.108 148.042 502.07 148.647 501.67 148.985C501.266 149.324 500.645 149.276 500.289 148.876ZM484.099 162.041C471.716 148.264 464.12 141.018 450.456 126.057C450.125 125.694 450.155 125.134 450.521 124.809C450.592 124.745 450.626 124.715 450.697 124.652C451.063 124.327 451.632 124.357 451.965 124.719C465.675 139.672 473.326 146.935 485.775 160.771C486.075 161.106 485.991 161.632 485.585 161.94C485.507 161.999 485.468 162.028 485.39 162.087C484.978 162.397 484.4 162.376 484.099 162.041ZM480.13 164.831C463.364 146.109 452.172 136.013 434.636 114.876C434.285 114.451 434.343 113.828 434.762 113.483C435.181 113.139 435.807 113.2 436.16 113.623C453.703 134.688 464.994 144.793 481.852 163.577C482.19 163.953 482.077 164.544 481.605 164.889C481.13 165.233 480.465 165.208 480.13 164.831ZM476.115 167.662C459.564 149.039 448.595 138.947 431.088 117.608C430.738 117.18 430.807 116.572 431.237 116.251C431.668 115.929 432.304 116.01 432.654 116.436C450.175 137.679 461.241 147.769 477.888 166.428C478.223 166.803 478.097 167.386 477.609 167.725C477.119 168.065 476.447 168.036 476.115 167.662ZM468.08 172.903C451.955 154.29 441.425 144.118 423.981 122.21C423.631 121.77 423.723 121.2 424.18 120.936C424.636 120.672 425.294 120.806 425.645 121.242C443.104 142.995 453.734 153.137 469.958 171.729C470.284 172.102 470.127 172.672 469.61 172.995C469.091 173.318 468.403 173.276 468.08 172.903ZM463.705 175.508C447.804 156.786 437.506 146.514 420.098 124.197C419.75 123.749 419.853 123.204 420.326 122.978C420.797 122.751 421.465 122.923 421.816 123.367C439.238 145.495 449.639 155.717 465.639 174.38C465.959 174.755 465.788 175.317 465.256 175.627C464.722 175.938 464.023 175.883 463.705 175.508ZM459.196 177.994C443.491 158.998 433.453 148.637 416.085 125.851C415.737 125.394 415.854 124.872 416.342 124.686C416.83 124.503 417.512 124.713 417.86 125.166C435.248 147.754 445.417 158.1 461.191 176.923C461.507 177.3 461.318 177.855 460.77 178.153C460.222 178.449 459.512 178.375 459.196 177.994ZM454.431 180.215C438.863 160.674 429.237 150.458 411.988 127.354C411.641 126.891 411.766 126.365 412.262 126.187C412.756 126.01 413.443 126.241 413.792 126.702C431.103 149.679 440.916 159.966 456.554 179.281C456.868 179.668 456.652 180.205 456.068 180.463C455.482 180.721 454.743 180.607 454.431 180.215ZM446.472 183.119C431.264 162.915 422.357 153.022 405.438 129.618C405.099 129.15 405.235 128.626 405.739 128.457C406.242 128.289 406.932 128.534 407.272 129.001C424.295 152.343 433.408 162.336 448.727 182.377C449.035 182.779 448.779 183.282 448.159 183.489C447.538 183.693 446.778 183.525 446.472 183.119ZM441.258 184.636C426.323 164.112 417.896 154.478 401.234 130.984C400.899 130.513 401.04 129.993 401.548 129.831C402.055 129.668 402.744 129.92 403.081 130.391C419.859 153.854 428.496 163.605 443.552 183.997C443.854 184.407 443.585 184.89 442.953 185.066C442.319 185.246 441.557 185.047 441.258 184.636ZM436.018 185.935C421.354 165.156 413.407 155.81 396.997 132.292C396.667 131.821 396.815 131.307 397.326 131.152C397.835 130.997 398.525 131.255 398.856 131.728C415.377 155.242 423.531 164.716 438.312 185.391C438.609 185.806 438.333 186.273 437.701 186.424C437.067 186.573 436.313 186.351 436.018 185.935ZM430.841 187.044C416.416 166.059 408.934 157.029 392.744 133.535C392.419 133.064 392.572 132.558 393.083 132.41C393.595 132.263 394.282 132.529 394.607 132.999C410.887 156.51 418.572 165.68 433.095 186.581C433.386 187 433.112 187.453 432.491 187.581C431.873 187.707 431.13 187.464 430.841 187.044ZM424.006 188.31C409.805 167.099 402.903 158.528 386.913 135.122C386.593 134.654 386.748 134.158 387.261 134.021C387.774 133.885 388.458 134.158 388.779 134.629C404.816 158.067 411.896 166.79 426.15 187.933C426.436 188.358 426.181 188.794 425.591 188.897C425 189.002 424.289 188.734 424.006 188.31ZM419.315 189.09C405.161 167.738 398.626 159.511 382.662 136.195C382.342 135.728 382.498 135.241 383.011 135.113C383.522 134.986 384.205 135.266 384.523 135.734C400.483 159.09 407.173 167.468 421.333 188.761C421.616 189.187 421.387 189.616 420.833 189.706C420.276 189.798 419.599 189.518 419.315 189.09ZM414.973 189.782C400.732 168.291 394.496 160.412 378.427 137.188C378.105 136.721 378.257 136.245 378.766 136.126C379.277 136.01 379.959 136.296 380.28 136.761C396.285 160.027 402.643 168.056 416.828 189.486C417.113 189.916 416.92 190.337 416.409 190.419C415.9 190.501 415.258 190.213 414.973 189.782ZM411.065 190.415C396.574 168.775 390.556 161.24 374.219 138.096C373.891 137.631 374.035 137.165 374.544 137.057C375.052 136.95 375.735 137.245 376.059 137.708C392.256 160.886 398.358 168.57 412.719 190.142C413.007 190.574 412.861 190.993 412.407 191.067C411.952 191.146 411.354 190.849 411.065 190.415Z" fill="#D0D0DD"/>
<path d="M449.171 108.538C447.584 106.719 446.803 105.809 445.271 103.983C445.884 103.38 446.19 103.08 446.797 102.476C450.523 106.912 452.491 109.125 456.504 113.527C455.895 114.132 455.587 114.436 454.97 115.04C453.316 113.223 452.497 112.313 450.883 110.489C447.902 113.418 446.378 114.889 443.221 117.67C442.537 116.887 442.196 116.493 441.519 115.707C444.672 112.933 446.194 111.466 449.171 108.538Z" fill="#D0D0DD"/>
<path d="M398.765 252.184C399.077 270.12 394.745 317.094 347.983 365.918C347.246 366.698 346.271 367.214 345.161 367.411C344.421 367.543 343.612 367.497 342.894 367.32L261.73 346.499C261.698 346.314 261.724 346.042 261.945 345.775C302.523 301.828 307.077 259.084 307.162 242.716C307.165 241.457 308.088 240.644 309.013 240.48C309.233 240.44 309.463 240.438 309.66 240.478L397.356 250.489C397.708 250.541 398.03 250.637 398.329 250.811C398.587 251.187 398.754 251.69 398.765 252.184Z" fill="url(#paint2_linear_411_2193)"/>
<path d="M382.593 279.334C364.025 276.838 353.416 276.282 333.237 273.802C332.746 273.742 332.394 273.297 332.45 272.813C332.461 272.719 332.465 272.673 332.477 272.58C332.532 272.096 332.976 271.75 333.466 271.809C353.681 274.264 364.345 274.806 383.003 277.313C383.456 277.374 383.744 277.823 383.644 278.315C383.625 278.41 383.615 278.458 383.596 278.552C383.493 279.042 383.043 279.393 382.593 279.334ZM383.544 274.524C364.758 271.989 354.018 271.468 333.755 269.04C333.263 268.98 332.9 268.537 332.946 268.057C332.955 267.965 332.959 267.919 332.967 267.825C333.013 267.345 333.451 266.999 333.943 267.058C354.24 269.472 365.04 269.979 383.918 272.537C384.375 272.601 384.674 273.044 384.584 273.526C384.567 273.62 384.557 273.666 384.54 273.758C384.448 274.239 384 274.586 383.544 274.524ZM385.379 263.48C359.22 259.828 343.265 259.826 316.767 255.496C316.229 255.408 315.823 254.903 315.864 254.377C315.904 253.851 316.373 253.498 316.911 253.584C343.378 257.915 359.415 257.894 385.687 261.595C386.219 261.669 386.583 262.153 386.497 262.671C386.411 263.19 385.909 263.553 385.379 263.48ZM381.592 283.991C363.223 281.51 352.741 280.906 332.63 278.353C332.141 278.292 331.801 277.844 331.87 277.361C331.883 277.267 331.889 277.221 331.902 277.127C331.969 276.643 332.423 276.297 332.911 276.358C353.053 278.875 363.591 279.458 382.043 281.941C382.49 282.002 382.767 282.457 382.656 282.954C382.635 283.05 382.624 283.098 382.602 283.193C382.493 283.692 382.038 284.05 381.592 283.991ZM380.382 288.686C355.469 285.274 340.397 284.827 313.332 280.074C312.791 279.979 312.429 279.464 312.525 278.933C312.62 278.399 313.137 278.039 313.679 278.133C340.704 282.826 355.856 283.218 380.879 286.617C381.381 286.683 381.68 287.207 381.542 287.775C381.404 288.345 380.881 288.755 380.382 288.686ZM379.162 293.442C354.477 289.967 339.578 289.378 312.404 284.454C311.86 284.356 311.516 283.847 311.636 283.321C311.755 282.797 312.293 282.447 312.837 282.545C339.959 287.389 354.931 287.913 379.713 291.354C380.211 291.422 380.493 291.948 380.341 292.524C380.186 293.098 379.656 293.511 379.162 293.442ZM376.443 302.637C352.088 298.894 337.472 297.959 309.976 292.56C309.425 292.451 309.124 291.958 309.302 291.463C309.478 290.965 310.066 290.642 310.616 290.747C338.023 296.02 352.697 296.865 377.111 300.529C377.602 300.602 377.852 301.139 377.669 301.719C377.483 302.298 376.931 302.711 376.443 302.637ZM374.802 307.452C350.548 303.48 336.043 302.321 308.31 296.586C307.755 296.471 307.48 295.989 307.694 295.509C307.907 295.031 308.525 294.729 309.078 294.84C336.7 300.42 351.251 301.478 375.543 305.341C376.03 305.419 376.265 305.958 376.06 306.54C375.855 307.121 375.289 307.532 374.802 307.452ZM372.984 312.266C348.701 307.959 334.336 306.563 306.329 300.443C305.768 300.321 305.517 299.846 305.77 299.389C306.023 298.934 306.677 298.653 307.236 298.774C335.13 304.727 349.585 306.027 373.809 310.158C374.295 310.24 374.51 310.785 374.285 311.367C374.06 311.948 373.47 312.352 372.984 312.266ZM370.795 317.043C346.264 312.231 332.306 310.678 304.183 304.241C303.62 304.113 303.373 303.633 303.633 303.176C303.894 302.721 304.567 302.451 305.13 302.577C333.219 308.879 347.364 310.363 371.802 314.956C372.292 315.048 372.474 315.597 372.199 316.173C371.925 316.748 371.287 317.138 370.795 317.043ZM366.621 324.407C341.933 318.858 328.733 317.087 300.667 310.206C300.105 310.068 299.869 309.582 300.143 309.127C300.417 308.672 301.1 308.412 301.663 308.55C329.767 315.316 343.191 317.029 367.858 322.382C368.352 322.489 368.484 323.038 368.145 323.597C367.805 324.155 367.117 324.518 366.621 324.407ZM363.635 328.938C338.946 322.969 326.281 321.084 298.351 313.97C297.79 313.828 297.562 313.34 297.842 312.889C298.123 312.438 298.812 312.183 299.373 312.323C327.37 319.34 340.275 321.177 364.967 326.968C365.463 327.085 365.57 327.628 365.205 328.171C364.839 328.716 364.129 329.058 363.635 328.938ZM360.487 333.319C335.84 326.98 323.727 325.004 295.973 317.708C295.416 317.563 295.196 317.075 295.483 316.626C295.77 316.178 296.463 315.93 297.02 316.075C324.855 323.298 337.211 325.237 361.881 331.42C362.375 331.544 362.469 332.078 362.086 332.602C361.701 333.126 360.983 333.445 360.487 333.319ZM357.265 337.515C332.668 330.864 321.111 328.827 293.541 321.407C292.988 321.258 292.775 320.774 293.07 320.33C293.363 319.886 294.058 319.644 294.614 319.793C322.262 327.167 334.064 329.181 358.682 335.702C359.176 335.832 359.262 336.356 358.871 336.855C358.481 337.354 357.759 337.649 357.265 337.515ZM352.882 342.904C328.308 335.935 317.493 333.872 290.131 326.392C289.584 326.243 289.381 325.763 289.683 325.329C289.986 324.893 290.683 324.66 291.232 324.809C318.649 332.286 329.698 334.348 354.27 341.231C354.762 341.368 354.852 341.866 354.469 342.328C354.088 342.787 353.374 343.044 352.882 342.904ZM349.817 346.536C325.186 339.429 314.874 337.393 287.591 329.961C287.043 329.812 286.846 329.341 287.154 328.911C287.462 328.483 288.163 328.255 288.709 328.404C316.015 335.868 326.543 337.922 351.14 344.977C351.632 345.119 351.735 345.593 351.372 346.021C351.008 346.452 350.311 346.677 349.817 346.536ZM346.96 349.873C322.174 342.717 312.314 340.751 285.012 333.457C284.464 333.31 284.269 332.849 284.581 332.428C284.893 332.009 285.6 331.785 286.145 331.933C313.426 339.299 323.476 341.301 348.18 348.446C348.676 348.59 348.802 349.035 348.465 349.429C348.132 349.821 347.456 350.016 346.96 349.873ZM344.395 352.885C319.319 345.778 309.85 343.931 282.395 336.874C281.843 336.733 281.65 336.283 281.968 335.872C282.285 335.463 282.996 335.243 283.543 335.388C310.914 342.562 320.547 344.466 345.477 351.607C345.976 351.751 346.137 352.164 345.84 352.516C345.544 352.868 344.896 353.028 344.395 352.885Z" fill="#D0D0DD"/>
<path d="M320.286 265.836C317.899 265.477 316.713 265.29 314.362 264.89C314.439 264.035 314.475 263.607 314.548 262.754C320.263 263.721 323.196 264.134 329.108 264.89C329.038 265.747 328.999 266.175 328.921 267.036C326.484 266.722 325.27 266.559 322.855 266.213C322.488 270.375 322.279 272.482 321.682 276.643C320.654 276.49 320.139 276.41 319.112 276.251C319.712 272.098 319.918 269.994 320.286 265.836Z" fill="#D0D0DD"/>
<path d="M138.107 148.886C138.419 166.822 134.086 213.796 87.3244 262.62C86.5873 263.4 85.6128 263.916 84.5023 264.113C83.7633 264.245 82.9534 264.199 82.2354 264.022L1.07198 243.203C1.03944 243.018 1.06624 242.746 1.28642 242.478C41.8643 198.532 46.4191 155.788 46.5034 139.419C46.5072 138.161 47.43 137.348 48.3548 137.184C48.575 137.144 48.8047 137.142 49.0019 137.182L136.698 147.193C137.05 147.245 137.372 147.341 137.671 147.515C137.929 147.889 138.096 148.392 138.107 148.886Z" fill="url(#paint3_linear_411_2193)"/>
<path d="M137.047 145.975C137.359 163.911 133.026 210.886 86.2639 259.709C85.5268 260.489 84.5522 261.006 83.4418 261.203C82.7027 261.335 81.8929 261.289 81.1749 261.111L0.0114367 240.291C-0.0211114 240.105 0.00569295 239.834 0.225871 239.566C40.8038 195.619 45.3586 152.875 45.4428 136.507C45.4467 135.248 46.3695 134.436 47.2942 134.271C47.5144 134.231 47.7442 134.229 47.9414 134.269L135.637 144.281C135.99 144.332 136.311 144.428 136.61 144.602C136.869 144.977 137.035 145.48 137.047 145.975Z" fill="url(#paint4_linear_411_2193)"/>
<path d="M120.876 173.123C102.308 170.628 91.6996 170.071 71.5198 167.591C71.0297 167.532 70.6774 167.086 70.7329 166.602C70.7444 166.508 70.7482 166.463 70.7597 166.369C70.8152 165.885 71.2594 165.539 71.7495 165.598C91.9638 168.054 102.628 168.595 121.286 171.102C121.74 171.163 122.027 171.613 121.927 172.104C121.908 172.2 121.898 172.248 121.879 172.341C121.776 172.831 121.326 173.183 120.876 173.123ZM121.826 168.314C103.04 165.778 92.2989 165.258 72.0367 162.829C71.5447 162.77 71.1809 162.326 71.2269 161.846C71.2364 161.754 71.2403 161.708 71.2479 161.615C71.2939 161.135 71.7323 160.788 72.2244 160.848C92.521 163.261 103.321 163.768 122.199 166.327C122.657 166.39 122.955 166.834 122.865 167.315C122.848 167.409 122.839 167.455 122.821 167.547C122.729 168.029 122.283 168.375 121.826 168.314ZM123.66 157.27C97.5008 153.617 81.5465 153.615 55.0485 149.285C54.5105 149.197 54.1047 148.693 54.1449 148.167C54.1851 147.641 54.6541 147.287 55.1921 147.373C81.6595 151.705 97.6961 151.684 123.968 155.384C124.5 155.459 124.864 155.942 124.778 156.461C124.694 156.979 124.19 157.344 123.66 157.27ZM119.875 177.78C101.506 175.3 91.0238 174.695 70.9129 172.142C70.4247 172.081 70.0839 171.634 70.1528 171.15C70.1662 171.056 70.1719 171.01 70.1853 170.917C70.2523 170.433 70.7061 170.087 71.1943 170.148C91.3358 172.664 101.874 173.248 120.327 175.73C120.773 175.791 121.05 176.246 120.939 176.744C120.918 176.839 120.907 176.887 120.886 176.983C120.775 177.482 120.321 177.839 119.875 177.78ZM118.665 182.477C93.7521 179.065 78.6804 178.618 51.6157 173.865C51.0739 173.77 50.712 173.255 50.8077 172.724C50.9035 172.19 51.4204 171.831 51.9622 171.924C78.9867 176.617 94.1388 177.009 119.163 180.408C119.664 180.475 119.963 180.999 119.825 181.567C119.685 182.135 119.163 182.546 118.665 182.477ZM117.443 187.231C92.7584 183.756 77.859 183.167 50.6852 178.243C50.1414 178.145 49.7968 177.637 49.9174 177.111C50.0361 176.587 50.5741 176.237 51.1179 176.334C78.24 181.178 93.2121 181.702 117.995 185.143C118.492 185.212 118.774 185.738 118.623 186.311C118.469 186.887 117.937 187.3 117.443 187.231ZM114.725 196.426C90.369 192.683 75.753 191.748 48.2575 186.35C47.7061 186.241 47.4055 185.747 47.5835 185.252C47.7597 184.755 48.3475 184.431 48.897 184.537C76.3044 189.809 90.9778 190.654 115.393 194.318C115.883 194.391 116.134 194.929 115.95 195.508C115.764 196.087 115.213 196.501 114.725 196.426ZM113.084 201.241C88.8296 197.269 74.3247 196.11 46.5918 190.375C46.0366 190.26 45.7609 189.778 45.9753 189.298C46.1878 188.82 46.8062 188.518 47.3595 188.629C74.9814 194.209 89.5323 195.267 113.825 199.13C114.311 199.208 114.546 199.748 114.342 200.329C114.137 200.912 113.57 201.322 113.084 201.241ZM111.265 206.057C86.9821 201.75 72.6169 200.354 44.6102 194.234C44.0492 194.112 43.7984 193.638 44.0511 193.181C44.3039 192.725 44.9586 192.444 45.5177 192.565C73.4114 198.518 87.8666 199.819 112.09 203.949C112.576 204.032 112.791 204.577 112.567 205.158C112.343 205.737 111.751 206.143 111.265 206.057ZM109.076 210.832C84.5448 206.02 70.5874 204.468 42.4639 198.03C41.901 197.902 41.6541 197.422 41.9144 196.965C42.1748 196.51 42.8488 196.24 43.4117 196.367C71.5007 202.668 85.6457 204.152 110.084 208.746C110.574 208.837 110.756 209.386 110.48 209.962C110.206 210.538 109.569 210.928 109.076 210.832ZM104.903 218.197C80.214 212.647 67.0148 210.876 38.9487 203.995C38.3858 203.858 38.1503 203.372 38.4241 202.917C38.6979 202.461 39.3814 202.201 39.9443 202.339C68.0486 209.105 81.4719 210.819 106.139 216.171C106.633 216.279 106.766 216.827 106.427 217.386C106.086 217.944 105.399 218.308 104.903 218.197ZM101.916 222.729C77.2272 216.76 64.5622 214.875 36.6321 207.761C36.0711 207.619 35.8433 207.132 36.1228 206.68C36.4042 206.229 37.0935 205.975 37.6545 206.114C65.6516 213.131 78.5559 214.969 103.25 220.759C103.746 220.876 103.853 221.419 103.488 221.962C103.12 222.505 102.412 222.848 101.916 222.729ZM98.7702 227.108C74.1236 220.769 62.01 218.793 34.2561 211.498C33.6989 211.352 33.4787 210.865 33.7659 210.415C34.0531 209.968 34.7462 209.719 35.3033 209.864C63.1377 217.087 75.4945 219.027 100.164 225.209C100.658 225.334 100.752 225.867 100.369 226.391C99.9821 226.917 99.2642 227.237 98.7702 227.108ZM95.5479 231.304C70.9512 224.653 59.3947 222.616 31.8245 215.196C31.2712 215.047 31.0587 214.563 31.3535 214.119C31.6465 213.676 32.3415 213.433 32.8967 213.582C60.5453 220.956 72.3469 222.97 96.9648 229.491C97.4587 229.621 97.5449 230.145 97.1543 230.644C96.7637 231.144 96.04 231.438 95.5479 231.304ZM91.1635 236.693C66.5897 229.725 55.7742 227.661 28.4127 220.182C27.8651 220.033 27.6622 219.553 27.9628 219.118C28.2653 218.682 28.9622 218.449 29.5117 218.598C56.9287 226.076 67.9778 228.137 92.5497 235.02C93.0417 235.158 93.1317 235.655 92.7488 236.118C92.3697 236.579 91.6556 236.833 91.1635 236.693ZM88.0983 240.325C63.467 233.219 53.155 231.182 25.8721 223.75C25.3245 223.601 25.1273 223.131 25.4355 222.7C25.7438 222.272 26.4445 222.044 26.9902 222.194C54.2961 229.658 64.8245 231.712 89.4212 238.766C89.9133 238.908 90.0167 239.382 89.6529 239.811C89.2891 240.241 88.5922 240.467 88.0983 240.325ZM85.2417 243.662C60.4554 236.506 50.5952 234.54 23.2931 227.246C22.7455 227.099 22.5502 226.638 22.8623 226.217C23.1744 225.798 23.8809 225.575 24.4265 225.722C51.7076 233.089 61.7573 235.091 86.4613 242.236C86.9572 242.379 87.0835 242.825 86.7466 243.218C86.4134 243.612 85.7376 243.806 85.2417 243.662ZM82.678 246.674C57.6026 239.568 48.133 237.72 20.6778 230.664C20.1264 230.522 19.933 230.073 20.2508 229.661C20.5686 229.252 21.2789 229.032 21.8265 229.178C49.1976 236.351 58.8299 238.256 83.7598 245.397C84.2595 245.54 84.4203 245.953 84.1236 246.305C83.8249 246.657 83.1797 246.818 82.678 246.674Z" fill="#D0D0DD"/>
<path d="M58.5673 159.626C56.1798 159.266 54.9947 159.079 52.6436 158.679C52.7201 157.824 52.7565 157.396 52.8293 156.543C58.5443 157.511 61.4775 157.924 67.3898 158.679C67.3189 159.536 67.2806 159.964 67.2021 160.825C64.7648 160.511 63.551 160.349 61.1367 160.002C60.7691 164.164 60.5604 166.271 59.963 170.433C58.9349 170.28 58.4199 170.199 57.3937 170.041C57.9929 165.887 58.1997 163.783 58.5673 159.626Z" fill="#D0D0DD"/>
<path d="M545.986 226.332C546.299 244.268 541.966 291.243 495.204 340.066C494.467 340.846 493.492 341.363 492.382 341.56C491.643 341.692 490.833 341.646 490.115 341.468L408.951 320.648C408.919 320.462 408.946 320.191 409.166 319.923C449.744 275.976 454.299 233.232 454.383 216.864C454.387 215.605 455.309 214.793 456.234 214.628C456.456 214.588 456.684 214.586 456.881 214.626L544.577 224.638C544.93 224.689 545.251 224.785 545.55 224.959C545.807 225.336 545.973 225.839 545.986 226.332Z" fill="url(#paint5_linear_411_2193)"/>
<path d="M529.814 253.482C511.246 250.987 500.638 250.43 480.458 247.95C479.968 247.891 479.615 247.445 479.671 246.961C479.682 246.867 479.686 246.822 479.698 246.728C479.753 246.244 480.197 245.898 480.688 245.957C500.902 248.413 511.566 248.954 530.224 251.461C530.678 251.522 530.965 251.972 530.865 252.463C530.846 252.559 530.837 252.607 530.817 252.7C530.714 253.19 530.264 253.542 529.814 253.482ZM530.766 248.673C511.982 246.137 501.239 245.617 480.977 243.188C480.485 243.129 480.121 242.685 480.167 242.205C480.176 242.113 480.18 242.067 480.188 241.974C480.234 241.494 480.672 241.147 481.164 241.207C501.461 243.62 512.261 244.127 531.139 246.686C531.597 246.749 531.895 247.193 531.805 247.674C531.788 247.768 531.778 247.814 531.761 247.906C531.667 248.388 531.221 248.734 530.766 248.673ZM532.6 237.629C506.441 233.976 490.485 233.974 463.988 229.644C463.45 229.556 463.045 229.052 463.085 228.526C463.125 228 463.594 227.646 464.132 227.732C490.599 232.064 506.636 232.043 532.908 235.743C533.44 235.818 533.804 236.301 533.718 236.82C533.632 237.338 533.128 237.701 532.6 237.629ZM528.813 258.139C510.444 255.659 499.962 255.054 479.851 252.501C479.363 252.44 479.022 251.993 479.091 251.509C479.104 251.415 479.11 251.369 479.123 251.276C479.19 250.792 479.644 250.446 480.132 250.507C500.274 253.023 510.812 253.607 529.265 256.089C529.711 256.15 529.988 256.605 529.877 257.103C529.856 257.198 529.845 257.246 529.824 257.342C529.715 257.841 529.259 258.198 528.813 258.139ZM527.603 262.834C502.69 259.422 487.618 258.975 460.554 254.223C460.012 254.127 459.65 253.612 459.746 253.081C459.841 252.547 460.358 252.188 460.9 252.281C487.925 256.974 503.077 257.367 528.101 260.765C528.602 260.832 528.901 261.356 528.763 261.924C528.625 262.494 528.102 262.903 527.603 262.834ZM526.381 267.59C501.696 264.115 486.797 263.526 459.623 258.602C459.079 258.504 458.735 257.996 458.855 257.47C458.974 256.946 459.512 256.596 460.056 256.693C487.178 261.537 502.15 262.061 526.933 265.502C527.43 265.571 527.712 266.097 527.561 266.67C527.407 267.246 526.877 267.659 526.381 267.59ZM523.664 276.785C499.309 273.042 484.693 272.107 457.197 266.709C456.646 266.6 456.345 266.106 456.523 265.611C456.7 265.114 457.287 264.79 457.837 264.896C485.244 270.168 499.918 271.013 524.333 274.678C524.823 274.75 525.074 275.288 524.89 275.867C524.704 276.446 524.153 276.86 523.664 276.785ZM522.024 281.6C497.77 277.628 483.265 276.469 455.532 270.734C454.976 270.619 454.701 270.137 454.915 269.657C455.128 269.179 455.746 268.877 456.299 268.988C483.921 274.569 498.472 275.626 522.765 279.489C523.251 279.568 523.486 280.107 523.282 280.688C523.077 281.27 522.508 281.681 522.024 281.6ZM520.205 286.414C495.922 282.107 481.557 280.711 453.55 274.591C452.989 274.469 452.738 273.995 452.991 273.538C453.244 273.083 453.899 272.801 454.458 272.922C482.351 278.875 496.807 280.176 521.03 284.306C521.516 284.389 521.731 284.934 521.507 285.515C521.281 286.096 520.691 286.5 520.205 286.414ZM518.016 291.191C493.485 286.379 479.527 284.827 451.404 278.389C450.841 278.261 450.594 277.781 450.854 277.324C451.115 276.869 451.789 276.599 452.352 276.726C480.441 283.027 494.586 284.511 519.023 289.105C519.514 289.196 519.695 289.745 519.42 290.321C519.144 290.897 518.508 291.287 518.016 291.191ZM513.841 298.556C489.152 293.006 475.953 291.235 447.887 284.354C447.324 284.217 447.088 283.731 447.362 283.276C447.636 282.82 448.319 282.56 448.882 282.698C476.987 289.464 490.41 291.178 515.077 296.53C515.571 296.638 515.704 297.186 515.365 297.745C515.026 298.303 514.337 298.667 513.841 298.556ZM510.856 303.086C486.167 297.118 473.502 295.232 445.572 288.118C445.011 287.976 444.783 287.489 445.063 287.037C445.344 286.586 446.033 286.332 446.594 286.471C474.592 293.488 487.496 295.326 512.188 301.116C512.684 301.233 512.793 301.776 512.426 302.319C512.06 302.864 511.35 303.207 510.856 303.086ZM507.708 307.467C483.062 301.128 470.948 299.152 443.194 291.857C442.637 291.711 442.417 291.224 442.706 290.774C442.993 290.327 443.686 290.078 444.243 290.223C472.078 297.446 484.434 299.386 509.102 305.568C509.596 305.693 509.69 306.226 509.307 306.75C508.922 307.276 508.202 307.594 507.708 307.467ZM504.486 311.663C479.889 305.012 468.333 302.975 440.763 295.555C440.209 295.406 439.997 294.922 440.292 294.478C440.584 294.035 441.279 293.792 441.835 293.941C469.483 301.315 481.285 303.329 505.903 309.85C506.397 309.98 506.483 310.504 506.092 311.003C505.702 311.503 504.98 311.797 504.486 311.663ZM500.103 317.052C475.53 310.084 464.714 308.02 437.353 300.541C436.805 300.392 436.602 299.912 436.905 299.477C437.207 299.041 437.904 298.808 438.454 298.957C465.871 306.435 476.92 308.496 501.492 315.379C501.984 315.517 502.074 316.014 501.691 316.477C501.31 316.936 500.596 317.192 500.103 317.052ZM497.038 320.684C472.407 313.578 462.095 311.541 434.812 304.109C434.264 303.96 434.067 303.49 434.375 303.059C434.684 302.631 435.384 302.403 435.93 302.553C463.236 310.017 473.764 312.071 498.361 319.125C498.853 319.267 498.957 319.741 498.593 320.17C498.229 320.6 497.53 320.826 497.038 320.684ZM494.18 324.021C469.393 316.865 459.533 314.899 432.231 307.605C431.684 307.458 431.488 306.997 431.8 306.576C432.112 306.157 432.819 305.934 433.365 306.081C460.646 313.448 470.695 315.45 495.399 322.595C495.895 322.738 496.022 323.184 495.685 323.577C495.353 323.97 494.678 324.165 494.18 324.021ZM491.616 327.033C466.541 319.927 457.071 318.079 429.616 311.023C429.064 310.881 428.871 310.432 429.189 310.021C429.507 309.611 430.217 309.391 430.765 309.537C458.136 316.71 467.768 318.615 492.698 325.756C493.197 325.899 493.358 326.312 493.062 326.664C492.765 327.016 492.118 327.177 491.616 327.033Z" fill="#D0D0DD"/>
<path d="M467.506 239.985C465.118 239.625 463.933 239.438 461.582 239.038C461.659 238.183 461.695 237.755 461.768 236.902C467.483 237.87 470.416 238.283 476.328 239.038C476.257 239.895 476.219 240.323 476.141 241.184C473.703 240.87 472.489 240.708 470.075 240.361C469.708 244.523 469.499 246.63 468.902 250.792C467.873 250.639 467.358 250.558 466.332 250.4C466.931 246.246 467.14 244.142 467.506 239.985Z" fill="#D0D0DD"/>
<path d="M238.788 1.05754C246.808 17.1045 263.165 61.3477 242.035 125.545C241.706 126.566 241.049 127.454 240.134 128.109C239.523 128.547 238.773 128.855 238.049 129.004L155.831 145.199C155.721 145.046 155.63 144.789 155.712 144.453C173.366 87.32 159.034 46.7963 152.047 31.9944C151.507 30.8565 151.99 29.7263 152.752 29.1793C152.934 29.0493 153.139 28.9479 153.336 28.8982L236.787 0.135766C237.128 0.0305847 237.459 -0.0229624 237.804 0.00763596C238.198 0.233299 238.566 0.61769 238.788 1.05754Z" fill="url(#paint6_linear_411_2193)"/>
<path d="M235.91 32.5184C218.08 38.269 208.265 42.3385 188.987 48.7986C188.52 48.9554 188.009 48.7068 187.85 48.2459C187.819 48.158 187.804 48.1121 187.774 48.0241C187.615 47.5651 187.865 47.0603 188.334 46.9034C207.634 40.407 217.49 36.2992 235.407 30.5219C235.841 30.3823 236.295 30.6634 236.418 31.1491C236.441 31.2428 236.452 31.2906 236.477 31.3843C236.596 31.8663 236.343 32.3788 235.91 32.5184ZM234.693 27.768C216.649 33.576 206.73 37.7354 187.4 44.2777C186.931 44.4364 186.412 44.1936 186.246 43.7384C186.213 43.6505 186.198 43.6084 186.165 43.5204C185.999 43.0672 186.246 42.568 186.715 42.4074C206.071 35.8364 216.035 31.6406 234.172 25.8135C234.612 25.672 235.074 25.9436 235.2 26.4179C235.223 26.5096 235.236 26.5555 235.259 26.6454C235.386 27.1235 235.131 27.6265 234.693 27.768ZM231.583 17.0165C206.404 24.995 192.005 31.8682 166.229 39.382C165.704 39.535 165.122 39.2539 164.93 38.7624C164.739 38.2709 165.011 37.7488 165.534 37.5958C191.285 30.0973 205.748 23.1668 231.049 15.1844C231.562 15.0219 232.1 15.303 232.246 15.806C232.389 16.3089 232.093 16.854 231.583 17.0165ZM237.015 37.1502C219.37 42.8281 209.65 46.8002 190.402 53.1646C189.935 53.3195 189.435 53.0633 189.288 52.5966C189.259 52.5068 189.246 52.4628 189.217 52.3729C189.07 51.9082 189.328 51.4014 189.795 51.2446C209.054 44.8342 218.815 40.8201 236.538 35.1078C236.967 34.9701 237.413 35.2627 237.528 35.758C237.549 35.8536 237.561 35.9014 237.584 35.997C237.7 36.4924 237.444 37.0125 237.015 37.1502ZM237.949 41.9083C213.998 49.5674 200.205 55.6584 173.734 63.0345C173.203 63.1818 172.656 62.8739 172.512 62.3518C172.369 61.8297 172.679 61.2827 173.209 61.1336C199.619 53.7211 213.462 47.5441 237.505 39.8257C237.988 39.6708 238.482 40.0131 238.604 40.5849C238.725 41.1605 238.43 41.7553 237.949 41.9083ZM238.899 46.7237C215.125 54.226 201.428 60.1162 174.783 67.3852C174.249 67.5305 173.72 67.2207 173.602 66.6948C173.483 66.1708 173.816 65.6239 174.348 65.4766C200.911 58.1579 214.649 52.1778 238.493 44.6028C238.972 44.4498 239.454 44.8036 239.563 45.3869C239.676 45.9721 239.376 46.5745 238.899 46.7237ZM240.413 56.19C216.822 63.308 203.23 68.764 176.091 75.7424C175.547 75.882 175.063 75.5664 175.007 75.0424C174.951 74.5184 175.342 73.9734 175.884 73.8319C202.889 66.7771 216.494 61.2158 240.105 54.0003C240.578 53.855 241.036 54.2298 241.12 54.8341C241.206 55.4366 240.886 56.0466 240.413 56.19ZM241.011 61.2426C217.413 68.1119 203.824 73.3175 176.324 80.095C175.773 80.2308 175.317 79.9133 175.304 79.3893C175.288 78.8672 175.717 78.3279 176.265 78.1902C203.598 71.3209 217.184 66.0025 240.768 59.0204C241.24 58.8808 241.685 59.2671 241.752 59.879C241.819 60.491 241.484 61.1049 241.011 61.2426ZM241.447 66.3678C217.679 72.9464 204.115 77.8785 176.202 84.4285C175.643 84.5604 175.212 84.2391 175.242 83.719C175.273 83.1988 175.744 82.6633 176.301 82.5314C204.04 75.882 217.645 70.8256 241.283 64.1112C241.757 63.9773 242.186 64.3751 242.234 64.9966C242.282 65.6181 241.924 66.2359 241.447 66.3678ZM241.533 71.6192C217.321 77.8517 204.057 82.4664 175.905 88.7773C175.34 88.9035 174.911 88.5765 174.95 88.0525C174.988 87.5285 175.48 86.9968 176.043 86.8668C204.107 80.4469 217.511 75.6907 241.545 69.3014C242.027 69.1733 242.427 69.5902 242.427 70.227C242.426 70.8696 242.018 71.4949 241.533 71.6192ZM240.944 80.0625C216.272 85.6945 203.598 89.7851 175.304 95.6734C174.737 95.7919 174.314 95.4553 174.366 94.9256C174.415 94.3978 174.921 93.8681 175.488 93.7495C203.766 87.7407 216.617 83.5029 241.185 77.7007C241.677 77.584 242.033 78.0219 241.968 78.6722C241.903 79.3262 241.44 79.9496 240.944 80.0625ZM240.205 85.4382C215.353 90.6935 203.109 94.4494 174.839 100.07C174.272 100.183 173.854 99.8424 173.914 99.3127C173.973 98.7829 174.484 98.257 175.051 98.1423C203.341 92.407 215.776 88.5038 240.559 83.086C241.057 82.977 241.39 83.4206 241.292 84.0689C241.195 84.7192 240.702 85.333 240.205 85.4382ZM239.255 90.7451C214.281 95.6485 202.497 99.087 174.306 104.465C173.741 104.574 173.332 104.228 173.399 103.7C173.466 103.172 173.983 102.65 174.547 102.539C202.78 97.0579 214.767 93.4837 239.693 88.4311C240.193 88.3298 240.507 88.7715 240.388 89.4083C240.268 90.049 239.757 90.6476 239.255 90.7451ZM238.158 95.9201C213.094 100.519 201.786 103.663 173.709 108.85C173.146 108.953 172.746 108.609 172.819 108.081C172.893 107.555 173.414 107.037 173.979 106.93C202.108 101.667 213.626 98.3966 238.652 93.673C239.154 93.5774 239.456 94.0134 239.32 94.6311C239.184 95.2507 238.66 95.8264 238.158 95.9201ZM236.529 102.671C211.35 106.974 200.699 109.775 172.782 114.816C172.223 114.918 171.833 114.574 171.919 114.05C172.003 113.526 172.531 113.015 173.092 112.914C201.057 107.844 211.917 104.943 237.057 100.561C237.561 100.473 237.855 100.885 237.71 101.466C237.566 102.045 237.032 102.585 236.529 102.671ZM235.328 107.266C210.036 111.47 199.853 114.078 172.028 119.131C171.471 119.232 171.088 118.892 171.182 118.373C171.274 117.855 171.808 117.347 172.367 117.247C200.226 112.212 210.613 109.527 235.851 105.293C236.356 105.209 236.653 105.591 236.511 106.134C236.368 106.679 235.836 107.182 235.328 107.266ZM234.191 111.51C208.738 115.736 198.993 118.213 171.21 123.399C170.653 123.503 170.278 123.17 170.379 122.657C170.481 122.143 171.021 121.638 171.578 121.537C199.372 116.425 209.305 113.9 234.679 109.701C235.188 109.617 235.495 109.965 235.361 110.464C235.225 110.959 234.7 111.424 234.191 111.51ZM233.176 115.333C207.484 119.727 198.143 122.143 170.324 127.608C169.767 127.717 169.397 127.396 169.506 126.889C169.616 126.383 170.163 125.88 170.72 125.773C198.512 120.448 208.026 118.016 233.601 113.715C234.114 113.629 234.436 113.933 234.321 114.379C234.204 114.82 233.691 115.245 233.176 115.333Z" fill="#D0D0DD"/>
<path d="M173.864 47.1922C171.555 47.8979 170.404 48.2383 168.111 48.8923C167.81 48.0872 167.659 47.6856 167.356 46.8862C172.932 45.297 175.756 44.4039 181.417 42.5374C181.722 43.3406 181.873 43.7441 182.173 44.5531C179.838 45.3219 178.672 45.6967 176.345 46.4253C177.81 50.3381 178.53 52.3289 179.786 56.3411C178.792 56.6452 178.293 56.7962 177.299 57.0946C176.047 53.09 175.327 51.103 173.864 47.1922Z" fill="#D0D0DD"/>
<path d="M316.965 334.975C407.984 268.642 427.946 191.714 432.238 165.046C432.596 162.823 431.147 155.03 430.272 153.11C428.986 150.286 427.641 153.646 424.463 152.697L288.609 112.143C282.58 110.343 276.371 114.168 275.234 120.351C270.495 146.13 248.271 207.044 173.862 263.39C170.896 265.636 173.288 272.122 174.197 275.266C174.835 277.468 176.376 279.432 178.746 280.512L301.569 336.457C306.589 338.743 312.507 338.223 316.965 334.975Z" fill="url(#paint7_linear_411_2193)"/>
<path d="M316.965 334.336C407.984 268.003 427.946 191.075 432.238 164.407C432.596 162.185 431.147 154.392 430.272 152.471C428.986 149.647 427.641 153.007 424.463 152.058L288.609 111.504C282.58 109.705 276.371 113.529 275.234 119.712C270.495 145.491 248.271 206.405 173.862 262.752C170.896 264.997 173.288 271.484 174.197 274.628C174.835 276.829 176.376 278.793 178.746 279.873L301.571 335.817C306.589 338.104 312.507 337.582 316.965 334.336Z" fill="url(#paint8_linear_411_2193)"/>
<path d="M315.668 328.297C406.688 261.964 426.649 185.036 430.942 158.367C431.826 152.875 428.503 147.612 423.168 146.019L287.315 105.465C281.286 103.665 275.077 107.49 273.939 113.673C269.201 139.452 250.292 203.223 175.883 259.57C170.84 263.389 171.696 271.21 177.453 273.832L300.276 329.777C305.295 332.065 311.213 331.544 315.668 328.297Z" fill="url(#paint9_linear_411_2193)"/>
<path d="M425.076 154.315C424.649 153.95 424.163 153.705 423.613 153.523L286.358 112.552C286.053 112.43 285.686 112.369 285.322 112.369C283.798 112.369 282.092 113.403 281.726 115.413C276.911 141.529 257.407 208.495 180.004 267.122C179.577 267.487 179.455 267.911 179.455 268.217L179.091 268.034C178.48 267.791 178.298 267.244 178.237 266.877C178.176 266.512 178.237 265.963 178.786 265.538C256.19 206.973 275.755 139.947 280.509 113.891C280.874 111.883 282.582 110.846 284.104 110.846C284.468 110.846 284.836 110.908 285.201 110.969L422.395 151.94C423.674 152.305 424.588 153.158 425.076 154.315Z" fill="#D0D0DD"/>
<path d="M424.586 156.627C419.954 185.361 399.597 259.145 310.916 323.797C309.515 324.832 307.809 325.381 305.981 325.381C304.761 325.381 303.48 325.077 302.385 324.589L178.66 268.215C178.66 267.911 178.783 267.485 179.21 267.12C256.613 208.493 276.117 141.527 280.932 115.411C281.298 113.403 283.005 112.367 284.528 112.367C284.891 112.367 285.259 112.428 285.563 112.55L422.819 153.521C423.368 153.703 423.855 153.948 424.281 154.313C424.586 154.984 424.708 155.837 424.586 156.627Z" fill="url(#paint10_linear_411_2193)"/>
<path d="M430.942 157.27C426.65 183.936 406.688 260.866 315.668 327.199C311.213 330.447 305.295 330.967 300.277 328.682L177.454 272.736C174.44 271.363 172.773 268.567 172.589 265.666C172.372 268.94 174.061 272.291 177.454 273.836L300.277 329.781C305.295 332.066 311.213 331.546 315.668 328.299C406.688 261.966 426.65 185.038 430.942 158.369C431.069 157.589 431.105 156.813 431.069 156.052C431.047 156.455 431.007 156.86 430.942 157.27Z" fill="url(#paint11_linear_411_2193)"/>
<g opacity="0.56">
<path d="M400.596 192.892C368.571 182.634 349.999 178.306 315.119 167.568C314.273 167.308 313.788 166.411 314.041 165.573C314.091 165.413 314.114 165.33 314.164 165.17C314.414 164.332 315.309 163.862 316.157 164.12C351.104 174.825 369.779 179.142 401.959 189.453C402.74 189.704 403.106 190.589 402.775 191.425C402.712 191.586 402.677 191.668 402.614 191.829C402.279 192.66 401.373 193.139 400.596 192.892ZM403.799 184.693C371.402 174.296 352.582 169.991 317.541 159.318C316.689 159.06 316.189 158.161 316.423 157.325C316.467 157.164 316.49 157.084 316.534 156.924C316.766 156.088 317.65 155.617 318.5 155.876C353.608 166.533 372.532 170.834 405.084 181.301C405.873 181.555 406.261 182.435 405.949 183.257C405.888 183.416 405.859 183.494 405.798 183.653C405.484 184.477 404.586 184.946 403.799 184.693ZM410.533 165.765C365.459 151.072 337.261 146.038 291.803 130.039C290.878 129.714 290.323 128.695 290.56 127.779C290.798 126.863 291.74 126.384 292.663 126.708C338.067 142.697 366.417 147.717 411.676 162.531C412.595 162.831 413.083 163.8 412.767 164.688C412.451 165.575 411.446 166.061 410.533 165.765ZM397.355 200.802C365.678 190.631 347.342 186.26 312.607 175.414C311.765 175.151 311.303 174.254 311.577 173.422C311.629 173.261 311.655 173.181 311.707 173.02C311.979 172.186 312.888 171.72 313.733 171.98C348.531 182.771 366.97 187.122 398.798 197.325C399.57 197.571 399.912 198.465 399.562 199.308C399.493 199.471 399.461 199.551 399.392 199.713C399.039 200.559 398.122 201.05 397.355 200.802ZM393.728 208.717C350.778 194.841 324.284 189.302 277.957 172.378C277.028 172.037 276.553 171.016 276.892 170.106C277.229 169.195 278.257 168.721 279.186 169.058C325.462 185.864 352.117 191.329 395.262 205.217C396.127 205.495 396.489 206.512 396.066 207.474C395.643 208.434 394.59 208.994 393.728 208.717ZM390.068 216.732C347.541 202.813 321.399 197.08 274.93 179.819C273.997 179.473 273.553 178.467 273.932 177.577C274.309 176.69 275.368 176.241 276.299 176.583C322.701 193.686 348.994 199.329 391.701 213.217C392.559 213.496 392.892 214.513 392.44 215.481C391.988 216.447 390.92 217.011 390.068 216.732ZM382.356 232.117C340.499 217.83 314.964 211.574 268.077 193.372C267.137 193.007 266.764 192.041 267.233 191.219C267.702 190.396 268.841 190.012 269.781 190.371C316.551 208.321 342.214 214.439 384.205 228.604C385.048 228.887 385.321 229.914 384.812 230.88C384.299 231.845 383.194 232.404 382.356 232.117ZM377.931 240.107C336.325 225.449 311.056 218.83 263.858 199.96C262.912 199.581 262.579 198.642 263.107 197.864C263.632 197.088 264.823 196.747 265.766 197.12C312.818 215.682 338.199 222.134 379.905 236.613C380.74 236.904 380.983 237.931 380.439 238.893C379.897 239.857 378.764 240.402 377.931 240.107ZM373.192 248.038C331.642 232.779 306.695 225.785 259.134 206.151C258.181 205.757 257.888 204.841 258.478 204.114C259.067 203.387 260.316 203.1 261.265 203.487C308.676 222.794 333.813 229.646 375.316 244.572C376.147 244.873 376.355 245.902 375.775 246.858C375.197 247.816 374.027 248.344 373.192 248.038ZM367.816 255.785C325.984 239.556 301.807 232.415 254.145 212.182C253.19 211.777 252.906 210.851 253.513 210.126C254.118 209.404 255.393 209.141 256.349 209.541C303.995 229.522 328.525 236.604 370.261 252.417C371.098 252.735 371.247 253.762 370.577 254.691C369.903 255.622 368.653 256.11 367.816 255.785ZM358.107 267.479C316.233 249.897 293.467 242.608 246.04 221.61C245.089 221.19 244.827 220.256 245.455 219.539C246.081 218.822 247.373 218.579 248.325 218.996C295.854 239.803 319.032 247.062 360.933 264.289C361.774 264.633 361.833 265.645 361.058 266.525C360.278 267.406 358.948 267.831 358.107 267.479ZM351.397 274.544C309.655 256.221 287.865 248.898 240.756 227.531C239.81 227.103 239.561 226.169 240.199 225.46C240.838 224.75 242.137 224.517 243.084 224.944C290.342 246.16 312.567 253.473 354.376 271.484C355.214 271.845 355.234 272.842 354.414 273.685C353.595 274.53 352.233 274.911 351.397 274.544ZM344.451 281.29C302.898 262.327 282.113 255.02 235.374 233.385C234.436 232.951 234.202 232.021 234.852 231.32C235.503 230.618 236.804 230.398 237.743 230.83C284.65 252.358 305.875 259.678 347.514 278.376C348.349 278.751 348.345 279.724 347.502 280.527C346.654 281.333 345.283 281.671 344.451 281.29ZM337.428 287.686C296.061 268.185 276.281 260.946 229.908 239.151C228.978 238.715 228.755 237.791 229.416 237.099C230.075 236.408 231.38 236.198 232.313 236.634C278.843 258.372 299.063 265.647 340.505 284.926C341.335 285.312 341.322 286.263 340.474 287.024C339.628 287.785 338.257 288.078 337.428 287.686ZM327.975 295.825C286.752 275.773 268.29 268.72 222.301 246.883C221.38 246.445 221.174 245.534 221.844 244.861C222.516 244.186 223.823 243.995 224.746 244.431C270.834 266.278 289.708 273.402 330.956 293.302C331.782 293.702 331.784 294.608 330.962 295.303C330.145 296.001 328.803 296.228 327.975 295.825ZM321.41 301.273C280.13 280.958 262.546 274.111 216.682 252.387C215.763 251.95 215.562 251.055 216.242 250.396C216.919 249.736 218.231 249.554 219.15 249.992C265.047 271.78 283.004 278.726 324.24 298.94C325.065 299.345 325.098 300.216 324.32 300.858C323.541 301.503 322.237 301.68 321.41 301.273ZM315.305 306.268C273.764 285.817 256.961 279.238 211.017 257.751C210.096 257.321 209.899 256.443 210.582 255.8C211.268 255.158 212.585 254.985 213.504 255.418C259.385 277.026 276.515 283.731 317.912 304.136C318.743 304.545 318.824 305.373 318.108 305.96C317.392 306.547 316.138 306.679 315.305 306.268ZM309.819 310.783C267.754 290.328 251.602 284.083 205.313 262.964C204.385 262.541 204.185 261.685 204.875 261.059C205.566 260.436 206.889 260.273 207.814 260.7C253.915 281.996 270.337 288.397 312.136 308.867C312.975 309.278 313.126 310.059 312.49 310.586C311.855 311.112 310.662 311.193 309.819 310.783Z" fill="white"/>
<path d="M294.751 149.414C290.645 148.027 288.609 147.321 284.581 145.876C284.987 144.388 285.188 143.644 285.584 142.16C295.379 145.671 300.434 147.323 310.643 150.521C310.244 152.011 310.043 152.756 309.634 154.25C305.423 152.928 303.331 152.257 299.174 150.886C297.208 158.123 296.172 161.779 293.8 168.941C292.031 168.344 291.146 168.044 289.383 167.438C291.753 160.295 292.787 156.644 294.751 149.414Z" fill="white"/>
</g>
<path d="M295.46 298.374C376.568 239.264 394.357 170.712 398.182 146.949C398.5 144.969 397.21 138.023 396.43 136.314C395.283 133.797 394.085 136.792 391.255 135.946L270.195 99.808C264.823 98.2035 259.29 101.613 258.277 107.121C254.053 130.093 234.251 184.372 167.943 234.584C165.301 236.584 167.43 242.366 168.241 245.165C168.81 247.127 170.183 248.877 172.296 249.839L281.744 299.693C286.217 301.73 291.491 301.267 295.46 298.374Z" fill="url(#paint12_linear_411_2193)"/>
<path d="M295.46 297.944C376.568 238.833 394.357 170.282 398.182 146.518C398.5 144.539 397.21 137.593 396.43 135.883C395.283 133.367 394.085 136.361 391.255 135.516L270.195 99.3777C264.823 97.7732 259.29 101.183 258.277 106.691C254.053 129.662 234.251 183.942 167.943 234.154C165.301 236.154 167.43 241.935 168.241 244.735C168.81 246.697 170.183 248.447 172.296 249.409L281.744 299.263C286.217 301.3 291.491 300.837 295.46 297.944Z" fill="url(#paint13_linear_411_2193)"/>
<path d="M294.307 292.562C375.415 233.452 393.204 164.9 397.029 141.137C397.816 136.243 394.856 131.552 390.102 130.133L269.042 93.9942C263.67 92.3897 258.137 95.7995 257.124 101.307C252.9 124.279 236.052 181.106 169.746 231.318C165.252 234.72 166.014 241.69 171.145 244.027L280.593 293.882C285.062 295.92 290.337 295.456 294.307 292.562Z" fill="url(#paint14_linear_411_2193)"/>
<path opacity="0.5" d="M397.027 140.175C393.202 163.938 375.415 232.49 294.305 291.6C290.334 294.494 285.062 294.956 280.589 292.92L171.141 243.066C168.455 241.842 166.967 239.346 166.805 236.758C166.617 239.673 168.122 242.652 171.141 244.027L280.589 293.882C285.062 295.918 290.334 295.456 294.305 292.562C375.413 233.452 393.202 164.9 397.027 141.137C397.138 140.444 397.172 139.756 397.14 139.079C397.121 139.442 397.086 139.808 397.027 140.175Z" fill="url(#paint15_linear_411_2193)"/>
<path d="M391.801 137.524C391.42 137.199 390.987 136.981 390.497 136.819L268.189 100.309C267.917 100.2 267.592 100.146 267.266 100.146C265.909 100.146 264.387 101.068 264.061 102.858C259.77 126.13 242.392 185.805 173.417 238.047C173.036 238.372 172.926 238.751 172.926 239.023L172.601 238.86C172.057 238.644 171.894 238.156 171.839 237.829C171.785 237.504 171.839 237.015 172.329 236.636C241.304 184.449 258.739 124.721 262.974 101.502C263.299 99.7123 264.821 98.7905 266.179 98.7905C266.504 98.7905 266.83 98.8441 267.155 98.8995L389.41 135.409C390.553 135.734 391.366 136.495 391.801 137.524Z" fill="url(#paint16_linear_411_2193)"/>
<path d="M392.072 139.586C387.944 165.191 369.803 230.941 290.781 288.552C289.532 289.474 288.012 289.963 286.383 289.963C285.297 289.963 284.156 289.692 283.178 289.258L172.926 239.025C172.926 238.753 173.035 238.374 173.416 238.049C242.391 185.806 259.77 126.134 264.06 102.86C264.386 101.07 265.908 100.148 267.265 100.148C267.591 100.148 267.916 100.202 268.188 100.311L390.496 136.82C390.986 136.983 391.419 137.199 391.8 137.526C392.072 138.121 392.181 138.882 392.072 139.586Z" fill="white"/>
<path d="M369.985 171.901C341.446 162.76 324.896 158.903 293.815 149.335C293.06 149.104 292.63 148.304 292.854 147.557C292.898 147.413 292.919 147.341 292.963 147.197C293.185 146.451 293.983 146.031 294.738 146.262C325.879 155.803 342.522 159.649 371.197 168.836C371.894 169.058 372.219 169.848 371.924 170.591C371.867 170.735 371.838 170.808 371.781 170.951C371.486 171.695 370.678 172.121 369.985 171.901ZM372.84 164.596C343.971 155.331 327.2 151.494 295.974 141.984C295.216 141.752 294.768 140.953 294.977 140.209C295.017 140.066 295.036 139.995 295.077 139.852C295.283 139.108 296.07 138.689 296.83 138.918C328.115 148.415 344.979 152.248 373.987 161.574C374.689 161.8 375.036 162.584 374.756 163.317C374.703 163.458 374.676 163.527 374.62 163.67C374.341 164.403 373.54 164.822 372.84 164.596Z" fill="#D0D0DD"/>
<path d="M378.84 147.727C338.674 134.633 313.547 130.148 273.04 115.891C272.217 115.602 271.723 114.694 271.933 113.877C272.144 113.061 272.984 112.634 273.808 112.923C314.269 127.172 339.53 131.645 379.861 144.845C380.678 145.113 381.115 145.977 380.833 146.767C380.55 147.56 379.654 147.993 378.84 147.727Z" fill="url(#paint17_linear_411_2193)"/>
<path d="M367.096 178.951C338.869 169.888 322.53 165.992 291.577 156.329C290.826 156.094 290.415 155.294 290.66 154.552C290.706 154.409 290.731 154.338 290.777 154.195C291.02 153.453 291.83 153.036 292.582 153.269C323.591 162.886 340.022 166.761 368.385 175.852C369.072 176.072 369.378 176.868 369.064 177.62C369.003 177.763 368.974 177.836 368.913 177.981C368.599 178.733 367.781 179.17 367.096 178.951ZM363.866 186.002C325.593 173.636 301.985 168.7 260.702 153.619C259.875 153.317 259.452 152.406 259.752 151.594C260.053 150.781 260.968 150.36 261.795 150.66C303.032 165.636 326.784 170.507 365.231 182.882C366.003 183.131 366.324 184.036 365.949 184.892C365.572 185.751 364.632 186.25 363.866 186.002ZM360.604 193.144C322.708 180.742 299.411 175.633 258.004 160.249C257.173 159.941 256.777 159.044 257.114 158.253C257.449 157.463 258.393 157.061 259.222 157.367C300.572 172.607 324.002 177.637 362.059 190.012C362.823 190.26 363.119 191.167 362.717 192.029C362.315 192.892 361.364 193.393 360.604 193.144ZM353.73 206.854C316.43 194.123 293.677 188.549 251.897 172.328C251.058 172.003 250.725 171.142 251.144 170.41C251.562 169.677 252.578 169.333 253.415 169.654C295.092 185.65 317.962 191.102 355.379 203.724C356.129 203.976 356.372 204.89 355.921 205.753C355.463 206.613 354.479 207.111 353.73 206.854ZM349.788 213.976C312.714 200.914 290.196 195.017 248.137 178.201C247.294 177.864 246.997 177.027 247.468 176.332C247.936 175.64 248.998 175.338 249.839 175.669C291.766 192.209 314.383 197.958 351.55 210.861C352.294 211.119 352.511 212.035 352.026 212.892C351.54 213.75 350.531 214.238 349.788 213.976ZM345.566 221.042C308.54 207.445 286.312 201.213 243.928 183.716C243.078 183.364 242.818 182.548 243.344 181.901C243.869 181.255 244.981 180.999 245.83 181.343C288.079 198.547 310.478 204.653 347.46 217.956C348.201 218.223 348.387 219.14 347.87 219.992C347.353 220.843 346.309 221.314 345.566 221.042ZM340.774 227.946C303.497 213.485 281.954 207.122 239.481 189.092C238.629 188.731 238.376 187.906 238.918 187.26C239.458 186.615 240.593 186.382 241.445 186.738C283.903 204.542 305.762 210.853 342.953 224.944C343.698 225.227 343.832 226.141 343.234 226.969C342.635 227.801 341.521 228.237 340.774 227.946ZM332.124 238.367C294.809 222.699 274.522 216.204 232.261 197.493C231.413 197.118 231.179 196.286 231.738 195.648C232.297 195.009 233.448 194.793 234.296 195.164C276.651 213.705 297.303 220.172 334.644 235.525C335.392 235.833 335.446 236.734 334.753 237.518C334.06 238.302 332.873 238.68 332.124 238.367ZM326.145 244.662C288.948 228.334 269.532 221.809 227.553 202.769C226.71 202.389 226.488 201.557 227.057 200.924C227.627 200.291 228.784 200.084 229.628 200.463C271.74 219.369 291.544 225.886 328.8 241.935C329.549 242.257 329.566 243.144 328.835 243.895C328.103 244.649 326.89 244.989 326.145 244.662ZM319.953 250.673C282.925 233.773 264.405 227.261 222.753 207.985C221.918 207.598 221.708 206.77 222.288 206.145C222.868 205.519 224.028 205.324 224.865 205.709C266.664 224.894 285.578 231.415 322.681 248.076C323.426 248.411 323.42 249.277 322.67 249.994C321.919 250.711 320.696 251.012 319.953 250.673ZM313.696 256.374C276.834 238.996 259.209 232.547 217.884 213.123C217.055 212.733 216.858 211.911 217.446 211.295C218.033 210.679 219.196 210.494 220.027 210.882C261.491 230.252 279.507 236.735 316.438 253.915C317.179 254.259 317.165 255.106 316.411 255.783C315.657 256.462 314.435 256.722 313.696 256.374ZM305.274 263.626C268.54 245.756 252.086 239.472 211.106 220.013C210.285 219.623 210.101 218.813 210.699 218.212C211.298 217.612 212.462 217.439 213.285 217.83C254.355 237.298 271.173 243.647 307.929 261.379C308.665 261.734 308.666 262.541 307.935 263.163C307.206 263.783 306.009 263.985 305.274 263.626ZM299.423 268.481C262.638 250.379 246.969 244.278 206.1 224.919C205.28 224.531 205.102 223.733 205.707 223.144C206.312 222.557 207.48 222.394 208.3 222.785C249.199 242.201 265.201 248.39 301.946 266.402C302.681 266.764 302.71 267.538 302.017 268.112C301.322 268.684 300.16 268.845 299.423 268.481ZM293.982 272.931C256.963 254.708 241.991 248.845 201.049 229.698C200.228 229.313 200.052 228.531 200.662 227.96C201.273 227.386 202.447 227.233 203.266 227.619C244.152 246.873 259.415 252.847 296.306 271.032C297.045 271.398 297.12 272.136 296.48 272.658C295.843 273.182 294.724 273.299 293.982 272.931ZM289.094 276.955C251.61 258.728 237.216 253.163 195.968 234.343C195.141 233.966 194.963 233.203 195.577 232.645C196.192 232.088 197.373 231.945 198.196 232.324C239.278 251.302 253.911 257.005 291.158 275.245C291.904 275.611 292.04 276.307 291.473 276.777C290.909 277.25 289.844 277.32 289.094 276.955Z" fill="#D0D0DD"/>
<path d="M275.666 133.158C272.007 131.923 270.192 131.294 266.603 130.007C266.964 128.681 267.144 128.018 267.497 126.696C276.225 129.825 280.728 131.297 289.827 134.147C289.472 135.474 289.292 136.14 288.927 137.471C285.176 136.293 283.309 135.694 279.606 134.474C277.853 140.922 276.932 144.179 274.816 150.563C273.24 150.031 272.45 149.763 270.882 149.222C272.995 142.854 273.916 139.601 275.666 133.158Z" fill="#D0D0DD"/>
<path d="M307.771 199.409C311.439 168.419 291.246 153.183 262.646 165.365C234.087 177.53 207.951 212.498 204.283 243.488C200.618 274.436 220.814 289.671 249.372 277.506C277.972 265.326 304.108 230.358 307.771 199.409ZM216 238.493C218.838 214.521 239.056 187.47 261.148 178.061C283.271 168.637 298.891 180.423 296.053 204.395C293.22 228.334 273.002 255.385 250.878 264.808C228.786 274.218 213.165 262.434 216 238.493Z" fill="url(#paint18_linear_411_2193)"/>
<path d="M255.65 159.662C227.084 171.813 200.959 206.805 197.266 237.78C193.628 268.755 213.778 283.945 242.345 271.794C270.967 259.642 297.091 224.651 300.784 193.73C304.422 162.701 284.219 147.457 255.65 159.662ZM220.132 260.294C211.823 256.28 207.368 246.515 208.999 232.79C211.823 208.813 232.028 181.796 254.132 172.357C265.971 167.312 275.91 168.342 282.209 174.039C287.694 179.031 290.356 187.547 289.052 198.723C286.228 222.647 265.969 249.663 243.864 259.103C234.469 263.117 226.267 263.28 220.184 260.35C220.132 260.348 220.132 260.294 220.132 260.294Z" fill="url(#paint19_linear_411_2193)"/>
<path d="M217.12 258.46C210.777 253.698 207.578 244.748 208.999 232.79C211.823 208.813 232.027 181.796 254.131 172.357C264.794 167.813 273.913 168.199 280.222 172.481C273.896 167.688 264.463 167.075 253.36 171.806C231.254 181.245 211.051 208.262 208.227 232.239C206.749 244.674 210.266 253.857 217.12 258.46Z" fill="white"/>
<path d="M289.398 159.842C297.648 165.983 301.841 177.587 300.012 193.181C296.319 224.102 270.196 259.093 241.573 271.245C227.8 277.104 215.985 276.605 207.848 271.048C216 277.118 228.129 277.842 242.345 271.795C270.966 259.644 297.091 224.653 300.784 193.731C302.668 177.658 298.155 165.822 289.398 159.842Z" fill="white"/>
<path d="M327.866 292.627C324.391 296.207 320.014 297.622 318.105 295.775C317.29 294.985 317.062 293.736 317.332 292.272C317.688 290.315 318.959 287.99 320.954 285.934C322.949 283.878 325.237 282.539 327.184 282.122C328.632 281.818 329.897 281.996 330.715 282.788C332.622 284.635 331.352 289.036 327.866 292.627Z" fill="url(#paint20_linear_411_2193)"/>
<path d="M318.107 295.775L274.636 253.677C272.728 251.83 274.008 247.416 277.483 243.836C280.97 240.245 285.335 238.841 287.244 240.688L330.715 282.786C329.899 281.996 328.632 281.816 327.184 282.121C325.237 282.537 322.949 283.876 320.954 285.932C318.959 287.988 317.69 290.313 317.332 292.27C317.062 293.736 317.29 294.983 318.107 295.775Z" fill="url(#paint21_linear_411_2193)"/>
<path d="M378.599 341.472C371.919 348.352 363.51 351.07 359.842 347.519C358.274 346 357.835 343.6 358.354 340.785C359.04 337.025 361.481 332.556 365.314 328.607C369.149 324.658 373.544 322.082 377.286 321.282C380.067 320.697 382.501 321.04 384.069 322.56C387.737 326.111 385.298 334.57 378.599 341.472Z" fill="url(#paint22_linear_411_2193)"/>
<path d="M359.842 347.521L307.709 297.037C304.041 293.486 306.501 285.006 313.181 278.125C319.88 271.224 328.27 268.525 331.938 272.078L384.071 322.562C382.503 321.043 380.067 320.699 377.287 321.284C373.546 322.086 369.149 324.66 365.316 328.609C361.483 332.558 359.041 337.027 358.356 340.787C357.835 343.602 358.274 346 359.842 347.521Z" fill="url(#paint23_linear_411_2193)"/>
<path opacity="0.42" d="M289.051 198.721C286.227 222.645 265.969 249.661 243.863 259.101C234.468 263.115 226.266 263.278 220.183 260.348C220.13 260.348 220.13 260.294 220.13 260.294C214.644 255.303 211.93 246.841 213.287 235.665C216.111 211.687 236.316 184.617 258.42 175.231C267.868 171.217 276.124 171.054 282.207 174.038C287.694 179.029 290.355 187.547 289.051 198.721Z" fill="url(#paint24_linear_411_2193)"/>
</g>
<defs>
<linearGradient id="paint0_linear_411_2193" x1="104.811" y1="366.354" x2="209.938" y2="277.498" gradientUnits="userSpaceOnUse">
<stop stop-color="#E1E2E7"/>
<stop offset="1" stop-color="#F9FAF9"/>
</linearGradient>
<linearGradient id="paint1_linear_411_2193" x1="354.496" y1="209.612" x2="459.623" y2="120.755" gradientUnits="userSpaceOnUse">
<stop stop-color="#E1E2E7"/>
<stop offset="1" stop-color="#F9FAF9"/>
</linearGradient>
<linearGradient id="paint2_linear_411_2193" x1="313.784" y1="404.1" x2="336.339" y2="268.377" gradientUnits="userSpaceOnUse">
<stop stop-color="#E1E2E7"/>
<stop offset="1" stop-color="#F9FAF9"/>
</linearGradient>
<linearGradient id="paint3_linear_411_2193" x1="53.112" y1="300.813" x2="75.6667" y2="165.091" gradientUnits="userSpaceOnUse">
<stop stop-color="#E1E2E7"/>
<stop offset="1" stop-color="#F9FAF9"/>
</linearGradient>
<linearGradient id="paint4_linear_411_2193" x1="52.0518" y1="297.901" x2="74.6065" y2="162.179" gradientUnits="userSpaceOnUse">
<stop stop-color="#E1E2E7"/>
<stop offset="1" stop-color="#F9FAF9"/>
</linearGradient>
<linearGradient id="paint5_linear_411_2193" x1="461.011" y1="378.241" x2="483.565" y2="242.518" gradientUnits="userSpaceOnUse">
<stop stop-color="#E1E2E7"/>
<stop offset="1" stop-color="#F9FAF9"/>
</linearGradient>
<linearGradient id="paint6_linear_411_2193" x1="227.617" y1="174.77" x2="189.489" y2="42.5912" gradientUnits="userSpaceOnUse">
<stop stop-color="#E1E2E7"/>
<stop offset="1" stop-color="#F9FAF9"/>
</linearGradient>
<linearGradient id="paint7_linear_411_2193" x1="406.422" y1="177.599" x2="201.253" y2="266.519" gradientUnits="userSpaceOnUse">
<stop stop-color="#3B3E5E"/>
<stop offset="1" stop-color="#626282"/>
</linearGradient>
<linearGradient id="paint8_linear_411_2193" x1="406.422" y1="176.96" x2="201.253" y2="265.88" gradientUnits="userSpaceOnUse">
<stop stop-color="#CBCBD6"/>
<stop offset="1" stop-color="#F9FAF9"/>
</linearGradient>
<linearGradient id="paint9_linear_411_2193" x1="270.932" y1="302.489" x2="339.469" y2="109.943" gradientUnits="userSpaceOnUse">
<stop stop-color="#CBCBD6"/>
<stop offset="1" stop-color="#F9FAF9"/>
</linearGradient>
<linearGradient id="paint10_linear_411_2193" x1="274.6" y1="196.217" x2="396.145" y2="264.256" gradientUnits="userSpaceOnUse">
<stop stop-color="#5B677C"/>
<stop offset="1" stop-color="#3D8ADA"/>
</linearGradient>
<linearGradient id="paint11_linear_411_2193" x1="270.914" y1="303.02" x2="337.272" y2="116.595" gradientUnits="userSpaceOnUse">
<stop stop-color="white"/>
<stop offset="1" stop-color="#F9FAF9"/>
</linearGradient>
<linearGradient id="paint12_linear_411_2193" x1="217.9" y1="235.387" x2="390.669" y2="134.078" gradientUnits="userSpaceOnUse">
<stop stop-color="#3B3E5E"/>
<stop offset="1" stop-color="#626282"/>
</linearGradient>
<linearGradient id="paint13_linear_411_2193" x1="217.9" y1="234.956" x2="390.669" y2="133.647" gradientUnits="userSpaceOnUse">
<stop stop-color="#5B677C"/>
<stop offset="1" stop-color="#4A7AB0"/>
</linearGradient>
<linearGradient id="paint14_linear_411_2193" x1="306.527" y1="109.833" x2="254.553" y2="281.715" gradientUnits="userSpaceOnUse">
<stop stop-color="#5B677C"/>
<stop offset="1" stop-color="#4284CB"/>
</linearGradient>
<linearGradient id="paint15_linear_411_2193" x1="304.776" y1="115.95" x2="254.601" y2="281.883" gradientUnits="userSpaceOnUse">
<stop stop-color="#5B677C"/>
<stop offset="0.995" stop-color="white"/>
</linearGradient>
<linearGradient id="paint16_linear_411_2193" x1="177.377" y1="172.045" x2="362.349" y2="158.237" gradientUnits="userSpaceOnUse">
<stop stop-color="#5B677C"/>
<stop offset="1" stop-color="#39A9A5"/>
</linearGradient>
<linearGradient id="paint17_linear_411_2193" x1="271.884" y1="130.32" x2="380.918" y2="130.32" gradientUnits="userSpaceOnUse">
<stop stop-color="#FABB0C"/>
<stop offset="1" stop-color="#F88019"/>
</linearGradient>
<linearGradient id="paint18_linear_411_2193" x1="236.741" y1="176.52" x2="275.33" y2="266.398" gradientUnits="userSpaceOnUse">
<stop stop-color="#B6BAC5"/>
<stop offset="1" stop-color="#7D859E"/>
</linearGradient>
<linearGradient id="paint19_linear_411_2193" x1="261.548" y1="248.062" x2="234.756" y2="178.769" gradientUnits="userSpaceOnUse">
<stop stop-color="#B6BAC5"/>
<stop offset="1" stop-color="#E8E9ED"/>
</linearGradient>
<linearGradient id="paint20_linear_411_2193" x1="329.795" y1="283.812" x2="320.018" y2="293.907" gradientUnits="userSpaceOnUse">
<stop stop-color="#E1E2E7"/>
<stop offset="1" stop-color="#F9FAF9"/>
</linearGradient>
<linearGradient id="paint21_linear_411_2193" x1="295.839" y1="271.901" x2="304.362" y2="263.101" gradientUnits="userSpaceOnUse">
<stop stop-color="#E1E2E7"/>
<stop offset="1" stop-color="#F9FAF9"/>
</linearGradient>
<linearGradient id="paint22_linear_411_2193" x1="382.268" y1="324.495" x2="363.479" y2="343.896" gradientUnits="userSpaceOnUse">
<stop stop-color="#3B3E5E"/>
<stop offset="1" stop-color="#626282"/>
</linearGradient>
<linearGradient id="paint23_linear_411_2193" x1="332.717" y1="316.814" x2="349.095" y2="299.903" gradientUnits="userSpaceOnUse">
<stop stop-color="#3B3E5E"/>
<stop offset="1" stop-color="#626282"/>
</linearGradient>
<linearGradient id="paint24_linear_411_2193" x1="264.352" y1="251.212" x2="238.014" y2="183.093" gradientUnits="userSpaceOnUse">
<stop stop-color="#5B677C"/>
<stop offset="1" stop-color="#4383C7"/>
</linearGradient>
<clipPath id="clip0_411_2193">
<rect width="546" height="376" fill="white"/>
</clipPath>
</defs>
</svg>
