<svg width="90" height="90" viewBox="0 0 90 90" fill="none" xmlns="http://www.w3.org/2000/svg">
<path d="M21.9902 54.1055C21.4629 53.8945 20.8652 54 20.4609 54.4043L7.68164 67.1836C7.41797 67.4473 7.27734 67.7988 7.27734 68.1856V79.8926C7.27734 80.666 7.91016 81.2988 8.68359 81.2988H21.4453C22.2188 81.2988 22.8516 80.666 22.8516 79.8926V55.4063C22.8516 54.8438 22.5176 54.334 21.9902 54.1055ZM41.3965 81.2988C42.1699 81.2988 42.8027 80.666 42.8027 79.8926V61.7344C42.8027 61.3652 42.6621 60.9961 42.3984 60.7324L29.6191 47.9531C29.2148 47.5488 28.6172 47.4258 28.0898 47.6543C27.5625 47.8652 27.2285 48.3926 27.2285 48.9551V79.8926C27.2285 80.666 27.8613 81.2988 28.6348 81.2988H41.3965ZM61.3477 81.2988C62.1211 81.2988 62.7539 80.666 62.7539 79.8926V47.6191C62.7539 47.0566 62.4199 46.5293 61.8926 46.3184C61.3652 46.1074 60.7676 46.2129 60.3633 46.6172L47.584 59.3965C47.3203 59.6602 47.1797 60.0117 47.1797 60.3984V79.9102C47.1797 80.6836 47.8125 81.3164 48.5859 81.3164H61.3477V81.2988ZM68.5371 81.2988H81.3164C82.0899 81.2988 82.7227 80.666 82.7227 79.8926V27.668C82.7227 27.1055 82.3887 26.5781 81.8613 26.3672C81.334 26.1563 80.7363 26.2617 80.332 26.666L67.5527 39.4453C67.2891 39.709 67.1484 40.0606 67.1484 40.4473V79.9102C67.1309 80.666 67.7461 81.2988 68.5371 81.2988Z" fill="url(#paint0_linear_234_1580)"/>
<path d="M84.7964 11.9707H74.2495C73.4761 11.9707 72.8433 12.6035 72.8433 13.377C72.8433 14.1504 73.4761 14.7832 74.2495 14.7832H81.5796L44.314 52.0488L29.2495 36.9844C28.9858 36.7207 28.6343 36.5801 28.2476 36.5801C27.8608 36.5801 27.5093 36.7207 27.2456 36.9844L3.76123 60.4863C3.21631 61.0313 3.21631 61.9277 3.76123 62.4727C4.04248 62.7539 4.39404 62.877 4.76318 62.877C5.11475 62.877 5.48389 62.7363 5.76514 62.4727L28.2827 39.9551L43.3472 55.0195C43.6108 55.2832 43.9624 55.4238 44.3491 55.4238C44.7358 55.4238 45.0874 55.2832 45.3511 55.0195L83.3901 16.9453V23.9238C83.3901 24.6973 84.0229 25.3301 84.7964 25.3301C85.5698 25.3301 86.2026 24.6973 86.2026 23.9238V13.377C86.2026 12.6035 85.5698 11.9707 84.7964 11.9707Z" fill="url(#paint1_linear_234_1580)"/>
<path d="M31.4648 24.0117C31.4648 31.4824 37.5293 37.5293 44.9824 37.5293C52.4531 37.5293 58.5 31.4648 58.5 24.0117C58.5 16.5586 52.4355 10.4941 44.9824 10.4941C37.5293 10.4941 31.4648 16.541 31.4648 24.0117ZM46.4766 15.1875V16.1367C48.3926 16.6465 49.7812 18.1934 49.7812 20.0039V20.8828C49.7812 21.6563 49.1484 22.2891 48.375 22.2891C47.6016 22.2891 46.9688 21.6563 46.9688 20.8828V20.0039C46.9688 19.4238 46.1953 18.7734 45.0703 18.7734C43.9629 18.7734 43.1719 19.4238 43.1719 20.0039V20.7773C43.1719 21.0938 43.4004 21.4277 43.7871 21.6738L47.8125 24.1699C49.0254 24.9258 49.7637 26.1563 49.7637 27.457V27.9492C49.7637 29.7773 48.3398 31.3242 46.4062 31.834V32.8711C46.4062 33.6445 45.7734 34.2598 45 34.2598C45 34.2598 45 34.2598 44.9824 34.2598C44.209 34.2598 43.5762 33.627 43.5937 32.8359V31.8164C41.6426 31.3242 40.2188 29.7773 40.2188 27.9316V27.4395C40.2188 26.666 40.8516 26.0332 41.625 26.0332C42.3984 26.0332 43.0312 26.666 43.0312 27.4395V27.9316C43.0312 28.5117 43.8047 29.1621 44.9297 29.1621H45.0176H45.0352H45.0879C46.1953 29.1621 46.9863 28.5117 46.9863 27.9316V27.4395C46.9863 27.1231 46.7578 26.7891 46.3711 26.543L42.3457 24.0469C41.1328 23.291 40.3945 22.0605 40.3945 20.7598V19.9863C40.3945 18.1758 41.7832 16.6465 43.6992 16.1191V15.1699C43.6992 14.3965 44.332 13.7637 45.1055 13.7637C45.8789 13.7637 46.4766 14.3965 46.4766 15.1875Z" fill="url(#paint2_linear_234_1580)"/>
<defs>
<linearGradient id="paint0_linear_234_1580" x1="45" y1="26.2611" x2="45" y2="81.3164" gradientUnits="userSpaceOnUse">
<stop stop-color="white"/>
<stop offset="1" stop-color="#5CFFB1"/>
</linearGradient>
<linearGradient id="paint1_linear_234_1580" x1="44.7776" y1="11.9707" x2="44.7776" y2="62.877" gradientUnits="userSpaceOnUse">
<stop stop-color="white"/>
<stop offset="1" stop-color="#5CFFB1"/>
</linearGradient>
<linearGradient id="paint2_linear_234_1580" x1="44.9824" y1="10.4941" x2="44.9824" y2="37.5293" gradientUnits="userSpaceOnUse">
<stop stop-color="white"/>
<stop offset="1" stop-color="#5CFFB1"/>
</linearGradient>
</defs>
</svg>
