<svg width="166" height="401" viewBox="0 0 166 401" fill="none" xmlns="http://www.w3.org/2000/svg">
<path d="M0 400.412V385.222H165.925V400.412H0Z" fill="url(#paint0_linear_2151_2816)"/>
<path d="M155.548 71.2699C155.548 52.3658 148.038 34.2361 134.671 20.8689C121.304 7.50178 103.174 -0.00781107 84.2699 -0.0078125C65.3659 -0.00781393 47.2361 7.50177 33.8689 20.8689C20.5018 34.2361 12.9922 52.3658 12.9922 71.2699L84.2699 71.2699H155.548Z" fill="#5CFFB1"/>
<circle cx="84.4724" cy="72.7107" r="47.9079" fill="#FAF6F6"/>
<path d="M73.0437 87.5593C70.9059 87.551 69.0664 87.0249 67.5252 85.9808C65.9923 84.9368 64.8116 83.4246 63.983 81.4442C63.1626 79.4639 62.7566 77.0817 62.7649 74.2976C62.7649 71.5218 63.1751 69.1561 63.9954 67.2006C64.824 65.2451 66.0047 63.7578 67.5376 62.7386C69.0788 61.7112 70.9142 61.1974 73.0437 61.1974C75.1732 61.1974 77.0044 61.7112 78.5373 62.7386C80.0785 63.7661 81.2634 65.2576 82.092 67.2131C82.9206 69.1603 83.3307 71.5218 83.3224 74.2976C83.3224 77.09 82.9081 79.4763 82.0795 81.4567C81.2592 83.437 80.0826 84.9492 78.5497 85.9933C77.0168 87.0373 75.1815 87.5593 73.0437 87.5593ZM73.0437 83.0973C74.502 83.0973 75.6662 82.364 76.5362 80.8974C77.4063 79.4308 77.8371 77.2308 77.8288 74.2976C77.8288 72.367 77.63 70.7595 77.2322 69.4751C76.8428 68.1908 76.2876 67.2255 75.5668 66.5792C74.8542 65.9329 74.0131 65.6097 73.0437 65.6097C71.5936 65.6097 70.4336 66.3348 69.5636 67.7848C68.6935 69.2348 68.2544 71.4058 68.2461 74.2976C68.2461 76.2531 68.4408 77.8854 68.8303 79.1946C69.228 80.4955 69.7873 81.4732 70.5082 82.1278C71.229 82.7741 72.0742 83.0973 73.0437 83.0973ZM98.2341 61.5455V87H92.8524V66.6538H92.7032L86.874 70.3079V65.5352L93.1755 61.5455H98.2341Z" fill="black"/>
<path d="M1.30566 243.914V379.75H164.894V243.914L82.7362 192.792L1.30566 243.914Z" fill="url(#paint1_linear_2151_2816)"/>
<defs>
<linearGradient id="paint0_linear_2151_2816" x1="0" y1="392.817" x2="165.925" y2="392.817" gradientUnits="userSpaceOnUse">
<stop stop-color="#5CFFB1"/>
<stop offset="1" stop-color="white"/>
</linearGradient>
<linearGradient id="paint1_linear_2151_2816" x1="106.428" y1="202.4" x2="7.83498" y2="376.733" gradientUnits="userSpaceOnUse">
<stop stop-color="#413F3F"/>
<stop offset="1"/>
</linearGradient>
</defs>
</svg>
