<svg width="166" height="401" viewBox="0 0 166 401" fill="none" xmlns="http://www.w3.org/2000/svg">
<path d="M155.548 71.2777C155.548 52.3737 148.038 34.2439 134.671 20.8767C121.304 7.50959 103.174 1.42721e-06 84.2699 0C65.3659 -1.42721e-06 47.2361 7.50959 33.8689 20.8767C20.5018 34.2439 12.9922 52.3736 12.9922 71.2777L84.2699 71.2777H155.548Z" fill="#5CFFB1"/>
<circle cx="84.4724" cy="72.7185" r="47.9079" fill="#FAF6F6"/>
<path d="M1.30566 243.922V379.758H164.894V243.922L82.7362 192.8L1.30566 243.922Z" fill="url(#paint0_linear_2151_2819)"/>
<path d="M0 400.791V385.601H165.925V400.791H0Z" fill="url(#paint1_linear_2151_2819)"/>
<path d="M71.7165 86.5671C69.5787 86.5588 67.7393 86.0327 66.1981 84.9886C64.6652 83.9446 63.4844 82.4324 62.6558 80.4521C61.8355 78.4717 61.4295 76.0895 61.4378 73.3054C61.4378 70.5296 61.8479 68.1639 62.6682 66.2085C63.4968 64.253 64.6776 62.7656 66.2105 61.7464C67.7517 60.719 69.587 60.2053 71.7165 60.2053C73.846 60.2053 75.6772 60.719 77.2101 61.7464C78.7513 62.7739 79.9362 64.2654 80.7648 66.2209C81.5934 68.1681 82.0036 70.5296 81.9953 73.3054C81.9953 76.0978 81.581 78.4841 80.7524 80.4645C79.9321 82.4448 78.7555 83.957 77.2226 85.0011C75.6897 86.0451 73.8543 86.5671 71.7165 86.5671ZM71.7165 82.1051C73.1749 82.1051 74.339 81.3718 75.2091 79.9052C76.0791 78.4386 76.51 76.2386 76.5017 73.3054C76.5017 71.3748 76.3028 69.7673 75.9051 68.483C75.5157 67.1986 74.9605 66.2333 74.2396 65.587C73.527 64.9407 72.686 64.6175 71.7165 64.6175C70.2665 64.6175 69.1064 65.3426 68.2364 66.7926C67.3664 68.2427 66.9272 70.4136 66.9189 73.3054C66.9189 75.2609 67.1137 76.8932 67.5031 78.2024C67.9008 79.5033 68.4601 80.4811 69.181 81.1357C69.9019 81.782 70.7471 82.1051 71.7165 82.1051ZM95.2415 86.3558C93.3854 86.3558 91.7324 86.0368 90.2823 85.3988C88.8406 84.7525 87.7012 83.8659 86.8643 82.739C86.0357 81.6038 85.609 80.2946 85.5842 78.8114H91.0032C91.0363 79.4329 91.2393 79.9798 91.6122 80.4521C91.9934 80.9161 92.4988 81.2765 93.1286 81.5334C93.7583 81.7902 94.4667 81.9187 95.2539 81.9187C96.0742 81.9187 96.7992 81.7737 97.429 81.4837C98.0587 81.1937 98.5517 80.7918 98.908 80.2781C99.2643 79.7643 99.4425 79.1719 99.4425 78.5007C99.4425 77.8213 99.2519 77.2205 98.8707 76.6985C98.4979 76.1682 97.9593 75.7539 97.255 75.4556C96.5589 75.1573 95.7304 75.0082 94.7692 75.0082H92.3952V71.0558H94.7692C95.5812 71.0558 96.2979 70.9149 96.9194 70.6332C97.5491 70.3514 98.038 69.962 98.386 69.4648C98.734 68.9594 98.908 68.3711 98.908 67.6999C98.908 67.0619 98.7547 66.5026 98.4482 66.022C98.1499 65.5331 97.7273 65.152 97.1804 64.8786C96.6418 64.6051 96.0121 64.4684 95.2912 64.4684C94.562 64.4684 93.895 64.601 93.2901 64.8661C92.6853 65.123 92.2005 65.4917 91.8359 65.9723C91.4714 66.4529 91.2766 67.0163 91.2518 67.6626H86.0938C86.1186 66.196 86.5371 64.9034 87.3491 63.7848C88.1611 62.6662 89.2549 61.792 90.6303 61.1623C92.0141 60.5243 93.576 60.2053 95.3161 60.2053C97.0727 60.2053 98.6097 60.5243 99.9272 61.1623C101.245 61.8003 102.268 62.662 102.997 63.7475C103.735 64.8247 104.099 66.0344 104.091 67.3768C104.099 68.802 103.656 69.991 102.761 70.9439C101.874 71.8968 100.719 72.5017 99.2933 72.7585V72.9574C101.166 73.1977 102.591 73.8481 103.569 74.9087C104.555 75.9611 105.044 77.2785 105.036 78.8612C105.044 80.3112 104.625 81.5997 103.78 82.7266C102.943 83.8535 101.787 84.7401 100.312 85.3864C98.8376 86.0327 97.1473 86.3558 95.2415 86.3558Z" fill="black"/>
<defs>
<linearGradient id="paint0_linear_2151_2819" x1="110.345" y1="205.673" x2="20.8937" y2="380.006" gradientUnits="userSpaceOnUse">
<stop stop-color="#514E4E"/>
<stop offset="1" stop-color="#040303"/>
</linearGradient>
<linearGradient id="paint1_linear_2151_2819" x1="0" y1="393.196" x2="165.925" y2="393.196" gradientUnits="userSpaceOnUse">
<stop stop-color="#5CFFB1"/>
<stop offset="1" stop-color="white"/>
</linearGradient>
</defs>
</svg>
