<svg width="166" height="407" viewBox="0 0 166 407" fill="none" xmlns="http://www.w3.org/2000/svg">
<path d="M12.6888 334.888C12.7423 353.792 20.3032 371.9 33.7081 385.229C47.113 398.559 65.264 406.017 84.1679 405.963C103.072 405.91 121.18 398.349 134.51 384.944C147.839 371.539 155.297 353.388 155.244 334.484L83.9662 334.686L12.6888 334.888Z" fill="#5CFFB1"/>
<circle cx="83.9635" cy="333.519" r="47.9079" transform="rotate(179.838 83.9635 333.519)" fill="#FAF6F6"/>
<path d="M165.273 156.873L164.707 21.0375L1.12018 21.7195L1.68652 157.555L84.0565 208.333L165.273 156.873Z" fill="url(#paint0_linear_2151_2795)"/>
<path d="M165.924 -0.000249279L165.987 15.1899L0.0636845 15.8817L0.000351617 0.691541L165.924 -0.000249279Z" fill="url(#paint1_linear_2151_2795)"/>
<path d="M70.0544 347.426C67.9166 347.417 66.0771 346.891 64.536 345.847C63.003 344.803 61.8223 343.291 60.9937 341.31C60.1734 339.33 59.7674 336.948 59.7757 334.164C59.7757 331.388 60.1858 329.022 61.0061 327.067C61.8347 325.111 63.0155 323.624 64.5484 322.605C66.0896 321.577 67.9249 321.064 70.0544 321.064C72.1839 321.064 74.0151 321.577 75.548 322.605C77.0892 323.632 78.2741 325.124 79.1027 327.079C79.9313 329.026 80.3415 331.388 80.3332 334.164C80.3332 336.956 79.9189 339.343 79.0903 341.323C78.27 343.303 77.0934 344.815 75.5605 345.859C74.0276 346.903 72.1922 347.426 70.0544 347.426ZM70.0544 342.964C71.5128 342.964 72.6769 342.23 73.547 340.764C74.417 339.297 74.8479 337.097 74.8396 334.164C74.8396 332.233 74.6407 330.626 74.243 329.341C73.8535 328.057 73.2984 327.092 72.5775 326.445C71.8649 325.799 71.0239 325.476 70.0544 325.476C68.6044 325.476 67.4443 326.201 66.5743 327.651C65.7043 329.101 65.2651 331.272 65.2568 334.164C65.2568 336.119 65.4516 337.752 65.841 339.061C66.2387 340.362 66.798 341.339 67.5189 341.994C68.2398 342.64 69.085 342.964 70.0544 342.964ZM83.7853 342.392V338.153L94.4121 321.412H98.0662V327.278H95.9036L89.2044 337.88V338.079H104.306V342.392H83.7853ZM96.003 346.866V341.099L96.1025 339.222V321.412H101.149V346.866H96.003Z" fill="black"/>
<defs>
<linearGradient id="paint0_linear_2151_2795" x1="139.076" y1="35.2578" x2="40.4828" y2="180.209" gradientUnits="userSpaceOnUse">
<stop stop-color="#040303"/>
<stop offset="1" stop-color="#575454"/>
</linearGradient>
<linearGradient id="paint1_linear_2151_2795" x1="165.956" y1="7.59485" x2="0.0320181" y2="8.28664" gradientUnits="userSpaceOnUse">
<stop stop-color="#5CFFB1"/>
<stop offset="1" stop-color="white"/>
</linearGradient>
</defs>
</svg>
