<svg width="166" height="401" viewBox="0 0 166 401" fill="none" xmlns="http://www.w3.org/2000/svg">
<path d="M155.548 71.2777C155.548 52.3737 148.038 34.2439 134.671 20.8767C121.304 7.50959 103.174 1.42721e-06 84.2699 0C65.3659 -1.42721e-06 47.2361 7.50959 33.8689 20.8767C20.5018 34.2439 12.9922 52.3736 12.9922 71.2777L84.2699 71.2777H155.548Z" fill="#5CFFB1"/>
<circle cx="84.2693" cy="72.446" r="47.9079" fill="#FAF6F6"/>
<path d="M1.30566 243.922V379.758H164.894V243.922L82.7362 192.8L1.30566 243.922Z" fill="url(#paint0_linear_2151_2821)"/>
<path d="M0 400.791V385.601H165.925V400.791H0Z" fill="url(#paint1_linear_2151_2821)"/>
<path d="M71.3894 85.5671C69.2516 85.5588 67.4121 85.0327 65.8709 83.9886C64.338 82.9446 63.1573 81.4324 62.3287 79.4521C61.5083 77.4717 61.1023 75.0895 61.1106 72.3054C61.1106 69.5296 61.5208 67.1639 62.3411 65.2085C63.1697 63.253 64.3504 61.7656 65.8833 60.7464C67.4245 59.719 69.2599 59.2053 71.3894 59.2053C73.5189 59.2053 75.3501 59.719 76.883 60.7464C78.4242 61.7739 79.6091 63.2654 80.4377 65.2209C81.2663 67.1681 81.6764 69.5296 81.6681 72.3054C81.6681 75.0978 81.2538 77.4841 80.4252 79.4645C79.6049 81.4448 78.4283 82.957 76.8954 84.0011C75.3625 85.0451 73.5272 85.5671 71.3894 85.5671ZM71.3894 81.1051C72.8477 81.1051 74.0119 80.3718 74.8819 78.9052C75.752 77.4386 76.1828 75.2386 76.1745 72.3054C76.1745 70.3748 75.9757 68.7673 75.5779 67.483C75.1885 66.1986 74.6333 65.2333 73.9125 64.587C73.1999 63.9407 72.3588 63.6175 71.3894 63.6175C69.9393 63.6175 68.7793 64.3426 67.9093 65.7926C67.0392 67.2427 66.6001 69.4136 66.5918 72.3054C66.5918 74.2609 66.7865 75.8932 67.176 77.2024C67.5737 78.5033 68.133 79.4811 68.8539 80.1357C69.5748 80.782 70.4199 81.1051 71.3894 81.1051ZM94.8025 85.3558C93.0458 85.3558 91.4798 85.0327 90.1043 84.3864C88.7371 83.7401 87.6517 82.8493 86.8479 81.7141C86.0442 80.579 85.6257 79.2781 85.5926 77.8114H90.8128C90.8708 78.7975 91.2851 79.5971 92.0557 80.2102C92.8263 80.8234 93.7419 81.13 94.8025 81.13C95.6476 81.13 96.3934 80.9435 97.0397 80.5707C97.6943 80.1895 98.2039 79.6634 98.5684 78.9922C98.9413 78.3127 99.1278 77.5339 99.1278 76.6555C99.1278 75.7607 98.9372 74.9735 98.556 74.294C98.1832 73.6146 97.6653 73.0843 97.0024 72.7031C96.3395 72.322 95.5814 72.1272 94.7279 72.119C93.9822 72.119 93.2571 72.2723 92.5528 72.5788C91.8568 72.8854 91.3141 73.3039 90.9246 73.8342L86.1395 72.9766L87.3451 59.5533H102.906V63.9531H91.7822L91.1235 70.3292H91.2726C91.7201 69.6995 92.3954 69.1774 93.2986 68.7631C94.2017 68.3488 95.2126 68.1417 96.3312 68.1417C97.8641 68.1417 99.2313 68.5021 100.433 69.223C101.634 69.9439 102.583 70.9341 103.279 72.1935C103.975 73.4447 104.319 74.8865 104.311 76.5188C104.319 78.234 103.921 79.7586 103.117 81.0927C102.322 82.4184 101.208 83.4625 99.7741 84.2248C98.3489 84.9788 96.6917 85.3558 94.8025 85.3558Z" fill="black"/>
<defs>
<linearGradient id="paint0_linear_2151_2821" x1="83.0997" y1="192.8" x2="83.0997" y2="379.758" gradientUnits="userSpaceOnUse">
<stop stop-color="#5C5959"/>
<stop offset="1"/>
</linearGradient>
<linearGradient id="paint1_linear_2151_2821" x1="0" y1="393.196" x2="165.925" y2="393.196" gradientUnits="userSpaceOnUse">
<stop stop-color="#5CFFB1"/>
<stop offset="1" stop-color="white"/>
</linearGradient>
</defs>
</svg>
