<svg width="3281" height="334" viewBox="0 0 3281 334" fill="none" xmlns="http://www.w3.org/2000/svg">
<circle opacity="0.3" cx="1530.14" cy="173.134" r="17.1429" fill="#152329"/>
<circle cx="1530.14" cy="173.134" r="7.61905" fill="#152329"/>
<circle opacity="0.3" cx="3263.47" cy="146.134" r="17.1429" fill="#152329"/>
<circle cx="3263.47" cy="146.134" r="7.61905" fill="#152329"/>
<path d="M2436.81 164.864L2588.24 146.134H3246.01" stroke="#152329" stroke-width="3.1746"/>
<path d="M1546.65 172.801L1745.7 148.356L2402.84 163.277" stroke="#152329" stroke-width="3.1746"/>
<path d="M762.522 163.277L959.03 189.944L1512.36 172.801" stroke="#152329" stroke-width="3.1746"/>
<path d="M32.999 164.547L139.031 197.245L728.237 164.547" stroke="#152329" stroke-width="3.1746"/>
<mask id="mask0_2027_1981" style="mask-type:alpha" maskUnits="userSpaceOnUse" x="9" y="0" width="3264" height="334">
<mask id="path-9-inside-1_2027_1981" fill="white">
<path d="M139.309 333.525H138.039V327.599H139.309V333.525ZM139.309 317.017H138.039V306.435H139.309V317.017ZM139.309 295.853H138.039V285.271H139.309V295.853ZM1747.88 285.905H1746.61V279.979H1747.88V285.905ZM139.309 274.689H138.039V264.107H139.309V274.689ZM1747.88 269.397H1746.61V258.815H1747.88V269.397ZM139.309 253.525H138.039V242.943H139.309V253.525ZM1747.88 248.233H1746.61V237.651H1747.88V248.233ZM139.309 232.361H138.039V221.779H139.309V232.361ZM1747.88 227.069H1746.61V216.487H1747.88V227.069ZM139.309 211.197H138.039V205.271H139.309V211.197ZM1747.88 205.905H1746.61V195.323H1747.88V205.905ZM728.218 166.086L142.154 198.609C142.117 198.649 142.08 198.689 142.041 198.728C140.181 200.588 137.166 200.588 135.307 198.728C134.927 198.349 134.626 197.921 134.401 197.465L32.4238 166.017L33.3594 162.984L134.096 194.049C134.311 193.297 134.714 192.587 135.307 191.995C137.166 190.135 140.181 190.135 142.041 191.995C142.97 192.924 143.433 194.14 143.435 195.357L728.042 162.916L728.218 166.086ZM951.257 187.189C951.489 186.628 951.834 186.102 952.29 185.645C954.15 183.786 957.165 183.786 959.024 185.645C959.767 186.388 960.212 187.314 960.361 188.278L1512.68 171.168L1512.73 172.754L1512.78 174.341L959.733 191.473C959.538 191.796 959.303 192.101 959.024 192.38C957.165 194.239 954.15 194.239 952.29 192.38C951.71 191.799 951.311 191.106 951.093 190.371L762.678 164.803L763.105 161.657L951.257 187.189ZM1747.88 184.741H1746.61V174.159H1747.88V184.741ZM956.292 179.103H955.022V173.548H956.292V179.103ZM1530.35 163.23C1534.56 163.23 1537.97 166.642 1537.97 170.849C1537.97 175.057 1534.56 178.469 1530.35 178.469C1526.14 178.468 1522.73 175.057 1522.73 170.849C1522.73 166.642 1526.14 163.23 1530.35 163.23ZM1743.88 144.376C1745.74 142.516 1748.75 142.516 1750.61 144.376C1751.31 145.076 1751.75 145.94 1751.92 146.844L2403.72 161.644L2403.65 164.818L1751.43 150.008C1751.22 150.403 1750.95 150.776 1750.61 151.11C1748.75 152.97 1745.74 152.969 1743.88 151.11C1743.63 150.864 1743.42 150.596 1743.24 150.314L1547.69 174.33L1547.3 171.179L1742.51 147.206C1742.63 146.172 1743.08 145.169 1743.88 144.376ZM745.748 156.246C749.956 156.246 753.367 159.657 753.367 163.865C753.367 168.073 749.956 171.484 745.748 171.484C741.54 171.484 738.129 168.073 738.129 163.865C738.129 159.657 741.54 156.246 745.748 156.246ZM2421.3 154.344C2425.51 154.344 2428.92 157.755 2428.92 161.963C2428.92 166.17 2425.51 169.582 2421.3 169.582C2417.1 169.582 2413.69 166.17 2413.69 161.963C2413.69 157.755 2417.1 154.344 2421.3 154.344ZM17.0186 151.802C21.2263 151.803 24.6375 155.213 24.6377 159.421C24.6377 163.629 21.2264 167.04 17.0186 167.04C12.8107 167.04 9.39941 163.629 9.39941 159.421C9.39963 155.213 12.8108 151.802 17.0186 151.802ZM2587.21 142.472C2589.07 140.613 2592.09 140.613 2593.95 142.472C2594.53 143.058 2594.93 143.76 2595.15 144.503H3247.02V147.677H2594.97C2594.74 148.233 2594.4 148.754 2593.95 149.207C2592.09 151.066 2589.07 151.066 2587.21 149.207C2586.86 148.855 2586.57 148.463 2586.36 148.045L2438.01 166.395L2437.62 163.245L2585.91 144.902C2586.09 144.012 2586.52 143.163 2587.21 142.472ZM956.292 163.707H955.022V153.865H956.292V163.707ZM1747.88 163.577H1746.61V157.651H1747.88V163.577ZM3264.48 138.47C3268.69 138.471 3272.1 141.882 3272.1 146.09C3272.1 150.297 3268.69 153.709 3264.48 153.709C3260.27 153.709 3256.86 150.297 3256.86 146.09C3256.86 141.882 3260.27 138.47 3264.48 138.47ZM956.292 144.024H955.022V134.182H956.292V144.024ZM2591.21 135.928H2589.94V130.003H2591.21V135.928ZM956.292 124.342H955.022V114.501H956.292V124.342ZM2591.21 119.421H2589.94V108.839H2591.21V119.421ZM956.292 104.659H955.022V94.8181H956.292V104.659ZM2591.21 98.2566H2589.94V87.6746H2591.21V98.2566ZM956.292 84.9763H955.022V75.1355H956.292V84.9763ZM2591.21 77.0925H2589.94V66.5105H2591.21V77.0925ZM956.292 65.2937H955.022V55.4529H956.292V65.2937ZM2591.21 55.9285H2589.94V45.3464H2591.21V55.9285ZM956.292 45.6111H955.022V35.7703H956.292V45.6111ZM2591.21 34.7644H2589.94V24.1824H2591.21V34.7644ZM956.292 25.9285H955.022V16.0876H956.292V25.9285ZM2591.21 13.6003H2589.94V7.67456H2591.21V13.6003ZM956.292 6.24585H955.022V0.691162H956.292V6.24585Z"/>
</mask>
<path d="M139.309 333.525H138.039V327.599H139.309V333.525ZM139.309 317.017H138.039V306.435H139.309V317.017ZM139.309 295.853H138.039V285.271H139.309V295.853ZM1747.88 285.905H1746.61V279.979H1747.88V285.905ZM139.309 274.689H138.039V264.107H139.309V274.689ZM1747.88 269.397H1746.61V258.815H1747.88V269.397ZM139.309 253.525H138.039V242.943H139.309V253.525ZM1747.88 248.233H1746.61V237.651H1747.88V248.233ZM139.309 232.361H138.039V221.779H139.309V232.361ZM1747.88 227.069H1746.61V216.487H1747.88V227.069ZM139.309 211.197H138.039V205.271H139.309V211.197ZM1747.88 205.905H1746.61V195.323H1747.88V205.905ZM728.218 166.086L142.154 198.609C142.117 198.649 142.08 198.689 142.041 198.728C140.181 200.588 137.166 200.588 135.307 198.728C134.927 198.349 134.626 197.921 134.401 197.465L32.4238 166.017L33.3594 162.984L134.096 194.049C134.311 193.297 134.714 192.587 135.307 191.995C137.166 190.135 140.181 190.135 142.041 191.995C142.97 192.924 143.433 194.14 143.435 195.357L728.042 162.916L728.218 166.086ZM951.257 187.189C951.489 186.628 951.834 186.102 952.29 185.645C954.15 183.786 957.165 183.786 959.024 185.645C959.767 186.388 960.212 187.314 960.361 188.278L1512.68 171.168L1512.73 172.754L1512.78 174.341L959.733 191.473C959.538 191.796 959.303 192.101 959.024 192.38C957.165 194.239 954.15 194.239 952.29 192.38C951.71 191.799 951.311 191.106 951.093 190.371L762.678 164.803L763.105 161.657L951.257 187.189ZM1747.88 184.741H1746.61V174.159H1747.88V184.741ZM956.292 179.103H955.022V173.548H956.292V179.103ZM1530.35 163.23C1534.56 163.23 1537.97 166.642 1537.97 170.849C1537.97 175.057 1534.56 178.469 1530.35 178.469C1526.14 178.468 1522.73 175.057 1522.73 170.849C1522.73 166.642 1526.14 163.23 1530.35 163.23ZM1743.88 144.376C1745.74 142.516 1748.75 142.516 1750.61 144.376C1751.31 145.076 1751.75 145.94 1751.92 146.844L2403.72 161.644L2403.65 164.818L1751.43 150.008C1751.22 150.403 1750.95 150.776 1750.61 151.11C1748.75 152.97 1745.74 152.969 1743.88 151.11C1743.63 150.864 1743.42 150.596 1743.24 150.314L1547.69 174.33L1547.3 171.179L1742.51 147.206C1742.63 146.172 1743.08 145.169 1743.88 144.376ZM745.748 156.246C749.956 156.246 753.367 159.657 753.367 163.865C753.367 168.073 749.956 171.484 745.748 171.484C741.54 171.484 738.129 168.073 738.129 163.865C738.129 159.657 741.54 156.246 745.748 156.246ZM2421.3 154.344C2425.51 154.344 2428.92 157.755 2428.92 161.963C2428.92 166.17 2425.51 169.582 2421.3 169.582C2417.1 169.582 2413.69 166.17 2413.69 161.963C2413.69 157.755 2417.1 154.344 2421.3 154.344ZM17.0186 151.802C21.2263 151.803 24.6375 155.213 24.6377 159.421C24.6377 163.629 21.2264 167.04 17.0186 167.04C12.8107 167.04 9.39941 163.629 9.39941 159.421C9.39963 155.213 12.8108 151.802 17.0186 151.802ZM2587.21 142.472C2589.07 140.613 2592.09 140.613 2593.95 142.472C2594.53 143.058 2594.93 143.76 2595.15 144.503H3247.02V147.677H2594.97C2594.74 148.233 2594.4 148.754 2593.95 149.207C2592.09 151.066 2589.07 151.066 2587.21 149.207C2586.86 148.855 2586.57 148.463 2586.36 148.045L2438.01 166.395L2437.62 163.245L2585.91 144.902C2586.09 144.012 2586.52 143.163 2587.21 142.472ZM956.292 163.707H955.022V153.865H956.292V163.707ZM1747.88 163.577H1746.61V157.651H1747.88V163.577ZM3264.48 138.47C3268.69 138.471 3272.1 141.882 3272.1 146.09C3272.1 150.297 3268.69 153.709 3264.48 153.709C3260.27 153.709 3256.86 150.297 3256.86 146.09C3256.86 141.882 3260.27 138.47 3264.48 138.47ZM956.292 144.024H955.022V134.182H956.292V144.024ZM2591.21 135.928H2589.94V130.003H2591.21V135.928ZM956.292 124.342H955.022V114.501H956.292V124.342ZM2591.21 119.421H2589.94V108.839H2591.21V119.421ZM956.292 104.659H955.022V94.8181H956.292V104.659ZM2591.21 98.2566H2589.94V87.6746H2591.21V98.2566ZM956.292 84.9763H955.022V75.1355H956.292V84.9763ZM2591.21 77.0925H2589.94V66.5105H2591.21V77.0925ZM956.292 65.2937H955.022V55.4529H956.292V65.2937ZM2591.21 55.9285H2589.94V45.3464H2591.21V55.9285ZM956.292 45.6111H955.022V35.7703H956.292V45.6111ZM2591.21 34.7644H2589.94V24.1824H2591.21V34.7644ZM956.292 25.9285H955.022V16.0876H956.292V25.9285ZM2591.21 13.6003H2589.94V7.67456H2591.21V13.6003ZM956.292 6.24585H955.022V0.691162H956.292V6.24585Z" fill="#152329"/>
<path d="M139.309 333.525V334.525H140.309V333.525H139.309ZM138.039 333.525H137.039V334.525H138.039V333.525ZM138.039 327.599V326.599H137.039V327.599H138.039ZM139.309 327.599H140.309V326.599H139.309V327.599ZM139.309 317.017V318.017H140.309V317.017H139.309ZM138.039 317.017H137.039V318.017H138.039V317.017ZM138.039 306.435V305.435H137.039V306.435H138.039ZM139.309 306.435H140.309V305.435H139.309V306.435ZM139.309 295.853V296.853H140.309V295.853H139.309ZM138.039 295.853H137.039V296.853H138.039V295.853ZM138.039 285.271V284.271H137.039V285.271H138.039ZM139.309 285.271H140.309V284.271H139.309V285.271ZM1747.88 285.905V286.905H1748.88V285.905H1747.88ZM1746.61 285.905H1745.61V286.905H1746.61V285.905ZM1746.61 279.979V278.979H1745.61V279.979H1746.61ZM1747.88 279.979H1748.88V278.979H1747.88V279.979ZM139.309 274.689V275.689H140.309V274.689H139.309ZM138.039 274.689H137.039V275.689H138.039V274.689ZM138.039 264.107V263.107H137.039V264.107H138.039ZM139.309 264.107H140.309V263.107H139.309V264.107ZM1747.88 269.397V270.397H1748.88V269.397H1747.88ZM1746.61 269.397H1745.61V270.397H1746.61V269.397ZM1746.61 258.815V257.815H1745.61V258.815H1746.61ZM1747.88 258.815H1748.88V257.815H1747.88V258.815ZM139.309 253.525V254.525H140.309V253.525H139.309ZM138.039 253.525H137.039V254.525H138.039V253.525ZM138.039 242.943V241.943H137.039V242.943H138.039ZM139.309 242.943H140.309V241.943H139.309V242.943ZM1747.88 248.233V249.233H1748.88V248.233H1747.88ZM1746.61 248.233H1745.61V249.233H1746.61V248.233ZM1746.61 237.651V236.651H1745.61V237.651H1746.61ZM1747.88 237.651H1748.88V236.651H1747.88V237.651ZM139.309 232.361V233.361H140.309V232.361H139.309ZM138.039 232.361H137.039V233.361H138.039V232.361ZM138.039 221.779V220.779H137.039V221.779H138.039ZM139.309 221.779H140.309V220.779H139.309V221.779ZM1747.88 227.069V228.069H1748.88V227.069H1747.88ZM1746.61 227.069H1745.61V228.069H1746.61V227.069ZM1746.61 216.487V215.487H1745.61V216.487H1746.61ZM1747.88 216.487H1748.88V215.487H1747.88V216.487ZM139.309 211.197V212.197H140.309V211.197H139.309ZM138.039 211.197H137.039V212.197H138.039V211.197ZM138.039 205.271V204.271H137.039V205.271H138.039ZM139.309 205.271H140.309V204.271H139.309V205.271ZM1747.88 205.905V206.905H1748.88V205.905H1747.88ZM1746.61 205.905H1745.61V206.905H1746.61V205.905ZM1746.61 195.323V194.323H1745.61V195.323H1746.61ZM1747.88 195.323H1748.88V194.323H1747.88V195.323ZM728.218 166.086L728.273 167.084L729.272 167.029L729.216 166.03L728.218 166.086ZM142.154 198.609L142.099 197.611L141.698 197.633L141.424 197.926L142.154 198.609ZM142.041 198.728L142.748 199.435L142.748 199.435L142.041 198.728ZM135.307 198.728L134.599 199.435L134.6 199.435L135.307 198.728ZM134.401 197.465L135.299 197.023L135.108 196.636L134.696 196.509L134.401 197.465ZM32.4238 166.017L31.4682 165.723L31.1735 166.678L32.1291 166.973L32.4238 166.017ZM33.3594 162.984L33.6541 162.029L32.6985 161.734L32.4038 162.689L33.3594 162.984ZM134.096 194.049L133.801 195.004L134.777 195.305L135.057 194.323L134.096 194.049ZM135.307 191.995L134.6 191.288L134.599 191.288L135.307 191.995ZM142.041 191.995L142.748 191.288L142.748 191.288L142.041 191.995ZM143.435 195.357L142.435 195.358L142.436 196.414L143.49 196.356L143.435 195.357ZM728.042 162.916L729.04 162.86L728.985 161.862L727.987 161.917L728.042 162.916ZM951.257 187.189L951.122 188.18L951.886 188.284L952.181 187.572L951.257 187.189ZM952.29 185.645L951.583 184.938L951.583 184.938L952.29 185.645ZM959.024 185.645L959.732 184.938V184.938L959.024 185.645ZM960.361 188.278L959.373 188.432L959.509 189.305L960.392 189.278L960.361 188.278ZM1512.68 171.168L1513.68 171.137L1513.65 170.137L1512.65 170.168L1512.68 171.168ZM1512.73 172.754L1511.73 172.784V172.785L1512.73 172.754ZM1512.78 174.341L1512.81 175.34L1513.81 175.309L1513.78 174.309L1512.78 174.341ZM959.733 191.473L959.702 190.474L959.159 190.491L958.878 190.956L959.733 191.473ZM959.024 192.38L959.732 193.087V193.087L959.024 192.38ZM952.29 192.38L951.583 193.087L951.583 193.087L952.29 192.38ZM951.093 190.371L952.052 190.086L951.868 189.467L951.227 189.38L951.093 190.371ZM762.678 164.803L761.687 164.669L761.552 165.66L762.543 165.794L762.678 164.803ZM763.105 161.657L763.24 160.666L762.249 160.532L762.115 161.522L763.105 161.657ZM1747.88 184.741V185.741H1748.88V184.741H1747.88ZM1746.61 184.741H1745.61V185.741H1746.61V184.741ZM1746.61 174.159V173.159H1745.61V174.159H1746.61ZM1747.88 174.159H1748.88V173.159H1747.88V174.159ZM956.292 179.103V180.103H957.292V179.103H956.292ZM955.022 179.103H954.022V180.103H955.022V179.103ZM955.022 173.548V172.548H954.022V173.548H955.022ZM956.292 173.548H957.292V172.548H956.292V173.548ZM1530.35 163.23V162.23V163.23ZM1537.97 170.849H1538.97V170.849L1537.97 170.849ZM1530.35 178.469V179.469V178.469ZM1522.73 170.849L1521.73 170.849V170.849H1522.73ZM1743.88 144.376L1743.17 143.669L1743.17 143.669L1743.88 144.376ZM1750.61 144.376L1751.32 143.669V143.669L1750.61 144.376ZM1751.92 146.844L1750.94 147.032L1751.09 147.826L1751.9 147.844L1751.92 146.844ZM2403.72 161.644L2404.72 161.667L2404.74 160.667L2403.74 160.645L2403.72 161.644ZM2403.65 164.818L2403.63 165.818L2404.63 165.841L2404.65 164.841L2403.65 164.818ZM1751.43 150.008L1751.46 149.008L1750.84 148.994L1750.55 149.532L1751.43 150.008ZM1750.61 151.11L1751.32 151.817V151.817L1750.61 151.11ZM1743.88 151.11L1743.17 151.817L1743.17 151.817L1743.88 151.11ZM1743.24 150.314L1744.08 149.773L1743.74 149.245L1743.11 149.322L1743.24 150.314ZM1547.69 174.33L1546.7 174.452L1546.82 175.444L1547.81 175.322L1547.69 174.33ZM1547.3 171.179L1547.18 170.187L1546.19 170.309L1546.31 171.301L1547.3 171.179ZM1742.51 147.206L1742.64 148.198L1743.42 148.102L1743.51 147.318L1742.51 147.206ZM745.748 156.246V155.246V156.246ZM753.367 163.865H754.367V163.865L753.367 163.865ZM745.748 171.484V172.484V171.484ZM738.129 163.865L737.129 163.865V163.865H738.129ZM2421.3 154.344V153.344V154.344ZM2428.92 161.963L2429.92 161.963V161.963H2428.92ZM2421.3 169.582V170.582V169.582ZM2413.69 161.963H2412.69V161.963L2413.69 161.963ZM17.0186 151.802L17.0186 150.802H17.0186V151.802ZM24.6377 159.421H25.6377V159.421L24.6377 159.421ZM17.0186 167.04V168.04H17.0186L17.0186 167.04ZM9.39941 159.421L8.39941 159.421V159.421H9.39941ZM2587.21 142.472L2586.5 141.765V141.765L2587.21 142.472ZM2593.95 142.472L2594.65 141.765V141.765L2593.95 142.472ZM2595.15 144.503L2594.19 144.783L2594.4 145.503H2595.15V144.503ZM3247.02 144.503H3248.02V143.503H3247.02V144.503ZM3247.02 147.677V148.677H3248.02V147.677H3247.02ZM2594.97 147.677V146.677H2594.31L2594.05 147.291L2594.97 147.677ZM2593.95 149.207L2594.65 149.914V149.914L2593.95 149.207ZM2587.21 149.207L2586.5 149.914V149.914L2587.21 149.207ZM2586.36 148.045L2587.24 147.582L2586.92 146.967L2586.23 147.052L2586.36 148.045ZM2438.01 166.395L2437.02 166.518L2437.14 167.51L2438.13 167.388L2438.01 166.395ZM2437.62 163.245L2437.49 162.252L2436.5 162.375L2436.62 163.368L2437.62 163.245ZM2585.91 144.902L2586.03 145.895L2586.75 145.806L2586.89 145.098L2585.91 144.902ZM956.292 163.707V164.707H957.292V163.707H956.292ZM955.022 163.707H954.022V164.707H955.022V163.707ZM955.022 153.865V152.865H954.022V153.865H955.022ZM956.292 153.865H957.292V152.865H956.292V153.865ZM1747.88 163.577V164.577H1748.88V163.577H1747.88ZM1746.61 163.577H1745.61V164.577H1746.61V163.577ZM1746.61 157.651V156.651H1745.61V157.651H1746.61ZM1747.88 157.651H1748.88V156.651H1747.88V157.651ZM3264.48 138.47V137.47V138.47ZM3272.1 146.09L3273.1 146.09V146.09H3272.1ZM3264.48 153.709V154.709V153.709ZM3256.86 146.09H3255.86V146.09L3256.86 146.09ZM956.292 144.024V145.024H957.292V144.024H956.292ZM955.022 144.024H954.022V145.024H955.022V144.024ZM955.022 134.182V133.182H954.022V134.182H955.022ZM956.292 134.182H957.292V133.182H956.292V134.182ZM2591.21 135.928V136.928H2592.21V135.928H2591.21ZM2589.94 135.928H2588.94V136.928H2589.94V135.928ZM2589.94 130.003V129.003H2588.94V130.003H2589.94ZM2591.21 130.003H2592.21V129.003H2591.21V130.003ZM956.292 124.342V125.342H957.292V124.342H956.292ZM955.022 124.342H954.022V125.342H955.022V124.342ZM955.022 114.501V113.501H954.022V114.501H955.022ZM956.292 114.501H957.292V113.501H956.292V114.501ZM2591.21 119.421V120.421H2592.21V119.421H2591.21ZM2589.94 119.421H2588.94V120.421H2589.94V119.421ZM2589.94 108.839V107.839H2588.94V108.839H2589.94ZM2591.21 108.839H2592.21V107.839H2591.21V108.839ZM956.292 104.659V105.659H957.292V104.659H956.292ZM955.022 104.659H954.022V105.659H955.022V104.659ZM955.022 94.8181V93.8181H954.022V94.8181H955.022ZM956.292 94.8181H957.292V93.8181H956.292V94.8181ZM2591.21 98.2566V99.2566H2592.21V98.2566H2591.21ZM2589.94 98.2566H2588.94V99.2566H2589.94V98.2566ZM2589.94 87.6746V86.6746H2588.94V87.6746H2589.94ZM2591.21 87.6746H2592.21V86.6746H2591.21V87.6746ZM956.292 84.9763V85.9763H957.292V84.9763H956.292ZM955.022 84.9763H954.022V85.9763H955.022V84.9763ZM955.022 75.1355V74.1355H954.022V75.1355H955.022ZM956.292 75.1355H957.292V74.1355H956.292V75.1355ZM2591.21 77.0925V78.0925H2592.21V77.0925H2591.21ZM2589.94 77.0925H2588.94V78.0925H2589.94V77.0925ZM2589.94 66.5105V65.5105H2588.94V66.5105H2589.94ZM2591.21 66.5105H2592.21V65.5105H2591.21V66.5105ZM956.292 65.2937V66.2937H957.292V65.2937H956.292ZM955.022 65.2937H954.022V66.2937H955.022V65.2937ZM955.022 55.4529V54.4529H954.022V55.4529H955.022ZM956.292 55.4529H957.292V54.4529H956.292V55.4529ZM2591.21 55.9285V56.9285H2592.21V55.9285H2591.21ZM2589.94 55.9285H2588.94V56.9285H2589.94V55.9285ZM2589.94 45.3464V44.3464H2588.94V45.3464H2589.94ZM2591.21 45.3464H2592.21V44.3464H2591.21V45.3464ZM956.292 45.6111V46.6111H957.292V45.6111H956.292ZM955.022 45.6111H954.022V46.6111H955.022V45.6111ZM955.022 35.7703V34.7703H954.022V35.7703H955.022ZM956.292 35.7703H957.292V34.7703H956.292V35.7703ZM2591.21 34.7644V35.7644H2592.21V34.7644H2591.21ZM2589.94 34.7644H2588.94V35.7644H2589.94V34.7644ZM2589.94 24.1824V23.1824H2588.94V24.1824H2589.94ZM2591.21 24.1824H2592.21V23.1824H2591.21V24.1824ZM956.292 25.9285V26.9285H957.292V25.9285H956.292ZM955.022 25.9285H954.022V26.9285H955.022V25.9285ZM955.022 16.0876V15.0876H954.022V16.0876H955.022ZM956.292 16.0876H957.292V15.0876H956.292V16.0876ZM2591.21 13.6003V14.6003H2592.21V13.6003H2591.21ZM2589.94 13.6003H2588.94V14.6003H2589.94V13.6003ZM2589.94 7.67456V6.67456H2588.94V7.67456H2589.94ZM2591.21 7.67456H2592.21V6.67456H2591.21V7.67456ZM956.292 6.24585V7.24585H957.292V6.24585H956.292ZM955.022 6.24585H954.022V7.24585H955.022V6.24585ZM955.022 0.691162V-0.308838H954.022V0.691162H955.022ZM956.292 0.691162H957.292V-0.308838H956.292V0.691162ZM139.309 333.525V332.525H138.039V333.525V334.525H139.309V333.525ZM138.039 333.525H139.039V327.599H138.039H137.039V333.525H138.039ZM138.039 327.599V328.599H139.309V327.599V326.599H138.039V327.599ZM139.309 327.599H138.309V333.525H139.309H140.309V327.599H139.309ZM139.309 317.017V316.017H138.039V317.017V318.017H139.309V317.017ZM138.039 317.017H139.039V306.435H138.039H137.039V317.017H138.039ZM138.039 306.435V307.435H139.309V306.435V305.435H138.039V306.435ZM139.309 306.435H138.309V317.017H139.309H140.309V306.435H139.309ZM139.309 295.853V294.853H138.039V295.853V296.853H139.309V295.853ZM138.039 295.853H139.039V285.271H138.039H137.039V295.853H138.039ZM138.039 285.271V286.271H139.309V285.271V284.271H138.039V285.271ZM139.309 285.271H138.309V295.853H139.309H140.309V285.271H139.309ZM1747.88 285.905V284.905H1746.61V285.905V286.905H1747.88V285.905ZM1746.61 285.905H1747.61V279.979H1746.61H1745.61V285.905H1746.61ZM1746.61 279.979V280.979H1747.88V279.979V278.979H1746.61V279.979ZM1747.88 279.979H1746.88V285.905H1747.88H1748.88V279.979H1747.88ZM139.309 274.689V273.689H138.039V274.689V275.689H139.309V274.689ZM138.039 274.689H139.039V264.107H138.039H137.039V274.689H138.039ZM138.039 264.107V265.107H139.309V264.107V263.107H138.039V264.107ZM139.309 264.107H138.309V274.689H139.309H140.309V264.107H139.309ZM1747.88 269.397V268.397H1746.61V269.397V270.397H1747.88V269.397ZM1746.61 269.397H1747.61V258.815H1746.61H1745.61V269.397H1746.61ZM1746.61 258.815V259.815H1747.88V258.815V257.815H1746.61V258.815ZM1747.88 258.815H1746.88V269.397H1747.88H1748.88V258.815H1747.88ZM139.309 253.525V252.525H138.039V253.525V254.525H139.309V253.525ZM138.039 253.525H139.039V242.943H138.039H137.039V253.525H138.039ZM138.039 242.943V243.943H139.309V242.943V241.943H138.039V242.943ZM139.309 242.943H138.309V253.525H139.309H140.309V242.943H139.309ZM1747.88 248.233V247.233H1746.61V248.233V249.233H1747.88V248.233ZM1746.61 248.233H1747.61V237.651H1746.61H1745.61V248.233H1746.61ZM1746.61 237.651V238.651H1747.88V237.651V236.651H1746.61V237.651ZM1747.88 237.651H1746.88V248.233H1747.88H1748.88V237.651H1747.88ZM139.309 232.361V231.361H138.039V232.361V233.361H139.309V232.361ZM138.039 232.361H139.039V221.779H138.039H137.039V232.361H138.039ZM138.039 221.779V222.779H139.309V221.779V220.779H138.039V221.779ZM139.309 221.779H138.309V232.361H139.309H140.309V221.779H139.309ZM1747.88 227.069V226.069H1746.61V227.069V228.069H1747.88V227.069ZM1746.61 227.069H1747.61V216.487H1746.61H1745.61V227.069H1746.61ZM1746.61 216.487V217.487H1747.88V216.487V215.487H1746.61V216.487ZM1747.88 216.487H1746.88V227.069H1747.88H1748.88V216.487H1747.88ZM139.309 211.197V210.197H138.039V211.197V212.197H139.309V211.197ZM138.039 211.197H139.039V205.271H138.039H137.039V211.197H138.039ZM138.039 205.271V206.271H139.309V205.271V204.271H138.039V205.271ZM139.309 205.271H138.309V211.197H139.309H140.309V205.271H139.309ZM1747.88 205.905V204.905H1746.61V205.905V206.905H1747.88V205.905ZM1746.61 205.905H1747.61V195.323H1746.61H1745.61V205.905H1746.61ZM1746.61 195.323V196.323H1747.88V195.323V194.323H1746.61V195.323ZM1747.88 195.323H1746.88V205.905H1747.88H1748.88V195.323H1747.88ZM728.218 166.086L728.162 165.087L142.099 197.611L142.154 198.609L142.21 199.608L728.273 167.084L728.218 166.086ZM142.154 198.609L141.424 197.926C141.379 197.974 141.357 197.998 141.334 198.021L142.041 198.728L142.748 199.435C142.802 199.381 142.855 199.324 142.885 199.292L142.154 198.609ZM142.041 198.728L141.334 198.021C139.865 199.49 137.483 199.49 136.014 198.021L135.307 198.728L134.6 199.435C136.85 201.686 140.498 201.686 142.748 199.435L142.041 198.728ZM135.307 198.728L136.014 198.021C135.714 197.721 135.476 197.383 135.299 197.023L134.401 197.465L133.504 197.906C133.776 198.458 134.141 198.977 134.599 199.435L135.307 198.728ZM134.401 197.465L134.696 196.509L32.7185 165.062L32.4238 166.017L32.1291 166.973L134.107 198.42L134.401 197.465ZM32.4238 166.017L33.3794 166.312L34.315 163.279L33.3594 162.984L32.4038 162.689L31.4682 165.723L32.4238 166.017ZM33.3594 162.984L33.0647 163.94L133.801 195.004L134.096 194.049L134.39 193.093L33.6541 162.029L33.3594 162.984ZM134.096 194.049L135.057 194.323C135.227 193.731 135.545 193.171 136.014 192.702L135.307 191.995L134.599 191.288C133.884 192.003 133.395 192.862 133.134 193.774L134.096 194.049ZM135.307 191.995L136.014 192.702C137.483 191.233 139.865 191.233 141.334 192.702L142.041 191.995L142.748 191.288C140.498 189.038 136.85 189.038 134.6 191.288L135.307 191.995ZM142.041 191.995L141.334 192.702C142.067 193.435 142.434 194.395 142.435 195.358L143.435 195.357L144.435 195.356C144.433 193.886 143.872 192.412 142.748 191.288L142.041 191.995ZM143.435 195.357L143.49 196.356L728.097 163.914L728.042 162.916L727.987 161.917L143.379 194.359L143.435 195.357ZM728.042 162.916L727.044 162.971L727.219 166.141L728.218 166.086L729.216 166.03L729.04 162.86L728.042 162.916ZM951.257 187.189L952.181 187.572C952.364 187.129 952.635 186.714 952.997 186.352L952.29 185.645L951.583 184.938C951.032 185.489 950.615 186.126 950.333 186.807L951.257 187.189ZM952.29 185.645L952.997 186.352C954.466 184.883 956.848 184.883 958.317 186.352L959.024 185.645L959.732 184.938C957.481 182.688 953.833 182.688 951.583 184.938L952.29 185.645ZM959.024 185.645L958.317 186.352C958.904 186.939 959.255 187.67 959.373 188.432L960.361 188.278L961.349 188.125C961.169 186.959 960.63 185.836 959.732 184.938L959.024 185.645ZM960.361 188.278L960.392 189.278L1512.71 172.167L1512.68 171.168L1512.65 170.168L960.33 187.279L960.361 188.278ZM1512.68 171.168L1511.68 171.199L1511.73 172.784L1512.73 172.754L1513.73 172.723L1513.68 171.137L1512.68 171.168ZM1512.73 172.754L1511.73 172.785L1511.78 174.372L1512.78 174.341L1513.78 174.309L1513.73 172.722L1512.73 172.754ZM1512.78 174.341L1512.75 173.341L959.702 190.474L959.733 191.473L959.764 192.473L1512.81 175.34L1512.78 174.341ZM959.733 191.473L958.878 190.956C958.723 191.212 958.536 191.453 958.317 191.673L959.024 192.38L959.732 193.087C960.069 192.749 960.354 192.379 960.589 191.991L959.733 191.473ZM959.024 192.38L958.317 191.673C956.848 193.142 954.466 193.142 952.997 191.673L952.29 192.38L951.583 193.087C953.833 195.337 957.481 195.337 959.732 193.087L959.024 192.38ZM952.29 192.38L952.997 191.673C952.538 191.213 952.224 190.666 952.052 190.086L951.093 190.371L950.134 190.655C950.398 191.546 950.882 192.385 951.583 193.087L952.29 192.38ZM951.093 190.371L951.227 189.38L762.812 163.813L762.678 164.803L762.543 165.794L950.958 191.362L951.093 190.371ZM762.678 164.803L763.669 164.938L764.096 161.792L763.105 161.657L762.115 161.522L761.687 164.669L762.678 164.803ZM763.105 161.657L762.971 162.648L951.122 188.18L951.257 187.189L951.391 186.198L763.24 160.666L763.105 161.657ZM1747.88 184.741V183.741H1746.61V184.741V185.741H1747.88V184.741ZM1746.61 184.741H1747.61V174.159H1746.61H1745.61V184.741H1746.61ZM1746.61 174.159V175.159H1747.88V174.159V173.159H1746.61V174.159ZM1747.88 174.159H1746.88V184.741H1747.88H1748.88V174.159H1747.88ZM956.292 179.103V178.103H955.022V179.103V180.103H956.292V179.103ZM955.022 179.103H956.022V173.548H955.022H954.022V179.103H955.022ZM955.022 173.548V174.548H956.292V173.548V172.548H955.022V173.548ZM956.292 173.548H955.292V179.103H956.292H957.292V173.548H956.292ZM1530.35 163.23V164.23C1534.01 164.23 1536.97 167.194 1536.97 170.849L1537.97 170.849L1538.97 170.849C1538.97 166.089 1535.11 162.23 1530.35 162.23V163.23ZM1537.97 170.849H1536.97C1536.97 174.505 1534.01 177.469 1530.35 177.469V178.469V179.469C1535.11 179.469 1538.97 175.61 1538.97 170.849H1537.97ZM1530.35 178.469V177.469C1526.7 177.468 1523.73 174.505 1523.73 170.849H1522.73H1521.73C1521.73 175.61 1525.59 179.468 1530.35 179.469V178.469ZM1522.73 170.849L1523.73 170.849C1523.73 167.194 1526.7 164.23 1530.35 164.23V163.23V162.23C1525.59 162.23 1521.73 166.089 1521.73 170.849L1522.73 170.849ZM1743.88 144.376L1744.58 145.083C1746.05 143.614 1748.44 143.614 1749.91 145.083L1750.61 144.376L1751.32 143.669C1749.07 141.418 1745.42 141.419 1743.17 143.669L1743.88 144.376ZM1750.61 144.376L1749.91 145.083C1750.46 145.637 1750.8 146.318 1750.94 147.032L1751.92 146.844L1752.9 146.657C1752.69 145.562 1752.17 144.515 1751.32 143.669L1750.61 144.376ZM1751.92 146.844L1751.9 147.844L2403.7 162.644L2403.72 161.644L2403.74 160.645L1751.94 145.845L1751.92 146.844ZM2403.72 161.644L2402.72 161.622L2402.65 164.795L2403.65 164.818L2404.65 164.841L2404.72 161.667L2403.72 161.644ZM2403.65 164.818L2403.67 163.818L1751.46 149.008L1751.43 150.008L1751.41 151.007L2403.63 165.818L2403.65 164.818ZM1751.43 150.008L1750.55 149.532C1750.38 149.846 1750.17 150.14 1749.91 150.403L1750.61 151.11L1751.32 151.817C1751.73 151.411 1752.05 150.96 1752.31 150.484L1751.43 150.008ZM1750.61 151.11L1749.91 150.403C1748.44 151.872 1746.05 151.872 1744.58 150.403L1743.88 151.11L1743.17 151.817C1745.42 154.067 1749.07 154.067 1751.32 151.817L1750.61 151.11ZM1743.88 151.11L1744.59 150.403C1744.39 150.208 1744.22 149.996 1744.08 149.773L1743.24 150.314L1742.4 150.855C1742.61 151.196 1742.87 151.519 1743.17 151.817L1743.88 151.11ZM1743.24 150.314L1743.11 149.322L1547.57 173.337L1547.69 174.33L1547.81 175.322L1743.36 151.307L1743.24 150.314ZM1547.69 174.33L1548.68 174.208L1548.29 171.058L1547.3 171.179L1546.31 171.301L1546.7 174.452L1547.69 174.33ZM1547.3 171.179L1547.42 172.172L1742.64 148.198L1742.51 147.206L1742.39 146.213L1547.18 170.187L1547.3 171.179ZM1742.51 147.206L1743.51 147.318C1743.6 146.501 1743.96 145.71 1744.59 145.083L1743.88 144.376L1743.17 143.669C1742.21 144.628 1741.66 145.843 1741.52 147.094L1742.51 147.206ZM745.748 156.246V157.246C749.403 157.246 752.367 160.21 752.367 163.865L753.367 163.865L754.367 163.865C754.367 159.105 750.508 155.246 745.748 155.246V156.246ZM753.367 163.865H752.367C752.367 167.521 749.404 170.484 745.748 170.484V171.484V172.484C750.508 172.484 754.367 168.625 754.367 163.865H753.367ZM745.748 171.484V170.484C742.093 170.484 739.129 167.521 739.129 163.865H738.129H737.129C737.129 168.625 740.988 172.484 745.748 172.484V171.484ZM738.129 163.865L739.129 163.865C739.129 160.21 742.093 157.246 745.748 157.246V156.246V155.246C740.988 155.246 737.129 159.105 737.129 163.865L738.129 163.865ZM2421.3 154.344V155.344C2424.96 155.344 2427.92 158.307 2427.92 161.963H2428.92H2429.92C2429.92 157.202 2426.06 153.344 2421.3 153.344V154.344ZM2428.92 161.963L2427.92 161.963C2427.92 165.618 2424.96 168.582 2421.3 168.582V169.582V170.582C2426.06 170.582 2429.92 166.723 2429.92 161.963L2428.92 161.963ZM2421.3 169.582V168.582C2417.65 168.582 2414.69 165.618 2414.69 161.963L2413.69 161.963L2412.69 161.963C2412.69 166.723 2416.54 170.582 2421.3 170.582V169.582ZM2413.69 161.963H2414.69C2414.69 158.307 2417.65 155.344 2421.3 155.344V154.344V153.344C2416.54 153.344 2412.69 157.203 2412.69 161.963H2413.69ZM17.0186 151.802L17.0185 152.802C20.6741 152.803 23.6375 155.765 23.6377 159.421L24.6377 159.421L25.6377 159.421C25.6375 154.661 21.7784 150.803 17.0186 150.802L17.0186 151.802ZM24.6377 159.421H23.6377C23.6377 163.076 20.6741 166.04 17.0185 166.04L17.0186 167.04L17.0186 168.04C21.7787 168.04 25.6377 164.181 25.6377 159.421H24.6377ZM17.0186 167.04V166.04C13.363 166.04 10.3994 163.076 10.3994 159.421H9.39941H8.39941C8.39941 164.181 12.2584 168.04 17.0186 168.04V167.04ZM9.39941 159.421L10.3994 159.421C10.3996 155.765 13.363 152.802 17.0186 152.802V151.802V150.802C12.2586 150.802 8.39966 154.661 8.39941 159.421L9.39941 159.421ZM2587.21 142.472L2587.92 143.18C2589.39 141.711 2591.77 141.71 2593.24 143.18L2593.95 142.472L2594.65 141.765C2592.4 139.515 2588.75 139.515 2586.5 141.765L2587.21 142.472ZM2593.95 142.472L2593.24 143.179C2593.7 143.643 2594.02 144.196 2594.19 144.783L2595.15 144.503L2596.11 144.223C2595.85 143.323 2595.36 142.474 2594.65 141.765L2593.95 142.472ZM2595.15 144.503V145.503H3247.02V144.503V143.503H2595.15V144.503ZM3247.02 144.503H3246.02V147.677H3247.02H3248.02V144.503H3247.02ZM3247.02 147.677V146.677H2594.97V147.677V148.677H3247.02V147.677ZM2594.97 147.677L2594.05 147.291C2593.87 147.73 2593.6 148.142 2593.24 148.5L2593.95 149.207L2594.65 149.914C2595.2 149.367 2595.61 148.735 2595.9 148.062L2594.97 147.677ZM2593.95 149.207L2593.24 148.5C2591.77 149.969 2589.39 149.969 2587.92 148.5L2587.21 149.207L2586.5 149.914C2588.75 152.164 2592.4 152.164 2594.65 149.914L2593.95 149.207ZM2587.21 149.207L2587.92 148.5C2587.64 148.22 2587.41 147.91 2587.24 147.582L2586.36 148.045L2585.47 148.508C2585.74 149.016 2586.08 149.49 2586.5 149.914L2587.21 149.207ZM2586.36 148.045L2586.23 147.052L2437.89 165.403L2438.01 166.395L2438.13 167.388L2586.48 149.037L2586.36 148.045ZM2438.01 166.395L2439 166.272L2438.61 163.122L2437.62 163.245L2436.62 163.368L2437.02 166.518L2438.01 166.395ZM2437.62 163.245L2437.74 164.237L2586.03 145.895L2585.91 144.902L2585.79 143.91L2437.49 162.252L2437.62 163.245ZM2585.91 144.902L2586.89 145.098C2587.03 144.395 2587.37 143.726 2587.92 143.18L2587.21 142.472L2586.5 141.765C2585.67 142.599 2585.15 143.628 2584.93 144.706L2585.91 144.902ZM956.292 163.707V162.707H955.022V163.707V164.707H956.292V163.707ZM955.022 163.707H956.022V153.865H955.022H954.022V163.707H955.022ZM955.022 153.865V154.865H956.292V153.865V152.865H955.022V153.865ZM956.292 153.865H955.292V163.707H956.292H957.292V153.865H956.292ZM1747.88 163.577V162.577H1746.61V163.577V164.577H1747.88V163.577ZM1746.61 163.577H1747.61V157.651H1746.61H1745.61V163.577H1746.61ZM1746.61 157.651V158.651H1747.88V157.651V156.651H1746.61V157.651ZM1747.88 157.651H1746.88V163.577H1747.88H1748.88V157.651H1747.88ZM3264.48 138.47V139.47C3268.14 139.471 3271.1 142.434 3271.1 146.09H3272.1H3273.1C3273.1 141.329 3269.24 137.471 3264.48 137.47V138.47ZM3272.1 146.09L3271.1 146.09C3271.1 149.745 3268.14 152.709 3264.48 152.709V153.709V154.709C3269.24 154.709 3273.1 150.85 3273.1 146.09L3272.1 146.09ZM3264.48 153.709V152.709C3260.82 152.709 3257.86 149.745 3257.86 146.09L3256.86 146.09L3255.86 146.09C3255.86 150.85 3259.72 154.709 3264.48 154.709V153.709ZM3256.86 146.09H3257.86C3257.86 142.434 3260.82 139.47 3264.48 139.47V138.47V137.47C3259.72 137.47 3255.86 141.329 3255.86 146.09H3256.86ZM956.292 144.024V143.024H955.022V144.024V145.024H956.292V144.024ZM955.022 144.024H956.022V134.182H955.022H954.022V144.024H955.022ZM955.022 134.182V135.182H956.292V134.182V133.182H955.022V134.182ZM956.292 134.182H955.292V144.024H956.292H957.292V134.182H956.292ZM2591.21 135.928V134.928H2589.94V135.928V136.928H2591.21V135.928ZM2589.94 135.928H2590.94V130.003H2589.94H2588.94V135.928H2589.94ZM2589.94 130.003V131.003H2591.21V130.003V129.003H2589.94V130.003ZM2591.21 130.003H2590.21V135.928H2591.21H2592.21V130.003H2591.21ZM956.292 124.342V123.342H955.022V124.342V125.342H956.292V124.342ZM955.022 124.342H956.022V114.501H955.022H954.022V124.342H955.022ZM955.022 114.501V115.501H956.292V114.501V113.501H955.022V114.501ZM956.292 114.501H955.292V124.342H956.292H957.292V114.501H956.292ZM2591.21 119.421V118.421H2589.94V119.421V120.421H2591.21V119.421ZM2589.94 119.421H2590.94V108.839H2589.94H2588.94V119.421H2589.94ZM2589.94 108.839V109.839H2591.21V108.839V107.839H2589.94V108.839ZM2591.21 108.839H2590.21V119.421H2591.21H2592.21V108.839H2591.21ZM956.292 104.659V103.659H955.022V104.659V105.659H956.292V104.659ZM955.022 104.659H956.022V94.8181H955.022H954.022V104.659H955.022ZM955.022 94.8181V95.8181H956.292V94.8181V93.8181H955.022V94.8181ZM956.292 94.8181H955.292V104.659H956.292H957.292V94.8181H956.292ZM2591.21 98.2566V97.2566H2589.94V98.2566V99.2566H2591.21V98.2566ZM2589.94 98.2566H2590.94V87.6746H2589.94H2588.94V98.2566H2589.94ZM2589.94 87.6746V88.6746H2591.21V87.6746V86.6746H2589.94V87.6746ZM2591.21 87.6746H2590.21V98.2566H2591.21H2592.21V87.6746H2591.21ZM956.292 84.9763V83.9763H955.022V84.9763V85.9763H956.292V84.9763ZM955.022 84.9763H956.022V75.1355H955.022H954.022V84.9763H955.022ZM955.022 75.1355V76.1355H956.292V75.1355V74.1355H955.022V75.1355ZM956.292 75.1355H955.292V84.9763H956.292H957.292V75.1355H956.292ZM2591.21 77.0925V76.0925H2589.94V77.0925V78.0925H2591.21V77.0925ZM2589.94 77.0925H2590.94V66.5105H2589.94H2588.94V77.0925H2589.94ZM2589.94 66.5105V67.5105H2591.21V66.5105V65.5105H2589.94V66.5105ZM2591.21 66.5105H2590.21V77.0925H2591.21H2592.21V66.5105H2591.21ZM956.292 65.2937V64.2937H955.022V65.2937V66.2937H956.292V65.2937ZM955.022 65.2937H956.022V55.4529H955.022H954.022V65.2937H955.022ZM955.022 55.4529V56.4529H956.292V55.4529V54.4529H955.022V55.4529ZM956.292 55.4529H955.292V65.2937H956.292H957.292V55.4529H956.292ZM2591.21 55.9285V54.9285H2589.94V55.9285V56.9285H2591.21V55.9285ZM2589.94 55.9285H2590.94V45.3464H2589.94H2588.94V55.9285H2589.94ZM2589.94 45.3464V46.3464H2591.21V45.3464V44.3464H2589.94V45.3464ZM2591.21 45.3464H2590.21V55.9285H2591.21H2592.21V45.3464H2591.21ZM956.292 45.6111V44.6111H955.022V45.6111V46.6111H956.292V45.6111ZM955.022 45.6111H956.022V35.7703H955.022H954.022V45.6111H955.022ZM955.022 35.7703V36.7703H956.292V35.7703V34.7703H955.022V35.7703ZM956.292 35.7703H955.292V45.6111H956.292H957.292V35.7703H956.292ZM2591.21 34.7644V33.7644H2589.94V34.7644V35.7644H2591.21V34.7644ZM2589.94 34.7644H2590.94V24.1824H2589.94H2588.94V34.7644H2589.94ZM2589.94 24.1824V25.1824H2591.21V24.1824V23.1824H2589.94V24.1824ZM2591.21 24.1824H2590.21V34.7644H2591.21H2592.21V24.1824H2591.21ZM956.292 25.9285V24.9285H955.022V25.9285V26.9285H956.292V25.9285ZM955.022 25.9285H956.022V16.0876H955.022H954.022V25.9285H955.022ZM955.022 16.0876V17.0876H956.292V16.0876V15.0876H955.022V16.0876ZM956.292 16.0876H955.292V25.9285H956.292H957.292V16.0876H956.292ZM2591.21 13.6003V12.6003H2589.94V13.6003V14.6003H2591.21V13.6003ZM2589.94 13.6003H2590.94V7.67456H2589.94H2588.94V13.6003H2589.94ZM2589.94 7.67456V8.67456H2591.21V7.67456V6.67456H2589.94V7.67456ZM2591.21 7.67456H2590.21V13.6003H2591.21H2592.21V7.67456H2591.21ZM956.292 6.24585V5.24585H955.022V6.24585V7.24585H956.292V6.24585ZM955.022 6.24585H956.022V0.691162H955.022H954.022V6.24585H955.022ZM955.022 0.691162V1.69116H956.292V0.691162V-0.308838H955.022V0.691162ZM956.292 0.691162H955.292V6.24585H956.292H957.292V0.691162H956.292Z" fill="black" mask="url(#path-9-inside-1_2027_1981)"/>
</mask>
<g mask="url(#mask0_2027_1981)">
<path d="M-3 29H61V188H-3V29Z" fill="#7EF6BD"/>
</g>
<circle opacity="0.3" cx="17.1429" cy="160.134" r="17.1429" fill="#7EF6BD"/>
<circle opacity="0.3" cx="2420.14" cy="165.143" r="17.1429" fill="#152329"/>
<circle cx="2420.14" cy="165.143" r="7.61905" fill="#152329"/>
<circle opacity="0.3" cx="745.443" cy="163.134" r="17.1429" fill="#152329"/>
<circle cx="744.143" cy="163.134" r="7.61905" fill="#152329"/>
<path d="M2587 142.984V16" stroke="url(#paint0_linear_2027_1981)" stroke-width="1.26984" stroke-linecap="square" stroke-dasharray="10.16 10.16"/>
<path d="M1745 153V279.984" stroke="url(#paint1_linear_2027_1981)" stroke-width="1.26984" stroke-linecap="square" stroke-dasharray="10.16 10.16"/>
<path d="M961 182.984V56" stroke="url(#paint2_linear_2027_1981)" stroke-width="1.26984" stroke-linecap="square" stroke-dasharray="10.16 10.16"/>
<path d="M139 200V326.984" stroke="url(#paint3_linear_2027_1981)" stroke-width="1.26984" stroke-linecap="square" stroke-dasharray="10.16 10.16"/>
<path d="M2583.63 149.133C2581.77 147.273 2581.77 144.258 2583.63 142.398C2585.49 140.539 2588.51 140.539 2590.37 142.398C2592.23 144.258 2592.23 147.273 2590.37 149.133C2588.51 150.992 2585.49 150.992 2583.63 149.133Z" fill="#152329"/>
<path d="M135.367 200.102C133.508 198.242 133.508 195.227 135.367 193.367C137.227 191.508 140.242 191.508 142.102 193.367C143.961 195.227 143.961 198.242 142.102 200.102C140.242 201.961 137.227 201.961 135.367 200.102Z" fill="#152329"/>
<path d="M957.367 193.102C955.508 191.242 955.508 188.227 957.367 186.367C959.227 184.508 962.242 184.508 964.102 186.367C965.961 188.227 965.961 191.242 964.102 193.102C962.242 194.961 959.227 194.961 957.367 193.102Z" fill="#152329"/>
<path d="M1741.37 151.102C1739.51 149.242 1739.51 146.227 1741.37 144.367C1743.23 142.508 1746.24 142.508 1748.1 144.367C1749.96 146.227 1749.96 149.242 1748.1 151.102C1746.24 152.961 1743.23 152.961 1741.37 151.102Z" fill="#152329"/>
<defs>
<linearGradient id="paint0_linear_2027_1981" x1="2587.5" y1="142.984" x2="2587.5" y2="16.3175" gradientUnits="userSpaceOnUse">
<stop stop-color="#152329"/>
<stop offset="1" stop-color="#152329" stop-opacity="0"/>
</linearGradient>
<linearGradient id="paint1_linear_2027_1981" x1="1745.5" y1="153" x2="1745.5" y2="279.667" gradientUnits="userSpaceOnUse">
<stop stop-color="#152329"/>
<stop offset="1" stop-color="#152329" stop-opacity="0"/>
</linearGradient>
<linearGradient id="paint2_linear_2027_1981" x1="961.5" y1="182.984" x2="961.5" y2="56.3175" gradientUnits="userSpaceOnUse">
<stop stop-color="#152329"/>
<stop offset="1" stop-color="#152329" stop-opacity="0"/>
</linearGradient>
<linearGradient id="paint3_linear_2027_1981" x1="139.5" y1="200" x2="139.5" y2="326.667" gradientUnits="userSpaceOnUse">
<stop stop-color="#152329"/>
<stop offset="1" stop-color="#152329" stop-opacity="0"/>
</linearGradient>
</defs>
</svg>
