<svg width="166" height="407" viewBox="0 0 166 407" fill="none" xmlns="http://www.w3.org/2000/svg">
<path d="M12.6888 334.886C12.7423 353.79 20.3032 371.899 33.7081 385.228C47.113 398.557 65.264 406.015 84.1679 405.962C103.072 405.908 121.18 398.348 134.51 384.943C147.839 371.538 155.297 353.387 155.244 334.483L83.9662 334.685L12.6888 334.886Z" fill="#5CFFB1"/>
<circle cx="83.9576" cy="333.227" r="47.9079" transform="rotate(179.838 83.9576 333.227)" fill="#FAF6F6"/>
<path d="M165.273 156.871L164.707 21.036L1.12018 21.718L1.68652 157.553L84.0565 208.332L165.273 156.871Z" fill="url(#paint0_linear_2151_2822)"/>
<path d="M165.924 0.000239002L165.987 15.1904L0.0636845 15.8822L0.000351617 0.692029L165.924 0.000239002Z" fill="url(#paint1_linear_2151_2822)"/>
<path d="M71.0476 346.569C68.9098 346.561 67.0703 346.035 65.5291 344.991C63.9962 343.947 62.8155 342.434 61.9869 340.454C61.1665 338.474 60.7605 336.091 60.7688 333.307C60.7688 330.532 61.179 328.166 61.9993 326.21C62.8279 324.255 64.0086 322.768 65.5415 321.748C67.0827 320.721 68.9181 320.207 71.0476 320.207C73.1771 320.207 75.0083 320.721 76.5412 321.748C78.0824 322.776 79.2673 324.267 80.0959 326.223C80.9245 328.17 81.3346 330.532 81.3264 333.307C81.3264 336.1 80.9121 338.486 80.0835 340.466C79.2631 342.447 78.0865 343.959 76.5536 345.003C75.0207 346.047 73.1854 346.569 71.0476 346.569ZM71.0476 342.107C72.5059 342.107 73.6701 341.374 74.5401 339.907C75.4102 338.441 75.841 336.241 75.8327 333.307C75.8327 331.377 75.6339 329.769 75.2362 328.485C74.8467 327.201 74.2915 326.235 73.5707 325.589C72.8581 324.943 72.017 324.619 71.0476 324.619C69.5975 324.619 68.4375 325.345 67.5675 326.795C66.6974 328.245 66.2583 330.416 66.25 333.307C66.25 335.263 66.4447 336.895 66.8342 338.204C67.2319 339.505 67.7912 340.483 68.5121 341.138C69.233 341.784 70.0781 342.107 71.0476 342.107ZM94.933 346.358C93.6238 346.349 92.3602 346.13 91.1421 345.699C89.9324 345.268 88.8469 344.568 87.8857 343.599C86.9246 342.629 86.1623 341.345 85.5988 339.746C85.0436 338.146 84.7661 336.183 84.7661 333.854C84.7744 331.716 85.0188 329.807 85.4994 328.124C85.9883 326.434 86.6843 325.001 87.5874 323.824C88.4989 322.647 89.5885 321.753 90.8563 321.139C92.124 320.518 93.5451 320.207 95.1194 320.207C96.818 320.207 98.3178 320.539 99.6187 321.202C100.92 321.856 101.964 322.747 102.751 323.874C103.546 325.001 104.027 326.264 104.193 327.665H98.8854C98.6782 326.778 98.2432 326.082 97.5803 325.577C96.9175 325.071 96.0972 324.818 95.1194 324.818C93.4622 324.818 92.2027 325.539 91.341 326.981C90.4875 328.423 90.0525 330.382 90.036 332.86H90.21C90.5911 332.106 91.1048 331.464 91.7512 330.933C92.4057 330.395 93.1473 329.985 93.9759 329.703C94.8128 329.413 95.6953 329.268 96.6233 329.268C98.1314 329.268 99.4737 329.624 100.65 330.337C101.827 331.041 102.755 332.011 103.434 333.245C104.114 334.48 104.454 335.893 104.454 337.483C104.454 339.207 104.052 340.74 103.248 342.082C102.453 343.425 101.338 344.477 99.9046 345.239C98.4794 345.993 96.8222 346.366 94.933 346.358ZM94.9081 342.132C95.7367 342.132 96.4783 341.933 97.1329 341.535C97.7875 341.138 98.3012 340.599 98.6741 339.92C99.047 339.24 99.2334 338.478 99.2334 337.633C99.2334 336.787 99.047 336.029 98.6741 335.358C98.3095 334.687 97.8041 334.153 97.1578 333.755C96.5115 333.357 95.774 333.158 94.9454 333.158C94.324 333.158 93.7481 333.274 93.2178 333.506C92.6958 333.738 92.2359 334.061 91.8382 334.476C91.4487 334.89 91.1421 335.371 90.9184 335.917C90.6947 336.456 90.5828 337.032 90.5828 337.645C90.5828 338.465 90.7693 339.215 91.1421 339.895C91.5233 340.574 92.037 341.117 92.6833 341.523C93.3379 341.929 94.0795 342.132 94.9081 342.132Z" fill="black"/>
<defs>
<linearGradient id="paint0_linear_2151_2822" x1="150.827" y1="20.8918" x2="48.3167" y2="188.043" gradientUnits="userSpaceOnUse">
<stop stop-color="#010101"/>
<stop offset="1" stop-color="#565353"/>
</linearGradient>
<linearGradient id="paint1_linear_2151_2822" x1="165.956" y1="7.59533" x2="0.0320181" y2="8.28712" gradientUnits="userSpaceOnUse">
<stop stop-color="#5CFFB1"/>
<stop offset="1" stop-color="white"/>
</linearGradient>
</defs>
</svg>
