<svg width="166" height="407" viewBox="0 0 166 407" fill="none" xmlns="http://www.w3.org/2000/svg">
<path d="M0 15.1903V0H165.925V15.1903H0Z" fill="url(#paint0_linear_2151_2818)"/>
<path d="M12.6908 334.889C12.7443 353.793 20.3051 371.901 33.7101 385.23C47.115 398.56 65.2659 406.018 84.1699 405.964C103.074 405.911 121.182 398.35 134.512 384.945C147.841 371.54 155.299 353.389 155.246 334.485L83.9682 334.687L12.6908 334.889Z" fill="#5CFFB1"/>
<circle cx="85.1549" cy="333.541" r="47.9079" transform="rotate(179.838 85.1549 333.541)" fill="#FAF6F6"/>
<path d="M165.124 156.874L164.557 21.0384L0.970767 21.7205L1.53711 157.556L83.9071 208.334L165.124 156.874Z" fill="url(#paint1_linear_2151_2818)"/>
<path d="M70.3806 345.426C68.2428 345.418 66.4033 344.892 64.8621 343.848C63.3292 342.803 62.1485 341.291 61.3199 339.311C60.4996 337.331 60.0935 334.948 60.1018 332.164C60.1018 329.388 60.512 327.023 61.3323 325.067C62.1609 323.112 63.3416 321.625 64.8746 320.605C66.4157 319.578 68.2511 319.064 70.3806 319.064C72.5101 319.064 74.3413 319.578 75.8742 320.605C77.4154 321.633 78.6003 323.124 79.4289 325.08C80.2575 327.027 80.6676 329.388 80.6594 332.164C80.6594 334.957 80.2451 337.343 79.4165 339.323C78.5961 341.304 77.4195 342.816 75.8866 343.86C74.3537 344.904 72.5184 345.426 70.3806 345.426ZM70.3806 340.964C71.8389 340.964 73.0031 340.231 73.8731 338.764C74.7432 337.297 75.174 335.098 75.1657 332.164C75.1657 330.234 74.9669 328.626 74.5692 327.342C74.1797 326.058 73.6246 325.092 72.9037 324.446C72.1911 323.8 71.3501 323.476 70.3806 323.476C68.9305 323.476 67.7705 324.201 66.9005 325.652C66.0305 327.102 65.5913 329.272 65.583 332.164C65.583 334.12 65.7777 335.752 66.1672 337.061C66.5649 338.362 67.1242 339.34 67.8451 339.995C68.566 340.641 69.4111 340.964 70.3806 340.964ZM84.4968 344.867V340.989L93.5575 332.599C94.3281 331.854 94.9744 331.182 95.4964 330.586C96.0268 329.989 96.4286 329.405 96.7021 328.833C96.9755 328.253 97.1122 327.628 97.1122 326.957C97.1122 326.211 96.9424 325.569 96.6026 325.03C96.2629 324.483 95.7989 324.065 95.2106 323.775C94.6223 323.476 93.9553 323.327 93.2095 323.327C92.4306 323.327 91.7512 323.485 91.1712 323.8C90.5911 324.114 90.1437 324.566 89.8288 325.154C89.514 325.743 89.3565 326.443 89.3565 327.255H84.2482C84.2482 325.589 84.6252 324.143 85.3793 322.917C86.1333 321.691 87.1897 320.742 88.5487 320.071C89.9076 319.4 91.4736 319.064 93.2468 319.064C95.0697 319.064 96.6565 319.387 98.0071 320.034C99.366 320.672 100.422 321.558 101.176 322.693C101.931 323.829 102.308 325.129 102.308 326.596C102.308 327.557 102.117 328.506 101.736 329.442C101.363 330.379 100.696 331.419 99.7347 332.562C98.7736 333.697 97.4188 335.06 95.6705 336.651L91.9542 340.293V340.467H102.643V344.867H84.4968Z" fill="black"/>
<defs>
<linearGradient id="paint0_linear_2151_2818" x1="0" y1="7.59516" x2="165.925" y2="7.59516" gradientUnits="userSpaceOnUse">
<stop stop-color="#5CFFB1"/>
<stop offset="1" stop-color="white"/>
</linearGradient>
<linearGradient id="paint1_linear_2151_2818" x1="146.109" y1="42.441" x2="56.6567" y2="208.939" gradientUnits="userSpaceOnUse">
<stop stop-color="#030202"/>
<stop offset="1" stop-color="#4C4949"/>
</linearGradient>
</defs>
</svg>
