<svg width="442" height="408" viewBox="0 0 442 408" fill="none" xmlns="http://www.w3.org/2000/svg">
<path d="M431.611 408H23.3895C20.634 408 17.9914 407.895 16.043 407.707C14.0946 407.52 13 407.265 13 407C13 406.735 14.0946 406.48 16.043 406.293C17.9914 406.105 20.634 406 23.3895 406H431.611C434.366 406 437.009 406.105 438.957 406.293C440.905 406.48 442 406.735 442 407C442 407.265 440.905 407.52 438.957 407.707C437.009 407.895 434.366 408 431.611 408Z" fill="#E1E8EF"/>
<path d="M192.606 406.087C192.606 406.087 186.942 390.455 152.43 402.019C125.516 411.015 115.444 382.053 91.3058 397.761C67.1677 413.469 49.7698 383.365 41 406.087H192.606Z" fill="#A4BFD8"/>
<path d="M340.095 76.1053C340.095 76.1053 343.399 44.0093 373.088 44.0093C402.777 44.0093 408.101 71.5363 406.128 76.851C406.128 76.851 424.451 78.4936 426.471 91.332C428.491 104.17 417.484 113.507 400.445 113.507H344.135C344.135 113.507 319.591 112.959 319.591 97.1942C319.591 81.4294 331.486 76.1336 340.095 76.1053Z" fill="#D5ECF7"/>
<path d="M187.61 30.5667C187.61 30.5667 190.754 0 219.008 0C247.262 0 252.312 26.1866 250.396 31.2464C250.396 31.2464 267.841 32.8134 269.757 45.0288C271.674 57.2442 261.214 66.1272 244.987 66.1272H191.453C191.453 66.1272 168.079 65.608 168.079 50.6078C168.079 35.6077 179.417 30.595 187.61 30.5667Z" fill="#D5ECF7"/>
<path d="M75.907 24.78H68.421C68.421 24.78 59.1887 28.556 59.1887 38.6191V309.547C59.1887 310.984 59.7596 312.362 60.7758 313.379C61.792 314.395 63.1702 314.966 64.6073 314.966H224.747C226.246 314.967 227.721 314.584 229.029 313.854C230.338 313.123 231.438 312.07 232.224 310.793L237.473 302.297L75.907 24.78Z" fill="#433E51"/>
<path d="M231.752 24.78H74.17C70.5205 24.78 67.562 27.7385 67.562 31.388V300.277C67.562 303.926 70.5205 306.885 74.17 306.885H231.752C235.401 306.885 238.36 303.926 238.36 300.277V31.388C238.36 27.7385 235.401 24.78 231.752 24.78Z" fill="#5A5368"/>
<path d="M221.623 33.1533H84.2898C80.9792 33.1533 78.2954 35.8371 78.2954 39.1477V292.517C78.2954 295.828 80.9792 298.512 84.2898 298.512H221.623C224.934 298.512 227.617 295.828 227.617 292.517V39.1477C227.617 35.8371 224.934 33.1533 221.623 33.1533Z" fill="#E2ECF7"/>
<path d="M153.844 33.1533H152.069H130.867L136.88 39.5914H152.069H153.844H169.033L175.046 33.1533H153.844Z" fill="#5A5368"/>
<path d="M219.055 43.7356C221.031 43.7356 222.633 42.1338 222.633 40.1578C222.633 38.1819 221.031 36.5801 219.055 36.5801C217.079 36.5801 215.478 38.1819 215.478 40.1578C215.478 42.1338 217.079 43.7356 219.055 43.7356Z" fill="#5A5368"/>
<path d="M63.8426 66.2876V118.84C63.8432 119.064 63.7877 119.284 63.6812 119.481C63.5746 119.678 63.4204 119.846 63.2327 119.968C63.0449 120.09 62.8296 120.163 62.6063 120.18C62.3831 120.198 62.159 120.159 61.9546 120.067L57.2346 118.019V67.2127L61.9546 65.0698C62.1583 64.9787 62.3815 64.9398 62.604 64.9568C62.8265 64.9737 63.0412 65.0459 63.2287 65.1669C63.4163 65.2878 63.5706 65.4537 63.6778 65.6494C63.785 65.8451 63.8417 66.0644 63.8426 66.2876Z" fill="#5A5368"/>
<path d="M63.1252 139.344V159.432C63.1252 159.695 63.0603 159.953 62.9364 160.185C62.8125 160.416 62.6333 160.614 62.4148 160.759C62.1962 160.905 61.9451 160.995 61.6837 161.02C61.4223 161.045 61.1587 161.006 60.9162 160.905L57.2346 159.385V139.061L61.4354 138.041C61.6347 137.989 61.8432 137.984 62.045 138.025C62.2467 138.066 62.4364 138.153 62.5995 138.278C62.7626 138.404 62.8947 138.565 62.9858 138.75C63.0769 138.935 63.1246 139.138 63.1252 139.344Z" fill="#5A5368"/>
<path d="M63.8333 89.614H57.2537V90.8318H63.8333V89.614Z" fill="#433E51"/>
<path d="M67.562 47.7476V246.554" stroke="#302D3D" stroke-linecap="round" stroke-linejoin="round"/>
<path d="M67.562 288.203V260.006" stroke="#302D3D" stroke-linecap="round" stroke-linejoin="round"/>
<path d="M205.896 154.712C174.933 139.92 153.645 139.92 153.645 139.92C153.645 139.92 132.368 139.92 101.404 154.712C99.7851 155.481 98.4397 156.727 97.5488 158.283C96.6578 159.839 96.264 161.63 96.4201 163.416C97.8455 179.133 101.98 221.547 106.511 237.567C107.403 240.717 109.275 243.501 111.854 245.516L147.726 273.486C149.426 274.814 151.521 275.536 153.678 275.536C155.836 275.536 157.931 274.814 159.63 273.486L195.502 245.516C198.082 243.501 199.953 240.717 200.845 237.567C205.377 221.519 209.511 179.133 210.937 163.416C211.088 161.624 210.686 159.828 209.784 158.272C208.883 156.715 207.526 155.473 205.896 154.712Z" fill="#64C0FF"/>
<path d="M202.158 158.507C173.413 144.725 153.645 144.725 153.645 144.725C153.645 144.725 133.888 144.725 105.143 158.469C103.638 159.182 102.387 160.338 101.558 161.783C100.729 163.227 100.363 164.891 100.508 166.55C101.829 181.135 105.681 220.518 109.882 235.396C110.707 238.323 112.447 240.91 114.847 242.778L148.123 268.747C149.703 269.977 151.648 270.645 153.65 270.645C155.652 270.645 157.597 269.977 159.177 268.747L192.453 242.778C194.854 240.91 196.594 238.323 197.419 235.396C201.62 220.518 205.471 181.135 206.793 166.55C206.929 164.897 206.559 163.242 205.731 161.805C204.903 160.368 203.656 159.217 202.158 158.507Z" fill="#3396FF"/>
<g style="mix-blend-mode:multiply" opacity="0.35">
<path d="M105.143 158.507C103.638 159.22 102.387 160.376 101.558 161.82C100.729 163.265 100.363 164.929 100.508 166.588C101.829 181.172 105.681 220.556 109.882 235.434C110.707 238.361 112.447 240.948 114.847 242.816L148.123 268.785C149.701 270.015 151.645 270.679 153.645 270.673V144.725C153.645 144.725 133.888 144.725 105.143 158.507Z" fill="#3396FF"/>
</g>
<path d="M166.739 193.813V173.696C166.739 172.747 166.362 171.837 165.691 171.166C165.02 170.495 164.11 170.118 163.161 170.118H144.281C143.332 170.118 142.422 170.495 141.751 171.166C141.08 171.837 140.703 172.747 140.703 173.696V184.08H135.87V170.93C135.87 169.348 136.498 167.83 137.617 166.712C138.736 165.593 140.254 164.964 141.836 164.964H166.191C166.974 164.964 167.75 165.118 168.473 165.418C169.196 165.718 169.853 166.158 170.406 166.712C170.96 167.266 171.398 167.924 171.697 168.648C171.996 169.372 172.149 170.147 172.148 170.93V193.813H166.739Z" fill="#E2E8EB"/>
<path d="M170.93 192.661H136.37C135.204 192.661 134.085 193.124 133.26 193.949C132.435 194.774 131.971 195.893 131.971 197.06V221.698C131.971 221.698 136.049 238.822 153.683 238.822C171.317 238.822 175.395 221.698 175.395 221.698V197.06C175.395 196.477 175.279 195.899 175.054 195.361C174.829 194.823 174.499 194.335 174.083 193.926C173.668 193.516 173.175 193.194 172.634 192.977C172.092 192.759 171.513 192.652 170.93 192.661Z" fill="#FFD41F"/>
<g style="mix-blend-mode:multiply" opacity="0.55">
<path d="M156.798 234.046C139.193 234.046 135.086 216.922 135.086 216.922V192.869C134.18 193.134 133.384 193.686 132.817 194.441C132.25 195.197 131.944 196.116 131.943 197.06V221.698C131.943 221.698 136.021 238.823 153.655 238.823C165.153 238.823 170.873 231.525 173.479 226.466C171.46 228.916 168.907 230.873 166.016 232.187C163.125 233.501 159.972 234.136 156.798 234.046Z" fill="#FFD41F"/>
</g>
<path d="M153.645 202.535C153.645 202.535 147.037 202.535 147.037 208.199C147.037 213.146 150.37 213.032 150.37 213.032V219.423H156.978V213.032C156.978 213.032 160.31 213.146 160.31 208.199C160.31 202.535 153.645 202.535 153.645 202.535Z" fill="#823D00"/>
<path d="M158.415 124.726C173.504 122.276 183.75 108.059 181.301 92.9703C178.852 77.8816 164.635 67.6353 149.546 70.0845C134.457 72.5338 124.211 86.7511 126.66 101.84C129.109 116.928 143.327 127.175 158.415 124.726Z" fill="#3396FF"/>
<path d="M140.939 101.055C132 109.551 132.972 124.032 132.972 124.032C138.834 129.045 153.646 130.046 153.646 130.046C153.646 130.046 168.466 129.045 174.329 124.032C174.329 124.032 175.273 109.57 166.361 101.055C162.956 97.7492 158.396 95.8999 153.65 95.8999C148.904 95.8999 144.345 97.7492 140.939 101.055Z" fill="#8ACDFF"/>
<path d="M153.645 90.9071C161.414 90.9071 167.711 84.6097 167.711 76.8415C167.711 69.0733 161.414 62.7759 153.645 62.7759C145.877 62.7759 139.58 69.0733 139.58 76.8415C139.58 84.6097 145.877 90.9071 153.645 90.9071Z" fill="#8ACDFF"/>
<path d="M192.076 116.225V75.2179C192.078 74.0804 192.532 72.9903 193.337 72.1868C194.142 71.3834 195.233 70.9321 196.371 70.9321H228.004C228.004 70.9321 233.017 73.5092 233.017 78.3708H251.302C251.937 78.3708 252.565 78.4959 253.15 78.7389C253.736 78.982 254.269 79.3381 254.717 79.7871C255.165 80.236 255.52 80.7689 255.762 81.3552C256.003 81.9416 256.127 82.5699 256.126 83.2041V114.866C256.126 116.461 255.493 117.99 254.365 119.118C253.237 120.246 251.708 120.879 250.113 120.879H196.73C195.495 120.879 194.312 120.389 193.439 119.516C192.566 118.643 192.076 117.46 192.076 116.225Z" fill="#4C94FF"/>
<g style="mix-blend-mode:multiply" opacity="0.55">
<path d="M192.076 116.225V75.2179C192.078 74.0804 192.532 72.9903 193.337 72.1868C194.142 71.3834 195.233 70.9321 196.371 70.9321H228.004C228.004 70.9321 233.017 73.5092 233.017 78.3708H251.302C251.937 78.3708 252.565 78.4959 253.15 78.7389C253.736 78.982 254.269 79.3381 254.717 79.7871C255.165 80.236 255.52 80.7689 255.762 81.3552C256.003 81.9416 256.127 82.5699 256.126 83.2041V114.866C256.126 116.461 255.493 117.99 254.365 119.118C253.237 120.246 251.708 120.879 250.113 120.879H196.73C195.495 120.879 194.312 120.389 193.439 119.516C192.566 118.643 192.076 117.46 192.076 116.225Z" fill="#4C94FF"/>
</g>
<path d="M203.026 80.5986V52.8828C203.026 52.1939 203.162 51.5119 203.426 50.8756C203.69 50.2394 204.076 49.6614 204.564 49.1747C205.051 48.6881 205.63 48.3024 206.267 48.0397C206.904 47.7769 207.586 47.6423 208.275 47.6436H243.203L253.794 58.0276V84.3557H203.026V80.5986Z" fill="white"/>
<path d="M242.853 47.7193V57.4425C242.841 57.7152 242.887 57.9874 242.99 58.2403C243.093 58.4932 243.249 58.7208 243.448 58.9075C243.648 59.0941 243.885 59.2353 244.144 59.3214C244.403 59.4075 244.678 59.4364 244.949 59.406L253.587 58.311C253.626 58.3038 253.662 58.2861 253.692 58.2597C253.721 58.2333 253.743 58.1993 253.755 58.1613C253.767 58.1233 253.768 58.0829 253.758 58.0444C253.748 58.0058 253.728 57.9707 253.7 57.9428L243.203 47.54C243.169 47.5183 243.131 47.5059 243.091 47.5039C243.051 47.502 243.012 47.5105 242.976 47.5287C242.941 47.5469 242.911 47.5741 242.889 47.6075C242.868 47.641 242.855 47.6795 242.853 47.7193Z" fill="#EFEFEF"/>
<path d="M217.904 61.3035L220.339 59.8214C220.441 59.7604 220.56 59.7348 220.678 59.7485C220.795 59.7621 220.905 59.8143 220.99 59.8969L225.323 63.9939C225.373 64.047 225.433 64.0894 225.499 64.1185C225.566 64.1475 225.638 64.1624 225.71 64.1624C225.783 64.1624 225.855 64.1475 225.922 64.1185C225.988 64.0894 226.048 64.047 226.097 63.9939L234.046 54.6671C234.134 54.5613 234.26 54.4935 234.397 54.4777C234.534 54.4619 234.672 54.4993 234.782 54.5822L237.661 56.7156C237.723 56.7619 237.774 56.821 237.811 56.8888C237.848 56.9566 237.87 57.0316 237.875 57.1086C237.881 57.1856 237.869 57.2629 237.842 57.3352C237.815 57.4074 237.773 57.473 237.718 57.5275L226.485 68.5628C226.386 68.6511 226.258 68.6998 226.126 68.6998C225.993 68.6998 225.866 68.6511 225.767 68.5628L217.847 62.1908C217.778 62.1369 217.723 62.067 217.687 61.9871C217.651 61.9071 217.635 61.8196 217.641 61.7322C217.646 61.6447 217.673 61.5599 217.719 61.4852C217.765 61.4105 217.828 61.3481 217.904 61.3035Z" fill="#E89D3A"/>
<path d="M196.512 119.095V78.0877C196.512 76.9485 196.965 75.856 197.77 75.0505C198.576 74.245 199.668 73.7925 200.808 73.7925H232.441C232.441 73.7925 237.454 76.3696 237.454 81.2406H255.739C256.373 81.2406 257.001 81.3657 257.587 81.6087C258.173 81.8517 258.705 82.2079 259.153 82.6568C259.601 83.1058 259.957 83.6387 260.198 84.225C260.44 84.8114 260.564 85.4397 260.563 86.0739V117.736C260.563 119.331 259.929 120.86 258.802 121.988C257.674 123.115 256.144 123.749 254.55 123.749H201.166C200.555 123.749 199.95 123.629 199.385 123.395C198.821 123.161 198.308 122.818 197.876 122.386C197.443 121.954 197.101 121.441 196.867 120.876C196.633 120.311 196.512 119.706 196.512 119.095Z" fill="#4C94FF"/>
<path d="M253.766 88.6794H202.384V92.9746H253.766V88.6794Z" fill="#FFD41F"/>
<path d="M253.766 88.6794H226.862V92.9746H253.766V88.6794Z" fill="#FFB522"/>
<path d="M253.776 88.6794H238.672V92.9746H253.776V88.6794Z" fill="#FF9B24"/>
<path d="M166.748 74.0096C168.26 74.0096 169.486 72.784 169.486 71.272C169.486 69.7601 168.26 68.5344 166.748 68.5344C165.236 68.5344 164.01 69.7601 164.01 71.272C164.01 72.784 165.236 74.0096 166.748 74.0096Z" fill="white"/>
<path d="M166.739 71.2719V57.3951C166.738 56.8142 166.851 56.2387 167.072 55.7016C167.294 55.1645 167.619 54.6763 168.029 54.2651C168.44 53.8538 168.927 53.5276 169.464 53.305C170 53.0824 170.576 52.9678 171.157 52.9678H198.835" stroke="white" stroke-width="1.2" stroke-linecap="round" stroke-linejoin="round"/>
<path d="M176.301 97.4114C176.301 97.9529 176.141 98.4822 175.84 98.9324C175.539 99.3826 175.112 99.7334 174.611 99.9406C174.111 100.148 173.561 100.202 173.03 100.096C172.499 99.9908 172.011 99.7301 171.628 99.3472C171.245 98.9643 170.984 98.4765 170.879 97.9455C170.773 97.4145 170.827 96.864 171.035 96.3638C171.242 95.8636 171.593 95.436 172.043 95.1352C172.493 94.8344 173.022 94.6738 173.564 94.6738C174.29 94.6738 174.986 94.9623 175.5 95.4757C176.013 95.9891 176.301 96.6854 176.301 97.4114Z" fill="white"/>
<path d="M173.564 97.4115V67.0902C173.566 65.774 174.09 64.5125 175.021 63.5819C175.952 62.6512 177.213 62.1273 178.529 62.1248H197.664" stroke="white" stroke-width="1.2" stroke-linecap="round" stroke-linejoin="round"/>
<path d="M183.57 145.414C183.57 146.001 183.396 146.574 183.07 147.062C182.744 147.549 182.28 147.929 181.738 148.153C181.196 148.377 180.599 148.436 180.024 148.32C179.449 148.205 178.921 147.922 178.507 147.507C178.093 147.091 177.811 146.562 177.698 145.986C177.584 145.411 177.644 144.814 177.87 144.273C178.096 143.732 178.477 143.269 178.966 142.945C179.455 142.62 180.029 142.448 180.615 142.45C181.4 142.452 182.151 142.766 182.705 143.321C183.259 143.877 183.57 144.629 183.57 145.414Z" fill="white"/>
<path d="M180.615 145.414H200.855C202.171 145.411 203.433 144.887 204.363 143.957C205.294 143.026 205.818 141.764 205.82 140.448V127.733" stroke="white" stroke-width="1.2" stroke-linecap="round" stroke-linejoin="round"/>
<path d="M192.869 184.986C192.878 185.68 192.681 186.36 192.302 186.941C191.923 187.522 191.38 187.977 190.741 188.248C190.103 188.519 189.398 188.594 188.717 188.463C188.036 188.332 187.409 188.002 186.916 187.513C186.424 187.025 186.088 186.401 185.952 185.721C185.815 185.041 185.884 184.335 186.15 183.695C186.416 183.054 186.866 182.507 187.444 182.123C188.022 181.74 188.701 181.537 189.395 181.541C190.31 181.545 191.186 181.909 191.836 182.553C192.485 183.198 192.856 184.071 192.869 184.986Z" fill="white"/>
<path d="M189.395 184.986H213.495C214.915 184.986 216.276 184.422 217.28 183.419C218.284 182.415 218.848 181.053 218.848 179.634V127.733" stroke="white" stroke-width="1.2" stroke-linecap="round" stroke-linejoin="round"/>
<path d="M202.885 203.828C202.885 203.828 201.884 198.599 194.87 198.599C190.65 198.599 188.583 200.307 187.601 201.667C187.255 202.169 186.791 202.578 186.249 202.858C185.708 203.138 185.105 203.28 184.495 203.271L169.004 202.913C168.226 203.335 167.473 203.802 166.748 204.31C166.616 204.48 168.202 207.803 168.844 209.134C168.925 209.297 169.048 209.436 169.201 209.536C169.354 209.635 169.53 209.692 169.712 209.7L172.431 209.785V208.548L174.64 208.605C174.817 208.608 174.99 208.661 175.139 208.758C175.288 208.855 175.406 208.992 175.48 209.153L176.519 211.343H179.898V209.615C179.898 209.501 179.921 209.387 179.965 209.282C180.01 209.176 180.075 209.081 180.156 209.001C180.238 208.921 180.335 208.858 180.442 208.816C180.548 208.774 180.662 208.754 180.776 208.756L184.061 208.832L185.373 211.824H188.696C189.98 213.564 191.889 214.738 194.02 215.1C197.796 215.845 202.866 215.043 203.725 213.004C204.584 210.965 202.885 203.828 202.885 203.828ZM194.87 209.946C194.31 209.946 193.762 209.779 193.297 209.468C192.831 209.157 192.468 208.715 192.254 208.197C192.039 207.68 191.983 207.11 192.092 206.561C192.202 206.012 192.471 205.507 192.868 205.111C193.264 204.715 193.768 204.445 194.318 204.336C194.867 204.227 195.436 204.283 195.954 204.497C196.471 204.711 196.914 205.074 197.225 205.54C197.536 206.006 197.702 206.553 197.702 207.114C197.702 207.865 197.404 208.585 196.873 209.116C196.341 209.647 195.621 209.946 194.87 209.946Z" fill="#FFB031"/>
<path d="M279.386 377.94V385.813C279.386 385.813 256.485 395.546 255.059 396.546C253.634 397.547 254.408 400.483 257.344 401.059L302.108 400.266V378.903L279.386 377.94Z" fill="#EFEFEF"/>
<path d="M257.363 401.059L302.127 400.266V385.237C302.127 385.237 297.511 387.918 289.78 387.918C282.048 387.918 279.396 385.813 279.396 385.813C279.396 385.813 256.494 395.546 255.069 396.546C253.643 397.547 254.408 400.483 257.363 401.059Z" fill="#51251E"/>
<path d="M254.531 398.661C254.732 399.286 255.104 399.842 255.604 400.267C256.105 400.692 256.714 400.97 257.363 401.068L302.127 400.275V396.773L254.531 398.661Z" fill="#381612"/>
<path d="M271.334 389.957L274.666 393.327" stroke="#381612" stroke-width="0.75" stroke-miterlimit="10" stroke-linecap="round"/>
<path d="M275.384 388.031L279.065 391.751" stroke="#381612" stroke-width="0.75" stroke-miterlimit="10" stroke-linecap="round"/>
<path d="M378.431 362.911L383.368 366.565C383.368 366.565 377.354 385.671 380.894 393.186C381.581 393.504 382.342 393.627 383.094 393.538C383.846 393.45 384.558 393.155 385.152 392.685C386.964 391.194 401.946 360.806 404.797 354.991C404.922 354.733 404.944 354.437 404.858 354.163C404.772 353.889 404.585 353.658 404.334 353.519L388.088 344.447L378.431 362.911Z" fill="#411B13"/>
<path d="M378.431 362.911L383.368 366.565C383.368 366.565 377.354 385.671 380.894 393.186C381.581 393.504 382.342 393.627 383.094 393.538C383.846 393.45 384.558 393.155 385.152 392.685C386.964 391.194 401.946 360.806 404.797 354.991C404.922 354.733 404.944 354.437 404.858 354.163C404.772 353.889 404.585 353.658 404.334 353.519L388.088 344.447L378.431 362.911Z" fill="#51251E"/>
<path d="M393.893 347.685L388.088 344.447L378.572 362.628C378.638 362.808 378.695 362.987 378.77 363.166L383.368 366.565C386.293 364.279 388.731 361.431 390.539 358.188C392.346 354.946 393.487 351.375 393.893 347.685Z" fill="#EFEFEF"/>
<path d="M385.152 392.685C386.964 391.194 401.946 360.806 404.797 354.991C404.922 354.733 404.944 354.437 404.858 354.163C404.772 353.889 404.585 353.659 404.334 353.519L402.125 352.282L380.895 393.186C381.581 393.504 382.342 393.627 383.094 393.538C383.846 393.45 384.558 393.155 385.152 392.685Z" fill="#381612"/>
<path d="M383.085 369.491L389.06 368.443" stroke="#381612" stroke-width="0.75" stroke-miterlimit="10" stroke-linecap="round"/>
<path d="M381.857 374.343L387.285 373.427" stroke="#381612" stroke-width="0.75" stroke-miterlimit="10" stroke-linecap="round"/>
<path d="M280.019 251.916C280.019 251.916 271.976 318.685 272.835 379.356C272.835 379.356 295.585 381.14 308.896 380.498C308.896 380.498 307.329 347.458 308.896 329.975C310.463 312.492 313.059 267.161 313.059 267.161C313.059 267.161 324.793 334.138 334.242 342.511C343.692 350.885 377.827 369.132 377.827 369.132L391.043 341.445L359.985 322.263L353.547 251.264L280.019 251.916Z" fill="#FEFAF8"/>
<path d="M348.345 261.148L352.99 325.586L387.285 349.261" stroke="#7F370E" stroke-width="0.75" stroke-miterlimit="10" stroke-linecap="round"/>
<path d="M307.338 264.811L303.949 380.649" stroke="#7F370E" stroke-width="0.75" stroke-miterlimit="10" stroke-linecap="round"/>
<g style="mix-blend-mode:multiply" opacity="0.44">
<path d="M310.416 309.415C311.728 289.931 313.021 267.161 313.021 267.161L307.357 264.811L310.416 309.415Z" fill="#5A2402"/>
</g>
<path d="M279.528 261.148C279.528 261.148 283.181 259.713 285.9 254.776" stroke="#7F370E" stroke-width="0.75" stroke-miterlimit="10" stroke-linecap="round"/>
<path d="M304.846 263.782L313.021 267.162" stroke="#7F370E" stroke-width="0.75" stroke-miterlimit="10" stroke-linecap="round"/>
<path d="M336.206 255.852C336.206 255.852 340.926 262.224 352.99 261.365" stroke="#7F370E" stroke-width="0.75" stroke-miterlimit="10" stroke-linecap="round"/>
<path d="M215.053 202.469C215.053 202.469 199.307 202.894 198.806 202.894C198.043 202.98 197.336 203.339 196.816 203.904C196.296 204.469 195.997 205.204 195.974 205.971C195.899 208.407 200.912 209.483 202.847 209.483C202.847 209.483 201.497 215.204 196.192 215.204C194.766 215.32 193.336 215.042 192.057 214.401C192.057 214.401 190.981 214.939 191.575 216.818C192.17 218.697 194.898 220.301 194.898 220.301C194.898 220.301 193.341 223.473 196.786 225.89C200.232 228.307 205.16 228.722 205.481 224.814C206.371 225.726 207.45 226.433 208.642 226.887C209.833 227.34 211.109 227.528 212.381 227.438C216.894 227.23 218.81 225.654 218.81 225.654L215.053 202.469Z" fill="#F9D5BF"/>
<path d="M210.163 215.912C208.961 215.434 207.92 214.625 207.159 213.579C206.399 212.533 205.951 211.293 205.868 210.002L202.79 209.53C202.25 211.562 200.962 213.316 199.184 214.439C200.257 214.577 201.317 214.798 202.356 215.1L204.452 212.202C205.952 213.969 207.938 215.259 210.163 215.912Z" fill="#FCA695"/>
<path d="M211.758 216.705C211.758 216.705 206.576 214.817 205.877 210.002C205.877 210.002 201.657 209.436 199.099 208.803" stroke="#DB7665" stroke-width="0.5" stroke-miterlimit="10" stroke-linecap="round"/>
<path d="M199.495 214.524C199.495 214.524 202.979 214.524 204.744 216.705C206.509 218.885 203.46 221.698 202.601 221.698C202.601 221.698 196.692 221 194.87 220.301" stroke="#DB7665" stroke-width="0.5" stroke-miterlimit="10" stroke-linecap="round"/>
<path d="M202.611 221.698C203.282 221.99 203.886 222.417 204.385 222.953C204.884 223.489 205.266 224.123 205.509 224.814C205.509 224.814 205.716 227.797 201.969 227.721" stroke="#DB7665" stroke-width="0.5" stroke-miterlimit="10" stroke-linecap="round"/>
<path d="M364.422 254.757C364.422 254.757 361.42 259.269 361.146 261.526C360.872 263.782 362.543 266.784 364.148 268.398C364.148 268.398 364.799 272.637 364.96 273.76C365.12 274.883 368.283 275.799 370.322 274.137C370.322 274.137 373.635 277.215 376.496 275.081C376.882 275.25 377.302 275.329 377.723 275.314C378.144 275.3 378.557 275.191 378.931 274.997C380.366 274.355 385.803 270.843 386.011 270.135C386.219 269.427 386.37 254.389 386.011 253.03C385.652 251.67 364.422 254.757 364.422 254.757Z" fill="#F9D5BF"/>
<path d="M361.779 264.811C362.349 266.138 363.152 267.352 364.148 268.398C364.148 268.398 364.233 268.955 364.356 269.72C364.573 269.956 364.714 270.088 364.714 270.088L364.337 265.981C363.385 265.86 362.492 265.452 361.779 264.811Z" fill="#FCA695"/>
<path d="M364.186 264.405L364.979 272.882" stroke="#DB7665" stroke-width="0.5" stroke-miterlimit="10" stroke-linecap="round"/>
<path d="M361.467 250.141L363.242 255.428C363.242 255.428 380.998 254.569 387.229 253.851C387.041 251.727 386.685 249.622 386.162 247.555C385.511 245.733 361.467 250.141 361.467 250.141Z" fill="white"/>
<path d="M222.614 202.469H215.062C215.062 202.469 216.327 219.924 218.838 225.654H224.323L222.614 202.469Z" fill="white"/>
<path d="M293.81 147.481C293.81 147.481 286.938 149.794 287.344 154.523C287.344 154.523 274.628 157.667 270.654 160.782C266.68 163.897 249.612 190.518 247.687 195.88L223.077 200.071C222.558 200.158 222.091 200.437 221.77 200.854C221.449 201.271 221.299 201.795 221.349 202.318L223.973 230.025C224.026 230.599 224.302 231.13 224.741 231.504C225.18 231.878 225.748 232.065 226.324 232.026C231.61 231.667 245.327 230.563 252.624 228.514C261.781 225.937 277.092 204.914 277.092 204.914L280.245 220.962C280.245 220.962 275.667 239.71 277.413 253.162C277.413 253.162 292.866 255.456 316.91 255.456C340.954 255.456 355.133 254.446 355.133 254.446C355.133 254.446 354.557 210.937 353.981 208.511L356.275 211.343C356.275 211.343 359.277 248.555 360.712 251.699L391.411 248.48C391.411 248.48 390.655 208.331 385.501 197.598C380.347 186.865 355.199 160.452 338.443 151.956C338.047 151.754 337.612 151.638 337.168 151.616L324.207 150.747C324.207 150.747 323.169 143.054 320.384 140.26C320.163 140.046 319.901 139.878 319.614 139.768C319.327 139.658 319.021 139.607 318.713 139.618C315.891 139.655 306.649 140.354 293.81 147.481Z" fill="#3AD4FF"/>
<path d="M360.684 251.699L391.411 248.48C391.411 248.48 391.335 244.439 391.061 238.586C375.259 238.586 364.054 240.984 359.164 242.296C359.73 247.111 360.259 250.802 360.684 251.699Z" fill="#578DDD"/>
<g style="mix-blend-mode:multiply" opacity="0.33">
<path d="M339.613 194.558L347.222 206.632C349.777 210.686 351.592 215.16 352.584 219.848L354.538 229.203L354.075 209.219L339.613 194.558Z" fill="#73A2F4"/>
</g>
<g style="mix-blend-mode:multiply" opacity="0.33">
<path d="M277.083 204.923L275.195 195.738C275.195 195.738 272.117 209.275 263.706 220.556C268.518 215.658 272.987 210.435 277.083 204.923Z" fill="#73A2F4"/>
</g>
<g style="mix-blend-mode:multiply" opacity="0.33">
<path d="M320.394 140.26C320.173 140.046 319.911 139.878 319.624 139.768C319.337 139.658 319.03 139.607 318.723 139.618C315.891 139.618 306.649 140.354 293.811 147.481C293.811 147.481 287.854 149.492 287.363 153.589C289.081 153.712 293.801 153.476 305.403 150.049C316.098 146.896 320.28 144.017 321.876 142.497C321.506 141.676 321.006 140.92 320.394 140.26Z" fill="#73A2F4"/>
</g>
<path d="M272.693 183.325L277.092 204.905L280.245 220.934" stroke="#2662AA" stroke-miterlimit="10" stroke-linecap="round"/>
<path d="M337.499 192.302C337.924 193.02 356.247 211.343 356.247 211.343L359.192 242.495" stroke="#2662AA" stroke-miterlimit="10" stroke-linecap="round"/>
<path d="M355.038 247.555L354.038 209.134" stroke="#2662AA" stroke-miterlimit="10" stroke-linecap="round"/>
<path d="M288.581 153.589C288.581 153.589 293.103 153.796 304.044 150.474C314.984 147.151 319.317 144.356 319.317 144.356" stroke="#2662AA" stroke-miterlimit="10" stroke-linecap="round"/>
<path d="M287.344 154.523C287.344 154.523 288.581 160.027 292.697 162.897" stroke="#2662AA" stroke-miterlimit="10" stroke-linecap="round"/>
<path d="M317.514 159.168C317.514 159.168 322.829 154.91 324.217 150.747" stroke="#2662AA" stroke-miterlimit="10" stroke-linecap="round"/>
<path d="M230.326 198.835L223.077 200.071C222.558 200.157 222.091 200.437 221.77 200.854C221.449 201.271 221.299 201.794 221.349 202.318L223.973 230.024C224.026 230.599 224.302 231.13 224.741 231.504C225.18 231.878 225.748 232.065 226.324 232.026C228.212 231.894 231.308 231.667 234.754 231.327C234.82 219.603 231.78 205.075 230.326 198.835Z" fill="#578DDD"/>
<path d="M230.497 199.326C230.497 199.326 233.517 206.632 234.754 230.77" stroke="#2662AA" stroke-miterlimit="10" stroke-linecap="round"/>
<path d="M222.085 205.273L231.771 204.046" stroke="#2662AA" stroke-miterlimit="10" stroke-linecap="round"/>
<path d="M222.614 211.796L232.63 210.531" stroke="#2662AA" stroke-miterlimit="10" stroke-linecap="round"/>
<path d="M223.511 220.99L233.697 219.697" stroke="#2662AA" stroke-miterlimit="10" stroke-linecap="round"/>
<path d="M224.323 229.552L234.414 228.618" stroke="#2662AA" stroke-miterlimit="10" stroke-linecap="round"/>
<path d="M359.522 242.202C359.522 242.202 378.355 238.577 390.599 238.586" stroke="#2662AA" stroke-miterlimit="10" stroke-linecap="round"/>
<path d="M363.978 241.409L366.074 250.67" stroke="#2662AA" stroke-miterlimit="10" stroke-linecap="round"/>
<path d="M373.116 240.021L375.316 249.65" stroke="#2662AA" stroke-miterlimit="10" stroke-linecap="round"/>
<path d="M381.659 239.049L383.311 248.801" stroke="#2662AA" stroke-miterlimit="10" stroke-linecap="round"/>
<path d="M388.73 238.605L390.023 248.234" stroke="#2662AA" stroke-miterlimit="10" stroke-linecap="round"/>
<path d="M274.251 123.013C274.251 123.013 270.654 145.376 292.98 147.953L295.491 152.966C295.491 152.966 308.15 149.605 312.304 147.453L309.283 141.496L309.708 139.561C309.708 139.561 318.373 134.765 319.799 128.186C320.969 122.796 318.015 121.172 318.015 121.172L302.731 107.541L278.301 110.637C278.301 110.637 274.298 116.546 274.251 123.013Z" fill="#FBEEE7"/>
<path d="M292.989 147.953L294.764 151.493C297.417 151.05 303.694 149.379 305.403 143.469C305.403 143.469 302.524 147.642 292.989 147.953Z" fill="#FCA695"/>
<path d="M315.362 126.203C314.122 126.902 313.04 127.85 312.184 128.987C311.327 130.124 310.716 131.426 310.387 132.811C310.362 132.909 310.362 133.012 310.386 133.11C310.411 133.208 310.46 133.298 310.529 133.372C310.597 133.446 310.683 133.502 310.779 133.534C310.875 133.567 310.977 133.575 311.076 133.557C312.54 133.331 315.428 132.613 316.816 130.659C317.093 130.329 317.294 129.942 317.404 129.526C317.515 129.109 317.532 128.674 317.454 128.25C317.377 127.826 317.206 127.424 316.956 127.074C316.705 126.723 316.38 126.433 316.004 126.222C315.909 126.161 315.799 126.127 315.686 126.124C315.573 126.12 315.461 126.148 315.362 126.203Z" fill="#FCA695"/>
<path d="M274.798 121.011C275.912 120.348 277.194 120.02 278.489 120.067C279.391 120.059 280.272 120.333 281.01 120.851C281.094 120.907 281.19 120.942 281.29 120.952C281.391 120.963 281.492 120.948 281.585 120.91C281.679 120.871 281.761 120.811 281.825 120.733C281.89 120.655 281.934 120.563 281.954 120.464C282.074 119.773 282.041 119.064 281.859 118.387C281.397 116.603 278.442 115.413 276.101 116.423C273.76 117.434 274.798 121.011 274.798 121.011Z" fill="#5A2402"/>
<path d="M289.931 119.775C289.866 119.171 289.885 118.561 289.987 117.962C290.043 117.667 290.213 117.406 290.459 117.235C291.403 116.537 294.141 114.838 297.067 115.262C299.994 115.687 301.731 118.094 302.439 119.142C302.555 119.303 302.617 119.496 302.617 119.694C302.617 119.893 302.555 120.086 302.439 120.247C302.038 120.833 301.459 121.273 300.787 121.502C300.584 121.558 300.37 121.554 300.169 121.492C299.969 121.431 299.79 121.313 299.654 121.153C299.157 120.615 298.549 120.192 297.873 119.912C297.197 119.631 296.468 119.501 295.736 119.529C294.097 119.55 292.472 119.846 290.931 120.407C290.824 120.447 290.709 120.461 290.595 120.449C290.481 120.437 290.372 120.399 290.275 120.338C290.178 120.277 290.097 120.194 290.037 120.096C289.977 119.999 289.941 119.889 289.931 119.775Z" fill="#5A2402"/>
<path d="M279.188 113.223C276.689 115.981 274.983 119.364 274.251 123.013C274.251 123.013 272.589 116.792 275.27 112.553L279.188 113.223Z" fill="#5A2402"/>
<g style="mix-blend-mode:multiply" opacity="0.5">
<path d="M279.188 113.223C276.689 115.981 274.983 119.364 274.251 123.013C274.251 123.013 272.589 116.792 275.27 112.553L279.188 113.223Z" fill="#5A2402"/>
</g>
<path d="M276.167 109.58C275.474 109.743 274.856 110.136 274.414 110.695C273.972 111.253 273.732 111.945 273.732 112.657C273.59 115.3 278.886 115.159 280.028 113.299C280.028 113.299 280.387 115.187 282.643 114.677C283.307 114.527 283.925 114.221 284.447 113.784C284.969 113.348 285.38 112.793 285.645 112.166C285.645 112.166 287.901 114.441 291.196 110.656C291.297 111.361 291.63 112.012 292.143 112.506C292.656 113 293.319 113.309 294.028 113.384C294.84 113.402 295.648 113.25 296.397 112.936C297.147 112.622 297.823 112.154 298.38 111.562C298.38 111.562 297.436 114.668 298.965 114.753C300.494 114.838 302.458 113.016 302.458 113.016C302.458 113.016 304.874 123.966 309.273 125.41C309.273 125.41 311.633 117.953 318.005 121.172C318.005 121.172 319.572 119.378 319.223 117.953C318.874 116.527 316.391 115.376 316.391 115.376C316.391 115.376 319.572 114.082 319.308 112.544C319.044 111.005 316.608 109.891 316.608 109.891C317.207 109.576 317.668 109.051 317.905 108.418C318.141 107.784 318.137 107.085 317.892 106.455C317.146 104.237 312.813 104.878 312.813 104.878C312.813 104.878 312.955 102.046 309.472 102.046C309.472 102.046 308.311 98.025 303.156 99.1672C302.864 98.3567 302.369 97.6349 301.718 97.0712C301.066 96.5074 300.281 96.1207 299.437 95.9482C296.605 95.5139 292.489 97.7323 292.489 97.7323C292.489 97.7323 289.723 96.1464 287.41 96.524C286.689 96.6879 286.014 97.0147 285.438 97.4794C284.862 97.9441 284.4 98.5343 284.087 99.205C284.087 99.205 281.189 98.261 279.471 100.026C278.984 100.484 278.657 101.087 278.54 101.745C278.423 102.403 278.521 103.082 278.82 103.68C277.876 103.782 276.975 104.133 276.211 104.697C275.446 105.261 274.845 106.017 274.468 106.889C273.458 109.174 276.167 109.58 276.167 109.58Z" fill="#5A2402"/>
<path d="M281.152 126.647C281.501 128.459 281.057 130.064 280.16 130.244C279.264 130.423 278.272 129.101 277.885 127.289C277.498 125.476 277.97 123.872 278.877 123.692C279.783 123.513 280.793 124.844 281.152 126.647Z" fill="#5A2402"/>
<path d="M296.218 126.487C296.869 128.233 296.69 129.913 295.831 130.263C294.972 130.612 293.745 129.422 293.093 127.667C292.442 125.911 292.621 124.249 293.49 123.891C294.358 123.532 295.576 124.74 296.218 126.487Z" fill="#5A2402"/>
<path d="M275.591 124.174C275.591 124.174 279.622 122.456 282.785 125.41" stroke="#5A2402" stroke-width="0.75" stroke-miterlimit="10" stroke-linecap="round"/>
<path d="M290.998 124.825C290.998 124.825 295.51 122.616 298.993 124.825" stroke="#5A2402" stroke-width="0.75" stroke-miterlimit="10" stroke-linecap="round"/>
<path d="M284.965 127.27C284.629 129.515 284.439 131.779 284.399 134.048C285.354 134.369 286.389 134.369 287.344 134.048" stroke="#DB7665" stroke-width="0.75" stroke-miterlimit="10" stroke-linecap="round"/>
<path d="M290.195 140.42C290.195 140.42 294.66 139.202 296.322 135.625" stroke="#DB7665" stroke-width="0.75" stroke-miterlimit="10" stroke-linecap="round"/>
<path d="M316.061 125.948C316.061 125.948 312.624 126.487 310.699 131.962" stroke="#DB7665" stroke-width="0.75" stroke-miterlimit="10" stroke-linecap="round"/>
<path d="M315.683 129.167C314.452 129.836 313.028 130.059 311.652 129.8" stroke="#DB7665" stroke-width="0.75" stroke-miterlimit="10" stroke-linecap="round"/>
<path d="M293.235 147.963C293.235 147.963 301.126 148.652 306.271 142.497" stroke="#DB7665" stroke-width="0.75" stroke-miterlimit="10" stroke-linecap="round"/>
<g style="mix-blend-mode:multiply" opacity="0.39">
<path d="M293.811 141.893C293.811 141.893 295.699 140.448 296.643 139.91C297.587 139.372 297.464 141.506 296.86 142.204C296.413 142.564 295.842 142.733 295.271 142.674C294.7 142.616 294.176 142.335 293.811 141.893Z" fill="#FCA695"/>
</g>
<path d="M16.0386 169.854C16.0386 169.854 18.6062 144.725 41.8003 144.725C64.9944 144.725 69.1763 166.219 67.5621 170.373C67.5621 170.373 81.8731 171.657 83.4496 181.701C85.0261 191.745 76.4357 199.023 63.1253 199.023H19.1821C19.1821 199.023 0 198.589 0 186.279C0 173.97 9.30784 169.873 16.0386 169.854Z" fill="#D5ECF7"/>
<path d="M60.18 255.805C56.8161 255.844 53.4704 256.304 50.2208 257.174V266.331C48.782 266.804 47.3809 267.384 46.0294 268.068L39.5252 261.564C33.6258 264.883 28.7507 269.758 25.4313 275.658L31.9071 282.133C31.2277 283.488 30.6441 284.888 30.1607 286.325H20.9851C19.1599 292.842 19.1599 299.735 20.9851 306.253H30.123C30.6069 307.719 31.1969 309.148 31.8883 310.529L25.4219 316.995C27.1036 319.917 29.146 322.616 31.5012 325.029C33.9088 327.377 36.5975 329.419 39.5063 331.108L45.9727 324.642C47.344 325.33 48.7638 325.917 50.2208 326.398V335.554C53.4704 336.424 56.8161 336.884 60.18 336.923C63.5469 336.884 66.8957 336.424 70.1486 335.554V326.407C71.6176 325.918 73.0498 325.325 74.4344 324.632L80.9479 331.155C86.7847 327.75 91.6201 322.866 94.9663 316.995L88.4999 310.529C89.1881 309.158 89.775 307.738 90.2558 306.281H99.4975C101.21 299.744 101.171 292.87 99.3843 286.353H90.2747C89.7945 284.912 89.2109 283.509 88.5283 282.152L95.0702 275.601C91.668 269.764 86.7829 264.931 80.9102 261.592L74.4344 268.058C73.0683 267.376 71.655 266.792 70.2052 266.312V257.061C66.9293 256.224 63.5611 255.802 60.18 255.805ZM60.5104 281.482C64.5496 281.482 68.4235 283.086 71.2806 285.941C74.1377 288.796 75.744 292.669 75.7465 296.709C75.7465 300.75 74.1413 304.625 71.2839 307.482C68.4266 310.34 64.5512 311.945 60.5104 311.945C56.4686 311.945 52.5922 310.34 49.7334 307.483C46.8746 304.626 45.2673 300.75 45.2647 296.709C45.2647 292.667 46.8697 288.791 49.7267 285.932C52.5838 283.073 56.4592 281.466 60.5009 281.463L60.5104 281.482Z" fill="#A4BFD8"/>
<path d="M126.288 327.238C124.465 327.261 122.652 327.508 120.889 327.974V332.939C120.109 333.201 119.349 333.516 118.614 333.883L115.093 330.362C113.509 331.273 112.047 332.38 110.741 333.657C109.467 334.962 108.36 336.421 107.446 337.999L110.958 341.511C110.588 342.252 110.273 343.018 110.014 343.805H105.039C104.045 347.339 104.045 351.079 105.039 354.614H109.986C110.243 355.407 110.559 356.18 110.93 356.926L107.418 360.438C108.332 362.016 109.439 363.475 110.712 364.78C112.019 366.057 113.481 367.164 115.064 368.075L118.566 364.573C119.31 364.944 120.08 365.259 120.87 365.517V370.482C124.404 371.476 128.144 371.476 131.679 370.482V365.526C132.474 365.267 133.25 364.951 134.001 364.582L137.531 368.122C140.677 366.265 143.281 363.616 145.083 360.438L141.581 356.936C141.946 356.19 142.262 355.42 142.525 354.632H147.538C147.986 352.864 148.214 351.047 148.218 349.223C148.196 347.399 147.945 345.585 147.472 343.824H142.506C142.245 343.044 141.929 342.284 141.562 341.549L145.112 337.999C144.18 336.432 143.057 334.986 141.77 333.695C140.467 332.418 139.008 331.311 137.428 330.4L133.916 333.902C133.175 333.533 132.408 333.217 131.622 332.958V327.936C129.88 327.484 128.088 327.249 126.288 327.238ZM126.468 341.162C128.658 341.162 130.759 342.032 132.308 343.581C133.858 345.13 134.728 347.231 134.728 349.422C134.728 351.613 133.858 353.715 132.309 355.266C130.76 356.816 128.659 357.688 126.468 357.691C124.275 357.691 122.171 356.82 120.62 355.269C119.07 353.718 118.198 351.615 118.198 349.422C118.201 347.23 119.073 345.129 120.624 343.58C122.174 342.032 124.276 341.162 126.468 341.162Z" fill="#A4BFD8"/>
<path d="M372.257 46.6902V26.5452C372.259 26.0738 372.169 25.6065 371.99 25.1703C371.811 24.734 371.548 24.3374 371.216 24.0032C370.883 23.6689 370.488 23.4037 370.053 23.2227C369.617 23.0417 369.151 22.9486 368.679 22.9486H349.799C349.329 22.9473 348.863 23.039 348.429 23.2184C347.994 23.3978 347.599 23.6612 347.267 23.9937C346.934 24.3262 346.671 24.7211 346.491 25.1557C346.312 25.5904 346.22 26.0562 346.221 26.5264V36.9104H341.379V23.7793C341.379 22.197 342.007 20.6795 343.126 19.5607C344.245 18.4418 345.762 17.8132 347.345 17.8132H371.7C372.483 17.8132 373.258 17.9676 373.982 18.2676C374.705 18.5675 375.362 19.0071 375.915 19.5612C376.469 20.1154 376.907 20.7731 377.206 21.4969C377.505 22.2207 377.658 22.9963 377.657 23.7793V46.6902H372.257Z" fill="#A4BFD8"/>
<path d="M377.628 45.6612C377.244 45.555 376.847 45.5011 376.448 45.5007H341.889C341.311 45.5007 340.739 45.6145 340.205 45.8356C339.671 46.0567 339.186 46.3807 338.778 46.7892C338.369 47.1977 338.045 47.6826 337.824 48.2163C337.603 48.75 337.49 49.3221 337.49 49.8998V74.5382C337.49 74.5382 341.568 91.6623 359.202 91.6623C376.835 91.6623 380.914 74.5382 380.914 74.5382V49.8998C380.908 48.9304 380.583 47.9898 379.99 47.2236C379.396 46.4573 378.566 45.9082 377.628 45.6612ZM362.524 65.8439V72.2348H355.869V65.8439C355.869 65.8439 352.546 65.9478 352.546 61.0107C352.546 55.3467 359.202 55.3467 359.202 55.3467C359.202 55.3467 365.81 55.3467 365.81 61.0107C365.828 65.9478 362.496 65.8439 362.496 65.8439H362.524Z" fill="#A4BFD8"/>
</svg>
