<svg width="500" height="500" viewBox="0 0 500 500" fill="none" xmlns="http://www.w3.org/2000/svg">
<path d="M250.119 427.615C370.842 427.615 468.708 416.043 468.708 401.768C468.708 387.493 370.842 375.921 250.119 375.921C129.396 375.921 31.53 387.493 31.53 401.768C31.53 416.043 129.396 427.615 250.119 427.615Z" fill="#CEDDEF" fill-opacity="0.3"/>
<path d="M185.035 353.223H48.0672C46.3052 353.223 44.8772 351.795 44.8772 350.033V268.828C44.8772 267.066 46.3052 265.638 48.0672 265.638H185.036C186.798 265.638 188.226 267.066 188.226 268.828V350.033C188.225 351.795 186.797 353.223 185.035 353.223Z" fill="white"/>
<path d="M188.225 274.642H44.8772V268.829C44.8772 267.067 46.3052 265.639 48.0672 265.639H185.036C186.798 265.639 188.226 267.067 188.226 268.829L188.225 274.642Z" fill="#357DED"/>
<path d="M104.581 296.195L104.585 297.138L104.599 313.077C104.599 313.296 104.777 313.473 104.996 313.472L123.753 313.395V297.727C123.753 297.36 123.454 297.062 123.087 297.064L116.627 297.091L109.266 297.121L108.987 296.604L108.63 295.943C108.55 295.793 108.391 295.696 108.216 295.698L105.061 295.71C104.794 295.712 104.581 295.927 104.581 296.195Z" fill="#357DED"/>
<path d="M126.294 299.404H106.375L104.995 312.876H124.914L126.294 299.404Z" fill="white"/>
<path d="M105.257 313.703L125.46 313.785C125.731 313.786 125.948 313.614 126.002 313.358L127.978 303.652L128.438 301.396C128.522 300.991 128.165 300.57 127.738 300.569L127.251 300.567L107.534 300.487C107.264 300.486 107.046 300.658 106.994 300.915L104.692 312.217L104.633 312.505L104.558 312.877C104.473 313.282 104.829 313.701 105.257 313.703Z" fill="#357DED"/>
<path d="M144.222 296.195L144.226 297.138L144.24 313.077C144.24 313.296 144.418 313.473 144.637 313.472L163.394 313.395V297.727C163.394 297.36 163.095 297.062 162.728 297.064L156.268 297.091L148.907 297.121L148.628 296.604L148.271 295.943C148.191 295.793 148.032 295.696 147.857 295.698L144.702 295.71C144.435 295.712 144.222 295.927 144.222 296.195Z" fill="#93BBE5"/>
<path d="M165.935 299.404H146.016L144.636 312.876H164.555L165.935 299.404Z" fill="white"/>
<path d="M144.898 313.703L165.101 313.785C165.372 313.786 165.589 313.614 165.643 313.358L167.619 303.652L168.079 301.396C168.163 300.991 167.806 300.57 167.379 300.569L166.892 300.567L147.175 300.487C146.905 300.486 146.687 300.658 146.635 300.915L144.333 312.217L144.274 312.505L144.199 312.877C144.114 313.282 144.47 313.701 144.898 313.703Z" fill="#93BBE5"/>
<path d="M104.581 323.597L104.585 324.54L104.599 340.479C104.599 340.698 104.777 340.875 104.996 340.874L123.753 340.797V325.129C123.753 324.762 123.454 324.464 123.087 324.466L116.627 324.493L109.266 324.523L108.987 324.006L108.63 323.345C108.55 323.195 108.391 323.098 108.216 323.1L105.061 323.112C104.794 323.113 104.581 323.329 104.581 323.597Z" fill="#F89D13"/>
<path d="M126.294 326.805H106.375L104.995 340.278H124.914L126.294 326.805Z" fill="white"/>
<path d="M105.257 341.105L125.46 341.187C125.731 341.188 125.948 341.016 126.002 340.76L127.978 331.054L128.438 328.798C128.522 328.393 128.165 327.972 127.738 327.971L127.251 327.969L107.534 327.889C107.264 327.888 107.046 328.06 106.994 328.317L104.692 339.619L104.633 339.907L104.558 340.279C104.473 340.684 104.829 341.103 105.257 341.105Z" fill="#F89D13"/>
<path d="M144.222 323.597L144.226 324.54L144.24 340.479C144.24 340.698 144.418 340.875 144.637 340.874L163.394 340.797V325.129C163.394 324.762 163.095 324.464 162.728 324.466L156.268 324.493L148.907 324.523L148.628 324.006L148.271 323.345C148.191 323.195 148.032 323.098 147.857 323.1L144.702 323.112C144.435 323.113 144.222 323.329 144.222 323.597Z" fill="#93BBE5"/>
<path d="M165.935 326.805H146.016L144.636 340.278H164.555L165.935 326.805Z" fill="white"/>
<path d="M144.898 341.105L165.101 341.187C165.372 341.188 165.589 341.016 165.643 340.76L167.619 331.054L168.079 328.798C168.163 328.393 167.806 327.972 167.379 327.971L166.892 327.969L147.175 327.889C146.905 327.888 146.687 328.06 146.635 328.317L144.333 339.619L144.274 339.907L144.199 340.279C144.114 340.684 144.47 341.103 144.898 341.105Z" fill="#93BBE5"/>
<path d="M82.9032 286.78H55.4152C54.4222 286.78 53.6162 285.975 53.6162 284.981C53.6162 283.988 54.4212 283.182 55.4152 283.182H82.9032C83.8962 283.182 84.7022 283.987 84.7022 284.981C84.7022 285.974 83.8962 286.78 82.9032 286.78Z" fill="#93BBE5"/>
<path d="M82.9032 299.67H55.4152C54.4222 299.67 53.6162 298.865 53.6162 297.871C53.6162 296.878 54.4212 296.072 55.4152 296.072H82.9032C83.8962 296.072 84.7022 296.877 84.7022 297.871C84.7022 298.865 83.8962 299.67 82.9032 299.67Z" fill="#93BBE5"/>
<path d="M82.9032 312.561H55.4152C54.4222 312.561 53.6162 311.756 53.6162 310.762C53.6162 309.769 54.4212 308.963 55.4152 308.963H82.9032C83.8962 308.963 84.7022 309.768 84.7022 310.762C84.7022 311.756 83.8962 312.561 82.9032 312.561Z" fill="#93BBE5"/>
<path d="M82.9032 325.452H55.4152C54.4222 325.452 53.6162 324.647 53.6162 323.653C53.6162 322.66 54.4212 321.854 55.4152 321.854H82.9032C83.8962 321.854 84.7022 322.659 84.7022 323.653C84.7022 324.646 83.8962 325.452 82.9032 325.452Z" fill="#93BBE5"/>
<path d="M82.9032 338.342H55.4152C54.4222 338.342 53.6162 337.537 53.6162 336.543C53.6162 335.55 54.4212 334.744 55.4152 334.744H82.9032C83.8962 334.744 84.7022 335.549 84.7022 336.543C84.7022 337.537 83.8962 338.342 82.9032 338.342Z" fill="#93BBE5"/>
<path d="M170.099 286.78H98.0512C97.0582 286.78 96.2522 285.975 96.2522 284.981C96.2522 283.988 97.0572 283.182 98.0512 283.182H170.1C171.093 283.182 171.899 283.987 171.899 284.981C171.898 285.974 171.092 286.78 170.099 286.78Z" fill="#93BBE5"/>
<path d="M57.2532 262.111L49.7482 254.561L34.9642 254.521L34.8682 286.701L57.1852 286.755L57.2532 262.111Z" fill="#93BBE5"/>
<path d="M49.7251 262.087L57.2561 262.108L49.7461 254.556L49.7251 262.087Z" fill="white"/>
<path d="M51.6825 272.962C52.3619 269.835 50.3777 266.749 47.2507 266.07C44.1237 265.391 41.0381 267.375 40.3587 270.502C39.6794 273.629 41.6636 276.714 44.7906 277.394C47.9175 278.073 51.0032 276.089 51.6825 272.962Z" fill="#F89D13"/>
<path d="M44.4441 274.043L43.4611 271.771C43.3771 271.576 43.4661 271.35 43.6611 271.265C43.8561 271.181 44.0821 271.27 44.1671 271.465L44.7901 272.906L49.2221 270.061C49.4011 269.946 49.6391 269.998 49.7531 270.177C49.8681 270.356 49.8161 270.594 49.6371 270.708L44.4441 274.043Z" fill="white"/>
<path fill-rule="evenodd" clip-rule="evenodd" d="M104.899 163.934L108.597 160.57L109.469 157.55C112.554 148.037 118.633 139.625 126.705 133.713L128.681 132.341L124.983 135.705L123.007 137.077C113.888 143.756 107.756 153.056 104.899 163.934ZM188.759 144.917L192.457 141.553L192.818 120.804L189.119 124.168L188.759 144.917ZM210.909 116.967C208.908 115.065 207.11 113.345 204.952 111.587C178.271 89.8581 139.38 87.6201 111.546 108.226C113.869 106.935 115.963 105.763 118.395 104.64C146.883 91.4761 180.962 96.4941 204.286 117.551L207.211 120.33L209.216 122.335L212.914 118.971L210.909 116.967Z" fill="#5C93BC"/>
<path fill-rule="evenodd" clip-rule="evenodd" d="M183.55 212.114L187.248 208.75C182.308 213.054 176.963 216.191 170.74 218.271L170.077 218.487L166.378 221.851C172.966 219.7 178.324 216.667 183.55 212.114ZM301.462 137.891L305.161 134.527L307.589 116.024L286.104 110.793L282.405 114.157L303.89 119.388L301.462 137.891Z" fill="#F3964A"/>
<path fill-rule="evenodd" clip-rule="evenodd" d="M282.405 114.157L286.104 110.793L285.878 110.971L285.654 111.151L285.429 111.331L285.205 111.512L284.981 111.694L284.758 111.877L284.536 112.061L284.314 112.246L284.093 112.432L283.872 112.619L283.652 112.806L279.953 116.17L280.173 115.982L280.394 115.796L280.616 115.61L280.838 115.425L281.06 115.241L281.283 115.058L281.507 114.876L281.73 114.695L281.955 114.514L282.18 114.335L282.405 114.157Z" fill="#5C93BC"/>
<path fill-rule="evenodd" clip-rule="evenodd" d="M301.388 207.434L282.657 209.144L278.958 212.508L297.689 210.799C300.265 213.148 302.248 214.819 305.227 216.702C326.084 229.89 354.102 225.189 369.302 205.463L369.828 204.768L373.526 201.404C365.79 211.636 354.851 218.309 342.121 220.232C328.194 222.336 313.844 218.312 303.182 209.071L301.388 207.434ZM396.247 220.113C403.533 213.486 407.359 204.331 410.174 195.026L392.015 202.204L381.868 182.94L378.17 186.304L388.317 205.567L406.477 198.389L405.39 201.797C403.084 208.49 400.161 214.228 396.247 220.113Z" fill="#5C93BC"/>
<path fill-rule="evenodd" clip-rule="evenodd" d="M407.844 193.061L411.542 189.697L412.441 184.911C417.48 152.67 402.309 120.512 373.85 104.302C349.079 90.1931 318.035 90.6471 293.703 105.508L290.805 107.367L287.107 110.731C290.215 108.737 292.645 107.228 295.985 105.571C324.93 91.2131 360.243 96.0031 384.172 117.872C404.34 136.303 413.369 163.86 408.331 190.674L407.844 193.061Z" fill="#B4C8E5"/>
<path fill-rule="evenodd" clip-rule="evenodd" d="M293.591 206.714L297.29 203.35L266.371 172.457L262.855 175.973L293.591 206.714ZM274.208 230.37L277.906 227.006L278.288 205.084L274.589 208.448L274.208 230.37ZM216.999 123.056L197.187 124.864L193.488 128.228L213.3 126.42L241.334 154.453L244.865 150.922L216.999 123.056Z" fill="#5C93BC"/>
<path fill-rule="evenodd" clip-rule="evenodd" d="M180.279 249.204L183.977 245.84L187.013 227.906L160.766 220.47C152.09 221.329 143.942 220.265 135.909 216.782C116.422 208.334 105.039 188.159 107.403 167.128L107.576 165.762L90.5711 172.484L79.5181 151.501L75.8191 154.865L86.8721 175.848L103.877 169.126C103.724 169.421 103.435 173.911 103.416 174.609C102.612 203.572 126.912 226.426 155.74 223.966L157.067 223.835L183.314 231.271L180.279 249.204Z" fill="#B4C8E5"/>
<path fill-rule="evenodd" clip-rule="evenodd" d="M117.442 141.85C136.168 123.124 166.965 123.124 185.691 141.85L188.758 144.917L189.119 124.169L209.214 122.335L207.209 120.33C176.605 89.7262 126.525 89.7262 95.9212 120.33C87.5762 128.676 81.5052 138.47 77.7112 148.923L88.9412 170.242L104.897 163.935C106.96 155.819 111.141 148.151 117.442 141.85Z" fill="#71A3D1"/>
<path fill-rule="evenodd" clip-rule="evenodd" d="M117.442 210.1C106.348 199.006 101.826 183.675 103.877 169.127L86.8721 175.849L75.8191 154.866C68.5271 181.327 75.2291 210.925 95.9221 231.618C118.624 254.32 152.043 260.182 180.279 249.204L183.315 231.271L157.068 223.835C142.926 225.43 128.195 220.851 117.442 210.1Z" fill="white"/>
<path fill-rule="evenodd" clip-rule="evenodd" d="M241.335 197.496L274.208 230.37L274.59 208.448L293.591 206.714L262.854 175.973L241.335 197.496Z" fill="#71A3D1"/>
<path fill-rule="evenodd" clip-rule="evenodd" d="M241.334 154.454L213.3 126.42L193.489 128.228L193.122 149.281L219.815 175.977L241.334 154.454Z" fill="#71A3D1"/>
<path fill-rule="evenodd" clip-rule="evenodd" d="M306.381 134.542C324.886 123.567 349.379 126.003 365.226 141.85C375.279 151.903 379.935 165.435 379.194 178.711L390.388 199.961L407.845 193.061C413.43 167.663 406.397 139.982 386.745 120.331C359.772 93.3582 317.67 90.1582 287.107 110.731L308.811 116.016L306.381 134.542Z" fill="white"/>
<path fill-rule="evenodd" clip-rule="evenodd" d="M365.225 210.1C346.735 228.59 316.476 228.823 297.689 210.798L278.958 212.507L278.574 234.571C309.371 262.189 357.159 261.205 386.744 231.619C396.313 222.05 402.891 210.577 406.476 198.39L388.316 205.568L378.169 186.305C376.282 195.05 371.968 203.357 365.225 210.1Z" fill="#71A3D1"/>
<path fill-rule="evenodd" clip-rule="evenodd" d="M207.211 231.619L241.335 197.496L262.854 175.973L296.977 141.85C298.405 140.422 299.904 139.102 301.463 137.891L303.891 119.388L282.406 114.156C279.997 116.053 277.676 118.111 275.458 120.33L241.335 154.453L219.815 175.976L185.691 210.1C180.112 215.679 173.462 219.596 166.378 221.851L188.365 228.08L185.142 247.123C193.141 243.37 200.626 238.203 207.211 231.619Z" fill="#FFBF54"/>
<path d="M232.672 420.292C285.364 420.292 328.079 415.151 328.079 408.81C328.079 402.469 285.364 397.328 232.672 397.328C179.98 397.328 137.265 402.469 137.265 408.81C137.265 415.151 179.98 420.292 232.672 420.292Z" fill="#BCCDDD"/>
<path d="M238.056 353.814L253.657 367.926L266.341 358.84L274.022 367.926C289.725 363.936 300.902 358.938 309.988 353.475L300.067 347.373L267.26 343.732L238.056 353.814Z" fill="white"/>
<path d="M216.746 301.791C223.11 302.386 229.474 302.981 235.838 303.576L241.127 283.982L242.077 317.302L238.864 352.536C240.506 364.767 309.166 360.353 309.987 353.475C311.562 340.284 309.939 329.568 309.987 325.343C314.508 324.902 326.045 321.385 325.701 312.129C324.96 292.189 319.769 252.261 306.303 244.179C299.665 240.363 284.836 236.982 284.836 236.982L260.679 236.82C254.107 237.748 243.8 240.34 236.951 248.718C233.372 253.096 232.083 257.408 231.227 260.204C228.234 269.979 223.794 283.252 216.746 301.791Z" fill="#13A1D9"/>
<path d="M269.836 250.352L264.293 257.305C258.933 250.759 258.729 243.536 258.75 237.66L261.128 233.709L261.607 236.945C263.036 242.66 269.836 250.352 269.836 250.352Z" fill="white"/>
<path d="M309.987 325.343L270.583 329.472L259.203 335.437L310.477 334.3L309.987 325.343Z" fill="#13A1D9"/>
<path d="M252.724 314.73C255.286 313.893 257.067 316.468 259.203 315.916C261.339 315.363 264.794 314.159 266.015 314.73C268.181 315.743 269.714 326.61 266.015 328.041C262.316 329.472 251.902 329.711 251.902 329.711C251.902 329.711 246.079 325.869 246.435 325.343C246.79 324.816 252.724 314.73 252.724 314.73Z" fill="#A36D4F"/>
<path d="M272.059 250.003L277.602 256.956C282.962 250.41 283.166 243.187 283.145 237.311L280.767 233.361L280.288 236.597C278.858 242.312 272.059 250.003 272.059 250.003Z" fill="white"/>
<path d="M296.249 266.082V300.854L266.015 314.73C266.015 314.73 272.852 332.986 267.259 343.731" stroke="white" stroke-width="1.5353" stroke-miterlimit="10"/>
<path d="M257.651 209.57C257.651 209.57 253.713 206.037 255.267 203.867C266.688 187.916 296.67 199.999 279.66 225.352C273.467 232.236 261.926 211.596 257.651 209.57Z" fill="#363435"/>
<path d="M257.539 205.956C257.539 205.956 256.418 218.626 257.603 223.807C258.705 228.622 262.139 231.336 263.356 231.501L261.599 241.804C261.599 241.804 269.15 248.964 271.228 249.359C273.306 249.754 280.081 240.387 280.081 240.387L278.918 222.131C279.705 221.59 285.299 220.469 284.448 216.215C283.88 213.372 280.263 214.063 278.492 215.277C278.602 213.832 276.713 213.043 275.886 208.341C275.059 203.636 264.957 205.961 257.539 205.956Z" fill="#FFF8F2"/>
<path d="M263.356 231.501C263.356 231.501 272.907 235.174 278.068 225.684C278.068 225.684 276.906 237.341 262.766 234.763L263.356 231.501Z" fill="#965B2F"/>
<path d="M279.399 218.949C279.272 218.949 279.151 218.873 279.1 218.748C279.032 218.583 279.111 218.394 279.276 218.327L282.906 216.84C283.071 216.772 283.26 216.851 283.327 217.016C283.395 217.181 283.316 217.37 283.151 217.437L279.521 218.924C279.481 218.941 279.44 218.949 279.399 218.949Z" fill="#754725"/>
<path d="M265.472 220.785C264.566 220.785 262.873 220.653 262.729 219.675C262.58 218.658 264.384 214.611 264.748 213.811C264.822 213.649 265.013 213.577 265.176 213.65C265.338 213.724 265.41 213.915 265.337 214.078C264.526 215.865 263.275 218.94 263.369 219.582C263.428 219.984 264.758 220.192 265.913 220.128C266.092 220.118 266.244 220.254 266.253 220.433C266.263 220.611 266.127 220.763 265.948 220.773C265.852 220.778 265.683 220.785 265.472 220.785Z" fill="#754725"/>
<path d="M260.036 215.106C260.014 215.684 260.422 216.168 260.946 216.187C261.47 216.207 261.913 215.754 261.934 215.176C261.956 214.598 261.548 214.114 261.024 214.095C260.5 214.076 260.057 214.528 260.036 215.106Z" fill="#363435"/>
<path d="M271.757 211.969C271.648 211.969 271.541 211.914 271.48 211.813C271.224 211.391 270.891 211.137 270.462 211.037C269.408 210.791 268.18 211.564 268.168 211.572C268.018 211.668 267.818 211.624 267.722 211.473C267.626 211.323 267.67 211.123 267.821 211.027C267.881 210.989 269.296 210.102 270.608 210.407C271.207 210.547 271.686 210.907 272.032 211.477C272.124 211.63 272.076 211.828 271.923 211.921C271.871 211.954 271.814 211.969 271.757 211.969Z" fill="#754725"/>
<path d="M262.202 211.293C262.126 211.293 262.049 211.266 261.988 211.212C261.981 211.206 261.283 210.595 260.612 210.667C260.331 210.697 260.095 210.847 259.89 211.124C259.784 211.267 259.582 211.298 259.438 211.192C259.294 211.086 259.264 210.884 259.37 210.741C259.684 210.315 260.08 210.074 260.546 210.025C261.498 209.924 262.379 210.697 262.416 210.73C262.549 210.848 262.561 211.053 262.443 211.186C262.379 211.257 262.291 211.293 262.202 211.293Z" fill="#754725"/>
<path d="M269.009 222.684C264.242 223.82 261.933 222.89 261.933 222.89C261.933 222.89 262.268 226.086 265.21 226.374C269.42 226.787 269.009 222.684 269.009 222.684Z" fill="#703123"/>
<path d="M262.116 222.951C262.116 222.951 262.337 223.542 262.406 223.662C262.477 223.778 263.012 224.125 265.057 224.254C266.787 224.365 268.484 223.86 268.962 223.703C269.053 223.126 269.008 222.685 269.008 222.685C268.73 222.753 268.459 222.809 268.196 222.862C264.711 223.567 262.71 223.125 262.119 222.951C262.116 222.951 262.116 222.951 262.116 222.951Z" fill="white"/>
<path d="M267.98 215.71C267.958 216.305 268.378 216.804 268.918 216.824C269.458 216.844 269.914 216.378 269.936 215.783C269.958 215.188 269.538 214.689 268.998 214.669C268.458 214.649 268.002 215.115 267.98 215.71Z" fill="#363435"/>
<path d="M195.315 352.428L174.378 298.594C172.525 293.964 175.849 288.889 180.734 288.889H245.963C248.906 288.889 251.523 290.81 252.469 293.665L270.455 347.965L291.459 348.068C293.165 348.076 294.544 350.633 294.544 352.381L271.424 352.108L195.315 352.428Z" fill="#93BBE5"/>
<path d="M226.257 319.797C226.638 323.718 223.433 326.863 219.07 326.976C214.66 327.089 210.462 324.073 209.707 320.08C208.918 315.903 212.181 312.342 216.977 312.305C221.719 312.267 225.859 315.699 226.257 319.797Z" fill="white"/>
<path d="M243.282 388.332L256.483 399.545L242.416 401.534L227.953 394.435L243.282 388.332Z" fill="#DDEDFE"/>
<path d="M158.518 328.728C158.518 328.728 148.514 332.3 148.473 343.517C148.393 365.003 191.887 388.687 191.887 388.687L249.767 350.336L253.395 348.868C253.394 348.87 175.261 319.52 158.518 328.728Z" fill="#DDEDFE"/>
<path d="M202.432 391.751C202.432 391.751 175.174 385.937 166.475 390.146C157.775 394.356 145.004 399.248 149.314 402.387C153.625 405.526 169.534 409.781 178.723 408.95C182.003 408.653 186.617 408.157 191.205 407.442C191.47 407.474 191.715 407.492 191.931 407.492C192.12 407.492 192.284 407.406 192.426 407.246C200.259 405.954 207.66 404.015 207.783 401.33C207.984 396.938 202.432 391.751 202.432 391.751Z" fill="#357DED"/>
<path d="M186.406 391.298C186.406 391.298 268.183 337.658 271.532 336.541C274.88 335.425 282.973 330.123 291.065 332.355C299.157 334.587 306.413 341.843 310.04 352.446C312.112 358.503 313.092 368.841 313.551 376.591C314.1 385.859 311.231 395.1 305.168 402.132C302.41 405.332 299.008 408.115 294.971 409.371C294.119 409.636 293.236 409.865 292.328 410.062C276.866 413.414 260.977 406.474 252.29 393.251L250.382 390.347C250.382 390.347 196.886 410 196.049 409.721L186.406 391.298Z" fill="#DDEDFE"/>
<path d="M247.719 394.777C247.719 394.777 223.437 386.395 217.398 388.34C211.358 390.285 221.558 404.732 239.736 405.892C257.914 407.052 267.278 402.769 266.022 397.128C264.766 391.488 247.719 394.777 247.719 394.777Z" fill="#357DED"/>
<path d="M247.429 397.855C247.429 397.855 223.147 389.473 217.108 391.418C211.068 393.363 221.267 407.81 239.446 408.97C257.625 410.13 266.988 405.847 265.732 400.206C264.476 394.566 247.429 397.855 247.429 397.855Z" fill="#236CD8"/>
<path d="M357.748 403.626C376.208 403.626 391.172 400.108 391.172 395.769C391.172 391.43 376.208 387.912 357.748 387.912C339.289 387.912 324.324 391.43 324.324 395.769C324.324 400.108 339.289 403.626 357.748 403.626Z" fill="#BCCDDD"/>
<path d="M385.77 238.255C385.726 237.932 385.332 237.686 385.028 237.691C377.763 237.809 368.656 237.83 362.503 242.321C356.771 246.505 355.911 253.892 356.04 260.471C356.054 261.176 356.833 261.372 357.277 261.072C357.298 261.08 357.311 261.099 357.332 261.107C372.606 266.819 387.936 254.272 385.77 238.255Z" fill="#BCEBEE"/>
<path d="M350.583 267.979C350.641 262.922 349.465 257.807 345.581 254.295C341.127 250.27 334.686 247.973 329.421 245.241C328.886 244.965 328.025 245.44 328.29 246.111C330.671 252.169 330.337 259.572 334.543 264.833C338.118 269.307 344.161 270.817 349.531 269.164C349.803 269.08 349.952 268.895 350.021 268.686C350.322 268.61 350.579 268.38 350.583 267.979Z" fill="#BEECED"/>
<path d="M397.549 284.46C393.976 281.69 389.372 281.972 385.048 282.161C380.254 282.37 375.432 283.104 371.063 285.18C363.456 288.798 358.105 296.789 360.858 305.245C360.79 305.602 360.927 306.003 361.369 306.143C368.623 308.439 372.126 303.594 376.493 298.772C382.088 292.593 389.265 288.193 397.209 285.746C397.706 285.595 398.034 284.836 397.549 284.46Z" fill="#BEECED"/>
<path d="M414.907 302.528C414.815 302.497 414.722 302.451 414.63 302.405C411.55 301.082 408.794 298.571 405.992 296.154C405.992 296.137 405.976 296.137 405.961 296.122C402.896 293.475 399.771 290.964 396.121 290.303C396.09 290.287 396.06 290.287 396.029 290.287C394.35 289.979 392.564 290.087 390.609 290.733C382.848 293.321 378.076 301.405 377.306 309.18C377.29 309.365 377.352 309.518 377.428 309.627C377.413 309.672 377.398 309.703 377.382 309.749C377.259 310.18 377.49 310.75 378.075 310.826C384.726 311.612 391.255 310.843 397.768 309.47C403.542 308.254 410.071 307.27 415.091 303.929C415.677 303.545 415.523 302.774 414.907 302.528Z" fill="#BEECED"/>
<path d="M403.355 317.417C394.865 315.716 377.316 311.393 376.118 324.93C376.08 325.364 376.359 325.595 376.687 325.646C384.395 334.69 399.381 327.515 403.814 318.548C404.02 318.135 403.874 317.521 403.355 317.417Z" fill="#BEECED"/>
<path d="M349.538 290.193C347.286 285.207 342.052 280.054 336.903 278.176C336.428 278.004 335.924 278.45 335.927 278.919C336.012 288.743 333.603 304.207 344.288 309.641C344.366 309.68 344.44 309.69 344.514 309.704C344.799 310.13 345.49 310.29 345.814 309.711C349.112 303.816 352.578 296.919 349.538 290.193Z" fill="#BCEBEE"/>
<path d="M321.712 296.445C316.49 292.178 308.248 291.252 302.176 294.336C293.756 298.611 295.265 308.758 293.983 316.574C293.858 317.329 294.663 317.854 295.269 317.324C303.593 310.023 315.201 307.156 321.553 297.595L321.554 297.594C321.958 297.354 322.172 296.822 321.712 296.445Z" fill="#BEECED"/>
<path d="M321.764 304.18C321.524 303.814 321.131 303.772 320.812 303.902C320.599 303.63 320.239 303.478 319.851 303.689C315.681 305.978 310.79 309.176 309.968 314.221C308.988 320.235 312.367 326.105 312.75 332.03C312.802 332.844 314.093 333.139 314.262 332.236C315.331 326.542 321.232 323.947 323.401 318.826C325.186 314.608 324.244 307.97 321.764 304.18Z" fill="#BCEBEE"/>
<path d="M347.5 339.117C342.599 332.237 337.56 326.355 329.049 324.199C328.432 324.042 327.793 324.749 328.18 325.33C330.096 328.212 330.058 331.479 331.663 334.385C332.612 336.106 334.176 337.392 335.813 338.427C339.441 340.721 344.12 342.802 348.167 340.484C348.989 340.012 348.314 338.792 347.5 339.117Z" fill="#BCEBEE"/>
<path d="M358.55 330.993C358.531 330.92 358.515 330.847 358.468 330.772C355.1 325.395 354.951 318.561 350.301 313.933C349.941 313.575 349.353 313.669 349.092 314.088C346.812 317.739 345.709 322.124 347.52 326.217C349.481 330.645 353.606 331.855 358.095 332.319C358.886 332.4 359.027 331.434 358.55 330.993Z" fill="#BEECED"/>
<path d="M367.994 270.892C367.036 270.09 365.754 270.886 364.806 271.291C363.023 272.048 361.28 272.924 359.721 274.084C356.807 276.254 354.808 279.33 354.626 282.96C354.603 283.051 354.597 283.143 354.608 283.24C354.606 283.346 354.588 283.447 354.589 283.555C354.594 284.429 355.793 284.53 356.068 283.858C359.796 283.043 362.744 280.639 365.187 277.759C366.31 276.438 370.237 272.769 367.994 270.892Z" fill="#BEECED"/>
<path d="M369.683 331.609C369.566 331.498 369.473 331.372 369.358 331.259C370.316 324.691 370.724 317.083 364.257 313.222C363.836 312.97 363.249 313.202 363.126 313.682C361.349 320.628 363.388 327.766 368.594 332.698C369.314 333.38 370.404 332.293 369.683 331.609Z" fill="#BEECED"/>
<path d="M414.245 301.758C411.397 300.496 408.717 298.308 405.993 296.154C405.993 296.137 405.977 296.137 405.962 296.122C402.836 293.645 399.664 291.212 396.122 290.303C396.091 290.287 396.061 290.287 396.03 290.287C394.351 289.979 392.565 290.087 390.61 290.733C382.849 293.321 378.077 301.405 377.307 309.18C377.291 309.365 377.353 309.518 377.429 309.627C377.414 309.672 377.399 309.703 377.383 309.749C377.645 309.734 377.892 309.611 378.045 309.38C378.199 309.349 378.338 309.303 378.461 309.165C380.986 306.469 383.681 303.961 386.329 301.389C387.607 300.157 388.854 298.601 390.302 297.57C393.381 295.368 396.029 295.784 399.263 296.722C403.128 297.847 406.654 299.849 410.165 301.774C411.474 302.511 412.752 303.76 414.245 303.082C414.507 302.974 414.63 302.682 414.63 302.405C414.63 302.126 414.492 301.865 414.245 301.758Z" fill="#BCEBEE"/>
<path d="M346.065 327.679C345.331 324.692 344.509 321.668 343.496 318.712C343.506 318.687 343.524 318.67 343.532 318.643C344.916 313.912 345.443 309.103 345.161 304.313C345.418 304.271 345.659 304.117 345.758 303.797C346.648 300.967 347.021 298.081 346.881 295.117C346.834 294.131 345.294 294.125 345.341 295.117C345.439 297.168 345.271 299.171 344.854 301.146C344.544 298.866 344.064 296.597 343.374 294.347C343.084 293.401 341.597 293.806 341.89 294.756C344.063 301.839 344.277 309.047 342.571 316.174C341.131 312.502 339.321 308.996 336.895 305.889C331.191 298.588 320.821 294.152 312.609 297.592C312.589 297.31 312.422 297.049 312.063 296.962C308.879 296.197 305.682 296.677 302.874 298.367C302.026 298.878 302.8 300.209 303.652 299.695C305.938 298.321 308.483 297.857 311.071 298.338C309.171 299.411 307.419 300.951 305.914 303.041C305.333 303.847 306.668 304.616 307.243 303.819C311.178 298.358 318.338 296.638 324.604 298.674C326.427 299.266 328.102 300.127 329.654 301.17C323.091 301.033 318.117 305.428 313.63 309.799C312.919 310.491 314.008 311.58 314.718 310.887C315.611 310.019 316.519 309.147 317.453 308.313C317.198 309.863 317.145 311.427 317.31 313.011C317.412 313.986 318.953 313.997 318.85 313.011C318.638 310.987 318.776 309.013 319.291 307.043C319.319 306.937 319.318 306.842 319.307 306.749C322.48 304.243 326.026 302.418 330.38 302.728C330.786 302.757 331.015 302.513 331.087 302.212C334.581 304.969 337.326 308.713 339.318 312.672C343.279 320.543 345.537 329.541 346.815 338.552C343.63 337.728 340.855 336.066 338.624 333.622C337.955 332.889 336.868 333.98 337.536 334.71C338.659 335.941 339.929 336.986 341.306 337.849C340.418 337.846 339.531 337.803 338.648 337.664C337.68 337.513 337.262 338.996 338.239 339.148C339.715 339.379 341.183 339.464 342.675 339.37C342.995 339.349 343.201 339.167 343.314 338.939C344.449 339.462 345.642 339.879 346.889 340.164C346.943 340.177 346.988 340.166 347.039 340.168C347.602 344.534 347.943 348.887 348.143 353.1C348.19 354.088 349.73 354.093 349.683 353.1C349.278 344.529 348.116 336.018 346.065 327.679Z" fill="#5DA4A4"/>
<path d="M371.616 296.027C370.229 297.033 368.91 298.103 367.647 299.228C368.388 296.498 369.551 293.963 371.202 291.619C371.773 290.806 370.439 290.037 369.872 290.841C367.859 293.7 366.488 296.871 365.778 300.294C365.73 300.525 365.783 300.72 365.886 300.877C362.457 304.232 359.53 308.041 357.164 312.282C356.744 306.974 356.397 301.66 356.138 296.34C355.955 292.561 355.662 288.332 355.553 283.976C357.336 281.575 359.22 279.212 361.988 277.913C362.885 277.492 362.103 276.164 361.211 276.583C358.864 277.687 357.099 279.514 355.517 281.503C355.505 279.46 355.541 277.406 355.665 275.363C355.787 275.154 355.817 274.901 355.708 274.655C356.479 263.785 359.744 253.511 370.155 248.711C371.055 248.296 370.273 246.969 369.378 247.381C366.742 248.596 364.551 250.149 362.73 251.961C362.645 250.468 362.887 249.002 363.439 247.589C363.799 246.664 362.311 246.264 361.954 247.179C361.173 249.178 360.996 251.254 361.334 253.368C361.339 253.403 361.357 253.421 361.366 253.452C356.935 258.738 355.105 265.798 354.441 273.113C352.21 270.525 349.978 267.934 347.748 265.344C347.964 265.235 348.123 265.026 348.102 264.701C347.963 262.537 347.284 260.515 346.031 258.736C345.466 257.933 344.13 258.701 344.702 259.514C345.628 260.829 346.207 262.273 346.445 263.835C345.616 262.873 344.787 261.91 343.958 260.95C343.31 260.197 342.225 261.29 342.869 262.038C346.673 266.452 350.476 270.864 354.28 275.278C354.115 277.971 354.093 280.675 354.131 283.322C354.096 283.368 354.062 283.414 354.028 283.459C353.769 283.81 353.89 284.146 354.147 284.356C354.199 286.948 354.302 289.479 354.398 291.861C354.89 304.139 355.828 316.392 357.169 328.6C354.395 327.069 352.873 324.186 351.491 321.419C351.048 320.532 349.719 321.31 350.161 322.195C351.747 325.369 353.563 328.688 356.934 330.231C357.078 330.296 357.217 330.305 357.349 330.291C358.234 338.132 359.287 345.953 360.507 353.752C360.66 354.727 362.143 354.313 361.992 353.342C359.989 340.539 358.447 327.671 357.366 314.76C357.504 314.704 357.635 314.611 357.725 314.436C361.252 307.633 366.185 301.857 372.391 297.356C373.187 296.78 372.419 295.444 371.616 296.027Z" fill="#5DA4A4"/>
<path d="M397.093 297.241C393.855 297.181 390.903 297.955 388.222 299.289C389.363 298.073 390.589 296.942 391.919 295.924C392.695 295.331 391.929 293.992 391.142 294.595C388.557 296.572 386.318 298.862 384.407 301.497C384.332 301.599 384.291 301.703 384.273 301.802C379.065 305.889 375.213 312.132 372.817 318.089C371.361 321.707 370.284 325.449 369.445 329.258C368.586 327.814 368.106 326.198 367.571 324.604C367.145 323.334 366.757 322.179 365.577 321.44C364.734 320.912 363.96 322.245 364.8 322.769C366.044 323.548 366.334 325.805 366.784 327.1C367.221 328.359 367.706 329.554 368.48 330.646C368.639 330.871 368.858 330.962 369.079 330.975C367.213 340.281 366.697 349.956 365.802 359.278C365.707 360.263 367.248 360.257 367.342 359.278C368.174 350.6 368.711 341.726 370.283 333.092C370.395 333.056 370.504 332.997 370.604 332.886C373.512 329.674 376.529 326.442 380.198 324.21C381.305 325.237 382.592 326.013 384.032 326.504C384.971 326.824 385.375 325.337 384.441 325.02C383.395 324.662 382.451 324.125 381.616 323.429C382.636 322.909 383.693 322.443 384.827 322.103C385.775 321.819 385.371 320.332 384.418 320.619C382.926 321.066 381.54 321.683 380.231 322.413C379.996 322.426 379.785 322.568 379.643 322.766C376.318 324.745 373.496 327.483 370.827 330.369C371.339 327.945 371.92 325.538 372.653 323.171C374.139 318.371 376.493 313.054 379.77 308.611C379.799 308.606 379.822 308.611 379.852 308.603C381.605 308.018 383.39 307.604 385.221 307.357C386.198 307.226 385.782 305.741 384.812 305.871C383.663 306.026 382.537 306.271 381.422 306.558C385.441 301.919 390.634 298.661 397.095 298.782C398.084 298.801 398.084 297.262 397.093 297.241Z" fill="#5DA4A4"/>
<path d="M384.251 345.219L383.028 352.849L380.827 366.516L376.041 396.308H341.015L336.229 366.516L334.03 352.849L332.806 345.219H384.251Z" fill="#FFBA52"/>
<path d="M347.429 352.849L346.206 345.219H332.806L334.03 352.849L336.229 366.516L341.015 396.308H354.415L349.629 366.516L347.429 352.849Z" fill="#D17E11"/>
<path d="M447.169 351.118H443.808V347.745C443.808 347.019 443.219 346.435 442.492 346.435C441.763 346.435 441.179 347.018 441.179 347.745V351.118H437.815C437.089 351.118 436.502 351.695 436.502 352.422C436.502 353.148 437.088 353.744 437.815 353.744H441.179V357.102C441.179 357.828 441.762 358.421 442.492 358.421C443.218 358.421 443.808 357.828 443.808 357.102V353.744H447.169C447.895 353.744 448.485 353.149 448.485 352.422C448.485 351.696 447.896 351.118 447.169 351.118Z" fill="#A9CBF7"/>
<path d="M36.3921 233.278H33.0311V229.905C33.0311 229.179 32.4421 228.595 31.7151 228.595C30.9861 228.595 30.4021 229.178 30.4021 229.905V233.278H27.0381C26.3121 233.278 25.7251 233.855 25.7251 234.582C25.7251 235.308 26.3121 235.904 27.0381 235.904H30.4021V239.262C30.4021 239.988 30.9851 240.581 31.7151 240.581C32.4411 240.581 33.0311 239.988 33.0311 239.262V235.904H36.3921C37.1181 235.904 37.7081 235.309 37.7081 234.582C37.7081 233.855 37.1191 233.278 36.3921 233.278Z" fill="#A9CBF7"/>
<path d="M411.738 352.428C411.738 355.664 414.372 358.299 417.606 358.299C420.842 358.299 423.474 355.664 423.474 352.428C423.474 349.195 420.842 346.557 417.606 346.557C414.373 346.557 411.738 349.195 411.738 352.428ZM413.989 352.428C413.989 350.433 415.611 348.808 417.606 348.808C419.603 348.808 421.223 350.433 421.223 352.428C421.223 354.426 419.603 356.045 417.606 356.045C415.611 356.045 413.989 354.426 413.989 352.428Z" fill="#A9CBF7"/>
<path d="M409.591 256.956C409.591 260.192 412.225 262.827 415.459 262.827C418.695 262.827 421.327 260.192 421.327 256.956C421.327 253.723 418.695 251.085 415.459 251.085C412.225 251.086 409.591 253.723 409.591 256.956ZM411.842 256.956C411.842 254.961 413.464 253.336 415.459 253.336C417.456 253.336 419.076 254.961 419.076 256.956C419.076 258.954 417.456 260.573 415.459 260.573C413.464 260.573 411.842 258.954 411.842 256.956Z" fill="#A9CBF7"/>
<path d="M43.717 210.661C43.717 213.897 46.351 216.532 49.585 216.532C52.821 216.532 55.453 213.897 55.453 210.661C55.453 207.428 52.821 204.79 49.585 204.79C46.352 204.79 43.717 207.427 43.717 210.661ZM45.968 210.661C45.968 208.666 47.59 207.041 49.585 207.041C51.582 207.041 53.202 208.666 53.202 210.661C53.202 212.659 51.582 214.278 49.585 214.278C47.59 214.277 45.968 212.658 45.968 210.661Z" fill="#A9CBF7"/>
<path d="M50.0752 233.108C49.2532 233.108 48.5952 233.778 48.5952 234.593C48.5952 235.418 49.2532 236.067 50.0752 236.067H64.8672C65.6862 236.067 66.3492 235.418 66.3492 234.593C66.3492 233.778 65.6852 233.108 64.8672 233.108H50.0752Z" fill="#A9CBF7"/>
<path d="M71.209 233.108C70.396 233.108 69.729 233.778 69.729 234.593C69.729 235.418 70.396 236.067 71.209 236.067H73.924C74.743 236.067 75.401 235.418 75.401 234.593C75.401 233.778 74.743 233.108 73.924 233.108H71.209Z" fill="#A9CBF7"/>
<path d="M411.178 327.258C410.356 327.258 409.698 327.928 409.698 328.743C409.698 329.568 410.356 330.217 411.178 330.217H425.97C426.789 330.217 427.452 329.568 427.452 328.743C427.452 327.928 426.788 327.258 425.97 327.258H411.178Z" fill="#A9CBF7"/>
<path d="M432.311 327.258C431.498 327.258 430.831 327.928 430.831 328.743C430.831 329.568 431.498 330.217 432.311 330.217H435.026C435.845 330.217 436.503 329.568 436.503 328.743C436.503 327.928 435.845 327.258 435.026 327.258H432.311Z" fill="#A9CBF7"/>
<path d="M133.145 191.235C132.323 191.235 131.665 191.905 131.665 192.72C131.665 193.545 132.323 194.194 133.145 194.194H147.937C148.756 194.194 149.419 193.545 149.419 192.72C149.419 191.905 148.755 191.235 147.937 191.235H133.145Z" fill="#A9CBF7"/>
<path d="M154.278 191.235C153.465 191.235 152.798 191.905 152.798 192.72C152.798 193.545 153.465 194.194 154.278 194.194H156.993C157.812 194.194 158.47 193.545 158.47 192.72C158.47 191.905 157.812 191.235 156.993 191.235H154.278Z" fill="#A9CBF7"/>
<path d="M256.891 87.6981L257.464 85.9691L253.453 83.2741L250.475 85.2001C249.183 84.1281 247.738 83.3181 246.203 82.7701L246.34 79.2261L241.358 76.7991L240.785 78.5281L240.042 81.9961C238.418 82.1491 236.818 82.5761 235.301 83.2941L232.891 80.6921L229.039 82.4011L228.466 84.1301L230.392 87.1081C229.326 88.3961 228.511 89.8451 227.961 91.3791L224.99 89.5131L224.417 91.2421L223.72 96.7961L227.188 97.5401C227.341 99.1641 227.768 100.765 228.487 102.281L226.458 102.961L225.885 104.69L229.322 109.115L232.301 107.189C233.588 108.256 235.038 109.071 236.574 109.621L236.437 113.165L241.992 113.863L242.565 112.134L242.736 110.396C244.359 110.242 245.965 109.811 247.477 109.096L249.886 111.698L254.312 108.261L254.885 106.532L252.386 105.283C253.458 103.991 254.267 102.546 254.817 101.01L258.361 101.147L258.934 99.4181L259.059 95.5921L255.59 94.8491C255.438 93.2261 255.006 91.6201 254.292 90.1091L256.891 87.6981ZM246.812 103.177C242.956 106.173 237.401 105.475 234.405 101.619C231.409 97.7631 232.107 92.2081 235.963 89.2121C239.82 86.2161 245.375 86.9141 248.371 90.7711C251.366 94.6271 250.668 100.182 246.812 103.177Z" fill="#77AAD8"/>
<path d="M257.464 85.9691L254.027 81.5451L251.049 83.4711C249.757 82.3991 248.312 81.5891 246.777 81.0401L246.914 77.4961L241.358 76.7981L240.615 80.2661C238.991 80.4191 237.391 80.8461 235.874 81.5641L233.464 78.9621L229.039 82.4001L230.965 85.3781C229.899 86.6661 229.084 88.1151 228.534 89.6491L224.99 89.5121L224.293 95.0661L227.761 95.8101C227.914 97.4341 228.341 99.0341 229.06 100.551L226.457 102.961L229.894 107.386L232.873 105.46C234.16 106.527 235.61 107.342 237.146 107.892L237.009 111.436L242.563 112.134L243.307 108.666C244.931 108.513 246.536 108.082 248.048 107.367L250.457 109.969L254.882 106.532L252.956 103.554C254.028 102.262 254.838 100.817 255.387 99.2811L258.93 99.4181L259.628 93.8631L256.159 93.1201C256.007 91.4971 255.575 89.8911 254.861 88.3801L257.464 85.9691ZM247.385 101.449C243.53 104.445 237.974 103.747 234.978 99.8911C231.982 96.0351 232.68 90.4801 236.536 87.4841C240.393 84.4891 245.948 85.1861 248.944 89.0431C251.939 92.8981 251.242 98.4531 247.385 101.449Z" fill="#93BBE5"/>
<path d="M257.558 52.147L257.99 50.37L255.08 47.098L251.761 48.385C250.709 47.068 249.454 45.979 248.056 45.127L248.912 41.671L243.593 39.855L242.157 43.113C240.53 42.933 238.87 43.027 237.233 43.425L235.393 40.377L230.776 41.08L230.344 42.857L231.631 46.176C230.321 47.225 229.225 48.483 228.372 49.88L224.916 49.025L223.532 52.566L223.1 54.343L226.358 55.78C226.178 57.407 226.273 59.068 226.671 60.704L224.054 60.766L223.622 62.543L226.1 67.592L229.42 66.305C230.468 67.616 231.727 68.711 233.125 69.564L232.269 73.019L237.587 74.835L239.023 71.578C240.65 71.757 242.316 71.66 243.947 71.265L245.786 74.313L250.835 71.834L251.267 70.057L249.548 68.515C250.864 67.463 251.954 66.207 252.807 64.809L256.262 65.665L258.078 60.347L258.509 58.57L254.819 58.911C255 57.285 254.902 55.619 254.507 53.988L257.558 52.147ZM244.501 65.31C240.103 67.47 234.785 65.654 232.626 61.256C230.466 56.857 232.282 51.54 236.68 49.38C241.079 47.221 246.396 49.035 248.556 53.435C250.715 57.834 248.9 63.151 244.501 65.31Z" fill="#D17E11"/>
<path d="M257.99 50.3701L255.511 45.3221L252.192 46.6091C251.14 45.2931 249.885 44.2031 248.487 43.3511L249.343 39.8951L244.024 38.0791L242.588 41.3371C240.96 41.1561 239.301 41.2511 237.664 41.6491L235.824 38.6011L230.775 41.0811L232.062 44.4001C230.752 45.4491 229.657 46.7081 228.804 48.1041L225.348 47.2491L223.533 52.5671L226.791 54.0041C226.611 55.6311 226.706 57.2921 227.104 58.9281L224.056 60.7671L226.534 65.8161L229.854 64.5291C230.903 65.8401 232.161 66.9351 233.559 67.7891L232.703 71.2441L238.021 73.0591L239.457 69.8021C241.084 69.9821 242.75 69.8841 244.381 69.4891L246.22 72.5371L251.269 70.0581L249.982 66.7391C251.298 65.6871 252.388 64.4311 253.241 63.0341L256.696 63.8901L258.512 58.5721L255.254 57.1361C255.435 55.5101 255.337 53.8441 254.942 52.2131L257.99 50.3701ZM244.932 63.5331C240.534 65.6931 235.216 63.8771 233.057 59.4791C230.897 55.0811 232.713 49.7631 237.111 47.6031C241.511 45.4441 246.827 47.2591 248.987 51.6581C251.147 56.0571 249.332 61.3741 244.932 63.5331Z" fill="#F89D13"/>
<path d="M294.031 60.727L294.725 58.632L288.592 56.666L285.733 59.874C283.879 59.038 281.931 58.557 279.961 58.41L278.981 54.226L272.962 53.104L272.267 55.199L272.516 59.489C270.668 60.19 268.936 61.204 267.396 62.532L263.744 60.268L260.377 63.613L259.682 65.708L262.89 68.567C262.059 70.414 261.574 72.369 261.425 74.338L257.936 73.224L257.242 75.319L258.215 82.031L262.505 81.784C263.206 83.631 264.221 85.363 265.548 86.903L263.978 88.46L263.284 90.555L268.722 94.617L271.582 91.409C273.429 92.241 275.384 92.726 277.355 92.874L278.335 97.057L285.047 96.084L285.742 93.989L284.8 91.795C286.647 91.093 288.383 90.073 289.919 88.751L293.571 91.015L297.634 85.576L298.329 83.481L294.426 82.717C295.262 80.863 295.743 78.914 295.89 76.944L300.073 75.964L300.768 73.869L299.1 69.25L294.809 69.498C294.11 67.651 293.088 65.915 291.767 64.379L294.031 60.727ZM287.238 82.049C283.7 86.788 276.988 87.76 272.249 84.222C267.51 80.683 266.537 73.972 270.075 69.232C273.615 64.493 280.326 63.52 285.066 67.06C289.805 70.599 290.778 77.31 287.238 82.049Z" fill="#296ED3"/>
<path d="M294.725 58.6321L289.286 54.5701L286.427 57.7781C284.573 56.9421 282.625 56.4611 280.655 56.3141L279.675 52.1301L272.961 53.1031L273.21 57.3931C271.362 58.0941 269.631 59.1081 268.09 60.4351L264.438 58.1711L260.376 63.6111L263.584 66.4701C262.753 68.3171 262.268 70.2721 262.119 72.2411L257.935 73.2221L258.908 79.9341L263.198 79.6871C263.899 81.5341 264.914 83.2661 266.241 84.8061L263.977 88.4581L269.416 92.5211L272.275 89.3121C274.122 90.1441 276.077 90.6291 278.048 90.7771L279.028 94.9601L285.74 93.9871L285.493 89.6981C287.34 88.9961 289.076 87.9761 290.612 86.6541L294.264 88.9181L298.327 83.4791L295.119 80.6201C295.955 78.7661 296.436 76.8171 296.583 74.8471L300.766 73.8671L299.794 67.1541L295.503 67.4021C294.804 65.5551 293.782 63.8191 292.461 62.2831L294.725 58.6321ZM287.932 79.9541C284.394 84.6931 277.682 85.6661 272.943 82.1271C268.204 78.5881 267.231 71.8771 270.77 67.1381C274.31 62.3991 281.021 61.4261 285.761 64.9651C290.499 68.5041 291.472 75.2151 287.932 79.9541Z" fill="#357DED"/>
<path d="M88.5412 73.895H158.965C160.763 73.895 162.221 75.355 162.221 77.154V111.275C162.221 113.073 160.763 114.533 158.965 114.533H88.5412C86.7422 114.533 85.2842 113.073 85.2842 111.275V77.153C85.2852 75.355 86.7422 73.895 88.5412 73.895Z" fill="#357DED"/>
<path d="M85.2852 83.4841V116.96C85.2852 118.758 86.7432 120.219 88.5422 120.219H158.966C160.764 120.219 162.222 118.759 162.222 116.96V83.4841H85.2852Z" fill="#AACAF9"/>
<path d="M97.1752 78.8691C97.1752 80.2491 96.0562 81.3671 94.6772 81.3671C93.2972 81.3671 92.1782 80.2491 92.1782 78.8691C92.1782 77.4881 93.2972 76.3701 94.6772 76.3701C96.0562 76.3701 97.1752 77.4891 97.1752 78.8691Z" fill="#184785"/>
<path d="M106.689 78.8691C106.689 80.2491 105.57 81.3671 104.19 81.3671C102.81 81.3671 101.691 80.2491 101.691 78.8691C101.691 77.4881 102.81 76.3701 104.19 76.3701C105.571 76.3701 106.689 77.4891 106.689 78.8691Z" fill="#184785"/>
<path d="M112.132 112.115C110.583 112.115 109.41 111.724 108.61 110.942C107.811 110.176 107.412 109.077 107.412 107.645V103.125C107.412 102.725 107.312 102.434 107.112 102.251C106.912 102.051 106.646 101.951 106.313 101.951H105.489V98.9045H106.313C106.646 98.9045 106.912 98.8046 107.112 98.6048C107.312 98.4051 107.412 98.1137 107.412 97.7308V93.2107C107.412 91.7622 107.811 90.6551 108.61 89.8892C109.41 89.1234 110.583 88.7405 112.132 88.7405H113.58V91.7872H113.131C112.531 91.7872 112.073 91.9453 111.757 92.2617C111.457 92.578 111.308 93.0358 111.308 93.6352V97.6309C111.308 98.3634 111.208 98.9378 111.008 99.354C110.808 99.7703 110.492 100.07 110.059 100.253C109.643 100.436 109.102 100.569 108.436 100.653V100.203C109.102 100.27 109.643 100.403 110.059 100.603C110.492 100.786 110.808 101.086 111.008 101.502C111.208 101.918 111.308 102.492 111.308 103.225V107.221C111.308 107.82 111.457 108.278 111.757 108.594C112.073 108.91 112.531 109.069 113.131 109.069H113.58V112.115H112.132ZM117.217 107.47C116.551 107.47 115.976 107.246 115.494 106.796C115.027 106.33 114.794 105.739 114.794 105.023C114.794 104.307 115.027 103.733 115.494 103.3C115.976 102.85 116.551 102.626 117.217 102.626C117.899 102.626 118.474 102.85 118.94 103.3C119.406 103.733 119.639 104.307 119.639 105.023C119.639 105.739 119.406 106.33 118.94 106.796C118.474 107.246 117.899 107.47 117.217 107.47ZM123.753 107.47C123.087 107.47 122.512 107.246 122.03 106.796C121.563 106.33 121.33 105.739 121.33 105.023C121.33 104.307 121.563 103.733 122.03 103.3C122.512 102.85 123.087 102.626 123.753 102.626C124.435 102.626 125.01 102.85 125.476 103.3C125.942 103.733 126.175 104.307 126.175 105.023C126.175 105.739 125.942 106.33 125.476 106.796C125.01 107.246 124.435 107.47 123.753 107.47ZM130.289 107.47C129.623 107.47 129.048 107.246 128.565 106.796C128.099 106.33 127.866 105.739 127.866 105.023C127.866 104.307 128.099 103.733 128.565 103.3C129.048 102.85 129.623 102.626 130.289 102.626C130.971 102.626 131.546 102.85 132.012 103.3C132.478 103.733 132.711 104.307 132.711 105.023C132.711 105.739 132.478 106.33 132.012 106.796C131.546 107.246 130.971 107.47 130.289 107.47ZM135.376 112.115H133.928V109.069H134.377C134.977 109.069 135.426 108.91 135.726 108.594C136.042 108.278 136.2 107.82 136.2 107.221V103.225C136.2 102.492 136.3 101.918 136.5 101.502C136.716 101.086 137.033 100.786 137.449 100.603C137.865 100.403 138.406 100.27 139.072 100.203V100.653C138.406 100.569 137.865 100.436 137.449 100.253C137.033 100.07 136.716 99.7703 136.5 99.354C136.3 98.9378 136.2 98.3634 136.2 97.6309V93.6352C136.2 93.0358 136.042 92.578 135.726 92.2617C135.426 91.9453 134.977 91.7872 134.377 91.7872H133.928V88.7405H135.376C136.941 88.7405 138.115 89.1234 138.897 89.8892C139.696 90.6551 140.096 91.7622 140.096 93.2107V97.7308C140.096 98.1137 140.196 98.4051 140.396 98.6048C140.596 98.8046 140.862 98.9045 141.195 98.9045H142.019V101.951H141.195C140.862 101.951 140.596 102.051 140.396 102.251C140.196 102.434 140.096 102.725 140.096 103.125V107.645C140.096 109.077 139.696 110.176 138.897 110.942C138.115 111.724 136.941 112.115 135.376 112.115Z" fill="#184785"/>
<path d="M446.611 447H38.3895C35.634 447 32.9914 446.947 31.043 446.854C29.0946 446.76 28 446.633 28 446.5C28 446.367 29.0946 446.24 31.043 446.146C32.9914 446.053 35.634 446 38.3895 446H446.611C449.366 446 452.009 446.053 453.957 446.146C455.905 446.24 457 446.367 457 446.5C457 446.633 455.905 446.76 453.957 446.854C452.009 446.947 449.366 447 446.611 447Z" fill="#E1E8EF"/>
</svg>
