<svg width="571" height="499" viewBox="0 0 571 499" fill="none" xmlns="http://www.w3.org/2000/svg">
<path d="M179.665 424.863C215.655 419.362 250.115 406.479 280.875 387.024C290.154 394.381 305.114 376.788 307.284 381.036C309.453 385.285 311.595 397.803 316.191 396.577C319.046 395.835 319.674 386.882 319.674 386.882C322.275 390.65 325.653 393.82 329.581 396.177C335.063 399.029 334.834 393.183 334.834 393.183C336.919 396.406 345.169 396.292 344.17 391.444C342.399 387.29 340.348 383.26 338.032 379.383C338.032 379.383 345.227 387.253 349.452 384.829C353.677 382.405 346.854 376.474 339.374 365.895C335.569 360.479 331.391 355.334 326.869 350.498C324.014 346.933 319.589 347.475 311.138 351.895C301.333 356.871 290.96 360.643 280.247 363.129C276.393 363.7 233.596 363.129 213.554 369.203L216.238 351.809L156.454 351.324C156.454 351.324 119.91 433.645 179.665 424.863Z" fill="white"/>
<path d="M179.865 425.462C165.99 427.515 156.083 424.806 150.43 417.392C135.556 397.86 155.169 352.978 156.14 351.096L156.311 350.726L217.209 351.21L214.582 368.319C218.538 367.279 222.551 366.47 226.601 365.895C241.866 364.036 257.22 363.008 272.596 362.816C276.65 362.816 279.562 362.645 280.418 362.502C291.06 360.03 301.365 356.287 311.109 351.353C314.085 349.628 317.312 348.378 320.674 347.646C321.944 347.367 323.267 347.449 324.493 347.883C325.719 348.316 326.799 349.083 327.611 350.098C328.868 351.581 329.924 352.75 330.923 353.891C334.265 357.549 337.347 361.436 340.145 365.525C342.2 368.376 344.227 370.999 345.855 373.223C349.566 377.871 351.993 380.922 351.565 383.26C351.465 383.718 351.261 384.146 350.969 384.512C350.677 384.877 350.304 385.171 349.88 385.37C349.441 385.629 348.957 385.803 348.453 385.884C345.536 385.79 342.761 384.599 340.687 382.548C342.367 385.337 343.782 388.277 344.913 391.33C345.039 391.812 345.062 392.316 344.978 392.808C344.894 393.3 344.707 393.768 344.427 394.181C344.033 394.681 343.541 395.094 342.981 395.398C342.422 395.702 341.807 395.89 341.173 395.949C339.172 396.247 337.132 395.778 335.463 394.638C335.371 395.329 335.066 395.975 334.59 396.486C334.114 396.997 333.491 397.347 332.807 397.489C331.623 397.583 330.438 397.314 329.41 396.719C325.818 394.635 322.69 391.84 320.217 388.507C319.846 391.358 318.875 396.491 316.448 397.061H316.106C312.451 397.603 310.396 391.501 308.683 386.14C308.179 384.44 307.569 382.774 306.856 381.15C306.856 380.951 306.599 380.751 305.97 380.837C303.935 381.496 302.01 382.457 300.26 383.688C296.581 386.244 292.457 388.091 288.098 389.134C286.861 389.361 285.591 389.342 284.362 389.077C283.132 388.813 281.967 388.309 280.932 387.595C250.176 406.958 215.784 419.844 179.865 425.462ZM157.025 351.952C155.141 356.371 137.725 398.601 151.315 416.651C156.654 423.665 166.161 426.203 179.58 424.235C215.462 418.698 249.823 405.857 280.532 386.511L280.904 386.254L281.275 386.54C282.194 387.254 283.256 387.763 284.388 388.033C285.521 388.304 286.698 388.329 287.841 388.108C292.032 387.076 295.999 385.289 299.547 382.833C301.405 381.493 303.468 380.463 305.656 379.782C306.075 379.67 306.519 379.705 306.914 379.882C307.309 380.058 307.631 380.365 307.826 380.751C308.583 382.428 309.232 384.152 309.768 385.912C311.195 390.332 313.194 396.406 315.792 396.006H316.02C317.619 395.579 318.875 390.303 319.046 386.853V385.114L320.046 386.568C322.585 390.255 325.885 393.356 329.724 395.664C330.518 396.132 331.43 396.359 332.351 396.32C334.178 396.063 334.092 393.269 334.092 393.24V390.988L335.348 392.87C336.014 393.638 336.873 394.216 337.837 394.541C338.8 394.867 339.834 394.93 340.83 394.723C341.292 394.69 341.742 394.564 342.154 394.353C342.566 394.143 342.931 393.851 343.228 393.497C343.412 393.219 343.536 392.905 343.59 392.575C343.644 392.246 343.628 391.909 343.542 391.587C341.815 387.486 339.782 383.521 337.461 379.725L334.606 374.763L338.46 378.983C338.46 378.983 344.17 385.228 348.11 384.686C348.462 384.652 348.802 384.545 349.11 384.372C349.372 384.249 349.604 384.07 349.791 383.849C349.979 383.627 350.116 383.368 350.194 383.089C350.537 381.321 347.968 378.099 344.741 374.05C342.971 371.798 340.916 369.26 338.832 366.294C336.06 362.282 333.007 358.47 329.696 354.889C328.696 353.748 327.64 352.551 326.384 351.068C325.718 350.229 324.83 349.595 323.82 349.237C322.81 348.879 321.72 348.812 320.674 349.043C317.444 349.753 314.343 350.955 311.481 352.608C301.62 357.658 291.179 361.489 280.39 364.013C279.476 364.013 276.678 364.241 272.424 364.327C257.096 364.518 241.789 365.546 226.573 367.406C222.253 368.004 217.979 368.9 213.783 370.087L212.84 370.343L215.695 352.722L157.025 351.952Z" fill="#B7B7B7"/>
<path d="M337.946 380.466C332.236 371.142 324.928 360.021 324.87 359.907L325.898 359.223C325.898 359.223 333.407 370.629 339.031 379.81L337.946 380.466ZM334.263 393.497C332.863 390.18 331.241 386.96 329.41 383.859C328.677 382.7 328.01 381.5 327.411 380.266C324.899 375.476 321.102 368.233 316.305 365.582L316.934 364.498C322.044 367.349 325.927 374.763 328.354 379.696C329.124 381.15 329.781 382.548 330.295 383.175C332.179 386.334 333.839 389.621 335.263 393.012L334.263 393.497ZM319.36 387.595C318.483 383.778 317.348 380.024 315.963 376.36C315.277 375.076 314.314 373.959 313.144 373.091C311.974 372.224 310.626 371.626 309.197 371.341V370.087C310.829 370.415 312.37 371.095 313.711 372.08C315.053 373.065 316.162 374.331 316.962 375.79C318.412 379.549 319.585 383.409 320.474 387.338L319.36 387.595Z" fill="#B7B7B7"/>
<path d="M205.56 270.287L209.443 379.554C194.046 364.608 173.385 356.303 151.915 356.429C175.04 292.186 205.56 270.287 205.56 270.287Z" fill="#FCCE00"/>
<path d="M208.872 379.981L209.757 379.097C187.459 356.685 158.367 355.716 152.8 355.773C175.554 293.155 205.56 270.886 205.817 270.886L205.075 269.888C204.789 270.116 174.241 292.699 151.344 356.314L151.03 357.198H151.943C152.257 357.027 184.661 355.63 208.872 379.981Z" fill="#B7B7B7"/>
<path d="M206.873 268.89C222.09 259.394 321.873 264.156 340.316 268.89C380.286 279.126 368.01 332.961 371.978 373.993C376.032 416.109 375.176 433.531 375.176 433.531H179.465C179.465 375.704 187.231 281.094 206.873 268.89Z" fill="#FCCE00"/>
<path d="M178.837 433.417C178.837 376.217 186.346 280.809 206.531 268.234C213.925 263.643 239.106 262.531 258.92 262.531C290.325 262.531 329.267 265.154 340.487 268.034C371.464 275.961 371.521 310.121 371.607 343.141C371.607 353.378 371.607 363.985 372.606 373.68C376.603 415.339 375.804 433.132 375.804 433.303V433.902H178.809L178.837 433.417ZM371.35 373.936C370.408 364.184 370.379 353.577 370.379 343.283C370.379 309.237 370.208 277.073 340.173 269.374C330.124 266.808 293.237 263.928 258.92 263.928C231.141 263.928 212.755 265.839 207.187 269.289C188.544 280.894 180.122 371.655 180.065 432.79H374.576C374.632 413.164 373.554 393.552 371.35 374.05V373.936Z" fill="#B7B7B7"/>
<g style="mix-blend-mode:multiply" opacity="0.8">
<path d="M207.045 433.417C209.9 414.056 328.411 407.754 328.411 355.488C328.411 342.457 371.978 336.925 371.978 373.879C371.978 415.111 375.176 433.417 375.176 433.417H207.045Z" fill="#916497"/>
</g>
<path d="M323.786 309.408C323.456 304.924 321.372 300.75 317.985 297.788C314.597 294.827 310.179 293.316 305.685 293.583L200.849 300.598C196.365 300.927 192.19 303.004 189.225 306.381C186.261 309.758 184.745 314.164 185.004 318.647L191.599 417.421C191.929 421.905 194.013 426.079 197.4 429.041C200.787 432.002 205.206 433.513 209.7 433.246L314.535 426.26C319.025 425.931 323.205 423.849 326.17 420.466C329.135 417.083 330.648 412.67 330.381 408.182L323.786 309.408Z" fill="white"/>
<path d="M324.585 309.351C324.324 305.144 322.567 301.169 319.63 298.142C316.693 295.114 312.77 293.235 308.568 292.842C307.618 292.761 306.663 292.761 305.713 292.842L200.878 299.828C196.165 300.142 191.769 302.314 188.659 305.864C185.548 309.415 183.977 314.054 184.29 318.761L190.885 417.535C191.156 421.741 192.916 425.714 195.85 428.744C198.785 431.773 202.702 433.662 206.902 434.073C207.852 434.14 208.806 434.14 209.757 434.073L314.592 427.087C316.925 426.935 319.204 426.325 321.301 425.292C323.397 424.259 325.269 422.824 326.81 421.068C328.35 419.312 329.529 417.271 330.279 415.06C331.029 412.848 331.335 410.511 331.18 408.182L324.585 309.351ZM325.584 419.958C324.191 421.565 322.492 422.88 320.585 423.825C318.678 424.769 316.602 425.326 314.478 425.462L209.643 432.448C208.759 432.519 207.871 432.519 206.987 432.448C203.164 432.083 199.597 430.37 196.923 427.616C194.25 424.863 192.646 421.248 192.398 417.421L185.832 318.647C185.566 314.383 187.003 310.188 189.829 306.981C192.655 303.774 196.638 301.817 200.906 301.538L305.742 294.553C306.626 294.481 307.513 294.481 308.397 294.553C312.217 294.918 315.781 296.632 318.45 299.386C321.119 302.14 322.717 305.754 322.958 309.58L329.581 408.353C329.694 410.462 329.389 412.573 328.684 414.565C327.978 416.556 326.886 418.389 325.47 419.958H325.584Z" fill="#B7B7B7"/>
<path d="M306.028 293.697L200.393 300.712C198.208 300.853 196.072 301.423 194.108 302.39C192.144 303.357 190.391 304.702 188.948 306.347C187.506 307.992 186.402 309.905 185.701 311.976C184.999 314.048 184.714 316.237 184.861 318.419L323.643 309.18C323.357 304.796 321.342 300.705 318.04 297.802C314.738 294.9 310.418 293.424 306.028 293.697Z" fill="#B7B7B7"/>
<path d="M308.854 292.813C307.904 292.743 306.949 292.743 305.999 292.813L200.364 299.856C198.074 300.005 195.836 300.603 193.778 301.617C191.72 302.631 189.882 304.041 188.37 305.765C186.859 307.489 185.702 309.495 184.968 311.666C184.234 313.837 183.935 316.132 184.09 318.419C184.115 318.629 184.217 318.822 184.376 318.961C184.498 319.082 184.661 319.154 184.833 319.16L323.614 309.922C323.721 309.918 323.825 309.893 323.921 309.848C324.018 309.802 324.103 309.737 324.173 309.656C324.243 309.576 324.295 309.482 324.327 309.381C324.358 309.279 324.368 309.172 324.357 309.066C324.116 304.963 322.427 301.078 319.588 298.102C316.75 295.126 312.946 293.252 308.854 292.813ZM185.746 317.45C185.7 313.391 187.208 309.468 189.963 306.484C192.717 303.499 196.51 301.679 200.564 301.396L306.199 294.381C307.073 294.31 307.951 294.31 308.825 294.381C312.445 294.706 315.841 296.267 318.442 298.802C321.042 301.337 322.688 304.691 323.1 308.296L185.746 317.45Z" fill="#B7B7B7"/>
<path d="M306.284 304.39L303.515 301.966L302.43 303.192L306.342 306.586L312.68 300.455L311.566 299.286L306.284 304.39Z" fill="white"/>
<path d="M195.025 307.099L204.161 314.256L205.16 312.973L196.024 305.844L195.025 307.099Z" fill="white"/>
<path d="M203.325 305.475L195.676 313.517L196.856 314.637L204.505 306.595L203.325 305.475Z" fill="white"/>
<path d="M314.478 400.597C312.748 400.431 311.008 400.781 309.476 401.602C307.945 402.423 306.692 403.679 305.875 405.211C305.058 406.743 304.714 408.483 304.886 410.21C305.058 411.937 305.739 413.575 306.843 414.916C307.947 416.257 309.423 417.241 311.087 417.745C312.75 418.248 314.526 418.247 316.189 417.743C317.852 417.24 319.328 416.255 320.432 414.913C321.535 413.572 322.215 411.934 322.387 410.207C322.505 409.056 322.393 407.893 322.059 406.786C321.725 405.679 321.174 404.649 320.439 403.755C319.703 402.862 318.798 402.122 317.775 401.58C316.752 401.038 315.631 400.704 314.478 400.597Z" fill="#5181FF"/>
<path d="M314.564 399.799C312.675 399.605 310.77 399.975 309.092 400.863C307.413 401.751 306.037 403.116 305.136 404.786C304.235 406.456 303.852 408.356 304.033 410.244C304.214 412.132 304.953 413.924 306.155 415.393C307.357 416.861 308.968 417.941 310.785 418.494C312.602 419.047 314.542 419.049 316.36 418.499C318.178 417.95 319.791 416.874 320.996 415.408C322.202 413.942 322.944 412.151 323.129 410.263C323.376 407.743 322.614 405.227 321.009 403.266C319.404 401.305 317.087 400.058 314.564 399.799ZM312.851 417.278C311.277 417.124 309.784 416.506 308.562 415.505C307.339 414.503 306.442 413.161 305.983 411.65C305.523 410.138 305.524 408.525 305.983 407.014C306.442 405.502 307.34 404.161 308.563 403.159C309.785 402.158 311.278 401.541 312.852 401.386C314.426 401.232 316.01 401.548 317.404 402.293C318.799 403.038 319.94 404.18 320.685 405.573C321.429 406.967 321.743 408.549 321.587 410.121C321.378 412.227 320.34 414.163 318.702 415.505C317.064 416.847 314.959 417.485 312.851 417.278Z" fill="#B7B7B7"/>
<path d="M313.266 405.03L312.434 413.515L314.054 413.673L314.885 405.188L313.266 405.03Z" fill="#B7B7B7"/>
<path d="M309.442 408.083L309.283 409.7L317.779 410.534L317.938 408.916L309.442 408.083Z" fill="#B7B7B7"/>
<path d="M282.217 381.863L237.136 384.943C237.136 384.943 226.287 390.646 227.401 398.801C233.453 397.204 235.966 409.237 246.758 402.422C255.637 396.719 268.798 409.037 275.593 402.736C285.357 393.725 291.553 403.192 293.951 393.355C292.888 390.738 291.299 388.367 289.28 386.391C287.261 384.414 284.857 382.873 282.217 381.863Z" fill="#BFDAF3"/>
<path d="M282.645 381.093H282.274L236.965 384.173H236.622C236.166 384.43 225.202 390.361 226.487 398.858C226.5 398.972 226.537 399.082 226.596 399.18C226.655 399.279 226.735 399.363 226.83 399.428C227.041 399.512 227.276 399.512 227.486 399.428C229.399 398.915 231.112 400.226 232.997 401.709C234.824 403.5 237.154 404.694 239.677 405.131C242.319 405.25 244.924 404.477 247.072 402.935C249.096 401.728 251.476 401.254 253.81 401.595C256.458 401.965 259.067 402.576 261.604 403.42C263.99 404.226 266.446 404.809 268.941 405.159C270.2 405.365 271.489 405.293 272.717 404.949C273.945 404.604 275.083 403.994 276.05 403.163C277.504 401.704 279.257 400.575 281.189 399.857C283.121 399.138 285.186 398.846 287.242 399C290.468 399 293.237 399 294.607 393.297C294.65 393.148 294.65 392.99 294.607 392.841C293.508 390.18 291.882 387.767 289.826 385.749C287.771 383.73 285.328 382.146 282.645 381.093ZM287.47 397.575C285.199 397.379 282.912 397.679 280.768 398.451C278.624 399.224 276.673 400.453 275.051 402.051C274.273 402.717 273.359 403.205 272.373 403.481C271.386 403.757 270.351 403.814 269.341 403.648C266.946 403.293 264.586 402.73 262.289 401.966C259.663 401.08 256.957 400.45 254.209 400.084C251.508 399.692 248.754 400.246 246.415 401.652C244.582 402.994 242.348 403.677 240.077 403.591C237.919 403.146 235.936 402.086 234.367 400.54C232.975 399.116 231.2 398.126 229.257 397.689H228.115C227.943 391.187 236.166 386.283 237.365 385.57L282.074 382.662C284.541 383.628 286.788 385.081 288.681 386.932C290.574 388.784 292.075 390.997 293.094 393.44C292.038 397.603 290.439 397.575 287.356 397.575H287.47Z" fill="#B7B7B7"/>
<path d="M384.083 432.077C347.671 431.853 311.701 424.085 278.448 409.266C270.311 417.82 252.953 402.679 251.44 407.212C249.927 411.746 249.613 424.321 244.902 423.865C242.047 423.523 240.02 414.769 240.02 414.769C238.014 418.888 235.141 422.525 231.598 425.433C226.573 428.969 225.888 423.237 225.888 423.237C224.289 426.716 216.123 427.8 216.409 422.867C217.551 418.496 218.991 414.209 220.72 410.035C220.72 410.035 214.753 418.846 210.214 417.107C205.674 415.368 211.555 408.553 217.408 396.89C220.402 390.969 223.788 385.253 227.543 379.782C229.999 375.818 234.31 375.733 243.303 378.869C253.733 382.36 264.545 384.581 275.507 385.485C279.419 385.485 321.673 378.784 342.372 381.778L337.175 364.954L396.245 355.773C396.245 355.773 444.409 432.077 384.083 432.077Z" fill="white"/>
<path d="M278.562 410.121C277.651 410.987 276.575 411.663 275.399 412.109C274.222 412.554 272.968 412.761 271.71 412.716C267.249 412.318 262.901 411.09 258.892 409.094C256.987 408.119 254.947 407.437 252.839 407.07C252.211 407.07 252.097 407.298 252.011 407.526C251.538 409.231 251.176 410.964 250.926 412.716C249.984 418.276 248.87 424.606 245.216 424.606H244.845C242.39 424.321 240.648 419.388 239.877 416.622C237.932 420.286 235.237 423.502 231.969 426.06C231.053 426.812 229.925 427.261 228.743 427.344C228.013 427.332 227.306 427.084 226.729 426.636C226.152 426.189 225.737 425.567 225.545 424.863C224.074 426.237 222.135 427.002 220.121 427.001C219.486 427.035 218.85 426.941 218.252 426.726C217.654 426.51 217.105 426.177 216.638 425.747C216.289 425.365 216.027 424.913 215.869 424.421C215.712 423.929 215.662 423.408 215.724 422.895C216.404 419.72 217.359 416.61 218.579 413.6C216.823 415.924 214.254 417.502 211.384 418.019C210.876 418.016 210.373 417.919 209.9 417.734C209.453 417.593 209.044 417.354 208.702 417.033C208.361 416.712 208.097 416.318 207.93 415.881C207.13 413.628 209.1 410.178 212.07 405.131C213.497 402.65 215.124 399.856 216.752 396.577C218.923 392.122 221.403 387.825 224.175 383.717C225.003 382.462 225.859 381.122 227.03 379.468C227.689 378.35 228.648 377.438 229.798 376.834C230.947 376.229 232.243 375.957 233.539 376.046C236.967 376.276 240.338 377.036 243.532 378.299C253.899 381.807 264.656 384.038 275.565 384.943C276.421 384.943 279.333 384.601 283.359 384.116C298.592 382.052 313.928 380.833 329.296 380.466C333.388 380.433 337.479 380.652 341.544 381.122L336.433 364.555L396.617 355.202L396.817 355.545C397.93 357.284 423.882 398.829 412.034 420.329C407.523 428.484 398.13 432.59 384.083 432.59C347.746 432.342 311.841 424.697 278.562 410.121ZM338.061 365.639L343.314 382.747L342.343 382.605C338.018 382.041 333.658 381.784 329.296 381.835C314.013 382.208 298.763 383.427 283.616 385.485C279.39 385.998 276.593 386.311 275.679 386.311C264.653 385.4 253.774 383.18 243.275 379.696C240.216 378.456 236.977 377.714 233.682 377.501C232.595 377.406 231.504 377.624 230.538 378.13C229.571 378.635 228.77 379.406 228.229 380.352C227.201 382.034 226.316 383.203 225.374 384.629C222.628 388.698 220.176 392.958 218.036 397.375C216.409 400.597 214.753 403.392 213.326 405.929C210.728 410.406 208.672 413.942 209.272 415.653C209.378 415.916 209.544 416.151 209.757 416.34C209.97 416.528 210.224 416.663 210.499 416.736C210.834 416.873 211.194 416.941 211.556 416.936C215.467 416.936 220.121 409.978 220.263 409.921L223.461 405.188L221.348 410.492C219.582 414.55 218.122 418.734 216.98 423.009C216.937 423.337 216.966 423.669 217.065 423.984C217.164 424.3 217.329 424.589 217.551 424.834C217.895 425.15 218.301 425.392 218.744 425.544C219.186 425.696 219.654 425.755 220.121 425.718C221.131 425.759 222.134 425.539 223.034 425.079C223.935 424.62 224.701 423.936 225.26 423.095L226.202 421.042L226.459 423.295C226.459 423.295 226.773 426.146 228.6 426.146C229.521 426.059 230.395 425.702 231.112 425.119C234.582 422.285 237.396 418.734 239.363 414.712L240.134 413.143L240.534 414.854C241.333 418.305 243.218 423.237 244.873 423.409H245.073C247.728 423.409 248.813 417.135 249.584 412.545C249.858 410.737 250.239 408.947 250.726 407.184C250.861 406.773 251.134 406.422 251.497 406.188C251.861 405.954 252.295 405.853 252.725 405.901C254.999 406.231 257.2 406.944 259.234 408.011C263.102 409.933 267.294 411.122 271.596 411.518C272.762 411.571 273.925 411.374 275.008 410.941C276.091 410.508 277.07 409.85 277.877 409.009L278.191 408.695L278.591 408.895C311.795 423.563 347.663 431.259 383.969 431.507C397.53 431.507 406.552 427.6 410.806 419.873C421.769 399.913 398.387 360.791 395.874 356.685L338.061 365.639Z" fill="#B7B7B7"/>
<path d="M221.006 411.205C225.174 401.168 230.912 389.077 230.969 388.963L229.827 388.422C229.827 388.564 224.117 400.683 219.864 410.72L221.006 411.205ZM226.544 423.494C227.453 420.008 228.598 416.588 229.97 413.258C230.37 412.402 230.827 411.09 231.398 409.408C233.196 404.304 235.88 396.605 240.22 393.269L239.477 392.271C234.824 395.864 232.054 403.677 230.227 409.009C229.685 410.577 229.228 411.86 228.828 412.744C227.428 416.139 226.264 419.626 225.345 423.181L226.544 423.494ZM240.448 415.567C240.756 411.655 241.328 407.768 242.161 403.933C242.662 402.566 243.455 401.325 244.486 400.296C245.516 399.266 246.759 398.474 248.128 397.974L247.871 396.776C246.297 397.319 244.863 398.205 243.673 399.368C242.483 400.532 241.567 401.945 240.991 403.506C240.114 407.441 239.522 411.433 239.22 415.453L240.448 415.567Z" fill="#B7B7B7"/>
<path d="M328.325 355.602L352.279 274.963C398.701 302.793 412.234 365.981 413.204 373.223C414.004 378.641 407.723 384.259 385.853 387.481C363.984 390.703 340.173 384.144 339.345 378.755C339.331 378.642 339.331 378.527 339.345 378.413C337.747 375.277 331.466 362.93 328.325 355.602Z" fill="#FCCE00"/>
<path d="M373.691 389.077C377.819 389.083 381.942 388.778 386.025 388.165C410.378 384.515 414.575 377.957 413.889 373.138C413.889 372.454 402.184 304.133 352.678 274.45L352.05 275.505C401.07 304.903 412.576 372.653 412.662 373.309C413.318 377.586 409.179 383.432 385.853 386.939C375.554 388.397 365.077 388.03 354.905 385.855C345.112 383.717 340.316 380.666 340.031 378.727V378.556V378.213C338.746 375.704 332.179 362.816 329.067 355.402L327.925 355.858C330.78 363.101 336.976 374.991 338.86 378.67C338.845 378.764 338.845 378.86 338.86 378.955C339.402 382.519 347.425 385.513 354.705 387.11C360.947 388.428 367.311 389.087 373.691 389.077ZM286.185 163.501C286.185 163.501 284.529 149.814 260.662 155.346C243.532 159.366 240.305 157.998 240.305 157.998C241.045 159.968 242.265 161.722 243.856 163.101C245.446 164.48 247.356 165.441 249.413 165.896C249.413 165.896 236.937 164.328 237.679 177.017C238.421 189.706 246.244 191.473 246.244 197.347C246.244 203.221 235.68 209.551 246.843 217.792C258.006 226.033 282.845 240.917 299.29 216.594C315.278 193.042 301.031 152.837 286.185 163.501Z" fill="#B7B7B7"/>
<path d="M246.529 218.305C238.45 212.317 241.333 206.9 243.674 202.794C244.758 201.16 245.443 199.294 245.673 197.347C245.377 195.184 244.373 193.179 242.818 191.645C239.294 187.622 237.275 182.502 237.108 177.159C236.928 175.632 237.066 174.083 237.513 172.611C237.96 171.14 238.707 169.776 239.706 168.605C241.385 166.82 243.638 165.68 246.073 165.383C243.161 163.841 240.931 161.268 239.82 158.169L239.477 156.971L240.648 157.427C241.322 157.576 242.014 157.634 242.704 157.598C248.765 157.288 254.775 156.332 260.633 154.747C264.045 153.912 267.541 153.463 271.054 153.407C282.873 153.407 285.957 159.994 286.699 162.474C292.067 159.195 298.119 162.047 302.145 169.831C308.568 181.921 309.511 202.851 299.975 216.965C293.894 225.976 286.043 230.538 276.678 230.538C267.314 230.538 257.464 226.403 246.529 218.305ZM286.499 163.986L285.643 164.613V163.558C285.643 163.558 284.415 154.661 271.025 154.661C267.608 154.708 264.207 155.148 260.89 155.973C248.671 158.825 243.474 158.825 241.39 158.825C242.171 160.46 243.31 161.899 244.724 163.034C246.137 164.17 247.789 164.972 249.556 165.383L249.327 166.609C248.937 166.588 248.547 166.588 248.157 166.609C246.761 166.559 245.368 166.785 244.06 167.274C242.752 167.764 241.553 168.507 240.534 169.46C239.642 170.528 238.981 171.768 238.593 173.103C238.205 174.437 238.098 175.838 238.278 177.216C238.462 182.306 240.41 187.174 243.789 190.989C245.554 192.761 246.653 195.088 246.9 197.575C246.711 199.73 245.974 201.801 244.759 203.592C242.447 207.841 240.077 212.146 247.272 217.535C257.835 225.377 267.97 229.511 276.564 229.511C285.157 229.511 292.98 225.149 298.833 216.48C308.112 202.765 307.17 182.263 300.917 170.658C298.062 165.44 294.693 162.588 291.153 162.588C289.504 162.567 287.888 163.055 286.528 163.986H286.499Z" fill="#B7B7B7"/>
<path d="M250.955 221.727C250.955 221.727 252.04 255.089 249.127 266.437C249.127 266.437 259.348 283.945 301.231 265.069C301.231 265.069 298.376 223.124 299.033 216.224L250.955 221.727Z" fill="white"/>
<path d="M248.614 266.751V266.523V266.295C251.469 255.146 250.441 222.098 250.441 221.756V221.185L299.832 215.482V216.224C299.118 222.982 301.973 264.698 302.002 264.955V265.411L301.631 265.582C288.641 271.285 277.363 274.393 268.085 274.393C253.267 274.45 248.785 267.065 248.614 266.751ZM298.348 216.937L251.611 222.411C251.611 226.974 252.468 255.602 249.813 266.437C250.612 267.578 255.294 273.338 267.942 273.338C276.935 273.338 287.927 270.486 300.575 264.784C300.26 260.136 297.891 225.263 298.348 216.937Z" fill="#B7B7B7"/>
<path d="M235.252 221.841C235.909 212.717 238.935 189.82 240.962 181.037C245.33 160.621 298.918 162.817 298.918 186.426C298.918 189.991 299.547 196.863 299.375 203.906C301.012 203.826 302.649 204.08 304.185 204.651C305.721 205.222 307.125 206.098 308.312 207.227C309.499 208.357 310.444 209.715 311.09 211.22C311.735 212.724 312.068 214.344 312.068 215.981C312.068 217.619 311.735 219.239 311.09 220.743C310.444 222.248 309.499 223.606 308.312 224.735C307.125 225.865 305.721 226.741 304.185 227.312C302.649 227.883 301.012 228.137 299.375 228.057C298.522 228.058 297.67 227.972 296.834 227.801C295.521 237.011 293.979 248.816 286.042 255.859C281.103 260.335 270.911 254.69 267.713 263.272C256.065 262.731 245.73 259.68 238.164 250.84C232.54 244.253 234.595 230.966 235.252 221.841Z" fill="white"/>
<path d="M267.685 263.9C254.067 263.272 244.531 259.252 237.679 251.239C232.626 245.308 233.568 234.33 234.339 225.577C234.339 224.265 234.567 223.039 234.653 221.841C235.281 212.859 238.336 189.763 240.363 180.952C242.647 170.316 256.693 166.523 267.999 166.523C283.673 166.523 299.575 173.395 299.575 186.483C299.575 187.795 299.575 189.563 299.747 191.587C299.918 194.952 300.118 199.087 300.032 203.335C303.308 203.542 306.378 205.004 308.601 207.417C310.823 209.83 312.027 213.006 311.961 216.284C311.894 219.562 310.563 222.688 308.245 225.009C305.926 227.33 302.8 228.667 299.518 228.742C298.848 228.741 298.18 228.684 297.52 228.571C296.149 237.923 294.379 249.357 286.614 256.372C284.123 258.127 281.082 258.927 278.049 258.625C273.937 258.625 270.026 258.91 268.284 263.558V263.985L267.685 263.9ZM296.92 227.173C297.708 227.342 298.512 227.428 299.318 227.43C302.347 227.43 305.252 226.228 307.393 224.089C309.535 221.95 310.738 219.049 310.738 216.024C310.738 212.999 309.535 210.098 307.393 207.959C305.252 205.82 302.347 204.619 299.318 204.619H298.69V203.991C298.69 199.543 298.69 195.18 298.433 191.673C298.433 189.62 298.233 187.852 298.233 186.512C298.233 174.222 282.988 167.807 267.913 167.807C256.208 167.807 243.503 171.97 241.505 181.237C239.62 190.019 236.565 213.03 235.937 221.984C235.937 223.153 235.737 224.407 235.623 225.691C234.881 234.245 233.967 244.995 238.678 250.527C245.216 258.14 254.352 261.932 267.228 262.731C269.341 257.741 273.909 257.57 277.963 257.398C280.649 257.67 283.346 256.994 285.586 255.488C293.152 248.616 294.807 237.153 296.178 227.801V227.145L296.92 227.173Z" fill="#B7B7B7"/>
<path d="M287.527 226.86C280.504 226.86 276.535 223.723 272.167 220.586C268.103 217.835 263.134 216.753 258.292 217.564C254.295 218.191 251.354 220.415 246.187 220.415C242.491 220.502 238.85 219.512 235.709 217.564C235.481 219.218 235.338 220.701 235.252 221.87C234.624 230.994 232.397 244.282 238.107 250.869C245.673 259.708 256.008 262.759 267.656 263.301C270.854 254.747 281.046 260.449 285.985 255.887C294.779 247.96 295.778 233.931 297.405 224.521C294.379 226.163 290.969 226.97 287.527 226.86ZM256.351 233.817C254.515 233.26 252.935 232.074 251.89 230.467C250.846 228.86 250.403 226.936 250.641 225.035C250.641 222.497 270.626 224.065 270.626 226.574C270.74 232.448 262.66 236.098 256.351 233.817ZM256.151 234.416C254.235 233.823 252.582 232.589 251.47 230.922C250.357 229.255 249.853 227.257 250.041 225.263C250.041 224.436 250.698 223.352 256.522 223.352C259.377 223.352 271.368 223.951 271.368 226.803C271.368 232.078 265.658 235.357 260.29 235.357C258.872 235.311 257.471 235.022 256.151 234.501V234.416ZM251.24 225.263C251.006 227.034 251.408 228.831 252.375 230.335C253.342 231.838 254.811 232.951 256.522 233.475C257.727 233.881 258.991 234.083 260.262 234.074C265.001 234.074 270.083 231.222 270.112 226.86C269.683 225.89 262.86 224.578 256.493 224.578C254.713 224.379 252.91 224.614 251.24 225.263Z" fill="#B7B7B7"/>
<path d="M270.74 226.66C270.74 232.363 262.689 236.098 256.465 233.903C254.629 233.346 253.049 232.159 252.005 230.552C250.96 228.945 250.517 227.021 250.755 225.12C250.669 222.582 270.74 224.151 270.74 226.66Z" fill="white"/>
<path d="M250.041 225.263C249.797 227.294 250.275 229.346 251.392 231.061C252.508 232.775 254.193 234.044 256.151 234.644C257.482 235.106 258.882 235.337 260.291 235.328C265.629 235.328 271.368 232.078 271.368 226.774C271.368 223.923 259.491 223.324 256.522 223.324C250.698 223.21 250.041 224.293 250.041 225.263ZM251.24 225.263C252.91 224.614 254.713 224.379 256.493 224.578C262.86 224.578 269.683 225.89 270.112 226.86C270.112 230.966 265.03 233.817 260.291 233.817C259.019 233.827 257.755 233.624 256.55 233.218C254.883 232.707 253.443 231.636 252.475 230.186C251.508 228.736 251.071 226.997 251.24 225.263ZM251.925 191.331L251.155 192.3C249.519 191.091 247.56 190.394 245.527 190.297C243.494 190.201 241.478 190.709 239.735 191.758L239.106 190.675C241.073 189.518 243.336 188.964 245.615 189.08C247.893 189.197 250.088 189.979 251.925 191.331ZM282.131 192.3L281.246 193.184C274.451 186.569 269.369 189.648 269.17 189.791L268.37 188.736C268.741 188.593 274.566 184.944 282.131 192.3ZM272.853 201.026C273.249 201.02 273.638 201.132 273.971 201.348C274.303 201.564 274.563 201.874 274.719 202.238C274.875 202.602 274.918 203.004 274.845 203.393C274.771 203.782 274.583 204.141 274.304 204.423C274.026 204.705 273.67 204.898 273.282 204.977C272.893 205.056 272.49 205.018 272.123 204.868C271.756 204.718 271.442 204.462 271.221 204.133C271.001 203.805 270.883 203.418 270.883 203.022C270.883 202.497 271.089 201.994 271.458 201.62C271.826 201.247 272.327 201.033 272.853 201.026Z" fill="#B7B7B7"/>
<path d="M270.254 203.022C270.254 203.542 270.409 204.05 270.699 204.482C270.989 204.914 271.401 205.25 271.882 205.448C272.364 205.646 272.894 205.696 273.404 205.592C273.914 205.489 274.382 205.236 274.748 204.866C275.115 204.497 275.362 204.026 275.461 203.516C275.559 203.005 275.503 202.477 275.299 201.998C275.096 201.519 274.755 201.111 274.319 200.826C273.884 200.542 273.373 200.393 272.852 200.398C272.509 200.398 272.169 200.466 271.852 200.599C271.534 200.731 271.247 200.924 271.005 201.168C270.764 201.412 270.573 201.702 270.444 202.02C270.315 202.338 270.251 202.678 270.254 203.022ZM271.511 203.022C271.505 202.749 271.581 202.48 271.73 202.251C271.878 202.021 272.092 201.841 272.343 201.734C272.595 201.627 272.873 201.598 273.141 201.65C273.41 201.702 273.656 201.832 273.85 202.026C274.043 202.219 274.174 202.465 274.226 202.733C274.278 203.001 274.249 203.279 274.141 203.53C274.034 203.781 273.854 203.995 273.624 204.143C273.395 204.291 273.126 204.367 272.852 204.362C272.497 204.362 272.155 204.221 271.904 203.969C271.652 203.718 271.511 203.377 271.511 203.022ZM245.159 197.689C245.554 197.689 245.941 197.807 246.269 198.026C246.598 198.245 246.854 198.557 247.005 198.922C247.157 199.286 247.196 199.688 247.119 200.075C247.042 200.462 246.852 200.818 246.572 201.097C246.293 201.376 245.936 201.566 245.549 201.643C245.161 201.72 244.759 201.681 244.394 201.53C244.029 201.378 243.717 201.123 243.497 200.794C243.278 200.466 243.16 200.08 243.16 199.685C243.16 199.156 243.371 198.648 243.746 198.274C244.121 197.9 244.629 197.689 245.159 197.689Z" fill="#B7B7B7"/>
<path d="M242.675 199.6C242.681 200.112 242.838 200.611 243.127 201.034C243.416 201.457 243.823 201.785 244.298 201.977C244.774 202.169 245.295 202.216 245.797 202.113C246.299 202.01 246.759 201.76 247.12 201.396C247.48 201.032 247.725 200.57 247.823 200.067C247.921 199.565 247.868 199.044 247.67 198.572C247.473 198.1 247.14 197.696 246.713 197.412C246.287 197.128 245.786 196.977 245.273 196.977C244.929 196.977 244.589 197.045 244.272 197.177C243.955 197.309 243.667 197.503 243.426 197.747C243.184 197.991 242.993 198.28 242.864 198.598C242.736 198.916 242.671 199.257 242.675 199.6ZM243.903 199.6C243.897 199.328 243.972 199.061 244.12 198.832C244.267 198.603 244.479 198.423 244.728 198.315C244.978 198.207 245.255 198.176 245.522 198.226C245.79 198.275 246.037 198.403 246.231 198.594C246.426 198.784 246.559 199.028 246.615 199.294C246.67 199.56 246.644 199.837 246.542 200.088C246.439 200.34 246.263 200.556 246.037 200.707C245.811 200.859 245.545 200.94 245.273 200.94C245.086 200.956 244.898 200.933 244.72 200.873C244.542 200.813 244.379 200.717 244.24 200.592C244.101 200.466 243.989 200.313 243.911 200.143C243.833 199.972 243.792 199.787 243.788 199.6H243.903ZM257.949 208.411L258.235 209.609C257.578 209.78 256.75 210.065 256.55 210.692C256.35 211.319 257.007 212.517 257.321 212.859L256.379 213.658C255.962 213.218 255.653 212.688 255.474 212.109C255.296 211.531 255.254 210.919 255.351 210.321C255.573 209.8 255.932 209.347 256.389 209.011C256.846 208.675 257.385 208.468 257.949 208.411ZM303.801 209.124C305.117 209.644 306.234 210.567 306.993 211.761C307.752 212.954 308.113 214.357 308.026 215.768C307.769 222.868 299.689 223.752 299.461 223.752V222.525C299.746 222.525 306.541 221.727 306.77 215.739C306.849 214.575 306.554 213.416 305.927 212.431C305.301 211.446 304.376 210.687 303.287 210.264C302.143 209.751 300.875 209.582 299.637 209.78C298.399 209.977 297.246 210.532 296.32 211.376L295.435 210.521C296.532 209.483 297.914 208.796 299.404 208.547C300.895 208.299 302.425 208.499 303.801 209.124Z" fill="#B7B7B7"/>
<path d="M302.402 213.515C302.638 212.907 302.737 212.255 302.693 211.604C302.648 210.954 302.461 210.321 302.145 209.751L303.258 209.238C303.686 209.914 303.943 210.683 304.006 211.48C304.07 212.277 303.939 213.077 303.625 213.812C303.31 214.547 302.821 215.195 302.2 215.699C301.58 216.204 300.845 216.55 300.061 216.709L299.747 215.482C300.298 215.347 300.816 215.103 301.272 214.765C301.728 214.427 302.112 214.002 302.402 213.515Z" fill="#B7B7B7"/>
<path d="M344.941 363.329C347.939 358.738 343.485 353.691 343.485 353.691C344.77 349.3 337.946 347.276 337.946 347.276C339.325 346.368 340.384 345.052 340.973 343.512C342.029 339.548 323.158 330.224 318.59 333.988C314.022 337.752 306.627 353.149 304.315 355.402C302.002 357.655 224.546 367.293 213.697 369.203C213.697 369.203 194.426 372.34 176.753 375.362L176.268 425.234C177.41 425.234 178.58 425.034 179.808 424.863C210.556 420.301 285.814 391.073 307.112 383.261C312.822 386.112 322.415 384.344 338.517 369.659C339.06 369.146 337.804 371.598 338.346 372.91C338.889 374.221 331.637 373.851 330.638 377.558C329.153 383.261 340.373 379.297 342.914 378.869C350.451 377.558 344.713 363.7 344.941 363.329Z" fill="white"/>
<path d="M175.411 426.003L175.897 374.678H176.468C194.14 371.826 213.583 368.519 213.583 368.519C217.094 367.891 227.23 366.523 240.077 364.755C263.146 361.618 301.717 356.372 303.858 354.889C305.661 352.52 307.275 350.012 308.683 347.39C311.88 341.943 315.506 335.756 318.304 333.475C321.702 330.623 331.323 334.13 336.976 337.723C339.46 339.32 342.343 341.687 341.801 343.711C341.368 345.023 340.577 346.189 339.517 347.076C341.515 347.931 345.227 349.927 344.399 353.549C345.341 354.746 348.424 359.251 345.826 363.529L346.083 364.384C346.883 367.235 348.938 373.68 346.569 377.272C346.169 377.906 345.634 378.444 345.002 378.848C344.371 379.252 343.658 379.513 342.914 379.611C342.486 379.611 341.858 379.839 341.087 380.038C336.605 381.15 332.094 382.091 330.352 380.324C330.048 379.978 329.832 379.564 329.723 379.117C329.613 378.671 329.614 378.204 329.724 377.757C320.331 384.544 312.594 386.654 307.084 384.059L295.949 388.193C266.8 399.029 206.417 421.612 179.865 425.547C178.684 425.744 177.492 425.878 176.296 425.946L175.411 426.003ZM177.296 375.961L176.839 424.435C177.724 424.435 178.609 424.264 179.694 424.121C206.217 420.215 266.486 397.66 295.464 386.825L306.884 382.548H307.17L307.427 382.69C314.164 385.998 324.699 381.35 337.889 369.203L338.261 368.832L338.86 369.032C339.374 369.346 339.231 369.887 339.089 370.458C338.819 371.166 338.74 371.933 338.86 372.682C338.924 372.815 338.957 372.961 338.957 373.109C338.957 373.257 338.924 373.403 338.86 373.537C338.546 374.193 337.661 374.421 336.291 374.792C334.349 375.277 331.694 375.961 331.209 377.786C330.923 378.869 331.209 379.211 331.38 379.326C332.722 380.694 338.146 379.326 340.744 378.67C341.572 378.47 342.258 378.299 342.686 378.242C343.232 378.173 343.757 377.984 344.221 377.689C344.685 377.393 345.077 376.997 345.37 376.531C347.282 373.509 345.37 367.435 344.741 364.812C344.37 363.557 344.285 363.329 344.513 362.987C347.168 358.938 343.143 354.261 343.114 354.204L342.857 353.919V353.549C343.913 349.899 337.861 348.045 337.804 348.017L336.348 347.589L337.604 346.762C338.871 345.95 339.865 344.779 340.459 343.398C340.63 342.656 339.403 341.002 336.234 338.949C330.524 335.242 321.73 332.534 319.104 334.587C315.455 338.696 312.338 343.246 309.825 348.131C308.382 350.905 306.67 353.532 304.714 355.972C303.173 357.398 281.874 360.535 240.191 366.209C227.858 367.891 217.351 369.346 213.754 369.944C213.668 369.887 194.825 372.995 177.296 375.961ZM337.176 371.513L334.806 373.566L335.691 373.338C336.222 373.213 336.746 373.06 337.261 372.881C337.152 372.433 337.142 371.965 337.233 371.513H337.176Z" fill="#B7B7B7"/>
<path d="M177.267 374.193V375.989L211.27 394.039L177.324 424.464C176.123 424.648 174.912 424.772 173.698 424.834C172.042 424.834 167.988 389.904 167.988 389.619C167.988 389.334 167.132 379.012 167.988 378.014C168.845 377.016 173.07 369.973 173.413 370.058C174.766 371.371 176.053 372.751 177.267 374.193Z" fill="white"/>
<path d="M95.1002 167.635C80.7396 187.282 82.7952 216.395 99.9252 232.676C117.055 248.958 142.265 246.192 156.597 226.517C170.929 206.843 168.873 177.729 151.915 161.476C134.956 145.223 109.461 147.961 95.1002 167.635Z" fill="#4284CA"/>
<path d="M126.277 149.985C119.982 150.097 113.804 151.708 108.258 154.684C102.711 157.659 97.9558 161.914 94.3864 167.094C79.9401 187.082 81.9671 216.709 99.1828 233.332C106.16 240.182 115.523 244.066 125.306 244.168C131.604 244.049 137.782 242.435 143.332 239.46C148.882 236.485 153.644 232.235 157.225 227.059C171.814 207.099 169.644 177.359 152.429 160.821C145.443 153.966 136.069 150.083 126.277 149.985ZM155.769 226.004C152.36 230.955 147.818 235.023 142.52 237.869C137.222 240.716 131.321 242.259 125.306 242.371C115.986 242.274 107.069 238.563 100.439 232.021C83.8229 216.081 81.7387 187.424 95.8139 168.149C99.2262 163.199 103.768 159.131 109.065 156.28C114.362 153.43 120.261 151.878 126.277 151.753C135.655 151.812 144.639 155.526 151.315 162.104C167.788 178.043 169.844 206.7 155.769 226.004Z" fill="#251853"/>
<path d="M101.295 170.259C88.1625 188.194 90.1039 214.827 105.635 229.683C121.166 244.538 144.32 242.029 157.425 223.98C170.529 205.93 168.588 179.64 153.085 164.613C137.583 149.586 114.4 152.295 101.295 170.259Z" fill="#FCCE00"/>
<path d="M129.788 153.977C124.022 154.083 118.364 155.561 113.285 158.288C108.205 161.016 103.85 164.914 100.582 169.66C87.2204 187.938 89.1618 215.14 104.978 230.281C111.366 236.558 119.943 240.115 128.903 240.204C134.67 240.098 140.327 238.62 145.407 235.893C150.487 233.165 154.841 229.267 158.11 224.521C171.443 206.244 169.53 179.07 153.713 163.929C147.332 157.639 138.754 154.071 129.788 153.977ZM156.654 223.466C153.551 227.981 149.414 231.691 144.588 234.289C139.762 236.888 134.385 238.3 128.903 238.408C120.396 238.331 112.254 234.946 106.206 228.97C91.0461 214.456 89.0761 188.308 102.009 170.715C105.119 166.2 109.26 162.49 114.091 159.892C118.922 157.293 124.303 155.882 129.788 155.773C138.307 155.915 146.437 159.361 152.457 165.383C167.617 179.811 169.501 205.959 156.654 223.523V223.466Z" fill="#251853"/>
<path d="M108.633 177.302C98.9543 190.561 100.382 210.179 111.802 221.157C123.222 232.135 140.352 230.253 150.03 216.994C159.709 203.735 158.281 184.117 146.861 173.167C135.441 162.218 118.311 164.043 108.633 177.302Z" fill="#4284CA"/>
<path d="M129.674 165.126C125.381 165.203 121.168 166.301 117.384 168.329C113.601 170.357 110.356 173.257 107.919 176.789C98.0123 190.361 99.3542 210.549 111.202 221.784C115.951 226.473 122.34 229.132 129.018 229.198C133.307 229.121 137.516 228.023 141.295 225.995C145.074 223.966 148.313 221.066 150.744 217.535C160.68 203.963 159.309 183.746 147.489 172.511C142.737 167.832 136.348 165.184 129.674 165.126ZM149.317 216.452C147.047 219.754 144.021 222.467 140.49 224.366C136.96 226.265 133.027 227.296 129.018 227.373C122.803 227.304 116.857 224.83 112.43 220.472C101.324 209.837 99.9537 190.675 109.375 177.701C111.649 174.403 114.675 171.692 118.205 169.793C121.734 167.894 125.666 166.861 129.674 166.78C135.918 166.913 141.862 169.482 146.233 173.937C157.339 184.459 158.71 203.592 149.317 216.48V216.452Z" fill="#251853"/>
<path d="M131.216 217.849L142.208 202.508L131.216 208.953V217.849Z" fill="white"/>
<path d="M128.389 217.849V208.953L117.398 202.508L128.389 217.849Z" fill="white"/>
<path d="M128.39 205.673V175.22L114.6 197.604L128.39 205.673Z" fill="white"/>
<path d="M131.216 205.673L145.005 197.604L131.216 175.22V205.673Z" fill="white"/>
<path d="M459.455 216.965C455.827 213.857 451.606 211.514 447.048 210.077C442.49 208.639 437.687 208.137 432.93 208.6C428.172 209.064 423.557 210.483 419.363 212.773C415.168 215.064 411.481 218.177 408.522 221.927C402.31 229.51 399.28 239.201 400.067 248.967C400.855 258.734 405.4 267.816 412.748 274.307C416.376 277.413 420.595 279.755 425.152 281.193C429.709 282.63 434.509 283.134 439.266 282.673C444.022 282.212 448.637 280.797 452.832 278.512C457.027 276.227 460.717 273.119 463.681 269.374C469.895 261.787 472.926 252.091 472.138 242.32C471.35 232.549 466.805 223.462 459.455 216.965Z" fill="#FCCE00"/>
<path d="M460.055 216.281C453.514 210.647 445.167 207.541 436.53 207.527C431.017 207.548 425.579 208.801 420.614 211.194C415.649 213.587 411.283 217.059 407.837 221.356C401.489 229.125 398.393 239.044 399.196 249.04C400 259.035 404.64 268.334 412.148 274.992C418.689 280.626 427.036 283.731 435.673 283.746C441.187 283.733 446.628 282.484 451.594 280.09C456.56 277.696 460.925 274.22 464.366 269.916C470.714 262.147 473.81 252.228 473.007 242.233C472.203 232.237 467.563 222.939 460.055 216.281ZM462.91 268.804C459.625 272.893 455.467 276.197 450.74 278.476C446.013 280.755 440.836 281.952 435.588 281.978C427.418 281.97 419.52 279.048 413.319 273.737C406.109 267.381 401.651 258.478 400.884 248.904C400.117 239.329 403.101 229.832 409.207 222.411C412.494 218.327 416.653 215.027 421.38 212.752C426.107 210.478 431.283 209.287 436.53 209.266C444.739 209.277 452.672 212.232 458.884 217.593C466.061 223.945 470.497 232.825 471.264 242.372C472.03 251.918 469.067 261.391 462.995 268.804H462.91Z" fill="#251853"/>
<path d="M460.626 219.56C457.311 216.7 453.45 214.54 449.276 213.212C445.102 211.885 440.702 211.416 436.342 211.834C431.982 212.253 427.751 213.55 423.907 215.647C420.063 217.744 416.684 220.598 413.975 224.037C408.298 230.967 405.529 239.824 406.247 248.75C406.966 257.675 411.117 265.976 417.829 271.912C421.145 274.751 425.001 276.891 429.166 278.204C433.331 279.517 437.719 279.975 442.065 279.552C446.412 279.128 450.628 277.832 454.46 275.74C458.293 273.648 461.662 270.804 464.366 267.378C470.033 260.462 472.807 251.628 472.11 242.719C471.413 233.81 467.299 225.513 460.626 219.56Z" fill="#4284CA"/>
<path d="M461.197 218.819C455.214 213.659 447.575 210.816 439.67 210.806C434.619 210.824 429.637 211.97 425.087 214.161C420.537 216.352 416.536 219.531 413.376 223.467C407.566 230.587 404.736 239.673 405.475 248.828C406.215 257.983 410.467 266.499 417.344 272.597C423.333 277.747 430.968 280.589 438.871 280.609C443.919 280.602 448.902 279.469 453.456 277.293C458.009 275.118 462.02 271.955 465.194 268.034C471.026 260.905 473.867 251.798 473.121 242.622C472.376 233.447 468.103 224.916 461.197 218.819ZM463.795 266.808C460.802 270.541 457.009 273.557 452.696 275.634C448.383 277.712 443.659 278.798 438.871 278.813C431.394 278.804 424.17 276.112 418.515 271.228C411.985 265.443 407.949 257.359 407.252 248.669C406.555 239.979 409.251 231.357 414.775 224.607C417.762 220.875 421.549 217.859 425.858 215.782C430.166 213.704 434.886 212.618 439.67 212.603C447.148 212.606 454.374 215.299 460.026 220.187C466.56 225.969 470.601 234.05 471.304 242.74C472.006 251.43 469.315 260.055 463.795 266.808Z" fill="#251853"/>
<path d="M456.343 224.778C453.695 222.521 450.619 220.82 447.298 219.778C443.977 218.735 440.48 218.372 437.015 218.71C433.55 219.048 430.19 220.08 427.133 221.745C424.077 223.41 421.389 225.673 419.228 228.399C414.692 233.934 412.479 241.009 413.054 248.139C413.629 255.269 416.947 261.898 422.312 266.637C424.96 268.894 428.036 270.595 431.357 271.637C434.678 272.68 438.175 273.043 441.64 272.705C445.104 272.367 448.465 271.335 451.521 269.67C454.578 268.005 457.266 265.742 459.427 263.016C463.956 257.478 466.165 250.405 465.59 243.277C465.015 236.15 461.702 229.521 456.343 224.778Z" fill="#FCCE00"/>
<path d="M456.8 224.094C452.037 219.983 445.965 217.699 439.67 217.65C435.602 217.661 431.589 218.581 427.923 220.342C424.258 222.103 421.033 224.662 418.486 227.829C413.79 233.542 411.499 240.853 412.095 248.221C412.692 255.588 416.129 262.436 421.684 267.321C426.491 271.449 432.617 273.724 438.956 273.737C443.019 273.722 447.027 272.8 450.688 271.039C454.348 269.277 457.568 266.721 460.112 263.558C464.786 257.832 467.052 250.519 466.434 243.158C465.817 235.797 462.363 228.962 456.8 224.094ZM458.599 262.474C456.226 265.433 453.22 267.824 449.801 269.472C446.383 271.12 442.638 271.983 438.842 271.998C432.909 271.987 427.176 269.852 422.683 265.981C417.512 261.363 414.328 254.928 413.796 248.02C413.264 241.112 415.425 234.267 419.828 228.913C422.229 225.977 425.257 223.614 428.69 221.995C432.123 220.377 435.874 219.545 439.67 219.56C445.594 219.575 451.317 221.71 455.801 225.577C460.937 230.177 464.104 236.574 464.646 243.444C465.188 250.313 463.064 257.127 458.713 262.474H458.599Z" fill="#251853"/>
<path d="M451.433 247.418C450.583 246.701 449.618 246.132 448.578 245.736C447.522 245.324 446.419 245.046 445.294 244.909V244.738C447.207 244.402 448.982 243.52 450.405 242.2C451.063 241.569 451.579 240.806 451.919 239.96C452.259 239.114 452.414 238.206 452.375 237.296C452.436 235.634 451.899 234.006 450.862 232.705C449.819 231.481 448.469 230.556 446.95 230.025C445.965 229.652 444.94 229.393 443.895 229.255C442.778 229.115 441.653 229.048 440.527 229.055H424.91V229.511C425.571 229.565 426.223 229.699 426.851 229.911C427.396 230.144 427.876 230.506 428.25 230.966C428.454 231.237 428.6 231.548 428.678 231.878C428.798 232.348 428.893 232.824 428.964 233.304C428.964 233.817 428.964 234.359 429.107 234.929C429.249 235.499 429.107 236.07 429.107 236.64C429.107 237.21 429.107 238.379 429.107 239.092C429.107 239.805 429.107 240.489 429.107 241.174V248.331C429.107 249.272 429.107 250.156 429.107 251.182C429.107 252.209 429.107 252.893 429.107 253.635C429.107 254.376 429.107 254.946 429.107 255.374C429.107 255.802 429.107 256.372 429.107 256.885C429.107 257.398 429.107 257.883 428.935 258.339C428.764 258.796 428.764 259.223 428.678 259.566C428.612 259.863 428.486 260.145 428.307 260.392C427.84 260.896 427.264 261.286 426.623 261.533C425.916 261.819 425.178 262.02 424.424 262.132V262.331H440.412C441.754 262.331 443.267 262.331 444.638 262.331C445.981 262.242 447.306 261.974 448.578 261.533C449.295 261.256 449.976 260.892 450.605 260.449C451.297 259.954 451.921 259.369 452.46 258.71C453.04 258.004 453.494 257.203 453.802 256.343C454.158 255.386 454.332 254.371 454.316 253.349C454.336 252.191 454.071 251.046 453.545 250.013C453.019 249.018 452.301 248.136 451.433 247.418ZM434.303 243.483V236.811C434.303 235.528 434.303 234.33 434.303 233.247C434.303 232.705 434.303 232.249 434.303 231.907C434.303 231.564 434.303 231.279 434.303 231.051C434.284 230.862 434.284 230.671 434.303 230.481C434.289 230.31 434.289 230.139 434.303 229.968C434.693 229.851 435.095 229.774 435.502 229.74C436.082 229.708 436.663 229.708 437.243 229.74C439.067 229.668 440.886 229.979 442.582 230.652C443.767 231.22 444.759 232.122 445.437 233.247C446.347 234.7 446.745 236.414 446.569 238.118C446.394 239.823 445.654 241.42 444.466 242.657C442.723 244.185 440.477 245.018 438.157 244.995H436.415H433.846L434.303 243.483ZM447.835 257.741C447.091 258.894 446.044 259.821 444.809 260.421C443.861 260.939 442.826 261.278 441.754 261.419C440.806 261.526 439.853 261.583 438.899 261.59C438.076 261.625 437.254 261.509 436.473 261.248C435.992 261.066 435.562 260.773 435.216 260.392C434.829 259.837 434.602 259.186 434.56 258.51C434.56 257.769 434.56 256.8 434.388 255.659C434.388 255.117 434.388 254.49 434.388 253.777V245.651H438.871C439.756 245.651 440.555 245.651 441.212 245.651C441.901 245.737 442.579 245.89 443.239 246.107C444.051 246.377 444.82 246.761 445.523 247.247C446.216 247.711 446.824 248.29 447.321 248.958C447.836 249.611 448.241 250.343 448.521 251.125C448.831 251.925 448.986 252.777 448.977 253.635C448.98 255.121 448.554 256.576 447.75 257.826L447.835 257.741ZM294.351 286.34H294.065C293.789 286.261 293.555 286.075 293.416 285.824C293.277 285.572 293.243 285.276 293.323 285C303.487 249.785 330.438 209.323 400.985 216.566C401.265 216.608 401.518 216.756 401.693 216.978C401.868 217.201 401.952 217.482 401.927 217.764C401.913 217.902 401.871 218.037 401.804 218.16C401.738 218.282 401.647 218.391 401.538 218.478C401.43 218.566 401.304 218.631 401.17 218.67C401.036 218.708 400.895 218.72 400.756 218.705C331.694 211.547 305.314 251.125 295.378 285.571C295.316 285.794 295.181 285.99 294.995 286.129C294.809 286.269 294.583 286.343 294.351 286.34ZM433.789 377.272C428.364 377.272 426.223 375.077 425.424 373.737C423.282 370.144 425.424 364.641 430.591 360.363C438.3 353.948 451.404 350.612 467.078 357.141C468.568 354.931 469.84 352.582 470.875 350.127C482.638 322.325 465.736 281.436 465.565 281.008C465.455 280.747 465.454 280.454 465.561 280.192C465.668 279.93 465.875 279.721 466.136 279.611C466.397 279.501 466.691 279.5 466.954 279.607C467.216 279.714 467.425 279.92 467.535 280.181C468.249 281.892 484.95 322.325 472.845 350.954C471.798 353.422 470.527 355.789 469.048 358.025C475.181 360.958 480.863 364.751 485.921 369.288C486.133 369.474 486.263 369.736 486.281 370.016C486.3 370.297 486.207 370.574 486.021 370.785C485.836 370.997 485.573 371.127 485.292 371.145C485.011 371.164 484.734 371.071 484.522 370.885C479.508 366.404 473.873 362.669 467.792 359.793C463.029 366.064 456.585 370.859 449.206 373.623C444.332 375.766 439.107 377.003 433.789 377.272ZM450.405 355.744C443.697 355.643 437.167 357.904 431.962 362.131C427.679 365.667 425.709 370.144 427.251 372.767C428.793 375.391 435.416 376.873 448.406 371.769C455.25 369.212 461.256 364.822 465.765 359.08C460.912 356.977 455.694 355.843 450.405 355.744ZM178.38 338.436C174.041 338.436 142.436 337.638 124.135 315.625C110.945 299.856 107.405 277.016 113.629 247.789C113.656 247.649 113.711 247.516 113.791 247.397C113.871 247.279 113.974 247.178 114.094 247.101C114.214 247.024 114.349 246.972 114.49 246.948C114.631 246.924 114.775 246.929 114.914 246.962C115.187 247.024 115.427 247.189 115.581 247.423C115.735 247.657 115.793 247.941 115.742 248.217C109.661 276.731 113.03 299.001 125.763 314.256C144.749 337.067 178.552 336.297 178.894 336.297C179.035 336.29 179.177 336.31 179.31 336.358C179.443 336.406 179.564 336.48 179.668 336.576C179.772 336.671 179.856 336.787 179.914 336.915C179.972 337.044 180.004 337.183 180.008 337.324C180.008 337.609 179.899 337.884 179.702 338.091C179.506 338.298 179.237 338.421 178.951 338.436H178.38ZM147.118 145.423H146.804C146.67 145.381 146.546 145.313 146.439 145.222C146.332 145.132 146.244 145.021 146.18 144.896C146.117 144.771 146.078 144.635 146.068 144.496C146.057 144.356 146.075 144.216 146.119 144.083C146.547 142.571 157.025 110.464 179.294 103.621C185.285 101.806 191.702 101.966 197.595 104.077C199.179 99.8586 201.088 95.7689 203.305 91.8445C212.669 75.2777 224.86 65.3832 239.535 62.4748C266.314 57.0856 292.495 77.1881 292.752 77.3877C292.973 77.5667 293.115 77.8255 293.148 78.1083C293.18 78.3911 293.099 78.6751 292.923 78.899C292.837 79.0076 292.73 79.0982 292.609 79.1656C292.488 79.233 292.354 79.2759 292.216 79.2918C292.078 79.3077 291.939 79.2963 291.805 79.2582C291.672 79.2202 291.547 79.1563 291.438 79.0701C291.182 78.899 265.743 59.3667 240.048 64.5563C226.03 67.4077 214.353 76.903 205.303 92.8995C203.091 96.7176 201.182 100.703 199.593 104.818C204.186 106.704 208.484 109.239 212.355 112.346C224.232 121.499 221.662 128.001 220.006 130.367C216.495 135.357 207.758 136.469 201.706 132.648C198.851 130.766 191 123.923 196.852 106.102C191.385 104.131 185.425 103.981 179.865 105.674C158.767 112.175 148.175 144.368 148.06 144.681C147.994 144.884 147.869 145.062 147.701 145.194C147.534 145.326 147.331 145.405 147.118 145.423ZM198.936 106.843C195.196 118.249 196.481 126.803 202.876 130.824C208.415 134.331 215.724 132.791 218.265 129.141C220.806 125.491 218.265 119.703 211.07 114.029C207.374 111.09 203.291 108.672 198.936 106.843Z" fill="#5CFFB1"/>
<path d="M302.031 93.5839C290.896 108.839 292.523 131.422 305.656 144.054C318.789 156.686 338.517 154.519 349.652 139.264C360.786 124.009 359.159 101.425 346.026 88.7935C332.893 76.1616 313.165 78.3287 302.031 93.5839Z" fill="#FCCE00"/>
<path d="M326.212 79.84C321.333 79.9297 316.545 81.1793 312.246 83.485C307.946 85.7908 304.258 89.0865 301.488 93.0991C290.068 108.582 291.867 131.622 305.228 144.425C310.596 149.81 317.862 152.881 325.47 152.979C330.35 152.892 335.138 151.643 339.438 149.337C343.738 147.031 347.426 143.734 350.194 139.72C361.614 124.237 359.844 101.197 346.483 88.3943C341.098 83.0175 333.826 79.9488 326.212 79.84ZM349.052 138.808C346.418 142.654 342.906 145.821 338.806 148.047C334.706 150.273 330.135 151.494 325.47 151.61C318.226 151.542 311.293 148.657 306.142 143.569C293.237 131.166 291.638 108.925 302.63 94.0971C305.27 90.2485 308.793 87.0862 312.905 84.8739C317.017 82.6616 321.599 81.4636 326.269 81.3797C333.442 81.459 340.31 84.2865 345.455 89.2782C358.474 101.653 360.073 123.895 349.138 138.893L349.052 138.808Z" fill="#251853"/>
<path d="M306.827 95.6084C296.634 109.552 298.262 130.196 310.167 141.716C322.073 153.236 340.173 151.297 350.337 137.353C360.501 123.41 359.045 102.651 347.025 91.2457C335.006 79.84 316.905 81.6649 306.827 95.6084Z" fill="#4284CA"/>
<path d="M328.925 83.0621C324.457 83.1512 320.075 84.299 316.139 86.4109C312.203 88.5227 308.825 91.5383 306.284 95.2092C295.949 109.466 297.463 130.453 309.71 142.201C314.654 147.069 321.297 149.829 328.239 149.9C332.708 149.815 337.092 148.669 341.028 146.557C344.965 144.445 348.342 141.427 350.88 137.753C361.215 123.495 359.702 102.509 347.482 90.761C342.528 85.8913 335.875 83.1313 328.925 83.0621ZM349.823 136.869C347.426 140.384 344.227 143.28 340.489 145.317C336.751 147.355 332.582 148.476 328.325 148.588C321.725 148.512 315.412 145.885 310.71 141.26C298.919 129.854 297.463 109.666 307.455 96.0076C309.863 92.4991 313.076 89.6156 316.825 87.597C320.574 85.5785 324.752 84.4832 329.01 84.4023C335.621 84.4652 341.948 87.0931 346.654 91.7305C358.331 103.022 359.73 123.324 349.823 136.869Z" fill="#251853"/>
<path d="M311.024 99.6289C307.036 105.168 305.12 111.929 305.61 118.734C306.101 125.539 308.966 131.957 313.707 136.869C323.414 146.193 337.946 144.624 346.14 133.361C350.083 127.837 351.973 121.111 351.483 114.344C350.993 107.577 348.154 101.193 343.457 96.2928C333.75 86.7975 319.246 88.3943 311.024 99.6289Z" fill="#FCCE00"/>
<path d="M328.868 89.3922C325.238 89.4592 321.678 90.3892 318.48 92.1049C315.283 93.8207 312.541 96.2728 310.481 99.2582C306.431 104.938 304.5 111.854 305.021 118.807C305.543 125.76 308.485 132.311 313.336 137.325C317.341 141.256 322.71 143.492 328.325 143.569C331.952 143.506 335.511 142.58 338.708 140.869C341.905 139.159 344.649 136.712 346.711 133.732C350.758 128.046 352.687 121.126 352.166 114.17C351.645 107.213 348.705 100.658 343.856 95.6368C339.854 91.7009 334.484 89.4633 328.868 89.3922ZM345.626 132.934C343.689 135.746 341.11 138.059 338.102 139.68C335.094 141.302 331.743 142.185 328.325 142.258C322.981 142.236 317.858 140.128 314.05 136.384C309.436 131.58 306.65 125.315 306.176 118.675C305.701 112.035 307.568 105.438 311.452 100.028C313.384 97.2101 315.962 94.8938 318.971 93.2719C321.981 91.6501 325.334 90.7696 328.753 90.7039C334.099 90.7168 339.225 92.8263 343.028 96.5778C347.642 101.382 350.428 107.647 350.903 114.287C351.377 120.927 349.511 127.524 345.626 132.934Z" fill="#251853"/>
<path d="M325.527 95.7509L321.787 104.106L321.759 125.491L326.812 138.38L334.378 134.901L338.803 126.176L338.974 110.322L329.01 94.3252L325.527 95.7509Z" fill="white"/>
<g style="mix-blend-mode:multiply">
<path d="M325.47 95.751L321.73 104.106V125.463L326.783 138.351L334.349 134.873L338.774 126.147L338.946 110.293L328.982 94.2968L325.47 95.751ZM337.29 109.238V121.956L331.18 129.027L322.33 125.691L323.357 121.385V104.049L326.441 96.9486L329.296 95.751L337.29 109.238Z" fill="#8686FF"/>
</g>
<path d="M329.61 94.0971C329.581 94.0185 329.536 93.9471 329.477 93.8879C329.418 93.8288 329.346 93.7834 329.267 93.7549C329.186 93.7204 329.099 93.7026 329.01 93.7026C328.922 93.7026 328.835 93.7204 328.753 93.7549L325.27 95.1806C325.123 95.2566 325.004 95.3761 324.928 95.5228L321.188 103.906C321.145 103.995 321.122 104.092 321.122 104.191C321.122 104.29 321.145 104.387 321.188 104.476L330.209 122.07C330.262 122.178 330.342 122.269 330.443 122.335C330.544 122.4 330.66 122.437 330.78 122.44C330.913 122.411 331.035 122.344 331.131 122.248C331.227 122.152 331.293 122.031 331.323 121.899L334.349 106.872C334.391 106.751 334.391 106.621 334.349 106.501L329.61 94.0971ZM330.523 119.76L322.615 104.077L326.098 96.2357L328.725 95.1806L333.236 106.757L330.523 119.76Z" fill="#251853"/>
<path d="M330.78 121.072C330.606 121.072 330.439 121.141 330.316 121.264C330.193 121.387 330.124 121.554 330.124 121.728V128.885L327.44 134.16L322.444 125.463V104.106C322.444 103.932 322.375 103.765 322.251 103.642C322.128 103.519 321.961 103.45 321.787 103.45C321.613 103.45 321.446 103.519 321.323 103.642C321.2 103.765 321.13 103.932 321.13 104.106V125.463C321.103 125.575 321.103 125.693 321.13 125.805L326.84 135.871C326.9 135.968 326.984 136.048 327.084 136.103C327.184 136.158 327.297 136.186 327.411 136.184C327.528 136.18 327.641 136.147 327.741 136.087C327.841 136.027 327.924 135.943 327.982 135.842L331.294 129.312C331.31 129.208 331.31 129.103 331.294 128.999V121.728C331.298 121.576 331.249 121.427 331.155 121.308C331.061 121.188 330.929 121.105 330.78 121.072ZM329.553 94.0972C329.511 94.0223 329.455 93.9566 329.388 93.9042C329.32 93.8518 329.242 93.8137 329.159 93.7924C329.077 93.771 328.99 93.7668 328.906 93.78C328.821 93.7932 328.74 93.8235 328.668 93.869C328.52 93.9632 328.414 94.1102 328.372 94.2799C328.329 94.4496 328.353 94.6291 328.439 94.7815L336.69 108.012L334.206 106.273C334.066 106.171 333.891 106.13 333.72 106.156C333.549 106.183 333.395 106.276 333.293 106.415C333.19 106.56 333.147 106.739 333.174 106.915C333.2 107.09 333.294 107.249 333.436 107.356L338.575 110.949C338.692 111.033 338.83 111.082 338.974 111.092C339.144 111.075 339.304 111.006 339.431 110.892C339.526 110.775 339.578 110.629 339.578 110.479C339.578 110.328 339.526 110.182 339.431 110.065L329.553 94.0972Z" fill="#251853"/>
<path d="M338.974 109.637C338.888 109.637 338.803 109.654 338.723 109.687C338.643 109.72 338.571 109.769 338.51 109.83C338.449 109.89 338.401 109.963 338.368 110.042C338.335 110.122 338.318 110.207 338.318 110.293L338.146 126.005L334.035 134.388L327.897 137.239L328.268 135.728C328.289 135.644 328.292 135.556 328.279 135.471C328.266 135.385 328.236 135.303 328.191 135.228C328.146 135.154 328.087 135.09 328.016 135.038C327.946 134.987 327.867 134.95 327.783 134.93C327.698 134.909 327.611 134.905 327.525 134.918C327.439 134.932 327.357 134.962 327.282 135.007C327.208 135.052 327.144 135.111 327.092 135.181C327.041 135.251 327.004 135.33 326.983 135.414L326.327 138.266C326.296 138.383 326.299 138.506 326.334 138.622C326.369 138.738 326.436 138.841 326.526 138.922C326.645 139.026 326.796 139.087 326.955 139.093C327.048 139.118 327.147 139.118 327.24 139.093L334.806 135.614C334.877 135.585 334.941 135.543 334.995 135.489C335.049 135.435 335.091 135.371 335.12 135.3L339.517 126.575C339.545 126.482 339.545 126.383 339.517 126.29L339.688 110.436C339.705 110.334 339.7 110.23 339.671 110.132C339.643 110.033 339.592 109.942 339.524 109.865C339.455 109.788 339.37 109.728 339.275 109.689C339.18 109.649 339.077 109.632 338.974 109.637Z" fill="#251853"/>
<path d="M338.574 125.463L330.809 128.314L322.015 124.864C321.897 124.806 321.763 124.789 321.634 124.815C321.505 124.84 321.389 124.908 321.302 125.007C321.216 125.102 321.158 125.218 321.133 125.343C321.107 125.469 321.117 125.599 321.159 125.719L326.212 138.608C326.258 138.731 326.339 138.837 326.446 138.914C326.553 138.99 326.681 139.032 326.812 139.036H327.069C327.223 138.961 327.346 138.834 327.414 138.677C327.482 138.52 327.491 138.344 327.44 138.18L322.929 126.774L330.552 129.626C330.699 129.683 330.862 129.683 331.009 129.626L339.031 126.774C339.198 126.714 339.334 126.59 339.409 126.429C339.483 126.269 339.492 126.085 339.431 125.919C339.37 125.753 339.246 125.617 339.086 125.542C338.925 125.467 338.741 125.459 338.574 125.52V125.463Z" fill="#251853"/>
<path d="M443.638 434.158H114.257V437.438H443.638V434.158Z" fill="#B7B7B7"/>
</svg>
