<svg width="22" height="22" viewBox="0 0 22 22" fill="none" xmlns="http://www.w3.org/2000/svg">
<g clip-path="url(#clip0_4057_637)">
<path d="M11 22C17.0751 22 22 17.0751 22 11C22 4.92487 17.0751 0 11 0C4.92487 0 0 4.92487 0 11C0 17.0751 4.92487 22 11 22Z" fill="#26A17B"/>
<path fill-rule="evenodd" clip-rule="evenodd" d="M12.3222 11.9502V11.9489C12.2465 11.9544 11.8567 11.9777 10.987 11.9777C10.2927 11.9777 9.80384 11.9571 9.63197 11.9489V11.9509C6.95897 11.8334 4.96384 11.3679 4.96384 10.8111C4.96384 10.2542 6.95897 9.78944 9.63197 9.66981V11.4876C9.80659 11.4999 10.3071 11.5295 10.9987 11.5295C11.8285 11.5295 12.2445 11.4951 12.3222 11.4883V9.67119C14.9897 9.79012 16.98 10.2556 16.98 10.8111C16.98 11.3679 14.9897 11.832 12.3222 11.9502ZM12.3222 9.48213V7.8555H16.0443V5.375H5.90984V7.8555H9.63197V9.48144C6.60697 9.62031 4.33203 10.2198 4.33203 10.9376C4.33203 11.6553 6.60697 12.2541 9.63197 12.3937V17.6063H12.3222V12.3923C15.3423 12.2534 17.6118 11.6546 17.6118 10.9376C17.6118 10.2205 15.3423 9.62169 12.3222 9.48213Z" fill="white"/>
</g>
<defs>
<clipPath id="clip0_4057_637">
<rect width="22" height="22" fill="white"/>
</clipPath>
</defs>
</svg>
