<svg width="82" height="90" viewBox="0 0 82 90" fill="none" xmlns="http://www.w3.org/2000/svg">
<path d="M19.5381 7.03711L16.9414 9.63379L16.5879 9.98633L16.9404 10.3398L27.8389 21.2881C29.4415 22.898 31.6205 23.8037 33.8926 23.8037H39.9023L42.3848 31.8789L42.8994 33.5537L43.3457 31.8594L45.4668 23.8076C52.288 23.9073 58.8088 26.6575 63.6396 31.4863L71.126 38.9707L71.4795 39.3242L74.5215 36.2822L80.7705 55.0215L62.0234 48.7744L64.5195 46.2812L64.8721 45.9287L64.5205 45.5752L55.7988 36.8135L54.9443 35.9561V84.1318C54.9443 86.6842 52.8532 88.7615 50.2637 88.7617C47.674 88.7617 45.5831 86.6843 45.583 84.1318V59.8135H39.7725V84.1318C39.7724 86.6842 37.6813 88.7616 35.0918 88.7617C32.5021 88.7617 30.4112 86.6843 30.4111 84.1318V40.167C30.4111 38.1133 29.5931 36.1439 28.1387 34.6934L10.3379 16.9395L9.98438 16.5869L9.63184 16.9395L7.03906 19.5293L0.791016 0.790039L19.5381 7.03711ZM42.7129 2.91113C47.2903 2.91137 50.9951 6.59344 50.9951 11.1279C50.995 15.6623 47.2902 19.3445 42.7129 19.3447C38.1353 19.3447 34.4308 15.6625 34.4307 11.1279C34.4307 6.59329 38.1353 2.91113 42.7129 2.91113Z" fill="url(#paint0_linear_234_1634)" stroke="url(#paint1_linear_234_1634)"/>
<defs>
<linearGradient id="paint0_linear_234_1634" x1="40.7813" y1="0" x2="40.7813" y2="89.2618" gradientUnits="userSpaceOnUse">
<stop stop-color="white"/>
<stop offset="1" stop-color="#5CFFB1"/>
</linearGradient>
<linearGradient id="paint1_linear_234_1634" x1="40.7813" y1="0" x2="40.7813" y2="89.2618" gradientUnits="userSpaceOnUse">
<stop stop-color="white"/>
<stop offset="1" stop-color="#5CFFB1"/>
</linearGradient>
</defs>
</svg>
